<svg id="Layer_1" data-name="Layer 1" xmlns="http://www.w3.org/2000/svg" xmlns:xlink="http://www.w3.org/1999/xlink" viewBox="0 0 215.0041 230"><defs><style>.cls-1{fill:none;}.cls-2{fill:#007890;}.cls-3{clip-path:url(#clip-path);}.cls-4{fill:url(#linear-gradient);}.cls-5{clip-path:url(#clip-path-2);}.cls-6{fill:url(#linear-gradient-2);}.cls-7{fill:url(#linear-gradient-3);}.cls-8{clip-path:url(#clip-path-3);}.cls-9{fill:url(#linear-gradient-4);}.cls-10{fill:#449869;}.cls-11{fill:#c0d886;}.cls-12{clip-path:url(#clip-path-4);}.cls-13{fill:url(#linear-gradient-5);}.cls-14{fill:#cdce00;}.cls-15{clip-path:url(#clip-path-5);}.cls-16{fill:url(#linear-gradient-6);}.cls-17{fill:#aec754;}</style><clipPath id="clip-path"><path class="cls-1" d="M127.3182,58.4631c15.6661-4.9106,32.3633-11.0152,49.304-21.1889a167.4115,167.4115,0,0,1-11.4292,65.1176l-.0015-.0006a176.6349,176.6349,0,0,1,43.8531,45.0877,107.3166,107.3166,0,0,0,3.7029-13.0918c11.32-52.7407-22.52-96.0673-45.17-118.2779-.0749-.0739-.1538-.15-.23-.2235-.0709-.07-.14-.1377-.2117-.2076A171.25,171.25,0,0,0,148.9057,0c-.8928,4.5529-1.9533,8.9541-3.1487,13.2176l-.1029.3682C140.92,30.3315,134.1069,44.973,127.3172,58.46Z"/></clipPath><linearGradient id="linear-gradient" x1="105.8618" y1="39.8609" x2="236.1986" y2="109.1622" gradientUnits="userSpaceOnUse"><stop offset="0" stop-color="#007990"/><stop offset="0.524" stop-color="#007990"/><stop offset="0.6127" stop-color="#007990"/><stop offset="0.7722" stop-color="#3092a7"/><stop offset="0.8559" stop-color="#449cb0"/><stop offset="0.9741" stop-color="#449cb0"/><stop offset="0.9936" stop-color="#449cb0"/></linearGradient><clipPath id="clip-path-2"><path class="cls-1" d="M111.9,162.1353c8.2218,15.9027,22.5811,33.67,45.5577,54.5976a238.0247,238.0247,0,0,0,21.246-20.4345c1.461-1.59,4.2422-4.8592,4.2422-4.8592,12.7572-15.091,21.1227-29.8138,26.0985-43.96a176.6349,176.6349,0,0,0-43.8531-45.0877c-9.0207,22.4421-25.0189,45.4948-53.2913,59.7441v0Z"/></clipPath><linearGradient id="linear-gradient-2" x1="98.354" y1="126.1746" x2="222.8276" y2="192.3584" gradientUnits="userSpaceOnUse"><stop offset="0.0448" stop-color="#038197"/><stop offset="0.3066" stop-color="#017d93"/><stop offset="0.4135" stop-color="#007990"/><stop offset="0.4702" stop-color="#13849a"/><stop offset="0.5497" stop-color="#3598ac"/><stop offset="0.5938" stop-color="#5aa6b6"/><stop offset="0.6543" stop-color="#87b7c3"/><stop offset="0.6848" stop-color="#98bdc8"/><stop offset="0.7829" stop-color="#84b2be"/><stop offset="0.9132" stop-color="#6fa7b5"/><stop offset="1" stop-color="#68a3b1"/></linearGradient><linearGradient id="linear-gradient-3" x1="122.4712" y1="225.2917" x2="196.8768" y2="96.4173" gradientUnits="userSpaceOnUse"><stop offset="0.1288" stop-color="#007990" stop-opacity="0.5"/><stop offset="0.9485" stop-color="#b1d1db" stop-opacity="0.8"/></linearGradient><clipPath id="clip-path-3"><path class="cls-1" d="M111.8963,162.1164c-5.7462-11.1153-8.4945-21.3086-9.0707-31.006q-.1182-1.9951-.1188-3.9662c.003-16.64,6.2035-31.9559,14.2136-48.1968a192.2028,192.2028,0,0,0-30.4185-6.5315c.3775,3.4723.784,6.8747,1.1794,10.2113l-.004.001c1.2054,10.1734,2.32,19.787,2.3209,29.0025.001,9.6575-1.2184,18.88-4.8374,27.852-5.0481,12.5222-14.7659,24.56-32.3568,36.6235q.7983-.0254,1.5888-.0588c1.9553-.0739,6.0717-.38,6.1855-.39l.05-.004c20.478-1.6279,37.3549-6.5054,51.2618-13.5127l.0147-.0076Z"/></clipPath><linearGradient id="linear-gradient-4" x1="74.9845" y1="180.1121" x2="94.7398" y2="68.0741" gradientUnits="userSpaceOnUse"><stop offset="0.091" stop-color="#c0d889"/><stop offset="1" stop-color="#d3e3ad"/></linearGradient><clipPath id="clip-path-4"><path class="cls-1" d="M116.9164,78.9544l-.012.0259C108.44,96.1451,102,112.2832,102.7707,130.04v.009c.003.0649.007.1317.009.1976l.002.0419c.002.0429.005.0888.006.1317l.006.1008c.002.0389.003.0758.005.1137l.006.0888c.001.0479.004.0968.007.1447.002.0239.002.0469.004.0708.0039.0579.007.1138.01.1717.5762,9.6974,3.3331,19.9073,9.0792,31.0226,28.2634-14.25,44.251-37.3137,53.2747-59.75A167.3135,167.3135,0,0,0,116.92,78.9474l-.004.007"/></clipPath><linearGradient id="linear-gradient-5" x1="125.9985" y1="166.7349" x2="142.3443" y2="74.0334" gradientUnits="userSpaceOnUse"><stop offset="0.091" stop-color="#549e72"/><stop offset="1" stop-color="#8cba9a"/></linearGradient><clipPath id="clip-path-5"><path class="cls-1" d="M.3965,134.1606c10.5466,13.7494,19.6971,27.47,28.4192,40.5069l.007-.004q3.8692,5.7846,7.6625,11.3846h0c28.228-15.4375,42.2442-30.6088,48.6755-46.5648,7.0723-17.535,4.9861-36.02,2.5165-56.8545h0l.004-.001c-.3953-3.3373-.8-6.74-1.1789-10.2118h0A224.6963,224.6963,0,0,0,56.83,70.4972a268.7373,268.7373,0,0,0-41.9118,3.4044l0,0C4.7429,89.7877-1.6965,109.6737.3965,134.1606Z"/></clipPath><linearGradient id="linear-gradient-6" x1="34.0956" y1="192.621" x2="56.9124" y2="63.2206" gradientUnits="userSpaceOnUse"><stop offset="0.1892" stop-color="#cdce00"/><stop offset="1" stop-color="#e3e288"/></linearGradient></defs><title>1_rab_leaves_cmyk_vector_gradientz</title><path class="cls-2" d="M151.1623,221.7743a58.57,58.57,0,0,1-10.1551,5.0737A55.7538,55.7538,0,0,1,127.6235,230l5.4186-25.5911a116.0634,116.0634,0,0,0,8.2817,9.1646,88.2336,88.2336,0,0,0,9.8385,8.2008Z"/><g class="cls-3"><rect class="cls-4" x="127.0562" width="87.9479" height="149.0231"/></g><g class="cls-5"><rect class="cls-6" x="111.3141" y="101.8002" width="98.5534" height="114.9327"/><rect class="cls-7" x="111.3141" y="101.8002" width="98.5534" height="114.9327"/></g><g class="cls-8"><rect class="cls-9" x="52.804" y="71.9851" width="64.1164" height="104.2159"/></g><path class="cls-10" d="M176.6177,37.2716c-16.9378,10.1814-33.636,16.28-49.3046,21.1889-1.5968,3.1729-3.1937,6.289-4.7605,9.3452l.004.003c-11.2157,21.8693-21.0413,41.3131-19.7311,63.3021.5762,9.6965,3.3245,19.8908,9.0706,31.0051,70.1223-35.3524,64.7216-124.8443,64.7216-124.8443Z"/><path class="cls-11" d="M86.4123,71.5842c8.47-3.38,17.6-6.12,27.22-8.98,4.46-1.326,9.0313-2.6819,13.6944-4.1437h-.0135c-1.5968,3.1729-3.1937,6.289-4.7605,9.3452l.004.003c-1.9369,3.7767-3.8323,7.4811-5.6361,11.1387h0a192.2028,192.2028,0,0,0-30.4185-6.5315h0q-.0452-.4136-.09-.8285Z"/><g class="cls-12"><rect class="cls-13" x="102.5947" y="78.1601" width="63.1534" height="84.4481"/></g><path class="cls-14" d="M87.6772,82.6287l.004-.001c-2.195-18.5318-4.6926-39.0791-1.2663-62.3153,0,0-116.9432,37.47-78.7454,146.515l-.011.0778q.8868,2.489,1.8894,5.0269A202.8224,202.8224,0,0,0,20.0286,194.32c39.4561-18.3351,57.5564-36.0418,65.1321-54.837,7.0723-17.535,4.9861-36.02,2.5165-56.8545Z"/><g class="cls-15"><rect class="cls-16" y="69.2326" width="91.008" height="117.3765"/></g><path class="cls-17" d="M52.8333,176.0857c17.5732-12.0561,27.2832-24.088,32.3274-36.6025,7.0723-17.535,4.9861-36.02,2.5165-56.8545h0l.004-.001c-.4267-3.6023-.8648-7.2807-1.2686-11.04h.0012C75.63,75.8947,65.9059,81.2538,57.5962,89.259c-15.9092,15.3179-26.6436,40.3283-29.7224,86.2152a223.411,223.411,0,0,0,24.958.6125Z"/></svg>