<svg width="294" height="40" viewBox="0 0 294 40" fill="none" xmlns="http://www.w3.org/2000/svg">
<path d="M3.42475 33.8857C0.0990687 27.496 -0.780793 21.8025 0.785171 16.8052C2.35113 11.8078 7.08768 7.48797 14.9948 3.84564C14.8018 7.79144 14.8018 10.5803 14.9948 12.2121C15.5381 16.8052 15.8909 18.9631 15.5381 22.2741C15.2897 24.6048 13.6303 27.5803 10.1277 30.2418C8.95826 31.1304 6.72395 32.3451 3.42475 33.8857Z" fill="#CDCE00"/>
<path d="M3.43159 33.8856C1.75428 30.0631 0.749404 27.2809 0.416951 25.5388C-0.205627 22.2766 -0.000552185 19.2797 0.871185 16.5415C1.17332 15.5924 1.72358 14.4846 2.52197 13.2181C5.31365 13.0734 7.40488 12.9812 8.79567 12.9417C10.1865 12.9021 12.2728 12.8829 15.0547 12.884C15.6381 17.0679 15.8119 20.2488 15.5761 22.4271C15.327 24.727 13.6634 27.6633 10.1518 30.2897C8.97933 31.1667 6.73926 32.3653 3.43159 33.8856Z" fill="url(#paint0_linear)"/>
<path d="M27.5338 37.6353C34.175 31.6847 37.497 25.6551 37.4999 19.5464C37.5028 13.4378 33.6758 7.07797 26.019 0.466912C24.61 5.02324 23.601 7.85209 22.9921 8.95347C21.155 12.2763 18.8668 16.2466 18.0685 20.0392C17.5065 22.7089 18.1971 27.1434 21.2995 31.3895C22.3354 32.8071 24.4134 34.8891 27.5338 37.6353Z" fill="url(#paint1_linear)"/>
<path d="M9.8907 30.4746C13.5303 30.242 16.6964 29.4914 19.4283 28.221C20.1134 27.9024 17.4726 24.8117 17.9477 20.8148C18.2049 18.6507 19.2034 16.2866 20.1182 14.3833C21.1372 12.2632 22.0455 10.7319 22.0076 10.7431C19.0059 11.6277 16.9891 12.184 15.0823 12.9361C15.0823 12.9419 15.1935 13.4596 15.272 14.5317C15.3505 15.6037 15.5356 17.2649 15.6043 18.8656C15.6802 20.6337 15.7765 22.409 15.1887 24.0652C14.6381 25.6163 13.636 26.9762 12.723 27.9715C11.2327 29.5961 9.8907 30.4746 9.8907 30.4746Z" fill="#C0D886"/>
<path d="M19.4176 28.2244C20.8876 27.541 22.2399 26.7049 23.4647 25.7203C26.4218 23.3432 28.235 20.6789 28.9043 17.7276C27.5046 16.8525 26.2307 16.1343 25.0827 15.5731C23.9346 15.0118 22.3641 14.4338 20.3712 13.8389C19.8088 15.0208 19.4217 15.8771 19.21 16.4075C18.4526 18.3048 18.0498 19.8248 17.9112 20.8939C17.7819 21.8919 17.9157 23.4529 18.2388 24.8585C18.6526 26.6585 19.4001 28.2244 19.4176 28.2244Z" fill="#70AB84"/>
<path d="M5.10895 30.5015C6.75323 30.5812 8.39448 30.5701 9.88928 30.4747C9.90221 30.4746 10.7702 29.8773 11.7969 28.9156C12.0658 28.6637 12.3392 28.3823 12.6185 28.0855C13.8154 26.8137 15.0059 25.0923 15.4412 23.1489C15.6444 22.2419 15.6649 21.2878 15.6774 20.3756C15.6928 19.2533 15.6334 18.1577 15.5559 17.1648C15.4574 15.9043 15.3077 14.8139 15.2109 14.0552C15.1214 13.3543 15.0807 12.9361 15.0807 12.9361C14.0894 13.3296 13.0893 13.7919 12.0281 14.3628C9.76683 15.5791 7.41641 18.3759 6.12063 22.748C5.688 24.2077 5.35078 26.7922 5.10895 30.5015Z" fill="#9DC15F"/>
<path d="M28.9058 17.7479C29.3524 16.5159 29.9822 14.607 30.3779 12.1803C30.5367 11.2062 30.7142 9.50231 30.9103 7.06871C26.991 8.91718 24.1664 10.0972 22.4365 10.6088C22.3278 10.641 22.1844 10.6858 22.0063 10.7434C21.695 11.31 21.4578 11.7447 21.2945 12.0472C21.0755 12.4529 20.7119 13.1595 20.3791 13.8236C21.4857 14.1767 22.3134 14.4289 22.7944 14.6077C23.6176 14.9139 24.3379 15.2348 24.9865 15.5288C26.8121 16.3565 28.9058 17.7479 28.9058 17.7479Z" fill="#449869"/>
<path d="M23.0697 35.7465C23.7426 36.5093 24.2544 37.0501 24.605 37.3687C24.9555 37.6873 25.4881 38.0958 26.2028 38.594C25.6548 38.8997 25.1221 39.1423 24.605 39.322C24.0878 39.5017 23.2715 39.7277 22.1562 40L23.0697 35.7465Z" fill="#007890"/>
<path d="M27.5328 37.6352C30.3374 34.791 32.3065 32.6228 33.4403 31.1306C34.3502 29.933 36.3447 25.9263 36.6217 25.2243C31.6837 17.9459 22.4127 12.8842 13.5067 12.8842C9.74347 12.8842 5.9402 12.9038 2.43676 13.2412C1.04498 15.9385 -0.221703 17.9141 0.032804 23.2343C0.287311 28.5544 3.42435 33.8857 3.42435 33.8857C3.42842 33.8857 4.56422 33.4171 6.68919 32.3041C7.29758 31.9854 8.38199 31.3755 9.94242 30.4743C12.1431 30.2554 13.7963 30.0136 14.902 29.7491C16.0077 29.4846 17.5097 28.9714 19.4082 28.2097C20.5532 30.2087 21.6248 31.7872 22.623 32.9451C23.6211 34.103 25.2577 35.6664 27.5328 37.6352Z" fill="url(#paint2_linear)" fill-opacity="0.71"/>
<path fill-rule="evenodd" clip-rule="evenodd" d="M210.999 7.40948V27.3171H212.742V7.40948H210.999ZM180.253 16.0557V14.5551H182.211V11.4539H183.969V14.5551H187.57V16.0557H183.969V23.8301C183.969 24.6304 184.121 25.2115 184.426 25.5736C184.731 25.9356 185.193 26.1166 185.812 26.1166C186.479 26.1166 187.27 25.8832 188.184 25.4164V26.9598C187.346 27.3886 186.427 27.6029 185.426 27.6029C184.435 27.6029 183.649 27.3171 183.068 26.7455C182.497 26.1738 182.211 25.2639 182.211 24.0158V16.0557H180.253ZM145.562 23.7729C145.562 22.5248 146.105 21.5768 147.192 20.9289C148.278 20.2716 149.802 19.9429 151.765 19.9429H153.194V18.3851C153.194 17.5753 152.956 16.9608 152.479 16.5416C152.003 16.1128 151.346 15.8984 150.507 15.8984C149.316 15.8984 148.068 16.2414 146.763 16.9274V15.2553C147.982 14.598 149.297 14.2693 150.707 14.2693C153.537 14.2693 154.952 15.6031 154.952 18.2708V27.0884C153.866 27.3933 152.656 27.5458 151.322 27.5458C149.512 27.5458 148.097 27.2409 147.077 26.6311C146.067 26.0214 145.562 25.0686 145.562 23.7729ZM148.549 21.9722C147.73 22.3628 147.32 22.9631 147.32 23.7729C147.32 24.5827 147.687 25.1734 148.421 25.545C149.164 25.907 150.164 26.0881 151.422 26.0881C151.993 26.0881 152.584 26.0309 153.194 25.9166V21.372H151.879C150.488 21.372 149.378 21.5721 148.549 21.9722ZM158.107 23.1584V14.5551H159.865V23.0726C159.865 25.0829 161.17 26.0881 163.781 26.0881C164.714 26.0881 165.653 26.0309 166.596 25.9166V14.5551H168.354V27.1742C166.791 27.46 165.31 27.6029 163.909 27.6029C162.004 27.6029 160.561 27.2504 159.579 26.5454C158.598 25.8404 158.107 24.7113 158.107 23.1584ZM172.238 15.1696C171.505 15.7698 171.138 16.6178 171.138 17.7134C171.138 18.7138 171.386 19.4903 171.881 20.0429C172.376 20.5955 173.201 21.0671 174.353 21.4577C174.963 21.6578 175.42 21.8198 175.725 21.9436C176.03 22.0675 176.34 22.2342 176.654 22.4438C176.969 22.6439 177.188 22.8725 177.312 23.1298C177.436 23.387 177.497 23.7014 177.497 24.073C177.497 25.4354 176.616 26.1166 174.854 26.1166C173.577 26.1166 172.376 25.6117 171.252 24.6018V26.5883C171.643 26.8931 172.162 27.1361 172.81 27.3171C173.458 27.5077 174.139 27.6029 174.854 27.6029C176.13 27.6029 177.174 27.2933 177.983 26.674C178.803 26.0547 179.212 25.1448 179.212 23.9444C179.212 23.3823 179.127 22.8916 178.955 22.4724C178.784 22.0532 178.522 21.7007 178.169 21.4148C177.826 21.1195 177.445 20.8765 177.026 20.686C176.616 20.4859 176.106 20.2954 175.497 20.1144C174.515 19.8095 173.825 19.4808 173.424 19.1283C173.034 18.7662 172.839 18.2946 172.839 17.7134C172.839 17.1132 173.048 16.6368 173.467 16.2843C173.887 15.9318 174.449 15.7555 175.154 15.7555C175.84 15.7555 176.449 15.8746 176.983 16.1128C177.526 16.3415 178.074 16.6797 178.626 17.1275V15.2268C177.712 14.5884 176.554 14.2693 175.154 14.2693C173.953 14.2693 172.981 14.5694 172.238 15.1696ZM190.54 15.727V27.3171H192.283V16.6702C193.045 16.2319 194.003 16.0128 195.156 16.0128C196.013 16.0128 196.766 16.1223 197.414 16.3415V14.6122C196.68 14.4407 195.965 14.355 195.27 14.355C193.574 14.355 191.997 14.8123 190.54 15.727ZM198.154 23.7729C198.154 22.5248 198.697 21.5768 199.783 20.9289C200.869 20.2716 202.394 19.9429 204.356 19.9429H205.785V18.3851C205.785 17.5753 205.547 16.9608 205.071 16.5416C204.595 16.1128 203.937 15.8984 203.099 15.8984C201.908 15.8984 200.66 16.2414 199.354 16.9274V15.2553C200.574 14.598 201.889 14.2693 203.299 14.2693C206.128 14.2693 207.543 15.6031 207.543 18.2708V27.0884C206.457 27.3933 205.247 27.5458 203.913 27.5458C202.103 27.5458 200.688 27.2409 199.669 26.6311C198.659 26.0214 198.154 25.0686 198.154 23.7729ZM201.141 21.9722C200.321 22.3628 199.912 22.9631 199.912 23.7729C199.912 24.5827 200.279 25.1734 201.012 25.545C201.755 25.907 202.756 26.0881 204.013 26.0881C204.585 26.0881 205.176 26.0309 205.785 25.9166V21.372H204.471C203.08 21.372 201.97 21.5721 201.141 21.9722ZM215.969 10.5821C215.969 10.2201 216.098 9.91044 216.355 9.6532C216.622 9.38643 216.932 9.25305 217.284 9.25305C217.646 9.25305 217.956 9.38643 218.213 9.6532C218.47 9.91044 218.599 10.2201 218.599 10.5821C218.599 10.9346 218.47 11.2443 218.213 11.5111C217.956 11.7683 217.646 11.8969 217.284 11.8969C216.932 11.8969 216.622 11.7683 216.355 11.5111C216.098 11.2443 215.969 10.9346 215.969 10.5821ZM216.412 27.3171V14.5551H218.156V27.3171H216.412ZM222.426 20.9289C221.34 21.5768 220.797 22.5248 220.797 23.7729C220.797 25.0686 221.302 26.0214 222.312 26.6311C223.331 27.2409 224.746 27.5458 226.556 27.5458C227.89 27.5458 229.1 27.3933 230.186 27.0884V18.2708C230.186 15.6031 228.771 14.2693 225.942 14.2693C224.532 14.2693 223.217 14.598 221.997 15.2553V16.9274C223.303 16.2414 224.551 15.8984 225.742 15.8984C226.58 15.8984 227.237 16.1128 227.714 16.5416C228.19 16.9608 228.428 17.5753 228.428 18.3851V19.9429H226.999C225.037 19.9429 223.512 20.2716 222.426 20.9289ZM222.555 23.7729C222.555 22.9631 222.964 22.3628 223.784 21.9722C224.613 21.5721 225.723 21.372 227.114 21.372H228.428V25.9166C227.819 26.0309 227.228 26.0881 226.656 26.0881C225.399 26.0881 224.398 25.907 223.655 25.545C222.922 25.1734 222.555 24.5827 222.555 23.7729ZM143.712 7.41461H139.556L136.073 27.3171H140.229L143.712 7.41461ZM92.8194 14.1463H88.6633L86.3511 27.3171H90.5072L92.8194 14.1463ZM91.356 12.5658C92.6146 12.5658 93.7268 11.5122 93.7268 10.1951C93.7268 8.84875 92.6146 7.79509 91.356 7.79509C90.0389 7.79509 88.956 8.84875 88.956 10.1951C88.956 11.5122 90.0389 12.5658 91.356 12.5658ZM69.4567 23.0732C68.0518 23.7463 66.7054 24.1268 64.9786 24.1268C63.4566 24.1268 62.1396 23.5122 61.8469 22.078V21.9902H70.0128C70.3932 21.0244 70.5981 19.8537 70.5981 19.0927C70.5981 16.078 68.8713 13.8536 65.0371 13.8536C60.442 13.8536 57.7493 17.2488 57.7493 21.3463C57.7493 25.5024 60.4713 27.6098 64.3347 27.6098C66.1201 27.6098 67.4664 27.3756 68.842 26.7317L69.4567 23.0732ZM61.9932 19.5902C62.3737 18.1268 63.3396 17.161 64.8615 17.161C66.003 17.161 66.7054 17.8634 66.7054 18.9756C66.7054 19.1805 66.6762 19.3853 66.6469 19.5902L66.6469 19.5902H61.9932ZM58.0971 14.3219C57.102 14.0293 56.3995 13.9122 55.2581 13.9122C53.5898 13.9122 51.102 14.3805 49.6385 15.1122L47.502 27.3171H51.6581L53.2971 18.0097C53.7947 17.8927 54.5556 17.8341 55.2288 17.8341C56.2239 17.8341 56.9264 17.9512 57.4239 18.1854L58.0971 14.3219ZM76.5995 32.8781C74.7556 32.8781 72.7068 32.3805 71.5361 31.5025L72.18 27.8439C73.4678 28.7805 74.9019 29.3951 76.5702 29.3951C78.3556 29.3951 79.2629 28.6342 79.5556 27.1415L79.6142 26.8488C79.2922 26.9951 78.7068 27.1415 77.741 27.1415C74.1995 27.1415 71.741 25.122 71.741 21.3463C71.741 16.7512 74.7849 13.8536 79.702 13.8536C82.3068 13.8536 84.4142 14.5561 85.7898 15.4049L83.741 26.9951C82.9507 31.5025 80.4044 32.8781 76.5995 32.8781ZM78.8532 23.7171C79.2922 23.7171 79.702 23.6585 80.1995 23.5415L81.2239 17.7756C80.7556 17.5707 80.1995 17.4536 79.4385 17.4536C77.3898 17.4536 75.9849 18.6829 75.9849 20.9951C75.9849 22.6634 76.9507 23.7171 78.8532 23.7171ZM107.415 20.1756C107.415 24.3317 104.635 27.6098 99.9813 27.6098C95.9422 27.6098 93.4544 24.9463 93.4544 21.2878C93.4544 17.1317 96.2349 13.8536 100.889 13.8536C104.928 13.8536 107.415 16.5171 107.415 20.1756ZM97.5813 21.2C97.5813 22.9268 98.5471 24.1561 100.128 24.1561C102.001 24.1561 103.289 22.4585 103.289 20.2927C103.289 18.5658 102.323 17.3366 100.742 17.3366C98.8691 17.3366 97.5813 19.0341 97.5813 21.2ZM120.475 27.3171L121.821 19.5902C121.909 19.0049 121.968 18.3902 121.968 17.8927C121.968 14.878 119.978 13.8536 116.729 13.8536C114.651 13.8536 111.987 14.4975 110.319 15.0829L108.182 27.3171H112.338L113.977 17.8927C114.651 17.6878 115.382 17.5707 116.056 17.5707C117.168 17.5707 117.724 18.0976 117.724 18.9463C117.724 19.0927 117.724 19.2976 117.665 19.6195L116.319 27.3171H120.475ZM129.026 17.3658C127.826 17.3658 126.187 17.6585 125.075 18.2732L125.689 14.761C126.889 14.1756 128.587 13.8536 130.167 13.8536C133.094 13.8536 135.055 14.9658 135.055 17.7171C135.055 18.1561 134.997 18.7122 134.909 19.239L133.563 26.9659C132.128 27.3171 130.489 27.6098 128.704 27.6098C125.25 27.6098 122.938 26.3805 122.938 23.6878C122.938 20.6732 125.485 19.4146 129.377 19.4146H130.782L130.811 19.2976C130.87 19.0049 130.899 18.7707 130.899 18.6244C130.899 17.7171 130.372 17.3658 129.026 17.3658ZM129.875 24.5073L130.343 21.961H129.348C127.826 21.961 127.036 22.4585 127.036 23.4244C127.036 24.2732 127.738 24.6244 128.704 24.6244C128.997 24.6244 129.465 24.5951 129.875 24.5073ZM237.814 7.41461L234.507 26.3512C235.678 27.1415 238.283 27.6098 240.595 27.6098C245.717 27.6098 248.79 24.6829 248.79 20C248.79 16.2244 246.331 13.8536 242.731 13.8536C241.941 13.8536 241.414 13.9707 240.8 14.1756L241.97 7.41461H237.814ZM240.156 17.8634C240.653 17.5707 241.209 17.4244 242.029 17.4244C243.58 17.4244 244.634 18.478 244.634 20.2341C244.634 22.6634 243.083 24.0976 240.829 24.0976C240.039 24.0976 239.453 23.9805 239.102 23.8342L240.156 17.8634ZM251.652 18.2732C252.765 17.6585 254.404 17.3658 255.604 17.3658C256.95 17.3658 257.477 17.7171 257.477 18.6244C257.477 18.7707 257.448 19.0049 257.389 19.2976L257.36 19.4146H255.955C252.062 19.4146 249.516 20.6732 249.516 23.6878C249.516 26.3805 251.828 27.6098 255.282 27.6098C257.067 27.6098 258.706 27.3171 260.14 26.9659L261.487 19.239C261.574 18.7122 261.633 18.1561 261.633 17.7171C261.633 14.9658 259.672 13.8536 256.745 13.8536C255.165 13.8536 253.467 14.1756 252.267 14.761L251.652 18.2732ZM256.921 21.961L256.452 24.5073C256.043 24.5951 255.574 24.6244 255.282 24.6244C254.316 24.6244 253.613 24.2732 253.613 23.4244C253.613 22.4585 254.404 21.961 255.926 21.961H256.921ZM276.29 19.5902L274.943 27.3171H270.787L272.134 19.6195C272.192 19.2976 272.192 19.0927 272.192 18.9463C272.192 18.0976 271.636 17.5707 270.524 17.5707C269.851 17.5707 269.119 17.6878 268.446 17.8927L266.807 27.3171H262.651L264.787 15.0829C266.456 14.4975 269.119 13.8536 271.197 13.8536C274.446 13.8536 276.436 14.878 276.436 17.8927C276.436 18.3902 276.378 19.0049 276.29 19.5902ZM286.743 27.3171H291.221L287.504 20.3219L293.416 14.1463H288.441L283.143 20.1756L286.743 27.3171ZM285.221 7.41461H281.065L277.582 27.3171H281.738L285.221 7.41461Z" fill="#015060"/>
<defs>
<linearGradient id="paint0_linear" x1="7.49375" y1="18.4493" x2="6.09618" y2="29.0076" gradientUnits="userSpaceOnUse">
<stop stop-color="#D1D151"/>
<stop offset="1" stop-color="#CDCE00"/>
</linearGradient>
<linearGradient id="paint1_linear" x1="32.5143" y1="27.0609" x2="26.6252" y2="24.2934" gradientUnits="userSpaceOnUse">
<stop stop-color="#429CB2"/>
<stop offset="1" stop-color="#017991"/>
</linearGradient>
<linearGradient id="paint2_linear" x1="14.5484" y1="25.5962" x2="18.801" y2="4.45653" gradientUnits="userSpaceOnUse">
<stop stop-color="white" stop-opacity="0"/>
<stop offset="1" stop-color="#EEEEEE"/>
</linearGradient>
</defs>
</svg>
