<?xml version="1.0" encoding="UTF-8"?>
<svg width="500px" height="432px" viewBox="0 0 500 432" version="1.1" xmlns="http://www.w3.org/2000/svg" xmlns:xlink="http://www.w3.org/1999/xlink">
    <!-- Generator: Sketch 63.1 (92452) - https://sketch.com -->
    <title>2.0_PL_OaO"Amount borrowed" </title>
    <desc>Created with Sketch.</desc>
    <defs>
        <linearGradient x1="50%" y1="100%" x2="50%" y2="0%" id="linearGradient-1">
            <stop stop-color="#FFFFFF" offset="0%"></stop>
            <stop stop-color="#ECF3FA" offset="100%"></stop>
        </linearGradient>
        <filter x="0.0%" y="0.0%" width="100.0%" height="100.0%" filterUnits="objectBoundingBox" id="filter-2">
            <feGaussianBlur stdDeviation="0" in="SourceGraphic"></feGaussianBlur>
        </filter>
    </defs>
    <g id="2.0_PL_OaO&quot;Amount-borrowed&quot;-" stroke="none" stroke-width="1" fill="none" fill-rule="evenodd">
        <g id="Background" transform="translate(249.500000, 216.000000) scale(-1, 1) translate(-249.500000, -216.000000) ">
            <path d="M207.659342,430.278286 C344.249511,444.672455 499,367.868209 499,235.248915 C499,102.629622 345.208212,53.3036145 207.659342,7.375 C70.1104723,-38.5536145 -9.97265625,151.142761 1.1747449,250.858481 C12.3221461,350.5742 71.0691732,415.884117 207.659342,430.278286 Z" id="Oval" fill-opacity="0.15" fill="#D8E5F0"></path>
            <path d="M12.0605469,301 L485.59375,301 C468.210863,330.893329 452.050381,352.559996 437.112305,366 C419.338876,381.991012 387.995705,400.704982 354.337891,412.399414 C336.140857,418.721986 297.446763,430.829801 229.463838,431.935599 C201.973231,432.382757 110.196433,421.950786 62.09375,390.828125 C40.5909978,376.915744 23.9132635,346.973035 12.0605469,301 Z" id="Path-8" fill="url(#linearGradient-1)" filter="url(#filter-2)"></path>
        </g>
        <path d="M185.798581,355.315366 C151.244381,355.315366 145.392679,363.651304 188.392679,366.89068 C191.126179,367.096607 210.059033,366.542626 211.583303,366.89068 C243.184671,374.106591 253.491434,374.106591 270.045399,370.464899 C287.723134,366.57599 266.863296,358.149095 243.184671,355.315366 C237.255474,354.605792 192.718329,355.315366 185.798581,355.315366 Z" id="Oval" fill="#E0E7ED" transform="translate(217.323239, 363.930887) scale(-1, 1) translate(-217.323239, -363.930887) "></path>
        <g id="Bank" transform="translate(200.000000, 238.000000)">
            <rect id="Rectangle" fill="#E1E3EF" x="1" y="102" width="135" height="15"></rect>
            <rect id="Rectangle" fill="#C9CBD9" x="0" y="110" width="142" height="12"></rect>
            <rect id="Rectangle" fill="#E1E3EF" x="19" y="47" width="21" height="55"></rect>
            <path d="M16.2278666,40.2621448 L41.7303687,39.1031467 C42.8337993,39.0529997 43.7689587,39.9068547 43.8191057,41.0102853 C43.8229556,41.0949983 43.8214138,41.1798704 43.8144898,41.2643876 L43.085445,50.1633031 C43.0004251,51.2010781 42.1333748,52 41.0921231,52 L17.521151,52 C16.5351305,52 15.6962335,51.2813713 15.5448598,50.3070396 L14.3423746,42.5671222 C14.1728013,41.4756467 14.9201507,40.4533648 16.0116262,40.2837915 C16.0832607,40.2726622 16.1554474,40.265436 16.2278666,40.2621448 Z" id="Rectangle" fill="#C9CBD9"></path>
            <rect id="Rectangle" fill="#C9CBD9" x="16" y="99" width="28" height="6"></rect>
            <rect id="Rectangle" fill="#E1E3EF" x="61" y="47" width="21" height="55"></rect>
            <path d="M58.1669396,38.4595158 L83.7400094,37.1185099 C84.8430634,37.0606677 85.7841557,37.9079793 85.8419979,39.0110332 C85.8463028,39.0931285 85.8455419,39.1754111 85.8397197,39.2574127 L85.0669197,50.141647 C84.9925831,51.1886155 84.1215463,52 83.071942,52 L59.5566357,52 C58.555212,52 57.708155,51.2593524 57.5745226,50.2668849 L56.289559,40.7236566 C56.1421625,39.6289658 56.9100964,38.6220551 58.0047872,38.4746586 C58.05861,38.4674116 58.1127056,38.4623598 58.1669396,38.4595158 Z" id="Rectangle" fill="#C9CBD9"></path>
            <rect id="Rectangle" fill="#C9CBD9" x="57" y="99" width="28" height="6"></rect>
            <rect id="Rectangle" fill="#E1E3EF" x="102" y="45" width="21" height="57"></rect>
            <path d="M99.1804198,38.4624973 L125.738292,37.1147741 C126.841442,37.0587929 127.781104,37.907691 127.837085,39.010841 C127.841274,39.0933882 127.840342,39.1761157 127.834294,39.2585475 L127.035472,50.1463437 C126.958804,51.1913268 126.088626,52 125.040834,52 L100.609139,52 C99.6110656,52 98.7657632,51.264166 98.6282213,50.2756148 L97.3008646,40.7355418 C97.1486468,39.6415109 97.9121371,38.6312267 99.0061679,38.4790089 C99.0639831,38.4709648 99.1221227,38.4654557 99.1804198,38.4624973 Z" id="Rectangle" fill="#C9CBD9"></path>
            <rect id="Rectangle" fill="#C9CBD9" x="98" y="99" width="29" height="6"></rect>
            <polygon id="Triangle" fill="#C9CBD9" points="70 0 139 35.5416072 139 43 1 43 1 35.5416072"></polygon>
            <polygon id="Triangle" fill="#E1E3EF" points="69.4453782 9 122 35 16 35"></polygon>
            <ellipse id="Oval" fill="#5E5D87" cx="69.5" cy="23" rx="4.5" ry="6"></ellipse>
        </g>
        <g id="5.-Illustrations-/1.-Characters/Walking" transform="translate(213.000000, 235.500000) scale(-1, 1) translate(-213.000000, -235.500000) translate(134.000000, 100.000000)">
            <g id="Character">
                <path d="M76.147152,24.680342 C76.147152,24.680342 82.5571401,13.3886335 73.716086,4.13662837 C69.0767314,-0.718163227 59.0006577,-1.48079332 52.6528156,2.81491335 C49.1301398,5.19899601 45.725278,8.880347 43.0777543,14.0513511 C40.1400406,19.7883489 33.9580966,23.0594209 27.6550207,21.9449712 C27.5354687,21.9242446 27.4132834,21.9088326 27.2932047,21.8796029 C-2.58004685,14.5450677 -11.6055162,67.0012636 21.6894503,89.1547379 L51.1070663,51.1125165 C51.1070663,51.1125165 58.8010533,20.8709116 76.147152,24.680342 Z" id="Fill" fill="#313050"></path>
                <path d="M111.176574,241.350467 L111.503339,256.08407 C111.503339,256.08407 125.650886,266.346799 122.03461,269.508799 C118.418334,272.670798 110.68571,266.346799 103.539787,260.122955 L101.362626,242.288982 L111.176574,241.350467 Z" id="Fill" fill="#016E80"></path>
                <path d="M88.7577489,222 L87.8911851,235.654079 C87.8911851,235.654079 101.154547,246.378065 97.2961966,248.987094 C93.4378465,251.596124 86.2463176,245.073764 79.6311536,238.695159 L78.9052119,222.012594 L88.7577489,222 Z" id="Fill" fill="#016E80" transform="translate(88.452606, 235.788344) rotate(39.000000) translate(-88.452606, -235.788344) "></path>
                <path d="M102.586392,163.936666 C109.56088,180.047731 112.555235,208.301063 111.569458,248.696663 C110.187951,251.92594 103.42961,251.92594 101.107727,250.202548 C101.107727,250.202548 92.5005869,202.652706 71.2039474,180.217805 C55.9057012,164.101899 25.2340156,153.766538 30.1146694,131.821378 C30.1146694,131.821378 35.8171469,130.145554 53.5485231,129.350467 C79.2659484,136.296869 95.6119048,147.825602 102.586392,163.936666 Z" id="Fill" fill="#00424D"></path>
                <path d="M121.412042,154.443378 C128.389068,168.815766 119.323994,194.450674 94.2168203,231.348103 C92.8348105,234.228882 86.846131,226.806938 84.5234029,225.269531 C84.5234029,225.269531 115.521211,187.189035 94.2168203,167.175268 C78.9130061,152.798561 43.9788989,142.118244 53.2658433,131.422467 C53.2658433,131.422467 65.1771643,127.101283 82.9149942,126.392 C101.602667,130.720531 114.435016,140.070991 121.412042,154.443378 Z" id="Fill" fill="#00424D"></path>
                <path d="M63.0060703,49.7089832 C76.8917373,46.8359647 80.3054927,54.0141972 88.5299195,61.2981189 C98.9465179,70.52273 112.622935,67.1455312 130.262584,61.2981189 C140.263291,57.9823923 149.862717,58.7038823 155.753037,60.6327088 C155.678938,58.3776481 155.715466,55.8955714 155.945067,53.2166757 C156.328606,48.7507711 157.141604,44.9049813 158,41.8178884 C142.751336,36.9006481 132.909784,37.9149401 122.744182,44.7243392 C117.186262,48.4471845 105.266297,54.1382202 97.8266892,47.4188725 C88.8163995,39.2808102 83.3717152,34.5690167 59.25,44.6499254 L59.25,45.813045 C59.3877608,45.7747596 60.2414606,46.7680217 61.1035095,47.7607445 C61.9645148,48.7529281 62.8338692,49.7445724 63.0060703,49.7089832 Z" id="Scarfe" fill="#F9C071"></path>
                <g id="Cup" transform="translate(97.045225, 58.711657)">
                    <path d="M8.36258661,3.01737697 L8.36258661,3.01375839 L7.99703485,3.01530921 L7.63148308,3.01375839 L7.63148308,3.01737697 L0.544918626,3.05201193 L3.34136339,18.6222354 C3.39118752,18.8993151 3.63611245,19.1014385 3.92194561,19.1014385 L12.0721241,19.1014385 C12.3579572,19.1014385 12.6023577,18.8993151 12.6527063,18.6222354 L15.4491511,3.05201193 L8.36258661,3.01737697 Z" id="Fill" fill="#00424D"></path>
                    <path d="M15.2225824,5.6682437 C14.5989941,9.14983251 13.9748813,12.6319383 13.3507686,16.1135271 L13.3507686,16.1135271 L2.55624002,16.1135271 C1.93212725,12.6319383 1.30801449,9.14983251 0.684426186,5.6682437 L0.684426186,5.6682437 Z M13.9937621,2.56532924e-10 C14.4573887,2.56532924e-10 14.8339542,0.370645758 14.8339542,0.828137383 L14.833,1.659 L15.227827,1.65989334 C15.6028192,1.65989334 15.9070086,1.95971836 15.9070086,2.32933024 L15.9070086,3.58962921 L1.37560054e-10,3.58962921 L1.37560054e-10,2.32933024 C1.37560054e-10,1.95971836 0.304189416,1.65989334 0.678657076,1.65989334 L1.072,1.659 L1.07252992,0.828137383 C1.07252992,0.370645758 1.44909544,2.56532924e-10 1.91324653,2.56532924e-10 L13.9937621,2.56532924e-10 Z" id="Combined-Shape" fill="#016E80"></path>
                    <path d="M7.95350429,14.7260609 C5.80424873,14.7260609 4.06250209,13.0087873 4.06250209,10.8908854 C4.06250209,8.77246654 5.80424873,7.05570983 7.95350429,7.05570983 C10.1022354,7.05570983 11.8445065,8.77246654 11.8445065,10.8908854 C11.8445065,13.0087873 10.1022354,14.7260609 7.95350429,14.7260609 Z" id="Fill" fill="#D8E5F0"></path>
                </g>
                <path d="M110.987492,83.7436912 C110.987492,83.7436912 114.21412,76.3884055 114.600781,70.8225205 C114.600781,70.8225205 108.987557,63.6853393 105.649088,63.0718809 C105.134782,62.9770976 104.708764,63.5005119 104.883213,63.989699 C105.182117,64.8269513 106.309123,65.9264374 108.912033,68.6604085 C108.912033,68.6604085 105.398583,65.3866993 103.455708,65.1413159 C102.973313,65.0797067 102.672814,65.6568316 102.794609,66.123376 C103.030754,67.0275032 103.827476,68.2101879 107.258489,70.9115115 C107.258489,70.9115115 103.821626,68.9421255 101.894175,68.9842514 C101.531448,68.99215 101.314982,69.3891867 101.503791,69.6956526 C102.061178,70.5987267 103.162655,72.362056 108.912033,75.7600367 C108.912033,75.7600367 107.25054,79.3467366 106.408609,80.8511579 L110.987492,83.7436912 Z" id="Fill" fill="#8D5524"></path>
                <path d="M65.43475,46.7518747 C65.1633106,46.789305 82.064494,84.0266994 90.3027317,90.1140122 C98.5409694,96.201325 104.726384,81.2778561 105.71153,78.3735848 C107.943307,79.5254877 110.175084,80.6773905 112.406336,81.8292933 C112.406336,81.8292933 111.062764,108.49703 96.1718517,115.862355 C78.3558925,122.098446 58.8583716,65.0273274 65.43475,46.7518747 Z" id="Fill" fill="#A5D867"></path>
                <path d="M45.443352,46.1595157 C45.443352,46.1595157 28.874001,98.1322795 30.1889958,131.246423 C30.1889958,131.246423 59.5235797,141.997747 84.9757805,126.200272 C84.9757805,126.200272 82.3874211,82.5523604 65.450163,46.1595157 C63.1651838,45.4189759 59.8706717,44.6302667 55.856477,44.5799798 C51.4421117,44.5238703 47.8433346,45.3824518 45.443352,46.1595157 Z" id="Fill" fill="#A5D867"></path>
                <path d="M58.6067433,22.8357036 C58.6067433,22.8357036 59.1567911,19.6429 55.9389844,17.7329284 C54.4690952,16.8605414 52.6671016,17.7528133 52.1765923,19.5990512 C51.7745713,21.1103048 52.2492401,24.6635863 56.0733556,27.1813225 L58.6067433,22.8357036 Z" id="Fill" fill="#8D5524"></path>
                <path d="M60.3977297,18.4832993 C55.1378771,25.022283 51.661244,38.4285474 50.9618916,47.2801643 C50.9618916,47.2801643 56.1324543,50.9841509 61.408823,47.2801643 C61.433081,45.0866668 64.2074615,34.599785 65.2257805,31.9345966 L60.3977297,18.4832993 Z" id="Fill" fill="#8D5524"></path>
                <path d="M57.6772083,27.5444124 C58.2147582,26.2256342 60.3652082,28.4993048 64.1285583,34.3654241 L60.9906323,44.5773689 C58.2441331,34.5408428 57.1396585,28.8631906 57.6772083,27.5444124 Z" id="Path-60" fill="#6E421C"></path>
                <path d="M75.7273882,27.9026683 C74.5252245,34.509564 70.2480251,37.4495179 65.8686028,36.9022768 C61.1355722,36.3102324 57.2307568,28.2925642 59.135443,21.6504659 C61.0401293,15.0083676 66.6592666,12.0694805 70.8770097,13.3341087 C75.0947528,14.5992703 77.2059713,19.771925 75.7273882,27.9026683 Z" id="Fill" fill="#8D5524"></path>
                <g id="Phone" transform="translate(67.420225, 81.543968)">
                    <path d="M6.5118174,0.00335587269 L15.8733754,0.890839209 C16.1191082,0.914207253 16.3168609,1.05548972 16.4378723,1.25948711 L17.1031779,2.04577608 L16.5447794,1.99126991 C16.5359755,2.03295422 16.5247401,2.07483296 16.5109717,2.11671169 L11.0289253,18.8049715 C10.8799393,19.2584339 10.4783711,19.5605671 10.0735989,19.5237857 L0.699224917,18.675711 C0.172166692,18.6278951 -0.13541744,18.0388668 0.0584246429,17.4493131 L5.55328699,0.721644635 C5.70280706,0.267131263 6.10597723,-0.0355273522 6.5118174,0.00335587269 Z" id="Combined-Shape" fill="#D8E5F0"></path>
                    <path d="M10.7346912,20.3003993 L1.3597832,19.4523246 C0.833258974,19.4045087 0.525140842,18.8154804 0.718982925,18.2259267 L6.21437928,1.49825824 C6.36389934,1.04321941 6.76653551,0.741086248 7.17237568,0.779444024 L16.5339337,1.66745281 C17.0593899,1.71684501 17.364838,2.30534788 17.17153,2.89332529 L11.6900176,19.5815851 C11.5404976,20.0350475 11.1394634,20.3371807 10.7346912,20.3003993 Z" id="Fill" fill="#313050"></path>
                    <path d="M8.32421418,3.2238327 C8.18911212,3.63473381 7.74055193,3.86067687 7.32242975,3.72773828 C6.90430757,3.59479969 6.67522147,3.15342254 6.80978953,2.74199598 C6.94489159,2.33056943 7.39345178,2.10462636 7.81157396,2.23809041 C8.22969614,2.371029 8.45931624,2.8118807 8.32421418,3.2238327 Z" id="Fill" fill="#F9C071"></path>
                    <path d="M9.39488464,3.26849587 C9.34629061,3.41614703 9.18502255,3.49759162 9.03443448,3.44977577 C8.88438042,3.40143446 8.80214438,3.24327431 8.8507384,3.0950977 C8.89933242,2.94744654 9.06060049,2.86652739 9.21065456,2.91434325 C9.36070862,2.96215911 9.44347866,3.12031925 9.39488464,3.26849587 Z" id="Fill" fill="#5C7594"></path>
                </g>
                <path d="M77.7614176,97.0562309 C79.4004833,94.8312599 77.3286575,95.70064 77.3286575,95.70064 C71.0291798,98.7401047 65.9211216,99.5970577 65.9211216,99.5970577 C66.9525155,98.9793267 67.7802889,98.4107862 68.459733,97.8857407 L69.5527979,94.5910024 C68.6128471,95.1082809 67.4793771,95.6079544 66.4979579,96.0056221 C64.6648413,96.7481421 63.0640541,97.9556432 61.905065,99.5256018 C60.528101,101.391222 59.7396694,102.805842 59.7396694,102.805842 L61.7785332,108.72529 C71.207813,107.386786 73.3700187,106.423167 75.8267565,104.150041 C77.6705061,102.443384 77.1213154,101.282485 77.1213154,101.282485 C75.1685783,102.7406 71.7272315,103.506938 71.7272315,103.506938 C71.7272315,103.506938 76.6662261,101.731932 77.7444049,99.9077356 C78.8225837,98.0840567 77.6795441,98.0799143 77.6795441,98.0799143 C76.1361747,99.6550509 72.2865234,100.533234 72.2865234,100.533234 C72.2865234,100.533234 76.1223519,99.2806841 77.7614176,97.0562309 Z" id="Fill" fill="#8D5524"></path>
                <path d="M46.3021169,45.6959463 C63.8361219,44.1019106 30.5114189,103.855297 27.2301836,108.52285 C23.9489483,113.190403 56.4325698,103.855297 59.9209057,102.426019 C60.5918001,104.457941 61.2632195,106.490395 61.9341139,108.52285 C61.9341139,108.52285 29.8670816,142.032411 12.3272352,137.693379 C-14.4788511,121.192973 28.7681119,47.2899819 46.3021169,45.6959463 Z" id="Fill" fill="#A5D867"></path>
                <path d="M49.914594,36.1674213 C49.914594,36.1674213 55.0770598,38.5475517 65.7314328,37.5738857 C65.7314328,37.5738857 68.4550474,43.3965649 66.6022051,49.498031 C66.6022051,49.498031 55.4061831,52.1809637 47.8174267,47.7428219 C47.8174267,47.7428219 46.2899978,40.7115439 49.914594,36.1674213 Z" id="Fill" fill="#F9C071"></path>
            </g>
        </g>
        <path d="M392,375.699348 C392,373.796434 376.424262,371 354.964834,371 C333.505407,371 320.635665,373.228967 330.216548,375.699348 C339.797431,378.169728 353.31905,379.109248 367.605432,378.990012 C381.132261,378.877114 392,377.602261 392,375.699348 Z" id="Oval" fill="#E0E7ED" transform="translate(359.500000, 375.000000) scale(-1, 1) translate(-359.500000, -375.000000) "></path>
        <path d="M367,367.699348 C367,365.796434 351.663889,363 330.534606,363 C309.405324,363 296.733578,365.228967 306.167063,367.699348 C315.600548,370.169728 328.914141,371.109248 342.980733,370.990012 C356.299457,370.877114 367,369.602261 367,367.699348 Z" id="Oval" fill="#E0E7ED" transform="translate(335.000000, 367.000000) scale(-1, 1) translate(-335.000000, -367.000000) "></path>
        <g id="Little-coins" transform="translate(307.000000, 316.000000)">
            <path d="M37.3036922,46 C56.4553408,46 63,44.0114989 63,42.5 C63,40.9885011 52.1139814,39 35.7071664,39 C19.3003514,39 6,41.1385232 6,42.6500221 C6,44.1615209 18.1520435,46 37.3036922,46 Z" id="Oval" fill="#FFD638"></path>
            <path d="M1,33 C6.71890526,34.863849 16.4895241,35.78886 30.3118564,35.775033 C44.1341888,35.7612059 53.0302367,34.9131248 57,33.2307897 L57,40.8827785 C45.7837935,42.2942595 36.8877456,43 30.3118564,43 C23.7359673,43 13.9653484,42.2942595 1,40.8827785 L1,33 Z" id="Rectangle" fill="#F5BC2B"></path>
            <path d="M6,42 C11.7189053,43.7503864 21.4895241,44.6185027 35.3118564,44.604349 C49.1341888,44.5901953 58.0302367,43.722079 62,42 L62,49.8327609 C50.7837935,51.277587 41.8877456,52 35.3118564,52 C28.7359673,52 18.9653484,51.277587 6,49.8327609 L6,42 Z" id="Rectangle" fill="#F5BC2B"></path>
            <path d="M32.3036922,36 C51.4553408,36 58,34.0114989 58,32.5 C58,30.9885011 47.1139814,29 30.7071664,29 C14.3003514,29 1,31.1385232 1,32.6500221 C1,34.1615209 13.1520435,36 32.3036922,36 Z" id="Oval" fill="#FFD638"></path>
            <path d="M4,28 C9.71890526,29.7503864 19.4895241,30.6185027 33.3118564,30.604349 C47.1341888,30.5901953 56.0302367,29.722079 60,28 L60,35.8327609 C48.7837935,37.277587 39.8877456,38 33.3118564,38 C26.7359673,38 16.9653484,37.277587 4,35.8327609 L4,28 Z" id="Rectangle" fill="#F5BC2B"></path>
            <path d="M35.3036922,32 C54.4553408,32 61,29.4433557 61,27.5 C61,25.5566443 50.1139814,23 33.7071664,23 C17.3003514,23 4,25.7495298 4,27.6928855 C4,29.6362412 16.1520435,32 35.3036922,32 Z" id="Oval" fill="#FFD638"></path>
            <path d="M35.3036922,32 C54.4553408,32 61,29.4433557 61,27.5 C61,25.5566443 50.1139814,23 33.7071664,23 C17.3003514,23 4,25.7495298 4,27.6928855 C4,29.6362412 16.1520435,32 35.3036922,32 Z" id="Oval-Copy" fill="#FFD638"></path>
            <path d="M33.3036922,22 C52.4553408,22 59,20.2955705 59,19 C59,17.7044295 48.1139814,16 31.7071664,16 C15.3003514,16 2,17.8330199 2,19.1285903 C2,20.4241608 14.1520435,22 33.3036922,22 Z" id="Oval" fill="#FFD638"></path>
            <path d="M32.2289073,16.0005475 L33.7712493,16.0090962 C49.0207389,16.1443175 59,17.7595602 59,19 C59,20.2955705 52.4553408,22 33.3036922,22 L31.0394222,21.9925548 C13.1993233,21.8743813 2,20.372338 2,19.1285903 C2,17.8459756 15.0356744,16.0366067 31.2159041,16.0005475 L32.2289073,16.0005475 Z M31.7060621,16.9999994 C24.0670068,16.9999994 16.615965,17.4027056 10.8156336,18.0718673 L9.85540838,18.1871058 C7.82412187,18.4407205 6.11833074,18.7188516 4.84891981,19.0013013 L4.5637757,19.0665494 L4.321,19.125 L4.42155037,19.1491242 C5.75635543,19.4552663 7.69491533,19.7492515 10.1128381,20.0073608 L10.5717858,20.05533 C16.4026124,20.6520553 24.3410359,20.9999994 33.3036922,20.9999994 L35.4088046,20.9928908 C43.199542,20.9393469 49.1529594,20.5852829 53.1893287,19.9963174 C54.9310468,19.7421752 56.2587165,19.4507805 57.1443228,19.1446887 L57.282,19.094 L57.0255459,19.0176157 L56.822021,18.9608739 C55.5995748,18.6300439 53.789254,18.307389 51.5336359,18.0252512 C46.6812705,17.4183066 40.2164901,17.0445465 33.0293066,17.0037349 L31.7060621,16.9999994 Z" id="Oval-Copy-2" fill="#FFD638" fill-rule="nonzero"></path>
            <path d="M4,11.010604 C9.71890526,11.0247427 19.4895241,11.0247427 33.3118564,11.010604 C47.1341888,10.9964653 56.0302367,10.9964653 60,11.010604 L60,18.835059 C48.7837935,20.278353 39.8877456,21 33.3118564,21 C26.7359673,21 16.9653484,20.278353 4,18.835059 L4,11.010604 Z" id="Rectangle" fill="#F5BC2B"></path>
            <path d="M0,3.63314275 C6.12739849,5.82196788 16.5959186,6.9093036 31.4055605,6.89514989 C46.2152023,6.88099619 55.7466821,5.79366048 60,3.63314275 L60,10.8327609 C47.9826359,12.277587 38.451156,13 31.4055605,13 C24.3599649,13 13.8914448,12.277587 0,10.8327609 L0,3.63314275 Z" id="Rectangle" fill="#F5BC2B"></path>
            <path d="M60,3.63314275 L60,10.8327609 L58.2591071,11.0390418 C47.0586507,12.3463473 38.1074684,13 31.4055605,13 L30.1003857,12.9921979 C23.09142,12.9107097 13.0579581,12.1908974 0,10.8327609 L0,3.63314275 C6.12739849,5.82196788 16.5959186,6.9093036 31.4055605,6.89514989 L33.4533738,6.88608533 C47.097181,6.7767004 55.9460564,5.69238621 60,3.63314275 Z M1,5.015 L1,9.93 L4.21031323,10.2540286 C15.510656,11.3658486 24.2895652,11.94647 30.5391095,11.9964668 L31.4055605,12 L32.4755669,11.9945888 C38.8267095,11.9314575 47.0929083,11.3159037 57.2682049,10.1471032 L59,9.945 L59,5.153 L58.8084166,5.22384645 C54.0125742,6.94656895 45.3714581,7.82000862 32.7941996,7.89062801 L31.4065162,7.89514944 L29.8789771,7.89265826 C17.0268429,7.83776311 7.5389214,6.92274906 1.37931148,5.12808681 L1,5.015 Z" id="Rectangle-Copy" fill="#F5BC2B" fill-rule="nonzero"></path>
            <path d="M2,19 C7.71890526,20.7503864 17.4895241,21.6185027 31.3118564,21.604349 C45.1341888,21.5901953 54.0302367,20.722079 58,19 L58,26.8327609 C46.7837935,28.277587 37.8877456,29 31.3118564,29 C24.7359673,29 14.9653484,28.277587 2,26.8327609 L2,19 Z" id="Rectangle" fill="#F5BC2B"></path>
            <path d="M31.4055605,8 C50.7459935,8 60,5.13765179 60,3.63314275 C60,2.12863371 46.5685425,0 30,0 C13.4314575,0 0,2.12863371 0,3.63314275 C0,5.13765179 12.0651275,8 31.4055605,8 Z" id="Oval" fill="#FFD638"></path>
            <path d="M29.9838923,6 C43.5221954,6 50,3.85323884 50,2.72485706 C50,1.59647528 40.5979797,0 29,0 C17.4020203,0 8,1.59647528 8,2.72485706 C8,3.85323884 16.4455893,6 29.9838923,6 Z" id="Oval" fill="#FFC83B"></path>
            <path d="M38,2.67369367 L36.1654136,2.66273855 C36.1186878,2.40736652 36.0032541,2.17575115 35.8191125,1.96812805 C35.634971,1.76096039 35.3865747,1.58499836 35.0739237,1.44031186 C34.7612728,1.29617404 34.3874093,1.18607783 33.9523333,1.10992808 C33.5172573,1.03420012 33.0223248,0.997693393 32.4675357,1.00011277 C31.887529,1.00267236 31.3784275,1.04445101 30.9402312,1.12512241 C30.5020349,1.20538961 30.1144195,1.32025179 29.777385,1.46955843 C29.4403505,1.61826016 29.1430017,1.79793275 28.8853386,2.00853087 C28.6276755,2.21846367 28.3862216,2.45521361 28.160977,2.71872802 C27.9953332,2.91256857 27.8294339,3.07401997 27.663279,3.2031806 C27.4971241,3.3320735 27.3209819,3.43535139 27.1348524,3.51307843 C26.9487229,3.5906233 26.7477952,3.64464604 26.5320693,3.67521936 C26.3163435,3.70570745 26.0729355,3.71929813 25.8018454,3.7160604 C25.5181465,3.71267931 25.2588044,3.69254538 25.0238192,3.65573292 C24.788834,3.61902694 24.5892384,3.56584159 24.4250324,3.49620516 C24.2608264,3.42671292 24.1336686,3.33883977 24.0435591,3.23256895 C23.9534496,3.12642003 23.911476,3.00059707 23.9176385,2.85500004 C23.9233608,2.71979255 23.9883423,2.59981375 24.1125831,2.49494685 C24.2368239,2.38991433 24.4123884,2.30116598 24.6392765,2.22867139 C24.8661647,2.15597064 25.1396207,2.10017392 25.4596446,2.06132339 C25.7796686,2.02232292 26.1382698,2.00299435 26.5354483,2.003461 L26.5748991,1.05532633 C25.9381526,1.05837175 25.3630472,1.09461986 24.849583,1.16373491 C24.3361188,1.23243955 23.8907652,1.32974735 23.5135223,1.45552512 C23.1362794,1.58071488 22.8288332,1.73171632 22.5911838,1.90856907 C22.3535344,2.08488662 22.1920963,2.28464998 22.1068694,2.50807645 L20.0264106,2.49980237 L20,3.10827505 L22.0615456,3.12467922 C22.115016,3.34877248 22.2387428,3.55256362 22.4327262,3.73627971 C22.6267095,3.92045322 22.8833165,4.07885742 23.202547,4.21154967 C23.5217774,4.34477583 23.8989857,4.4502532 24.3341718,4.52788694 C24.7693578,4.60592812 25.2517365,4.64981959 25.7813079,4.65927509 C26.367619,4.66977373 26.8815038,4.63925225 27.3229624,4.56737066 C27.764421,4.49506734 28.1537225,4.38676534 28.4908671,4.24231873 C28.8280116,4.09725583 29.125443,3.92014013 29.3831611,3.71093153 C29.6408792,3.50105319 29.8760011,3.26464635 30.0885269,3.00169791 C30.2411216,2.81616767 30.4004414,2.6587638 30.5664863,2.5295503 C30.7325311,2.40007476 30.9101944,2.29482555 31.0994761,2.2138603 C31.2887579,2.13270984 31.4944689,2.07389907 31.7166092,2.03749563 C31.9387495,2.00099717 32.1822125,1.98291509 32.4469982,1.98332547 C33.0333093,1.9842571 33.4979462,2.07195046 33.8409088,2.24692788 C34.1838713,2.42263336 34.34886,2.67438693 34.3358748,3.00160442 C34.3308128,3.12915001 34.2864032,3.25493414 34.2026459,3.37886927 C34.1188887,3.50267993 33.9788868,3.61326221 33.7826404,3.71053623 C33.586394,3.80757926 33.3262701,3.88493908 33.0022686,3.94261466 C32.6782672,4.00005789 32.270394,4.02526719 31.7786492,4.01843347 L31.7391984,4.99679717 C32.4768156,5.01144244 33.1107596,4.97588581 33.6410303,4.88964708 C34.1713009,4.80281809 34.611423,4.6818213 34.9613965,4.52660247 C35.31137,4.37072109 35.5818975,4.18922822 35.772979,3.98226651 C35.9640605,3.77483243 36.0892757,3.55777758 36.1486247,3.33133679 L37.9737545,3.34945674 L38,2.67369367 Z" id="$" fill="#FFFFFF" fill-rule="nonzero"></path>
        </g>
        <g id="Big-coin" transform="translate(349.000000, 313.000000)">
            <path d="M23.5027751,9.15899119 L35.5048201,8.14625101 L30.5074156,67.1539433 L18.6316414,65.0329692 C11.8147872,56.2744824 8.79110624,47.2191459 9.56059844,37.8669595 C10.3300906,28.5147732 14.9774829,18.9454504 23.5027751,9.15899119 Z" id="Rectangle" fill="#F5BC2B" transform="translate(22.474171, 37.650097) rotate(-20.000000) translate(-22.474171, -37.650097) "></path>
            <ellipse id="Oval" fill="#FFD638" transform="translate(33.935444, 33.541667) rotate(-13.000000) translate(-33.935444, -33.541667) " cx="33.9354436" cy="33.5416667" rx="19.7315386" ry="29.7356522"></ellipse>
            <ellipse id="Oval" fill="#FFC83B" transform="translate(33.935444, 33.541667) rotate(-13.000000) translate(-33.935444, -33.541667) " cx="33.9354436" cy="33.5416667" rx="15.2214748" ry="23.9007312"></ellipse>
            <path d="M35.1277305,47.0408785 L35.123269,44.2128125 C36.0113496,44.1267417 36.8162999,43.9360674 37.5381199,43.6407895 C38.2599399,43.3455116 38.8742395,42.9528807 39.3810187,42.4628967 C39.887798,41.9729128 40.2773038,41.3904197 40.5495363,40.7154174 C40.8217688,40.0404151 40.9572105,39.2753026 40.9558713,38.4200799 C40.9544508,37.5259835 40.8116873,36.7434268 40.5275708,36.0724098 C40.2434542,35.4013929 39.8325758,34.8103537 39.2949355,34.2992924 C38.7572952,33.7882311 38.105067,33.3401595 37.3382509,32.9550776 C36.5714348,32.5699957 35.7046143,32.2114824 34.7377893,31.8795377 C34.024879,31.6354575 33.4290927,31.3891316 32.9504302,31.1405602 C32.4717677,30.8919887 32.0858045,30.6265557 31.7925406,30.344261 C31.4992766,30.0619663 31.29138,29.7555096 31.1688507,29.424891 C31.0463214,29.0942725 30.9847271,28.7200167 30.9840679,28.3021238 C30.983378,27.864794 31.0461897,27.464008 31.1725032,27.0997658 C31.2988166,26.7355237 31.4886585,26.4248326 31.742029,26.1676925 C31.9953994,25.9105525 32.3196227,25.7094046 32.7146988,25.564249 C33.1097749,25.4190933 33.5806109,25.3469447 34.127207,25.3478033 C34.6347604,25.3486005 35.0863359,25.4416348 35.4819332,25.6269061 C35.8775306,25.8121773 36.2122504,26.0775299 36.4860927,26.4229638 C36.759935,26.7683977 36.9704481,27.1866202 37.1176319,27.6776314 C37.2648158,28.1686426 37.3388907,28.720279 37.3398566,29.3325407 L37.3398566,29.3325407 L40.8390473,29.3380371 C40.8374988,28.3564746 40.7116555,27.4719012 40.4615172,26.6843166 C40.2113789,25.896732 39.8516021,25.2158778 39.3821867,24.641754 C38.9127712,24.0676301 38.3434817,23.6026816 37.674318,23.2469083 C37.0051543,22.8911351 36.2458925,22.6542709 35.3965325,22.5363158 L35.3965325,22.5363158 L35.3914731,19.3292307 L33.0489187,19.3255511 L33.0539321,22.5034809 C32.2049094,22.5993315 31.4365807,22.8022113 30.7489459,23.1121205 C30.0613112,23.4220298 29.4763126,23.8268547 28.9939504,24.3265955 C28.5115881,24.8263362 28.139171,25.4137154 27.8766992,26.088733 C27.6142273,26.7637506 27.4836353,27.5094339 27.4849232,28.3257828 C27.486349,29.2295977 27.6340043,30.0194509 27.9278892,30.6953424 C28.221774,31.3712339 28.6424169,31.964718 29.1898178,32.4757946 C29.7372188,32.9868712 30.3967675,33.4349543 31.1684639,33.8200439 C31.9401603,34.2051334 32.8045254,34.5539245 33.761559,34.866417 C34.4353961,35.090999 35.0067655,35.3275681 35.4756673,35.5761242 C35.9445692,35.8246803 36.3256559,36.0925353 36.6189275,36.3796893 C36.912199,36.6668432 37.1249875,36.9805963 37.2572928,37.3209487 C37.3895981,37.661301 37.4560727,38.0355644 37.4567166,38.4437389 C37.4581424,39.3475538 37.1518205,40.068665 36.5377508,40.6070725 C35.9236812,41.1454801 35.0407684,41.4137793 33.8890125,41.4119702 C33.4400229,41.4112649 32.9958178,41.3498271 32.5563972,41.2276567 C32.1169766,41.1054863 31.7213409,40.8959189 31.3694901,40.5989545 C31.0176393,40.3019902 30.7315158,39.9055153 30.5111194,39.40953 C30.290723,38.9135446 30.1799269,38.2865327 30.178731,37.5284944 L30.178731,37.5284944 L26.6795403,37.5229981 C26.6813341,38.6600556 26.8536823,39.6345974 27.196585,40.4466238 C27.5394877,41.2586501 27.9944155,41.9299353 28.5613684,42.4604795 C29.1283213,42.9910237 29.7780442,43.3977881 30.5105371,43.6807727 C31.2430299,43.9637573 32.0046438,44.1447443 32.7953785,44.2237337 L32.7953785,44.2237337 L32.799817,47.0372219 L35.1277305,47.0408785 Z" id="$" fill="#FFFFFF" fill-rule="nonzero" transform="translate(33.817706, 33.183215) rotate(-18.000000) translate(-33.817706, -33.183215) "></path>
        </g>
        <g id="Tree" transform="translate(457.500000, 264.000000) scale(-1, 1) translate(-457.500000, -264.000000) translate(423.000000, 218.000000)">
            <ellipse id="Oval" fill="#E0E7ED" cx="32" cy="90.5" rx="19" ry="1.5"></ellipse>
            <polygon id="Rectangle" fill="#E8F0F8" points="30 61 34 61 34 91 30 91"></polygon>
            <path d="M21.1234946,51.2431983 C29.4746032,51.2790064 36.2153707,44.5045868 36.1795633,36.1119661 C36.1434696,27.7193453 29.3444148,20.8866383 20.9933062,20.8505081 C15.1097555,20.8252999 10.5577043,23.4771938 7.33715257,28.8061898 L15.9715451,35.0054293 L6.28542216,32.6619154 C6.0501365,34.1145762 5.93410042,35.221197 5.93731394,35.9817776 C5.97333124,44.3743983 12.772386,51.2071054 21.1234946,51.2431983 Z" id="Oval" fill="#E8F0F8" transform="translate(21.058439, 36.046853) rotate(120.000000) translate(-21.058439, -36.046853) "></path>
            <path d="M39.3189396,52.1034547 C51.4467082,52.1287936 61.2577618,42.4064519 61.2325898,30.387947 C61.2073207,18.3694422 51.3553765,8.60593743 39.227608,8.58048621 C30.6833123,8.56264115 24.0640756,12.3744333 19.3698978,20.0158627 L31.8892454,28.8664782 L17.8301249,25.5407247 C17.4837603,27.6217367 17.3117133,29.2068308 17.3139839,30.2960069 C17.3392269,42.3145118 27.1911711,52.0780165 39.3189396,52.1034547 Z" id="Oval" fill="#E8F0F8" transform="translate(39.273287, 30.341970) scale(-1, 1) rotate(-27.000000) translate(-39.273287, -30.341970) "></path>
            <path d="M32.6733628,74.9469516 C44.6846139,74.9162237 54.446505,65.0539155 54.477229,52.9187979 C54.5078084,40.7836804 44.7956136,30.9710758 32.7843624,31.0016604 C24.322156,31.0233062 17.7488057,34.9028465 13.0643117,42.6402814 L23.2956775,50.7968181 L11.5137443,48.2259505 C11.1610716,50.328782 10.9833222,51.9300698 10.9804962,53.029814 C10.9499168,65.1649315 20.6621116,74.9775362 32.6733628,74.9469516 Z" id="Oval" fill="#E8F0F8" transform="translate(32.728863, 52.974306) scale(-1, 1) rotate(77.000000) translate(-32.728863, -52.974306) "></path>
        </g>
        <g id="Tree" transform="translate(54.500000, 279.000000) scale(-1, 1) translate(-54.500000, -279.000000) translate(34.000000, 245.000000)">
            <ellipse id="Oval" fill="#E0E7ED" cx="20" cy="66.5" rx="12" ry="1"></ellipse>
            <polygon id="Rectangle" fill="#E8F0F8" points="18 47 21 47 21 66 18 66"></polygon>
            <path d="M13.182437,41.3820835 C18.419003,41.3943365 22.6541239,37.147721 22.6418709,31.8969758 C22.6295647,26.6462305 18.3745346,22.3797058 13.1379686,22.3673927 C9.44868574,22.3587638 6.59105329,24.0234446 4.56507125,27.3614352 L9.97173494,31.2293905 L3.90086254,29.7750313 C3.75154887,30.6841669 3.67744433,31.376659 3.67854894,31.8525074 C3.69084089,37.1032527 7.94587098,41.3697773 13.182437,41.3820835 Z" id="Oval" fill="#E8F0F8" transform="translate(13.160210, 31.874738) rotate(120.000000) translate(-13.160210, -31.874738) "></path>
            <path d="M14.6151859,38.8390241 C22.2013853,38.8410925 34.4599861,25.7389896 34.4579402,18.2012412 C34.4558943,10.6634928 28.304406,4.55126367 20.7182066,4.54919458 C15.3735522,4.54773778 11.2286962,6.94597013 8.28363855,11.7438916 L16.1046986,17.2805268 L7.31415965,15.2107388 C7.09512235,16.5163056 6.98569633,17.5106429 6.98588158,18.1937508 C6.98792773,25.7314991 7.02898643,38.8369557 14.6151859,38.8390241 Z" id="Oval" fill="#E8F0F8" transform="translate(20.721911, 21.694109) scale(-1, 1) rotate(-27.000000) translate(-20.721911, -21.694109) "></path>
            <path d="M20.4322633,56.2357722 C27.9707314,56.224028 34.0913728,50.0653348 34.1031153,42.4799291 C34.1148242,34.8945235 28.0131939,28.7548442 20.4747259,28.7665548 C15.1636994,28.7748282 11.0405427,31.1957747 8.10525581,36.0293941 L14.5317024,41.1342191 L7.13554818,39.5199268 C6.91550586,40.8341473 6.80494775,41.834971 6.80387386,42.5223979 C6.79216502,50.1078035 12.8937953,56.2474828 20.4322633,56.2357722 Z" id="Oval" fill="#E8F0F8" transform="translate(20.453495, 42.501164) scale(-1, 1) rotate(77.000000) translate(-20.453495, -42.501164) "></path>
        </g>
    </g>
</svg>