<?xml version="1.0" encoding="UTF-8"?>
<svg width="500px" height="432px" viewBox="0 0 500 432" version="1.1" xmlns="http://www.w3.org/2000/svg" xmlns:xlink="http://www.w3.org/1999/xlink">
    <!-- Generator: Sketch 63.1 (92452) - https://sketch.com -->
    <title>9.0_PL_CI"Code of Practise" </title>
    <desc>Created with Sketch.</desc>
    <defs>
        <linearGradient x1="50%" y1="100%" x2="50%" y2="0%" id="linearGradient-1">
            <stop stop-color="#FFFFFF" offset="0%"></stop>
            <stop stop-color="#ECF3FA" offset="100%"></stop>
        </linearGradient>
        <filter x="0.0%" y="0.0%" width="100.0%" height="100.0%" filterUnits="objectBoundingBox" id="filter-2">
            <feGaussianBlur stdDeviation="0" in="SourceGraphic"></feGaussianBlur>
        </filter>
    </defs>
    <g id="9.0_PL_CI&quot;Code-of-Practise&quot;-" stroke="none" stroke-width="1" fill="none" fill-rule="evenodd">
        <g id="Background" transform="translate(250.000000, 215.500000) scale(-1, 1) translate(-250.000000, -215.500000) translate(0.000000, -1.000000)">
            <path d="M208.659342,431.278286 C345.249511,445.672455 500,368.868209 500,236.248915 C500,103.629622 321.38358,-51.4719733 239,18.0744926 C156.61642,87.6209585 -19.5335536,112.431821 2.1747449,251.858481 C23.8830434,391.28514 72.0691732,416.884117 208.659342,431.278286 Z" id="Oval" fill-opacity="0.15" fill="#D8E5F0"></path>
            <path d="M13.0605469,302 C159.096368,285.959987 273.188816,277.93998 355.337891,277.93998 C437.486965,277.93998 481.240414,285.959987 486.598237,302 C469.212359,331.893329 453.050381,353.559996 438.112305,367 C420.338876,382.991012 388.995705,401.704982 355.337891,413.399414 C341.812757,418.098731 315.428462,427.278033 275.646767,431.476391 C261.905233,432.926603 247.917749,432.651697 230.463838,432.935599 C202.973231,433.382757 111.196433,422.950786 63.09375,391.828125 C41.5909978,377.915744 24.9132635,347.973035 13.0605469,302 Z" id="Path-8" fill="url(#linearGradient-1)" filter="url(#filter-2)"></path>
            <g id="Tree" transform="translate(422.000000, 211.000000)">
                <ellipse id="Oval" fill="#E0E7ED" cx="35" cy="99.5" rx="17" ry="1"></ellipse>
                <polygon id="Rectangle" fill="#E8F0F8" points="32 73 37 73 37 98 32 98"></polygon>
                <path d="M25.7983087,65.9808638 C32.9872125,66.1739887 38.6584117,60.3220111 38.4652867,52.9101058 C38.2721618,45.4982005 32.2878451,39.3331053 25.0989413,39.1399803 C20.034191,39.0039193 16.1672616,41.2576904 13.4981532,45.9012936 L21.0499939,51.5424636 L12.667386,49.2858174 C12.4929356,50.5640613 12.4144613,51.539035 12.4319632,52.2107383 C12.6250882,59.6226436 18.6094049,65.7877388 25.7983087,65.9808638 Z" id="Oval" fill="#E8F0F8" transform="translate(25.449823, 52.559840) rotate(120.000000) translate(-25.449823, -52.559840) "></path>
                <path d="M48.6305645,70.4455962 C59.36451,70.686335 66.9418874,38.6938626 66.7026054,28.3719494 C66.4633233,18.0500363 57.5677647,9.48731497 46.8338192,9.2465761 C39.2715043,9.07696995 33.4820659,12.2310152 29.465504,18.708712 L32.89591,31.9022117 L28.2024889,23.4256512 C17.0506907,44.3343353 11.485613,55.2563887 11.5072558,56.1918114 C11.746601,66.5137245 37.8966189,70.2048573 48.6305645,70.4455962 Z" id="Oval" fill="#E8F0F8" transform="translate(39.107686, 39.843516) scale(-1, 1) rotate(-27.000000) translate(-39.107686, -39.843516) "></path>
                <path d="M35.6236308,86.5392086 C45.8557214,86.3943744 54.2678632,77.5020898 54.4126755,66.677735 C54.5574877,55.8533802 46.380133,47.1959182 36.1480425,47.3407523 C28.9392961,47.4427913 23.3018361,50.9674681 19.2356624,57.9147826 L27.8714723,65.0900178 L17.8601736,62.9121503 C17.53918,64.7912443 17.3721214,66.2212695 17.3589978,67.2022259 C17.2141855,78.0265807 25.3915403,86.6840427 35.6236308,86.5392086 Z" id="Oval" fill="#E8F0F8" transform="translate(35.885837, 66.939980) scale(-1, 1) rotate(77.000000) translate(-35.885837, -66.939980) "></path>
            </g>
            <g id="Tree" transform="translate(39.500000, 270.000000) scale(-1, 1) translate(-39.500000, -270.000000) translate(13.000000, 229.000000)">
                <ellipse id="Oval" fill="#E0E7ED" cx="24.5365854" cy="80.5" rx="14.5" ry="1.5"></ellipse>
                <polygon id="Rectangle" fill="#E8F0F8" points="24.0365854 58 27.0365854 58 27.0365854 81 24.0365854 81"></polygon>
                <path d="M16.9198044,49.854955 C23.1117483,49.9235767 28.0756818,44.8954086 28.00706,38.6242272 C27.9384383,32.3530457 22.8632471,27.2136198 16.6713032,27.1449981 C12.3089344,27.0966525 8.94716648,29.0553518 6.58599957,33.0210959 L13.018798,37.6963697 L5.82549525,35.8968512 C5.65831131,36.981109 5.57782876,37.8074006 5.5840476,38.3757259 C5.65266932,44.6469074 10.7278605,49.7863333 16.9198044,49.854955 Z" id="Oval" fill="#E8F0F8" transform="translate(16.795738, 38.499887) rotate(120.000000) translate(-16.795738, -38.499887) "></path>
                <path d="M30.3162052,48.7723924 C39.3844763,48.8478564 43.0903941,31.2240152 43.0153944,22.3190881 C42.9403948,13.4141611 35.5283094,6.13411573 26.4600384,6.05865176 C20.07123,6.00548563 15.1397125,8.79880108 11.6654859,14.4385981 L21.0677728,21.0547215 L10.539978,18.524913 C10.2907158,20.0651686 10.1694832,21.2388005 10.17628,22.0458089 C10.2512797,30.950736 21.2479342,48.6969284 30.3162052,48.7723924 Z" id="Oval" fill="#E8F0F8" transform="translate(26.596131, 27.415390) scale(-1, 1) rotate(37.000000) translate(-26.596131, -27.415390) "></path>
                <path d="M25.4529954,67.4703942 C34.3309197,67.416725 41.5711655,60.0001482 41.6248337,50.9047167 C41.6779086,41.8092851 34.5241951,34.4792536 25.6462708,34.5323434 C19.3915661,34.5701437 14.5232021,37.4946028 11.0411788,43.3057207 L18.5828176,49.3932037 L9.88097341,47.4961428 C9.61498069,49.0731221 9.47946703,50.2737482 9.47443243,51.098021 C9.42135762,60.1934526 16.5750711,67.523484 25.4529954,67.4703942 Z" id="Oval" fill="#E8F0F8" transform="translate(25.549633, 51.001369) scale(-1, 1) rotate(77.000000) translate(-25.549633, -51.001369) "></path>
            </g>
        </g>
        <path d="M327.015625,376.721667 C327.015625,374.10516 284.601692,370.260064 226.16602,370.260064 C167.730348,370.260064 132.685051,373.324894 158.774533,376.721667 C184.864015,380.118439 221.684423,381.41028 260.58734,381.24633 C297.421936,381.091096 327.015625,379.338173 327.015625,376.721667 Z" id="Oval" fill="#E0E7ED" transform="translate(238.515625, 375.760064) scale(-1, 1) translate(-238.515625, -375.760064) "></path>
        <path d="M361.015625,386.721667 C361.015625,384.10516 339.688845,380.260064 310.305937,380.260064 C280.923028,380.260064 263.301381,383.324894 276.419821,386.721667 C289.538262,390.118439 308.052478,391.41028 327.613832,391.24633 C346.135183,391.091096 361.015625,389.338173 361.015625,386.721667 Z" id="Oval" fill="#E0E7ED" transform="translate(316.515625, 385.760064) scale(-1, 1) translate(-316.515625, -385.760064) "></path>
        <g id="5.-Illustrations-/1.-Characters/Welcoming" transform="translate(237.341985, 233.500000) scale(-1, 1) translate(-237.341985, -233.500000) translate(157.841985, 84.000000)">
            <g id="Character">
                <path d="M140.661037,157.49189 C139.907995,163.924707 139.197629,174.826765 142.48441,179.67619 C145.77119,184.525615 150.051989,181.540315 151.172491,180.391861 C152.292993,179.243406 149.297156,173.075073 149.857138,171.26149 C150.417121,169.447906 151.780778,165.939857 151.780892,162.633093 C154.336248,151.237973 141.414078,151.059074 140.661037,157.49189 Z" id="Path-77" fill="#FDE2BF" transform="translate(146.071245, 167.791608) scale(-1, 1) rotate(-16.000000) translate(-146.071245, -167.791608) "></path>
                <path d="M99.8099842,291.773593 C87.0639833,295.477771 79.3421525,296.27215 76.6444917,294.15673 C72.5980004,290.983601 89.5412213,284.597717 89.541232,284.133145 C90.5038931,280.127337 91.3066988,278.041756 91.9496493,277.876401 C93.5796258,277.457202 96.6093272,278.101168 101.038753,279.808301 C101.038753,279.808301 101.086106,288.273393 99.8099842,291.773593 Z" id="Fill" fill="#313050" transform="translate(88.529390, 286.531298) rotate(-12.000000) translate(-88.529390, -286.531298) "></path>
                <path d="M130.96818,290.38745 C122.505295,295.448973 116.92492,296.922018 114.227057,294.806585 C110.180262,291.633435 122.866599,283.943116 122.866614,283.478534 C123.569937,279.24026 124.243101,277.03844 124.886106,276.873074 C126.516219,276.453848 129.675372,277.256709 134.363562,279.281656 C134.363562,279.281656 132.244437,286.887163 130.96818,290.38745 Z" id="Fill" fill="#313050" transform="translate(123.896960, 286.253549) scale(-1, 1) rotate(-17.000000) translate(-123.896960, -286.253549) "></path>
                <path d="M71.5294908,121.721454 C67.8579507,128.746719 69.2466767,164.520453 77.870845,223.500077 C79.6245969,235.49377 83.1897696,254.977544 88.5663634,281.9514 L101.783284,281.9514 C101.00597,267.897322 104.361565,175.084869 105.362618,175.10642 C105.649289,175.112606 110.020683,193.694852 111.113577,221 C112.2907,250.409526 115.093405,270.098605 115.093405,279.210193 C122.91632,280.500562 126.880566,280.802952 126.986146,280.117366 C127.915939,274.079671 136.399451,247.051652 136.680342,215.403093 C137.011877,178.048296 136.218713,134.223085 130.643668,124.521733 C115.308556,124.521733 86.8646023,121.721454 71.5294908,121.721454 Z" id="Fill" fill="#A5D867"></path>
                <path d="M109.240085,30.4323686 C109.240085,36.6861775 108.846622,41.3812935 107.603354,46.3724078 C110.089065,47.5769947 111.739715,49.5765645 111.829695,51.9048082 C111.983009,55.8711771 107.5473,59.2902687 101.922549,59.5407177 C96.2977977,59.7911666 91.6130989,56.7783588 91.4597856,52.8113715 C91.3222025,49.2519552 94.8802751,46.1332751 99.6768436,45.3497877 C101.023648,39.7540832 101.021173,34.2756233 101.0263,34.257744 L101.0263,34.257744 Z" id="Combined-Shape" fill="#FFC7C0"></path>
                <polygon id="Fill" fill="#FFC7C0" points="93.1378741 46.2516917 99.7596556 43.8737063 110.939914 48.8428332 111.833553 47.0556478 105.980047 44.5304245 93.0234377 55.6348768"></polygon>
                <path d="M85.7976165,50.4450865 C83.3913986,60.7639151 81.1449081,72.8952096 79.6615603,86.6009041 C77.9526475,102.392373 77.65781,116.578515 77.99215,128.535755 C82.1170133,131.065295 89.1009422,134.685193 98.1510239,135.123205 C106.028053,135.504398 114.829097,133.690494 123.851126,128.535755 C123.851126,128.535755 117.682438,90.2287128 121.377926,52.046098 C115.873749,50.3691711 111.954837,48.6322246 109.621188,46.8352586 C109.006418,46.3618704 108.541971,44.6932856 108.227847,41.8295041 L93.0234377,46.8884555 L85.7976165,50.4450865 Z" id="Fill" fill="#D8E5F0"></path>
                <path d="M109.627069,46.1139293 L130.643668,53.2120181 C130.643668,53.2120181 123.70435,96.7399021 142.661241,144.284101 C142.661241,144.284101 135.418061,158.537765 115.932991,160.3653 C115.932991,160.3653 110.38514,145.642225 109.223493,108.838099 C108.560681,87.8254473 104.472438,57.727479 109.627069,46.1139293 Z" id="Fill" fill="#313050"></path>
                <path d="M132.733681,108.840172 C132.732597,108.840172 132.732597,108.839562 132.731514,108.839562 C131.779144,103.333073 131.106309,98.0798483 130.643668,93.1586113 L130.643668,93.1592216 C131.106851,98.079238 131.781853,103.335515 132.733681,108.840172 Z" id="Fill" fill="#EFEDDA"></path>
                <g id="Fill-46" opacity="0.0700000003" transform="translate(119.148598, 72.996605)" fill="#343839">
                    <path d="M13.5850831,35.8435673 C-3.38476936,28.4708252 0.348552726,0 0.348552726,0 L11.3950948,20.0914273 C11.8803698,25.0345854 12.5861211,30.311865 13.5850831,35.8435673 Z" id="Fill"></path>
                </g>
                <path d="M130.643668,53.2266395 C135.368579,55.1206042 143.031105,71.0448549 153.631245,100.999392 C159.066078,127.728374 159.569394,147.18929 155.141191,159.38214 L140.840246,158.48699 C140.840246,158.48699 136.068888,124.641586 135.789435,119.885057 C135.509981,115.128529 134.050331,105.400403 126.986146,85.7967998 C119.92196,66.1931964 123.556301,50.3856925 130.643668,53.2266395 Z" id="Fill" fill="#313050"></path>
                <polygon id="Path-3" fill="#A5D867" points="97.0224441 47.7092454 102.459369 47.7092454 100.94807 56.6787616 100.164315 132.837718 93.1105216 130.587846 97.7849455 56.6787616"></polygon>
                <path d="M7.57594475,53.3561529 C7.57594475,53.3561529 6.47532986,52.9179799 6.75030616,54.526488 C6.9860824,55.9063477 7.88964843,54.7374662 8.21980908,57.9943541 C5.30959352,55.1893399 4.16127732,56.4884387 4.17878758,58.0243826 C4.18387132,58.4703118 4.36977994,58.9063025 4.73651346,59.3323547 L4.24495131,59.9190641 C1.67876276,57.4570986 1.14307873,59.0202053 1.29344907,60.4661162 C1.34810601,60.9916791 1.60979,61.6704895 2.07850105,62.5025475 C3.53043157,66.0812392 4.34956933,67.9974416 4.53591432,68.2511546 C6.82946523,71.3738767 10.5318877,75.124203 10.5318877,75.124203 C12.3348943,72.6762378 16.4166128,72.671978 18.2196193,70.2240129 C18.2196193,70.2240129 12.3917425,57.4498845 7.57594475,53.3561529 Z" id="Fill" fill="#FDE2BF" transform="translate(9.744942, 64.212928) rotate(2.000000) translate(-9.744942, -64.212928) "></path>
                <path d="M92.979539,46.1139293 C93.0093836,74.6977612 87.7538486,111.199613 79.2360768,160.925356 C62.8473454,158.884491 55.0492871,149.465878 55.0492871,149.465878 C61.2422573,135.364021 64.1435849,119.95835 65.7756969,103.806934 C62.2097336,111.744806 57.6178991,118.139142 51.9430724,118.502635 C37.0455257,119.456877 12.7004029,82.3505789 7.09018229,76.4984548 L7.09018229,76.4984548 L21.0664624,64.4572564 C33.3989767,81.8189843 42.0999182,90.1788495 47.1692871,89.5368519 C54.7733404,88.5738556 60.2597098,44.9938178 69.607188,46.1462633 L69.4339272,46.1329348 C69.434438,46.1265996 69.434949,46.1202645 69.4354601,46.1139293 L92.979539,46.1139293 Z" id="Combined-Shape" fill="#313050"></path>
                <path d="M103.183704,0.275288364 C120.769191,0.275288364 118.910748,19.4903436 117.029542,28.638217 C116.811482,36.6109757 115.020749,45.627061 109.240082,52.0933136 C103.288329,58.750458 85.5264187,58.1992438 84.1926258,43.8737063 C83.2215953,33.4444002 85.6804663,28.583669 87.0898132,26.711122 C88.9874018,18.4846594 82.1916524,0.275288364 103.183704,0.275288364 Z M106.520494,13.3147678 C102.015558,15.6555377 95.2951163,21.6541194 90.730854,25.7285864 L107.618714,25.7290601 C107.951837,23.5055728 108.263935,20.5560089 108.268498,17.2844347 C107.654237,15.9190202 107.062583,14.5785515 106.520494,13.3147678 Z" id="Combined-Shape" fill="#F9C071"></path>
                <path d="M110.603949,11.9348871 C110.603949,11.9348871 111.913281,15.9201823 112.354226,20.1910904 C113.352018,19.2380743 114.964299,18.137685 116.262369,19.3245545 C118.297802,21.1858345 114.425206,29.2927015 110.996566,28.790193 C110.996566,28.790193 110.966078,28.7885433 110.913455,28.7801896 C110.070929,29.8049828 108.831392,30.4323686 107.059389,30.4323686 C97.4376516,30.4323686 93.3030141,32.3851866 91.3816513,28.8416206 C91.3711864,28.8223201 91.3608354,28.8027324 91.3505976,28.7828612 C88.1021019,28.3257493 84.8005702,21.0657874 86.7126435,19.3173122 C88.002823,18.1376574 89.603405,19.2175383 90.6029916,20.1670889 C90.8093221,16.0114342 91.3816513,12.0715739 91.3816513,12.0715739 C93.3582868,15.888176 110.603949,11.9348871 110.603949,11.9348871 Z" id="Combined-Shape" fill="#FDE2BF"></path>
                <g id="Fill" opacity="0.0700000003" transform="translate(122.806120, 124.521733)" fill="#343839">
                    <path d="M7.50170821,17.3617279 C7.30550021,17.3617279 7.10814814,17.2900308 6.94683427,17.1435727 C0.441652332,11.230709 0.0160582975,1.3708296 0.000613352704,0.954128672 C-0.0171197321,0.447346803 0.351842838,0.0202283468 0.824915777,0.000618891139 C1.29455651,-0.0177649735 1.69669711,0.375649731 1.71557426,0.8824316 C1.71900647,0.976802105 2.13716405,10.3605394 8.05715419,15.7421094 C8.41868031,16.0705678 8.462727,16.6502723 8.15611625,17.0375591 C7.98622185,17.2514247 7.74482309,17.3617279 7.50170821,17.3617279 Z"></path>
                </g>
            </g>
        </g>
        <g id="Little-coins" transform="translate(250.000000, 304.000000)">
            <path d="M50.8366314,63 C77.0441506,63 86,60.4433557 86,58.5 C86,56.5566443 71.1033429,54 48.6519119,54 C26.2004809,54 8,56.7495298 8,58.6928855 C8,60.6362412 24.6291121,63 50.8366314,63 Z" id="Oval" fill="#FFD638"></path>
            <path d="M1,46.6928855 C8.86349473,49.1731308 22.2980956,50.4040535 41.3038026,50.3856537 C60.3095096,50.3672539 72.5415754,49.2387026 78,47 L78,57.1825892 C62.577716,59.0608631 50.3456502,60 41.3038026,60 C32.261955,60 18.8273541,59.0608631 1,57.1825892 L1,46.6928855 Z" id="Rectangle" fill="#F5BC2B"></path>
            <path d="M8,59 C15.8634947,61.2755023 29.2980956,62.4040535 48.3038026,62.3856537 C67.3095096,62.3672539 79.5415754,61.2387026 85,59 L85,69.1825892 C69.577716,71.0608631 57.3456502,72 48.3038026,72 C39.261955,72 25.8273541,71.0608631 8,69.1825892 L8,59 Z" id="Rectangle" fill="#F5BC2B"></path>
            <path d="M43.8366314,51 C70.0441506,51 79,48.4433557 79,46.5 C79,44.5566443 64.1033429,42 41.6519119,42 C19.2004809,42 1,44.7495298 1,46.6928855 C1,48.6362412 17.6291121,51 43.8366314,51 Z" id="Oval" fill="#FFD638"></path>
            <path d="M6,38 C13.7613714,40.4505409 27.021497,41.6659038 45.7803766,41.6460886 C64.5392563,41.6262734 76.6124641,40.4109105 82,38 L82,48.9658653 C66.7780054,50.9886218 54.7047976,52 45.7803766,52 C36.8559556,52 23.59583,50.9886218 6,48.9658653 L6,38 Z" id="Rectangle" fill="#F5BC2B"></path>
            <path d="M48.8366314,42 C75.0441506,42 84,39.4433557 84,37.5 C84,35.5566443 69.1033429,33 46.6519119,33 C24.2004809,33 6,35.7495298 6,37.6928855 C6,39.6362412 22.6291121,42 48.8366314,42 Z" id="Oval" fill="#FFD638"></path>
            <path d="M44.8366314,31 C71.0441506,31 80,28.7274273 80,27 C80,25.2725727 65.1033429,23 42.6519119,23 C20.2004809,23 2,25.4440265 2,27.1714538 C2,28.8988811 18.6291121,31 44.8366314,31 Z" id="Oval" fill="#FFD638"></path>
            <path d="M4,15.0148456 C11.8634947,15.0346398 25.2980956,15.0346398 44.3038026,15.0148456 C63.3095096,14.9950515 75.5415754,14.9950515 81,15.0148456 L81,25.9690827 C65.577716,27.9896942 53.3456502,29 44.3038026,29 C35.261955,29 21.8273541,27.9896942 4,25.9690827 L4,15.0148456 Z" id="Rectangle" fill="#F5BC2B"></path>
            <path d="M0,5 C8.27198796,8.39419639 22.4044902,10.0820947 42.3975066,10.0636949 C62.3905231,10.045295 75.2580209,8.35739676 81,5 L81,15.1825892 C64.7765584,17.0608631 51.9090606,18 42.3975066,18 C32.8859526,18 18.7534504,17.0608631 0,15.1825892 L0,5 Z" id="Rectangle" fill="#F5BC2B"></path>
            <path d="M2,27 C9.86349473,29.4505409 23.2980956,30.6659038 42.3038026,30.6460886 C61.3095096,30.6262734 73.5415754,29.4109105 79,27 L79,37.9658653 C63.577716,39.9886218 51.3456502,41 42.3038026,41 C33.261955,41 19.8273541,39.9886218 2,37.9658653 L2,27 Z" id="Rectangle" fill="#F5BC2B"></path>
            <path d="M42.3975066,11 C68.5070912,11 81,7.06427121 81,4.99557128 C81,2.92687135 62.8675324,0 40.5,0 C18.1324676,0 0,2.92687135 0,4.99557128 C0,7.06427121 16.2879221,11 42.3975066,11 Z" id="Oval" fill="#FFD638"></path>
            <path d="M40.8352825,8 C59.2086938,8 68,5.13765179 68,3.63314275 C68,2.12863371 55.2401154,0 39.5,0 C23.7598846,0 11,2.12863371 11,3.63314275 C11,5.13765179 22.4618711,8 40.8352825,8 Z" id="Oval" fill="#FFC83B"></path>
            <path d="M53,3.51054051 L50.4519633,3.49410783 C50.3870664,3.11104977 50.2267418,2.76362673 49.9709896,2.45219207 C49.7152374,2.14144059 49.3702426,1.87749754 48.9360052,1.6604678 C48.5017678,1.44426106 47.9825129,1.27911675 47.3782407,1.16489213 C46.7739685,1.05130018 46.0865622,0.99654009 45.3160219,1.00016915 C44.510457,1.00400853 43.8033716,1.06667652 43.1947656,1.18768361 C42.5861596,1.30808441 42.0478048,1.48037769 41.5797013,1.70433764 C41.1115979,1.92739024 40.6986134,2.19689912 40.340748,2.51279631 C39.9828826,2.8276955 39.64753,3.18282042 39.3346902,3.57809204 C39.1046295,3.86885285 38.8742138,4.11102996 38.6434431,4.3047709 C38.4126724,4.49811025 38.1680304,4.65302708 37.9095172,4.76961765 C37.651004,4.88593495 37.3719378,4.96696907 37.0723185,5.01282905 C36.7726993,5.05856117 36.4346326,5.07894719 36.0581186,5.0740906 C35.6640923,5.06901897 35.303895,5.03881807 34.9775267,4.98359938 C34.6511583,4.92854041 34.3739422,4.84876239 34.1458783,4.74430773 C33.9178144,4.64006938 33.7412064,4.50825965 33.6160543,4.34885343 C33.4909022,4.18963005 33.4326056,4.0008956 33.4411646,3.78250006 C33.4491122,3.57968882 33.5393643,3.39972063 33.711921,3.24242027 C33.8844776,3.0848715 34.1283172,2.95174897 34.4434396,2.84300708 C34.7585621,2.73395596 35.1383621,2.65026088 35.5828398,2.59198509 C36.0273174,2.53348438 36.5253747,2.50449152 37.0770115,2.5051915 L37.1318043,1.0829895 C36.2474341,1.08755762 35.4486767,1.14192979 34.735532,1.24560237 C34.0223872,1.34865933 33.4038406,1.49462103 32.8798921,1.68328769 C32.3559436,1.87107231 31.928935,2.09757448 31.5988664,2.3628536 C31.2687978,2.62732993 31.0445782,2.92697496 30.9262075,3.26211467 L28.0366814,3.24970356 L28,4.16241258 L30.8632578,4.18701882 C30.9375222,4.52315872 31.109365,4.82884543 31.3787864,5.10441956 C31.6482077,5.38067984 32.0046062,5.61828614 32.4479819,5.8173245 C32.8913576,6.01716375 33.4152579,6.1753798 34.019683,6.2918304 C34.6241081,6.40889218 35.2940785,6.47472938 36.0295943,6.48891263 C36.8439153,6.50466059 37.5576442,6.45887837 38.1707811,6.35105599 C38.783918,6.24260101 39.3246146,6.08014801 39.792871,5.8634781 C40.2611273,5.64588375 40.6742264,5.3802102 41.0321682,5.0663973 C41.39011,4.75157978 41.7166682,4.39696952 42.0118429,4.00254687 C42.22378,3.72425151 42.4450575,3.4881457 42.6756754,3.29432545 C42.9062932,3.10011214 43.1530478,2.94223832 43.4159391,2.82079045 C43.6788304,2.69906476 43.9645401,2.6108486 44.2730683,2.55624344 C44.5815966,2.50149576 44.9197396,2.47437263 45.2874975,2.47498821 C46.1018185,2.47638566 46.7471475,2.60792569 47.2234844,2.87039182 C47.6998213,3.13395004 47.9289723,3.51158039 47.9109373,4.00240663 C47.9039067,4.19372501 47.8422266,4.38240122 47.7258971,4.56830391 C47.6095676,4.7540199 47.4151206,4.91989332 47.1425561,5.06580434 C46.8699917,5.21136889 46.5087084,5.32740862 46.0587064,5.413922 C45.6087044,5.50008684 45.0422139,5.53790078 44.359235,5.52765021 L44.3044422,6.99519575 C45.3289106,7.01716367 46.2093883,6.96382871 46.9458754,6.83447061 C47.6823624,6.70422713 48.2936431,6.52273195 48.7797174,6.28990371 C49.2657917,6.05608163 49.6415243,5.78384233 49.9069153,5.47339977 C50.1723063,5.16224865 50.3462163,4.83666637 50.4286454,4.49700518 L52.9635479,4.5241851 L53,3.51054051 Z" id="$" fill="#FFFFFF" fill-rule="nonzero"></path>
        </g>
        <g id="Big-coin" transform="translate(308.000000, 300.000000)">
            <path d="M31.8972604,12.5985607 L48.137081,11.1295403 L40.9716716,91.9408801 L24.924215,89.1192206 C15.7646941,77.1764841 11.7375096,64.8012596 12.8426615,51.9935473 C13.9478135,39.1858351 20.2993464,26.0541729 31.8972604,12.5985607 Z" id="Rectangle" fill="#F5BC2B" transform="translate(30.400631, 51.535210) rotate(-20.000000) translate(-30.400631, -51.535210) "></path>
            <ellipse id="Oval" fill="#FFD638" transform="translate(45.812849, 46.000000) rotate(-13.000000) translate(-45.812849, -46.000000) " cx="45.8128489" cy="46" rx="26.6589852" ry="40.747949"></ellipse>
            <ellipse id="Oval" fill="#FFC83B" transform="translate(45.812849, 46.000000) rotate(-13.000000) translate(-45.812849, -46.000000) " cx="45.8128489" cy="46" rx="20.5655137" ry="32.7521221"></ellipse>
            <path d="M47.338786,64.4860068 L47.3505642,60.6133314 C48.5518323,60.4898747 49.6413631,60.2236993 50.6191567,59.8148052 C51.5969504,59.4059111 52.4299845,58.8643805 53.1182592,58.1902136 C53.806534,57.5160467 54.3368323,56.7159379 54.7091541,55.7898873 C55.081476,54.8638366 55.2694178,53.8152522 55.2730338,52.6441338 C55.2767033,51.4197828 55.0886088,50.3490626 54.7086959,49.4319731 C54.3287831,48.5148836 53.7769787,47.7081127 53.0532826,47.0116603 C52.3295866,46.3152078 51.4505657,45.705734 50.41622,45.1832389 C49.3818743,44.6607437 48.2121507,44.1752609 46.9070491,43.7267904 C45.9446986,43.397041 45.1407191,43.0634788 44.4951108,42.726104 C43.8495024,42.3887291 43.3293339,42.0276804 42.9346053,41.6429579 C42.5398767,41.2582354 42.2607209,40.8398884 42.0971377,40.3879168 C41.9335546,39.9359452 41.8526332,39.4238339 41.8543736,38.8515829 C41.856195,38.2527156 41.9436434,37.7034907 42.1167189,37.2039085 C42.2897944,36.7043262 42.5484261,36.2776757 42.8926141,35.923957 C43.236802,35.5702384 43.6764337,35.2927482 44.211509,35.0914865 C44.7465843,34.8902248 45.3836308,34.7884607 46.1226485,34.7861941 C46.8088792,34.7840894 47.4188441,34.908645 47.9525433,35.1598608 C48.4862424,35.4110767 48.937128,35.7723378 49.3052,36.2436443 C49.673272,36.7149508 49.9552616,37.2863316 50.1511688,37.9577867 C50.3470759,38.6292418 50.4437546,39.3841765 50.4412047,40.2225908 L50.4412047,40.2225908 L55.1722377,40.2080805 C55.1763257,38.863956 55.0117504,37.6534293 54.6785119,36.5765002 C54.3452734,35.4995711 53.8631262,34.5694871 53.2320705,33.7862483 C52.6010148,33.0030095 51.8342371,32.3699024 50.9317374,31.886927 C50.0292377,31.4039516 49.0041723,31.0843755 47.8565412,30.9281989 L47.8565412,30.9281989 L47.8698979,26.5365051 L44.7026792,26.5462191 L44.6894438,30.8979884 C43.5409223,31.0345914 42.5008287,31.3172502 41.5691629,31.7459649 C40.6374972,32.1746796 39.8440027,32.7327239 39.1886794,33.4200978 C38.533356,34.1074717 38.0261318,34.9141637 37.6670067,35.8401739 C37.3078816,36.7661841 37.126619,37.788132 37.1232192,38.9060177 C37.119455,40.1436768 37.3141176,41.2243579 37.7072069,42.148061 C38.1002962,43.0717641 38.6652873,43.8818216 39.4021801,44.5782336 C40.1390728,45.2746455 41.0279913,45.884089 42.0689353,46.4065639 C43.1098794,46.9290388 44.2763444,47.4012236 45.5683302,47.8231182 C46.4779746,48.1264132 47.2490027,48.4467684 47.8814143,48.7841837 C48.513826,49.1215991 49.027386,49.485995 49.4220943,49.8773716 C49.8168026,50.2687482 50.1025265,50.6970561 50.2792659,51.1622954 C50.4560054,51.6275347 50.5435251,52.1396257 50.5418252,52.6985686 C50.538061,53.9362277 50.1193583,54.9256338 49.285717,55.6667868 C48.4520757,56.4079397 47.2566471,56.7809043 45.6994312,56.7856803 C45.0923809,56.7875422 44.492182,56.7062077 43.8988344,56.5416771 C43.3054868,56.3771464 42.7718889,56.0926602 42.2980406,55.6882183 C41.8241922,55.2837764 41.4398368,54.7426527 41.1449743,54.064847 C40.8501117,53.3870414 40.704259,52.5291202 40.707416,51.4910835 L40.707416,51.4910835 L35.9763104,51.5055938 C35.9716474,53.0626489 36.1985328,54.3960839 36.6570392,55.5058989 C37.1155457,56.6157139 37.7264015,57.532095 38.4896068,58.2550424 C39.2528121,58.9779897 40.1287059,59.5309139 41.1172879,59.913815 C42.10587,60.2967161 43.1344673,60.5397601 44.2030799,60.6429469 L44.2030799,60.6429469 L44.1913624,64.4956601 L47.338786,64.4860068 Z" id="$" fill="#FFFFFF" fill-rule="nonzero" transform="translate(45.624672, 45.516083) rotate(-18.000000) translate(-45.624672, -45.516083) "></path>
        </g>
        <g id="Book" transform="translate(132.991141, 107.080133)">
            <rect id="Rectangle" fill="#ADAFBD" transform="translate(109.545711, 98.629725) rotate(-18.000000) translate(-109.545711, -98.629725) " x="27.545711" y="24.6297254" width="164" height="148"></rect>
            <polygon id="Path-7" fill="#5E5D87" transform="translate(64.420305, 205.945558) rotate(2.000000) translate(-64.420305, -205.945558) " points="51.6037102 188.849294 51.6037102 232.492949 64.4628082 219.646216 77.2369002 232.492949 74.876823 179.398166"></polygon>
            <rect id="Rectangle" fill="#FFFFFF" transform="translate(105.000000, 96.000000) rotate(-18.000000) translate(-105.000000, -96.000000) " x="18" y="24" width="174" height="144"></rect>
            <rect id="Rectangle" fill="#E7E7E7" transform="translate(24.160196, 122.266445) rotate(-18.000000) translate(-24.160196, -122.266445) " x="22.1601961" y="50.2664445" width="4" height="144"></rect>
            <polygon id="Rectangle" fill="#F5F5F5" transform="translate(28.849442, 120.764290) rotate(-18.000000) translate(-28.849442, -120.764290) " points="25.9255127 48.7438673 31.7733705 48.719632 31.6420518 192.808947 26.0019245 192.652498"></polygon>
            <path d="M96.2523455,64.0970771 C98.454936,63.8871098 100.545223,64.0563572 102.523208,64.6048194 C104.501192,65.1532815 106.295636,66.0764636 107.906541,67.3743656 C109.517445,68.6722675 110.809907,70.338655 111.783926,72.3735279 L111.783926,72.3735279 L104.34937,75.8403183 C103.716464,74.7526332 102.989902,73.8280453 102.169685,73.0665545 C101.349467,72.3050638 100.434551,71.74487 99.4249348,71.3859731 C98.415319,71.0270762 97.3282042,70.8928833 96.1635905,70.9833942 C94.9989769,71.0739051 93.7661464,71.4225047 92.4650991,72.029193 C91.3499157,72.5492116 90.3847482,73.1752711 89.5695968,73.9073715 C88.7544454,74.6394719 88.1309609,75.44562 87.6991435,76.3258158 C87.267326,77.2060116 87.0381971,78.1299736 87.0117567,79.0977018 C86.9853164,80.06543 87.2032156,81.0449312 87.6654543,82.0362053 C88.1565829,83.0894341 88.8511793,83.8780753 89.7492435,84.4021289 C90.6473077,84.9261825 91.6648418,85.2751015 92.8018459,85.4488859 C93.9388501,85.6226702 95.168814,85.658824 96.4917376,85.5573471 C96.9318357,85.5235887 97.3752111,85.4834327 97.8218638,85.4368792 C98.9725318,85.1019083 100.126916,84.8804731 101.286032,84.7699774 C102.221732,84.6807795 103.137165,84.6600186 104.03233,84.7076947 C104.992632,84.6456979 105.948625,84.6185908 106.899992,84.626062 C108.994454,84.6425102 110.959441,84.9204706 112.794952,85.459943 C114.630462,85.9994154 116.281765,86.8447784 117.748861,87.9960322 C119.215956,89.1472859 120.402112,90.6935354 121.30733,92.6347806 C122.241437,94.6379804 122.641443,96.6011019 122.507348,98.5241451 C122.373253,100.447188 121.834476,102.257233 120.891018,103.954278 C120.384832,104.864781 119.779297,105.732954 119.074412,106.558797 C120.419854,107.080695 121.655552,107.78456 122.782547,108.668932 C124.249643,109.820186 125.435799,111.366436 126.341017,113.307681 C127.275124,115.310881 127.67513,117.274002 127.541035,119.197045 C127.406939,121.120089 126.868163,122.930133 125.924705,124.627178 C124.981247,126.324224 123.692655,127.874217 122.058929,129.277159 C120.425202,130.680101 118.586088,131.858256 116.541585,132.811623 C115.157931,133.456832 113.722009,133.96299 112.233817,134.330098 C110.745626,134.697206 109.251631,134.903597 107.751833,134.94927 C106.252036,134.994943 104.77982,134.870617 103.335185,134.576291 C101.890551,134.281965 100.527535,133.798728 99.2461366,133.126579 C97.9647385,132.45443 96.7959357,131.578924 95.7397284,130.500062 C94.6835211,129.4212 93.7839677,128.112151 93.0410681,126.572915 L93.0410681,126.572915 L100.506601,123.09168 C101.245437,124.406532 102.098608,125.454361 103.066114,126.235167 C104.03362,127.015974 105.086891,127.549365 106.225927,127.835341 C107.364963,128.121317 108.566357,128.177079 109.830109,128.002626 C111.093861,127.828173 112.396912,127.427972 113.739263,126.802024 C114.854446,126.282005 115.834754,125.661457 116.680187,124.940378 C117.52562,124.219299 118.186957,123.426928 118.664196,122.563264 C119.141436,121.699601 119.406009,120.784253 119.457916,119.817221 C119.509823,118.850188 119.304657,117.871035 118.842418,116.879761 C118.34166,115.80588 117.679084,114.964595 116.854692,114.355903 C116.0303,113.747211 115.065786,113.323284 113.961151,113.084122 C112.856516,112.84496 111.633107,112.755465 110.290923,112.815639 C110.139845,112.822412 109.987737,112.830223 109.8346,112.839071 C108.975482,113.16403 108.097304,113.435882 107.20013,113.657198 C105.711939,114.024306 104.217944,114.230697 102.718146,114.27637 C101.218349,114.322043 99.7461327,114.197717 98.3014984,113.903391 L98.5045916,113.941651 C96.9098529,113.722269 95.2016341,113.435786 93.9515133,113.118487 C92.0836335,112.644393 90.3872283,111.86406 88.8622977,110.777488 C87.337367,109.690917 86.1222929,108.177008 85.2170754,106.235763 C84.3118579,104.294518 83.9187264,102.359618 84.037681,100.431064 C84.1566355,98.5025105 84.667886,96.6738742 85.5714324,94.9451557 C86.1056999,93.9229634 86.7597972,92.9503806 87.5337242,92.0274073 C86.2037333,91.5576604 84.9682837,90.9166487 83.8286108,90.1045881 C82.3036801,89.0180165 81.0886061,87.5041082 80.1833886,85.562863 C79.2781711,83.6216178 78.8850396,81.6867182 79.0039941,79.7581642 C79.1229487,77.8296102 79.6341991,76.0009739 80.5377455,74.2722554 C81.441292,72.5435369 82.6875651,70.9567072 84.2765648,69.5117664 C85.8655646,68.0668255 87.6719901,66.8724864 89.6958415,65.928749 C91.8642537,64.9176018 94.049755,64.3070445 96.2523455,64.0970771 Z M105.20004,91.7212719 C103.943534,91.7212719 102.427781,91.4973329 100.923113,91.7212719 C100.410224,91.8005885 99.8993974,91.9259328 99.3885323,92.0694221 C98.557766,92.3427556 97.6855448,92.7080098 96.9598044,93.0464282 C95.844621,93.5664467 95.4184351,93.8481714 94.6032837,94.5802718 C93.7881322,95.3123722 93.1646478,96.1185203 92.7328303,96.9987161 C92.3010129,97.8789119 92.071884,98.8028739 92.0454436,99.7706021 C92.0190032,100.73833 92.2369024,101.717831 92.6991412,102.709106 C93.1902698,103.762334 93.8848662,104.550976 94.7829304,105.075029 C95.6809945,105.599083 97.409794,106.282421 98.5467982,106.456205 C99.6838023,106.62999 103.079365,107.126024 105.046988,106.904873 C106.358736,106.757439 108.065293,106.230699 110.166658,105.324652 C110.175911,105.324414 110.185137,105.324178 110.194335,105.323944 C110.716598,105.000564 111.200331,104.64802 111.6465,104.267478 C112.491933,103.546399 113.15327,102.754028 113.630509,101.890364 C114.107749,101.026701 114.372322,100.111353 114.424229,99.1443203 C114.476136,98.1772879 114.27097,97.1981347 113.808732,96.2068605 C113.307973,95.1329802 112.645398,94.2916942 111.821005,93.6830027 C110.996613,93.0743111 110.0321,92.6503841 108.927464,92.4112217 C108.26756,92.2683471 107.514278,92.0499474 106.746806,91.8972486 C106.099136,91.8503407 105.618019,91.7928473 105.302214,91.7252702 Z" id="Combined-Shape" fill="#E7E7E7" fill-rule="nonzero" transform="translate(103.274777, 99.484179) rotate(2.000000) translate(-103.274777, -99.484179) "></path>
            <path d="M98.2523455,61.0970771 C100.454936,60.8871098 102.545223,61.0563572 104.523208,61.6048194 C106.501192,62.1532815 108.295636,63.0764636 109.906541,64.3743656 C111.517445,65.6722675 112.809907,67.338655 113.783926,69.3735279 L113.783926,69.3735279 L106.34937,72.8403183 C105.716464,71.7526332 104.989902,70.8280453 104.169685,70.0665545 C103.349467,69.3050638 102.434551,68.74487 101.424935,68.3859731 C100.415319,68.0270762 99.3282042,67.8928833 98.1635905,67.9833942 C96.9989769,68.0739051 95.7661464,68.4225047 94.4650991,69.029193 C93.3499157,69.5492116 92.3847482,70.1752711 91.5695968,70.9073715 C90.7544454,71.6394719 90.1309609,72.44562 89.6991435,73.3258158 C89.267326,74.2060116 89.0381971,75.1299736 89.0117567,76.0977018 C88.9853164,77.06543 89.2032156,78.0449312 89.6654543,79.0362053 C90.1565829,80.0894341 90.8511793,80.8780753 91.7492435,81.4021289 C92.6473077,81.9261825 93.6648418,82.2751015 94.8018459,82.4488859 C95.9388501,82.6226702 97.168814,82.658824 98.4917376,82.5573471 C98.9318357,82.5235887 99.3752111,82.4834327 99.8218638,82.4368792 C100.972532,82.1019083 102.126916,81.8804731 103.286032,81.7699774 C104.221732,81.6807795 105.137165,81.6600186 106.03233,81.7076947 C106.992632,81.6456979 107.948625,81.6185908 108.899992,81.626062 C110.994454,81.6425102 112.959441,81.9204706 114.794952,82.459943 C116.630462,82.9994154 118.281765,83.8447784 119.748861,84.9960322 C121.215956,86.1472859 122.402112,87.6935354 123.30733,89.6347806 C124.241437,91.6379804 124.641443,93.6011019 124.507348,95.5241451 C124.373253,97.4471884 123.834476,99.2572327 122.891018,100.954278 C122.384832,101.864781 121.779297,102.732954 121.074412,103.558797 C122.419854,104.080695 123.655552,104.78456 124.782547,105.668932 C126.249643,106.820186 127.435799,108.366436 128.341017,110.307681 C129.275124,112.310881 129.67513,114.274002 129.541035,116.197045 C129.406939,118.120089 128.868163,119.930133 127.924705,121.627178 C126.981247,123.324224 125.692655,124.874217 124.058929,126.277159 C122.425202,127.680101 120.586088,128.858256 118.541585,129.811623 C117.157931,130.456832 115.722009,130.96299 114.233817,131.330098 C112.745626,131.697206 111.251631,131.903597 109.751833,131.94927 C108.252036,131.994943 106.77982,131.870617 105.335185,131.576291 C103.890551,131.281965 102.527535,130.798728 101.246137,130.126579 C99.9647385,129.45443 98.7959357,128.578924 97.7397284,127.500062 C96.6835211,126.4212 95.7839677,125.112151 95.0410681,123.572915 L95.0410681,123.572915 L102.506601,120.09168 C103.245437,121.406532 104.098608,122.454361 105.066114,123.235167 C106.03362,124.015974 107.086891,124.549365 108.225927,124.835341 C109.364963,125.121317 110.566357,125.177079 111.830109,125.002626 C113.093861,124.828173 114.396912,124.427972 115.739263,123.802024 C116.854446,123.282005 117.834754,122.661457 118.680187,121.940378 C119.52562,121.219299 120.186957,120.426928 120.664196,119.563264 C121.141436,118.699601 121.406009,117.784253 121.457916,116.817221 C121.509823,115.850188 121.304657,114.871035 120.842418,113.879761 C120.34166,112.80588 119.679084,111.964595 118.854692,111.355903 C118.0303,110.747211 117.065786,110.323284 115.961151,110.084122 C114.856516,109.84496 113.633107,109.755465 112.290923,109.815639 C112.139845,109.822412 111.987737,109.830223 111.8346,109.839071 C110.975482,110.16403 110.097304,110.435882 109.20013,110.657198 C107.711939,111.024306 106.217944,111.230697 104.718146,111.27637 C103.218349,111.322043 101.746133,111.197717 100.301498,110.903391 L100.504592,110.941651 C98.9098529,110.722269 97.2016341,110.435786 95.9515133,110.118487 C94.0836335,109.644393 92.3872283,108.86406 90.8622977,107.777488 C89.337367,106.690917 88.1222929,105.177008 87.2170754,103.235763 C86.3118579,101.294518 85.9187264,99.3596185 86.037681,97.4310645 C86.1566355,95.5025105 86.667886,93.6738742 87.5714324,91.9451557 C88.1056999,90.9229634 88.7597972,89.9503806 89.5337242,89.0274073 C88.2037333,88.5576604 86.9682837,87.9166487 85.8286108,87.1045881 C84.3036801,86.0180165 83.0886061,84.5041082 82.1833886,82.562863 C81.2781711,80.6216178 80.8850396,78.6867182 81.0039941,76.7581642 C81.1229487,74.8296102 81.6341991,73.0009739 82.5377455,71.2722554 C83.441292,69.5435369 84.6875651,67.9567072 86.2765648,66.5117664 C87.8655646,65.0668255 89.6719901,63.8724864 91.6958415,62.928749 C93.8642537,61.9176018 96.049755,61.3070445 98.2523455,61.0970771 Z M107.20004,88.7212719 C105.943534,88.7212719 104.427781,88.4973329 102.923113,88.7212719 C102.410224,88.8005885 101.899397,88.9259328 101.388532,89.0694221 C100.557766,89.3427556 99.6855448,89.7080098 98.9598044,90.0464282 C97.844621,90.5664467 97.4184351,90.8481714 96.6032837,91.5802718 C95.7881322,92.3123722 95.1646478,93.1185203 94.7328303,93.9987161 C94.3010129,94.8789119 94.071884,95.8028739 94.0454436,96.7706021 C94.0190032,97.7383303 94.2369024,98.7178315 94.6991412,99.7091056 C95.1902698,100.762334 95.8848662,101.550976 96.7829304,102.075029 C97.6809945,102.599083 99.409794,103.282421 100.546798,103.456205 C101.683802,103.62999 105.079365,104.126024 107.046988,103.904873 C108.358736,103.757439 110.065293,103.230699 112.166658,102.324652 C112.175911,102.324414 112.185137,102.324178 112.194335,102.323944 C112.716598,102.000564 113.200331,101.64802 113.6465,101.267478 C114.491933,100.546399 115.15327,99.7540276 115.630509,98.8903641 C116.107749,98.0267006 116.372322,97.1113527 116.424229,96.1443203 C116.476136,95.1772879 116.27097,94.1981347 115.808732,93.2068605 C115.307973,92.1329802 114.645398,91.2916942 113.821005,90.6830027 C112.996613,90.0743111 112.0321,89.6503841 110.927464,89.4112217 C110.26756,89.2683471 109.514278,89.0499474 108.746806,88.8972486 C108.099136,88.8503407 107.618019,88.7928473 107.302214,88.7252702 Z" id="Combined-Shape" fill="#545376" fill-rule="nonzero" transform="translate(105.274777, 96.484179) rotate(2.000000) translate(-105.274777, -96.484179) "></path>
        </g>
        <path d="M157.5673,243.895217 C159.410515,248.040607 166.039143,243.207631 166.039258,239.900868 C158.32728,237.689494 155.724084,239.749826 157.5673,243.895217 Z" id="R-hand" fill="#FDE2BF" transform="translate(161.519629, 242.248330) scale(-1, 1) rotate(-16.000000) translate(-161.519629, -242.248330) "></path>
        <path d="M311.506384,146.703597 L312.138349,148.273555 C311.378912,149.161941 310.866044,149.222436 310.599745,148.45504 C310.333446,147.687644 310.635658,147.10383 311.506384,146.703597 Z M309.691796,141.833897 L310.599745,144.43259 C309.435824,145.300889 308.720714,145.35134 308.454415,144.583944 C308.188115,143.816547 308.600576,142.899865 309.691796,141.833897 Z M308.406951,137.866686 L308.923902,139.828101 C307.27629,141.422993 306.319334,141.836741 306.053034,141.069345 C305.786735,140.301948 306.571374,139.234395 308.406951,137.866686 Z" id="Fingers" fill="#FDE2BF"></path>
    </g>
</svg>