<?xml version="1.0" encoding="UTF-8"?>
<svg width="500px" height="432px" viewBox="0 0 500 432" version="1.1" xmlns="http://www.w3.org/2000/svg" xmlns:xlink="http://www.w3.org/1999/xlink">
    <!-- Generator: Sketch 63.1 (92452) - https://sketch.com -->
    <title>1_PL_IS"Information Statement" </title>
    <desc>Created with Sketch.</desc>
    <defs>
        <linearGradient x1="50%" y1="100%" x2="50%" y2="0%" id="linearGradient-1">
            <stop stop-color="#FFFFFF" offset="0%"></stop>
            <stop stop-color="#ECF3FA" offset="100%"></stop>
        </linearGradient>
        <filter x="0.0%" y="0.0%" width="100.0%" height="100.0%" filterUnits="objectBoundingBox" id="filter-2">
            <feGaussianBlur stdDeviation="0" in="SourceGraphic"></feGaussianBlur>
        </filter>
    </defs>
    <g id="1_PL_IS&quot;Information-Statement&quot;-" stroke="none" stroke-width="1" fill="none" fill-rule="evenodd">
        <g id="Background" transform="translate(248.500000, 215.500000) scale(-1, 1) translate(-248.500000, -215.500000) translate(-1.000000, -1.000000)">
            <path d="M206.659342,431.278286 C343.249511,445.672455 498,368.868209 498,236.248915 C498,103.629622 402.936853,2 308.718427,1 C214.5,-9.43689571e-15 -2,146 0.174744901,251.858481 C2.3494898,357.716961 70.0691732,416.884117 206.659342,431.278286 Z" id="Oval" fill-opacity="0.15" fill="#D8E5F0"></path>
            <path d="M4.28417969,290 C150.271851,275.003247 263.510458,266.669914 344,265 C424.489542,263.330086 473.889282,268.289166 492.199219,279.877241 C486.586789,298.055298 481.658403,310.818223 477.414063,318.166016 C463.711382,341.888064 446.878987,359.419246 436.679688,368.595703 C418.906259,384.586715 380.503517,406.831936 346.845703,418.526367 C328.64867,424.848939 296.446763,431.829801 228.463838,432.935599 C200.973231,433.382757 109.92304,422.839213 61.09375,391.828125 C35.03125,375.276042 16.0947266,341.333333 4.28417969,290 Z" id="Path-8" fill="url(#linearGradient-1)" filter="url(#filter-2)"></path>
            <g id="Tree" transform="translate(366.000000, 171.000000)">
                <ellipse id="Oval" fill="#E0E7ED" cx="55.5" cy="184" rx="33.5" ry="1"></ellipse>
                <polygon id="Rectangle" fill="#E8F0F8" points="51 132 60 132 60 183 51 183"></polygon>
                <path d="M38.0056721,115.084569 C52.3151162,115.115351 63.8902091,103.511386 63.8594274,89.1663274 C63.8285227,74.8212687 52.2034229,63.1672975 37.8939789,63.1363768 C27.8126419,63.1146986 20.0030101,67.6640871 14.4650836,76.7845421 L29.2373454,87.3490249 L12.648819,83.3788432 C12.2403346,85.8626839 12.0374804,87.7546142 12.0402566,89.0546342 C12.0711283,103.399693 23.6962281,115.053664 38.0056721,115.084569 Z" id="Oval" fill="#E8F0F8" transform="translate(37.949842, 89.110473) rotate(120.000000) translate(-37.949842, -89.110473) "></path>
                <path d="M38.0971367,107.225405 C58.8222773,107.227397 125.246569,57.7892772 82.0308893,23.6596045 C82.0308893,23.6596045 77.2455268,29.7473734 67.6748017,41.9229113 C64.3178536,22.9877594 60.0218692,13.5201835 54.7868485,13.5201835 C40.1855037,13.5187995 28.860794,20.0743485 20.8127195,33.1868303 L42.1768177,48.3127664 L18.1624757,42.6609928 C17.563623,46.2287611 17.2641967,48.945994 17.2641967,50.8126917 C17.2661491,71.4107511 17.3719961,107.223413 38.0971367,107.225405 Z" id="Oval" fill="#E8F0F8" transform="translate(56.807111, 60.372794) scale(-1, 1) rotate(-27.000000) translate(-56.807111, -60.372794) "></path>
                <path d="M57.8185301,155.671185 C78.4199524,155.641079 95.1450744,138.81856 95.1751763,118.096997 C95.205197,97.375434 78.528814,80.6016612 57.9273917,80.6316865 C43.4132093,80.6528953 32.1459156,87.2652788 24.1255107,100.468837 L41.6892941,114.415713 L21.4763677,110.003908 C20.8753709,113.593995 20.5734968,116.327984 20.5707454,118.205874 C20.5407247,138.927437 37.2171078,155.70121 57.8185301,155.671185 Z" id="Oval" fill="#E8F0F8" transform="translate(57.872961, 118.151436) scale(-1, 1) rotate(77.000000) translate(-57.872961, -118.151436) "></path>
                <path d="M81.3417969,108.944824 L81.4238281,99.0703125 L78.9423828,99.0703125 L79.0244141,108.944824 L81.3417969,108.944824 Z M80.1933594,114.133301 C80.6582031,114.133301 81.0170898,114.005127 81.2700195,113.748779 C81.5229492,113.492432 81.6494141,113.169434 81.6494141,112.779785 C81.6494141,112.383301 81.5229492,112.053467 81.2700195,111.790283 C81.0170898,111.5271 80.6582031,111.395508 80.1933594,111.395508 C79.7285156,111.395508 79.3713379,111.5271 79.1218262,111.790283 C78.8723145,112.053467 78.7475586,112.383301 78.7475586,112.779785 C78.7475586,113.169434 78.8723145,113.492432 79.1218262,113.748779 C79.3713379,114.005127 79.7285156,114.133301 80.1933594,114.133301 Z" id="!" fill="#FFFFFF" fill-rule="nonzero" opacity="0.414318266" transform="translate(80.198486, 106.601807) scale(-1, 1) translate(-80.198486, -106.601807) "></path>
                <path d="M68.3417969,141.944824 L68.4238281,132.070312 L65.9423828,132.070312 L66.0244141,141.944824 L68.3417969,141.944824 Z M67.1933594,147.133301 C67.6582031,147.133301 68.0170898,147.005127 68.2700195,146.748779 C68.5229492,146.492432 68.6494141,146.169434 68.6494141,145.779785 C68.6494141,145.383301 68.5229492,145.053467 68.2700195,144.790283 C68.0170898,144.5271 67.6582031,144.395508 67.1933594,144.395508 C66.7285156,144.395508 66.3713379,144.5271 66.1218262,144.790283 C65.8723145,145.053467 65.7475586,145.383301 65.7475586,145.779785 C65.7475586,146.169434 65.8723145,146.492432 66.1218262,146.748779 C66.3713379,147.005127 66.7285156,147.133301 67.1933594,147.133301 Z" id="!" fill="#FFFFFF" fill-rule="nonzero" opacity="0.414318266" transform="translate(67.198486, 139.601807) scale(-1, 1) translate(-67.198486, -139.601807) "></path>
                <path d="M66.3417969,70.9448242 L66.4238281,61.0703125 L63.9423828,61.0703125 L64.0244141,70.9448242 L66.3417969,70.9448242 Z M65.1933594,76.1333008 C65.6582031,76.1333008 66.0170898,76.005127 66.2700195,75.7487793 C66.5229492,75.4924316 66.6494141,75.1694336 66.6494141,74.7797852 C66.6494141,74.3833008 66.5229492,74.0534668 66.2700195,73.7902832 C66.0170898,73.5270996 65.6582031,73.3955078 65.1933594,73.3955078 C64.7285156,73.3955078 64.3713379,73.5270996 64.1218262,73.7902832 C63.8723145,74.0534668 63.7475586,74.3833008 63.7475586,74.7797852 C63.7475586,75.1694336 63.8723145,75.4924316 64.1218262,75.7487793 C64.3713379,76.005127 64.7285156,76.1333008 65.1933594,76.1333008 Z" id="!" fill="#FFFFFF" fill-rule="nonzero" opacity="0.414318266" transform="translate(65.198486, 68.601807) scale(-1, 1) translate(-65.198486, -68.601807) "></path>
                <path d="M38.3417969,125.944824 L38.4238281,116.070312 L35.9423828,116.070312 L36.0244141,125.944824 L38.3417969,125.944824 Z M37.1933594,131.133301 C37.6582031,131.133301 38.0170898,131.005127 38.2700195,130.748779 C38.5229492,130.492432 38.6494141,130.169434 38.6494141,129.779785 C38.6494141,129.383301 38.5229492,129.053467 38.2700195,128.790283 C38.0170898,128.5271 37.6582031,128.395508 37.1933594,128.395508 C36.7285156,128.395508 36.3713379,128.5271 36.1218262,128.790283 C35.8723145,129.053467 35.7475586,129.383301 35.7475586,129.779785 C35.7475586,130.169434 35.8723145,130.492432 36.1218262,130.748779 C36.3713379,131.005127 36.7285156,131.133301 37.1933594,131.133301 Z" id="!" fill="#FFFFFF" fill-rule="nonzero" opacity="0.414318266" transform="translate(37.198486, 123.601807) scale(-1, 1) translate(-37.198486, -123.601807) "></path>
                <path d="M55.3417969,100.944824 L55.4238281,91.0703125 L52.9423828,91.0703125 L53.0244141,100.944824 L55.3417969,100.944824 Z M54.1933594,106.133301 C54.6582031,106.133301 55.0170898,106.005127 55.2700195,105.748779 C55.5229492,105.492432 55.6494141,105.169434 55.6494141,104.779785 C55.6494141,104.383301 55.5229492,104.053467 55.2700195,103.790283 C55.0170898,103.5271 54.6582031,103.395508 54.1933594,103.395508 C53.7285156,103.395508 53.3713379,103.5271 53.1218262,103.790283 C52.8723145,104.053467 52.7475586,104.383301 52.7475586,104.779785 C52.7475586,105.169434 52.8723145,105.492432 53.1218262,105.748779 C53.3713379,106.005127 53.7285156,106.133301 54.1933594,106.133301 Z" id="!" fill="#FFFFFF" fill-rule="nonzero" opacity="0.414318266" transform="translate(54.198486, 98.601807) scale(-1, 1) translate(-54.198486, -98.601807) "></path>
                <path d="M29.3417969,86.9448242 L29.4238281,77.0703125 L26.9423828,77.0703125 L27.0244141,86.9448242 L29.3417969,86.9448242 Z M28.1933594,92.1333008 C28.6582031,92.1333008 29.0170898,92.005127 29.2700195,91.7487793 C29.5229492,91.4924316 29.6494141,91.1694336 29.6494141,90.7797852 C29.6494141,90.3833008 29.5229492,90.0534668 29.2700195,89.7902832 C29.0170898,89.5270996 28.6582031,89.3955078 28.1933594,89.3955078 C27.7285156,89.3955078 27.3713379,89.5270996 27.1218262,89.7902832 C26.8723145,90.0534668 26.7475586,90.3833008 26.7475586,90.7797852 C26.7475586,91.1694336 26.8723145,91.4924316 27.1218262,91.7487793 C27.3713379,92.005127 27.7285156,92.1333008 28.1933594,92.1333008 Z" id="!" fill="#FFFFFF" fill-rule="nonzero" opacity="0.414318266" transform="translate(28.198486, 84.601807) scale(-1, 1) translate(-28.198486, -84.601807) "></path>
                <path d="M42.3417969,43.9448242 L42.4238281,34.0703125 L39.9423828,34.0703125 L40.0244141,43.9448242 L42.3417969,43.9448242 Z M41.1933594,49.1333008 C41.6582031,49.1333008 42.0170898,49.005127 42.2700195,48.7487793 C42.5229492,48.4924316 42.6494141,48.1694336 42.6494141,47.7797852 C42.6494141,47.3833008 42.5229492,47.0534668 42.2700195,46.7902832 C42.0170898,46.5270996 41.6582031,46.3955078 41.1933594,46.3955078 C40.7285156,46.3955078 40.3713379,46.5270996 40.1218262,46.7902832 C39.8723145,47.0534668 39.7475586,47.3833008 39.7475586,47.7797852 C39.7475586,48.1694336 39.8723145,48.4924316 40.1218262,48.7487793 C40.3713379,49.005127 40.7285156,49.1333008 41.1933594,49.1333008 Z" id="!" fill="#FFFFFF" fill-rule="nonzero" opacity="0.414318266" transform="translate(41.198486, 41.601807) scale(-1, 1) translate(-41.198486, -41.601807) "></path>
                <path d="M81.3417969,40.9448242 L81.4238281,31.0703125 L78.9423828,31.0703125 L79.0244141,40.9448242 L81.3417969,40.9448242 Z M80.1933594,46.1333008 C80.6582031,46.1333008 81.0170898,46.005127 81.2700195,45.7487793 C81.5229492,45.4924316 81.6494141,45.1694336 81.6494141,44.7797852 C81.6494141,44.3833008 81.5229492,44.0534668 81.2700195,43.7902832 C81.0170898,43.5270996 80.6582031,43.3955078 80.1933594,43.3955078 C79.7285156,43.3955078 79.3713379,43.5270996 79.1218262,43.7902832 C78.8723145,44.0534668 78.7475586,44.3833008 78.7475586,44.7797852 C78.7475586,45.1694336 78.8723145,45.4924316 79.1218262,45.7487793 C79.3713379,46.005127 79.7285156,46.1333008 80.1933594,46.1333008 Z" id="!" fill="#FFFFFF" fill-rule="nonzero" opacity="0.414318266" transform="translate(80.198486, 38.601807) scale(-1, 1) translate(-80.198486, -38.601807) "></path>
            </g>
            <g id="Tree" transform="translate(36.500000, 265.500000) scale(-1, 1) translate(-36.500000, -265.500000) translate(4.000000, 210.000000)">
                <ellipse id="Oval" fill="#E0E7ED" cx="32.5" cy="108" rx="19.5" ry="2"></ellipse>
                <polygon id="Rectangle" fill="#E8F0F8" points="31 76 35 76 35 108 31 108"></polygon>
                <path d="M21.0051371,65.7527874 C29.3272337,65.781203 36.0505177,59.0312358 36.0221024,50.6762239 C35.9935066,42.3212119 29.224006,35.5250281 20.9019094,35.4964091 C15.0387983,35.4764019 10.5002309,38.1203708 7.28620736,43.4283156 L15.8852291,49.5922674 L6.23476368,47.2676949 C5.99902747,48.7140567 5.88243702,49.8158238 5.88499233,50.5729962 C5.91353987,58.9280082 12.6830405,65.7241919 21.0051371,65.7527874 Z" id="Oval" fill="#E8F0F8" transform="translate(20.953547, 50.624598) rotate(120.000000) translate(-20.953547, -50.624598) "></path>
                <path d="M23.3153433,61.6927949 C35.3878312,61.7082074 54.8748992,40.9079148 54.8595956,28.9300503 C54.844274,16.9521858 45.0451756,7.22970684 32.9726877,7.21426255 C24.4673385,7.20341349 17.8751563,11.0077029 13.196141,18.6271308 L25.6512326,27.4376325 L11.6588822,24.1345746 C11.3124001,26.2088355 11.1398501,27.7887124 11.1412323,28.8742056 C11.1565532,40.85207 11.2428554,61.6773652 23.3153433,61.6927949 Z" id="Oval" fill="#E8F0F8" transform="translate(33.000414, 34.453529) scale(-1, 1) rotate(-27.000000) translate(-33.000414, -34.453529) "></path>
                <path d="M32.5202114,89.3672401 C44.494591,89.3419878 54.2221722,79.5321086 54.2474211,67.4562128 C54.2725719,55.380317 44.5858479,45.6113008 32.6114682,45.6364557 C24.1752386,45.6542447 17.6237723,49.5119467 12.9570695,57.2095618 L23.1606402,65.3308193 L11.4137263,62.7672934 C11.0630642,64.8597093 10.886575,66.4531058 10.8842585,67.547483 C10.8591077,79.6233788 20.5458318,89.392395 32.5202114,89.3672401 Z" id="Oval" fill="#E8F0F8" transform="translate(32.565840, 67.501848) scale(-1, 1) rotate(77.000000) translate(-32.565840, -67.501848) "></path>
                <path d="M18.1953125,48.1113281 L18.2421875,42.46875 L16.8242188,42.46875 L16.8710938,48.1113281 L18.1953125,48.1113281 Z M17.5390625,51.0761719 C17.8046875,51.0761719 18.0097656,51.0029297 18.1542969,50.8564453 C18.2988281,50.7099609 18.3710938,50.5253906 18.3710938,50.3027344 C18.3710938,50.0761719 18.2988281,49.8876953 18.1542969,49.7373047 C18.0097656,49.5869141 17.8046875,49.5117188 17.5390625,49.5117188 C17.2734375,49.5117188 17.0693359,49.5869141 16.9267578,49.7373047 C16.7841797,49.8876953 16.7128906,50.0761719 16.7128906,50.3027344 C16.7128906,50.5253906 16.7841797,50.7099609 16.9267578,50.8564453 C17.0693359,51.0029297 17.2734375,51.0761719 17.5390625,51.0761719 Z" id="!" fill="#FFFFFF" fill-rule="nonzero" opacity="0.414318266"></path>
                <path d="M36.1953125,55.1113281 L36.2421875,49.46875 L34.8242188,49.46875 L34.8710938,55.1113281 L36.1953125,55.1113281 Z M35.5390625,58.0761719 C35.8046875,58.0761719 36.0097656,58.0029297 36.1542969,57.8564453 C36.2988281,57.7099609 36.3710938,57.5253906 36.3710938,57.3027344 C36.3710938,57.0761719 36.2988281,56.8876953 36.1542969,56.7373047 C36.0097656,56.5869141 35.8046875,56.5117188 35.5390625,56.5117188 C35.2734375,56.5117188 35.0693359,56.5869141 34.9267578,56.7373047 C34.7841797,56.8876953 34.7128906,57.0761719 34.7128906,57.3027344 C34.7128906,57.5253906 34.7841797,57.7099609 34.9267578,57.8564453 C35.0693359,58.0029297 35.2734375,58.0761719 35.5390625,58.0761719 Z" id="!" fill="#FFFFFF" fill-rule="nonzero" opacity="0.414318266"></path>
                <path d="M36.1953125,24.1113281 L36.2421875,18.46875 L34.8242188,18.46875 L34.8710938,24.1113281 L36.1953125,24.1113281 Z M35.5390625,27.0761719 C35.8046875,27.0761719 36.0097656,27.0029297 36.1542969,26.8564453 C36.2988281,26.7099609 36.3710938,26.5253906 36.3710938,26.3027344 C36.3710938,26.0761719 36.2988281,25.8876953 36.1542969,25.7373047 C36.0097656,25.5869141 35.8046875,25.5117188 35.5390625,25.5117188 C35.2734375,25.5117188 35.0693359,25.5869141 34.9267578,25.7373047 C34.7841797,25.8876953 34.7128906,26.0761719 34.7128906,26.3027344 C34.7128906,26.5253906 34.7841797,26.7099609 34.9267578,26.8564453 C35.0693359,27.0029297 35.2734375,27.0761719 35.5390625,27.0761719 Z" id="!" fill="#FFFFFF" fill-rule="nonzero" opacity="0.414318266"></path>
                <path d="M22.1953125,71.1113281 L22.2421875,65.46875 L20.8242188,65.46875 L20.8710938,71.1113281 L22.1953125,71.1113281 Z M21.5390625,74.0761719 C21.8046875,74.0761719 22.0097656,74.0029297 22.1542969,73.8564453 C22.2988281,73.7099609 22.3710938,73.5253906 22.3710938,73.3027344 C22.3710938,73.0761719 22.2988281,72.8876953 22.1542969,72.7373047 C22.0097656,72.5869141 21.8046875,72.5117188 21.5390625,72.5117188 C21.2734375,72.5117188 21.0693359,72.5869141 20.9267578,72.7373047 C20.7841797,72.8876953 20.7128906,73.0761719 20.7128906,73.3027344 C20.7128906,73.5253906 20.7841797,73.7099609 20.9267578,73.8564453 C21.0693359,74.0029297 21.2734375,74.0761719 21.5390625,74.0761719 Z" id="!" fill="#FFFFFF" fill-rule="nonzero" opacity="0.414318266"></path>
                <path d="M43.1953125,79.1113281 L43.2421875,73.46875 L41.8242188,73.46875 L41.8710938,79.1113281 L43.1953125,79.1113281 Z M42.5390625,82.0761719 C42.8046875,82.0761719 43.0097656,82.0029297 43.1542969,81.8564453 C43.2988281,81.7099609 43.3710938,81.5253906 43.3710938,81.3027344 C43.3710938,81.0761719 43.2988281,80.8876953 43.1542969,80.7373047 C43.0097656,80.5869141 42.8046875,80.5117188 42.5390625,80.5117188 C42.2734375,80.5117188 42.0693359,80.5869141 41.9267578,80.7373047 C41.7841797,80.8876953 41.7128906,81.0761719 41.7128906,81.3027344 C41.7128906,81.5253906 41.7841797,81.7099609 41.9267578,81.8564453 C42.0693359,82.0029297 42.2734375,82.0761719 42.5390625,82.0761719 Z" id="!" fill="#FFFFFF" fill-rule="nonzero" opacity="0.414318266"></path>
            </g>
        </g>
        <g id="document" transform="translate(283.500000, 230.500000) scale(-1, 1) translate(-283.500000, -230.500000) translate(151.000000, 74.000000)">
            <path d="M255.10555,305.482737 C255.10555,304.437896 252.682274,302.473893 236.301455,299.731194 C213.231025,295.868431 186.273404,290.563392 134.91708,290.56208 C133.475778,290.562043 31.8939134,288.991919 30.5074618,289.012728 C-12.0830437,289.658592 79.1925725,293.662185 67.7867316,300.383721 C60.8543628,304.469011 44.5666563,305.238213 56.5812504,306.954575 C89.006978,311.586798 114.004495,310.6049 162.355112,310.382595 C208.135109,310.172109 255.10555,309.050263 255.10555,305.482737 Z" id="Oval" fill="#E0E7ED" transform="translate(137.105535, 299.817495) scale(-1, 1) rotate(-1.000000) translate(-137.105535, -299.817495) "></path>
            <polygon id="Path-41" fill="#C9CBD9" points="242 91 174 91 234.966886 62"></polygon>
            <path d="M88.1648886,0 L265,0 C257.54531,0.949994105 252.241406,8.2165534 249.088287,21.7996779 C247.352011,29.2792717 253.195139,47.3895633 253.195139,64.1728683 C253.195139,80.9561732 250.157084,90.898486 242.584658,90.898486 C235.012232,90.898486 227.527982,45.2351295 212.725146,90.898486 C207.859854,105.906796 222.52023,142.654178 221.350336,196.146425 C220.960974,213.949653 216.005319,244.900845 206.483372,289 L24.0157014,285.183195 C33.7364088,248.983132 34.8960534,222.264607 27.4946352,205.02762 C16.3925079,179.172138 -7.88584836,129.009736 2.54624463,98.7448806 C8.72923443,80.8072247 29.0221044,72.2562035 45.5011902,56.3477521 C53.8176222,48.3192997 68.038855,29.5367157 88.1648886,0 Z" id="Path-37" fill="#FFFFFF"></path>
            <path d="M88.3783183,0 L265,0 C257.554307,0.951055044 252.256805,8.22572951 249.107491,21.8240234 C247.373311,29.3119703 253.209387,47.4424872 253.209387,64.2445355 C253.209387,81.0465838 250.174998,91 242.611712,91 C236.880149,91 232.638529,70.2810241 224.745831,70.2810241 C222.492096,70.2810241 213.987772,65.3731586 179.205807,64.2445355 C158.607816,63.5761613 111.014997,63.5761613 36.4273474,64.2445355 L88.3783183,0 Z" id="Path-37" fill="#F5F5F5"></path>
            <path d="M181.957792,23 C183.085672,23 184,23.8954305 184,25 C184,26.0395948 183.190076,26.8939316 182.15447,26.9908446 L181.957792,27 L123.042208,27 C121.914328,27 121,26.1045695 121,25 C121,23.9604052 121.809924,23.1060684 122.84553,23.0091554 L123.042208,23 L181.957792,23 Z" id="Path-38" fill="#BDBFCE" fill-rule="nonzero"></path>
            <path d="M152.976111,49 C154.093874,49 155,49.8954305 155,51 C155,52.0395948 154.197342,52.8939316 153.171025,52.9908446 L152.976111,53 L80.0238886,53 C78.9061258,53 78,52.1045695 78,51 C78,49.9604052 78.8026581,49.1060684 79.8289746,49.0091554 L80.0238886,49 L152.976111,49 Z" id="Path-39" fill="#BDBFCE" fill-rule="nonzero"></path>
            <path d="M122.944998,96 C124.079944,96 125,96.8954305 125,98 C125,99.0395948 124.185002,99.8939316 123.142908,99.9908446 L122.944998,100 L19.0550022,100 C17.9200558,100 17,99.1045695 17,98 C17,96.9604052 17.8149976,96.1060684 18.8570918,96.0091554 L19.0550022,96 L122.944998,96 Z" id="Path-40" fill="#C9CBD9" fill-rule="nonzero"></path>
            <path d="M139.934002,142 C141.073515,141.998593 141.998493,142.861927 142,143.928311 C142.001415,144.931967 141.184302,145.75778 140.138146,145.852636 L139.939452,145.86172 L28.0659981,146 C26.9264849,146.001407 26.0015069,145.138073 26,144.071689 C25.9985853,143.068033 26.8156982,142.24222 27.8618536,142.147364 L28.0605479,142.13828 L139.934002,142 Z" id="Path-40" fill="#C9CBD9" fill-rule="nonzero"></path>
            <path d="M182.955474,190 C184.084008,189.999398 185,190.878591 185,191.963733 C185,192.985042 184.19068,193.824784 183.154528,193.920545 L182.957741,193.929645 L51.0445258,194 C49.9159915,194.000602 49,193.121409 49,192.036267 C49,191.014958 49.8093201,190.175216 50.8454718,190.079455 L51.0422589,190.070355 L182.955474,190 Z" id="Path-40" fill="#C9CBD9" fill-rule="nonzero"></path>
            <path d="M188.955474,236 C190.084008,235.999398 191,236.878591 191,237.963733 C191,238.985042 190.19068,239.824784 189.154528,239.920545 L188.957741,239.929645 L57.0445258,240 C55.9159915,240.000602 55,239.121409 55,238.036267 C55,237.014958 55.8093201,236.175216 56.8454718,236.079455 L57.0422589,236.070355 L188.955474,236 Z" id="Path-40" fill="#C9CBD9" fill-rule="nonzero"></path>
        </g>
        <path d="M199.126612,212.281898 C208.031201,214.865102 216.32233,211.002188 224,200.693154 C229.12307,193.814256 231.262131,185.103747 234,174.375559 C234.67144,171.744561 242.974068,168.957433 244.468037,163.788516 C244.82213,162.563403 242.998611,160.593415 238.99748,157.878553 L212.176019,201.773565 L199.126612,212.281898 Z" id="Path-74" fill="#DDDDDD"></path>
        <g id="Guy-waving" transform="translate(117.000000, 153.000000)">
            <path d="M97.9252767,218 C112.780342,218 121,217.485092 121,216.003218 C121,214.521344 112.780342,214.013132 97.9252767,214.013132 C83.0702117,214.013132 72,213.781546 72,215.26342 C72,216.745293 83.0702117,218 97.9252767,218 Z" id="Oval" fill="#E0E7ED" transform="translate(96.500000, 216.000000) scale(-1, 1) translate(-96.500000, -216.000000) "></path>
            <path d="M55.9920843,225.713895 C62.9044937,225.110884 90.0162261,227.869082 93.564192,227 C105.378505,224.10606 79.5861119,218 50.9891312,218 C35.8401452,218 13.3054113,223.358998 13.3054113,224 C13.3054113,225.923425 29.7860813,228 55.9920843,225.713895 Z" id="Oval" fill="#E0E7ED" transform="translate(54.902706, 222.585466) scale(-1, 1) translate(-54.902706, -222.585466) "></path>
            <path d="M30.073753,210.363158 L28.7867382,219.663826 C28.7867382,219.663826 33.966567,220.272391 38.4725612,222.791798 C38.7853601,222.96595 38.6162796,224.436572 38.1174923,224.494623 C34.0965568,224.95393 29.3094736,224.799476 26.3045385,223.662827 C24.2709639,222.893606 23.6006665,221.36394 22.6231517,220.893784 L23.3206844,210.918601 L30.073753,210.363158 Z" id="Shape" fill="#FDE2BF" transform="translate(30.626823, 217.549471) scale(-1, 1) rotate(-4.000000) translate(-30.626823, -217.549471) "></path>
            <path d="M36.8647538,225.18594 C37.2986197,225.091663 37.8966496,224.848236 38.137209,224.438333 C38.541005,223.750449 38.4563523,222.937097 37.9795293,222.597866 C36.7251842,221.707434 34.6362626,221.251388 34.0292647,221.208943 C34.0292647,221.213654 34.2250854,222.621471 32.8848262,223.65325 C32.8848262,223.65325 23.3623754,222.242289 21.4251854,219.924168 C21.2218994,221.518398 21.2290951,222.379904 21.4467727,222.508686 C24.1829633,224.138877 30.9753457,226.481612 36.8647538,225.18594 Z" id="Shape" fill="#313050" transform="translate(29.836378, 222.742883) scale(-1, 1) rotate(-4.000000) translate(-29.836378, -222.742883) "></path>
            <path d="M74.5421259,211.529278 L70.1506209,219.380415 C70.1506209,219.380415 73.6537495,222.694386 76.0342726,227.614091 C76.1999519,227.954951 76.2087444,228.335927 76.0145188,228.634772 C75.7488538,229.043536 75.2077501,229.159555 74.7498762,228.914029 C68.5691988,225.582379 63.6548811,220.439639 62.2661717,217.963324 L68.3660222,210.988939 L74.5421259,211.529278 Z" id="Shape" fill="#FDE2BF" transform="translate(69.212782, 220.015427) rotate(-34.000000) translate(-69.212782, -220.015427) "></path>
            <path d="M75.6460719,229.696328 C76.081121,229.849663 76.5844062,229.859234 77.0781836,229.561151 C77.9069054,229.060978 78.133875,228.233584 77.9684914,227.590687 C77.5320462,225.901557 76.8205821,225.118586 76.0239745,223.871096 C76.0206471,223.876143 74.7632864,225.415161 72.8963932,225.734777 C72.8963932,225.734777 65.5143021,219.230971 65.5061849,215.6122 C64.2945408,216.974435 63.7356787,217.78833 63.8295987,218.053883 C65.0021062,221.404095 69.7293612,227.631972 75.6460719,229.696328 Z" id="Shape" fill="#313050" transform="translate(70.919214, 222.706778) rotate(-34.000000) translate(-70.919214, -222.706778) "></path>
            <path d="M23.0596217,102.83439 C44.4112038,101.621952 55.7246632,101.010489 57,101 C48.1492353,132.992194 41.866978,171.325527 38.1532283,216 L31.9059223,216 C26.6796309,199.574772 23.3328649,181.769384 21.8656241,162.583837 C20.3983833,143.398289 20.7963825,123.481807 23.0596217,102.83439 Z" id="Rectangle" fill="#A5D867"></path>
            <path d="M41.3034023,108.994498 C41.3042136,94.085111 50.2759996,91.6971181 68.2187603,101.830519 C77.4024292,153.114057 78.7868713,191.179658 72.3720868,216.027321 C70.3995235,216.027429 68.3246891,216.135975 66.1475836,216.35296 C62.8549971,197.533708 60.0287283,183.611223 57.6687772,174.585504 C49.7723197,144.385215 41.3028422,119.288953 41.3034023,108.994498 Z" id="Rectangle" fill="#A5D867" transform="translate(58.816280, 156.016429) rotate(3.000000) translate(-58.816280, -156.016429) "></path>
            <path d="M107,25.6752676 C107.112843,18.0763226 107.564231,14.1894195 108.354164,14.0145584 C109.144096,13.8396974 109.818496,15.2400254 110.377364,18.2155425 C111.638568,18.428066 112.667587,18.5343278 113.464421,18.5343278 C114.261256,18.5343278 115.439782,18.428066 117,18.2155425 L113.464421,26 L107,25.6752676 Z" id="Male-R-hand" fill="#FDE2BF"></path>
            <path d="M65.2698957,54.5527091 C58.2264232,53.2478 62.8519401,34.582184 64.2350622,34.6099524 C65.6181843,34.6377208 81.334283,44.1279229 91,41 C97.4438113,38.9147181 102.777145,33.2850722 107,24.1110623 L114.581295,24.1110623 C113.376055,35.9395962 108.642828,45.5739192 100.381614,53.0140313 C87.9897945,64.1741996 72.3133681,55.8576182 65.2698957,54.5527091 Z" id="Man-bending-arm-" fill="#016E80"></path>
            <path d="M35.1030392,15.442183 C35.575097,22.7745807 41.4946177,28.1908867 48.3415023,27.878169 C53.7874196,27.6296204 56.703358,24.4408402 58.6092181,17.9559035 C60.8237957,10.4203034 54.6433899,-0.515407215 44.7458425,1.04048136 C38.0004295,2.10141171 34.6268039,8.10978538 35.1030392,15.442183 Z" id="Shape" fill="#F9C071" transform="translate(47.058742, 14.391050) rotate(4.000000) translate(-47.058742, -14.391050) "></path>
            <path d="M34.146261,45.9561064 C34.7834921,47.2370245 54.4218351,64.2613112 57.686334,57.8391749 C61.3808798,50.5710221 57.3029595,20.588508 55.9444468,17.8540799 C54.5860394,15.1235026 54.2612353,9.89655539 44.2091073,19.7224885 C34.1569792,29.5484216 33.066338,43.7824265 34.146261,45.9561064 Z" id="Shape" fill="#F9C071"></path>
            <path d="M52.0133335,22.3630368 C52.0133335,22.3630368 54.6724759,32.0275572 55.3602059,35.9278679 C55.3602059,35.9278679 51.3334121,41.639903 43.0668088,37.2232291 C43.0668088,37.2232291 42.5282503,34.1689118 42.5404116,24.0333685 L52.0133335,22.3630368 Z" id="Shape" fill="#FDE2BF" transform="translate(48.950207, 30.630880) rotate(10.000000) translate(-48.950207, -30.630880) "></path>
            <polygon id="Path-58" fill="#E5CBAA" transform="translate(48.517287, 29.367451) scale(-1, 1) translate(-48.517287, -29.367451) " points="48.0843664 32.6396456 43.016049 26.095256 54.0185247 26.095256"></polygon>
            <path d="M38.3532043,16.3134356 C38.8149377,25.7185361 44.6623067,28.9485044 50.4072367,27.9355183 C56.1521666,26.9225321 57.6578014,21.1421718 57.2218765,15.2858269 C56.7911008,9.43406249 52.4383573,4.9259389 47.5075198,5.21584198 C42.5714185,5.51033739 37.8914709,6.90833507 38.3532043,16.3134356 Z" id="Shape" fill="#FDE2BF" transform="translate(47.806984, 16.658176) rotate(-2.000000) translate(-47.806984, -16.658176) "></path>
            <path d="M36.5566558,12.9487154 C38.0888392,16.3079452 42.3103235,17.3370992 45.9851694,15.2476048 C49.6600154,13.1581104 51.3996819,8.74299532 49.8674587,5.3837655 C48.3353152,2.02453568 44.1138309,0.990926505 40.4389451,3.08042091 C36.764139,5.16991532 35.0244725,9.58948559 36.5566558,12.9487154 Z" id="Shape" fill="#F9C071" transform="translate(43.212068, 9.164642) rotate(-6.000000) translate(-43.212068, -9.164642) "></path>
            <path d="M32.450184,34.1370926 C32.8222503,34.0365532 36.0824959,33.6189289 42.2309209,32.8842198 C43.7694673,34.4725813 45.7864921,35.373361 48.2819952,35.5865587 C51.9412573,35.8991796 53.9449465,34.9984 54.2930627,32.8842198 C60.0729783,33.8751975 63.3869781,34.4504417 64.2350622,34.6099524 C63.3691646,38.4036712 69.4110675,52.2475847 69.5340554,60.4509409 C69.5979616,64.7135169 66.8543097,71.0727296 66.8508326,80.1349259 C66.8487538,85.5528936 68.6590007,93.8939582 72.2815734,105.15812 C61.2780786,107.052707 52.989767,108 47.4166385,108 C41.8435099,108 33.2674838,107.052707 21.68856,105.15812 C25.225581,92.8675399 27.2850594,83.6057648 27.8669952,77.3727943 C28.1525573,74.3142102 25.7585376,65.6643676 25.9789809,63 C26.6796353,54.5316074 32.1972521,43.7242586 32.450184,34.1370926 Z" id="Rectangle" fill="#016E80"></path>
            <path d="M18.5937319,120.794965 C19.135637,117.772771 19.7141347,114.980453 20.3292247,112.418009 C21.2518598,108.574343 24.3107053,104.150596 26.9760896,103.885519 C28.7530125,103.7088 29.9588933,106.611078 30.5937319,112.592354 L26.2393715,121.877911 L18.5937319,120.794965 Z" id="Male-R-hand" fill="#FDE2BF" transform="translate(24.593732, 112.877911) rotate(132.000000) translate(-24.593732, -112.877911) "></path>
            <path d="M18.1660977,102.621325 C22.7133567,92.9371928 24.1039147,84.5207346 22.3377717,77.3719505 C19.6885571,66.6487742 6.50263715,59.5131374 6.20592781,55.79192 C5.78912186,50.564496 -0.799210138,43.517627 5.29796232,35.05912 C15.5912728,35.7638278 36.7971774,62.384641 37.8757446,77.9544162 C38.3416563,84.6801358 34.5391332,95.0824188 26.4681752,109.161265 L18.1660977,102.621325 Z" id="Rectangle" fill="#016E80" transform="translate(20.318362, 72.110193) scale(-1, 1) rotate(4.000000) translate(-20.318362, -72.110193) "></path>
            <polygon id="Path" fill="#97C75E" points="48.4414851 137.110205 46 130 46.4451866 148.193356"></polygon>
            <path d="M25.1145825,92.2044463 C26.7890449,88.7294269 27.9172433,85.2641953 28.4991776,81.8087517 C29.0811119,78.353308 29.0811119,71.2051857 28.4991776,60.3643846 L25.8230965,64.0616872 C27.1878263,72.7125915 27.7356283,78.0629546 27.4665027,80.1127765 C27.1973771,82.1625984 26.4134037,86.193155 25.1145825,92.2044463 Z" id="shadow" fill="#005A68"></path>
        </g>
        <g id="noun_Smile_169431" transform="translate(211.000000, 135.000000)">
            <circle id="Oval" fill="#FBAF43" cx="18.5" cy="18.5" r="17.5"></circle>
            <path d="M18.5,0 C8.29514942,0 0,8.29514799 0,18.5 C0,28.7048524 8.29514942,37 18.5,37 C28.7048511,37 37,28.7048524 37,18.5 C37,8.29514799 28.7048511,0 18.5,0 Z M18.4999994,2.26111111 C27.4900174,2.26111111 34.7388877,9.50998173 34.7388877,18.5000008 C34.7388877,27.4900187 27.490042,34.7388897 18.5000245,34.7388897 C9.51000779,34.7388897 2.26111111,27.4900187 2.26111111,18.5000008 C2.26111111,9.50998173 9.50998353,2.26111111 18.4999994,2.26111111 Z" id="Shape" fill="#FFFFFF" fill-rule="nonzero"></path>
        </g>
        <path d="M231.089844,156.741211 L231.191406,144.515625 L228.119141,144.515625 L228.220703,156.741211 L231.089844,156.741211 Z M229.667969,163.165039 C230.24349,163.165039 230.687826,163.006348 231.000977,162.688965 C231.314128,162.371582 231.470703,161.97168 231.470703,161.489258 C231.470703,160.998372 231.314128,160.590007 231.000977,160.26416 C230.687826,159.938314 230.24349,159.775391 229.667969,159.775391 C229.092448,159.775391 228.650228,159.938314 228.341309,160.26416 C228.032389,160.590007 227.87793,160.998372 227.87793,161.489258 C227.87793,161.97168 228.032389,162.371582 228.341309,162.688965 C228.650228,163.006348 229.092448,163.165039 229.667969,163.165039 Z" id="!" fill="#FFFFFF" fill-rule="nonzero"></path>
        <g id="Cat" transform="translate(373.000000, 330.000000)">
            <path d="M32.6689453,46.8422852 C29.5144594,46.8422852 -11.5649414,48.9973271 3.78564453,51 C6.34636097,51.334077 26.0534795,50.1265963 33.8041992,51 C37.7237582,51.4416825 30.6059345,53.7607234 33.8041992,53.5 C34.6552817,53.4306195 42.3440131,50.7601895 42.3440131,49.7601895 C42.3440131,48.7601895 42.534175,46.8422852 32.6689453,46.8422852 Z" id="Oval" fill="#E0E7ED"></path>
            <path d="M9.90220124,16.5220531 C14.6676806,16.5154127 17.9291575,14.0097346 17.9348882,9.92476039 C17.9406066,5.83978613 13.942844,2.5338262 9.17736469,2.54044345 C4.41188536,2.54708059 1.28843996,5.86294374 1.28270902,9.947918 C1.2769908,14.0328923 5.13672191,16.5286671 9.90220124,16.5220531 Z" id="Oval" fill="#F9C071" transform="translate(9.608799, 9.531248) rotate(10.000000) translate(-9.608799, -9.531248) "></path>
            <path d="M7,6 C8.04823019,2.38628168 8.98779167,0.406346974 9.81868443,0.0601958941 C10.6495772,-0.285955186 11.7100157,0.860776744 13,3.50039168 L7,6 Z" id="Path-23" fill="#F9C071"></path>
            <path d="M8.92895508,2.49353027 C9.15804106,1.36015136 9.51505603,0.720665685 10,0.575073242 C10.484944,0.429480799 11.1516106,1.23778972 12,3 L8.92895508,2.49353027 Z" id="Path-23" fill="#F5AB44"></path>
            <circle id="Oval" fill="#313050" cx="3.5" cy="6.5" r="1"></circle>
            <path d="M14,4.7280638 C16.6299706,2.26399414 18.2221863,1.46914111 18.7766469,2.34350472 C19.3311075,3.21786832 18.853257,5.77003341 17.3430954,10 L14,4.7280638 Z" id="Path-24" fill="#F9C071"></path>
            <path d="M15,4.3640319 C16.5779824,3.13199707 17.5333118,2.73457056 17.8659881,3.17175236 C18.1986645,3.60893416 17.9119542,4.88501671 17.0058572,7 L15,4.3640319 Z" id="Path-24" fill="#F5AB44"></path>
            <path d="M3,31 L5.29978591,47.8218538 C4.12038413,48.4148183 3.59677378,48.9976782 3.72895486,49.5704335 C3.86113594,50.1431888 5.61815099,50.1431888 9,49.5704335 L8.66602416,33.8032726 L3,31 Z" id="Path-26" fill="#F5AB44"></path>
            <path d="M20.297523,40.1801073 C20.0638535,41.6034454 20.8419679,43.5685811 22.6318661,46.0755145 C19.4366389,46.1774105 17.4610999,46.3405787 16.7052491,46.5650191 C15.571473,46.9016798 14.9283391,47.600072 15.0063691,48.3398107 C15.0583892,48.8329698 15.8498165,49.0498378 17.3806512,48.9904147 L29,48.9904147 L23.6666046,39.7726703 C21.6542197,38.6209568 20.5311925,38.7567692 20.297523,40.1801073 Z" id="Path-27" fill="#F5AB44"></path>
            <path d="M39.0589694,46.3005507 C41.2599693,47.9381596 41.5891283,49.6527913 40.0464464,51.4444459 C37.7324236,54.1319277 24.3381406,56.3904709 23.7035378,57.5134027 C23.068935,58.6363345 26.3808295,59.0428574 25.1208453,60.4729758 C23.8608611,61.9030943 19.0344507,60.258647 20.1721629,57.5134027 C20.7101764,56.2152025 21.1667178,54.3582009 32.847381,51.9410368 C33.7488981,51.7544793 37.4004517,50.0936848 34.6636397,47.6904488 C32.8390984,46.0882914 34.3042083,45.6249921 39.0589694,46.3005507 Z" id="Path-29" fill="#F9C071"></path>
            <path d="M3.68249025,13.6305273 L16.0038452,13 C15.5770723,16.2004773 16.1041682,18.4654144 17.5851329,19.7948113 C19.80658,21.7889066 27.4451788,23.4171666 32.5423025,26.8902224 C37.6394263,30.3632781 39,42.473257 39,46.2120962 C39,48.7046556 37.6082244,49.9509353 34.8246732,49.9509353 C22.6047426,50.0501866 16.1177468,50.0501866 15.3636859,49.9509353 C14.2325945,49.8020584 14.7798867,47.4943217 16.160571,47.4943217 C17.5412553,47.4943217 25.2202148,47.4943217 25.8432778,47.4943217 C26.0801936,47.4943217 23.8303645,43.9830342 22.6628774,43.7171483 C20.6390832,43.2562452 14.4397374,38.6194152 13.7732596,38.6194152 C13.328941,38.6194152 11.862032,42.3965886 9.37253251,49.9509353 C6.31846634,51.3496882 4.74414149,51.3496882 4.64955795,49.9509353 C4.50768265,47.852806 5.16373172,48.7406004 5.88773539,47.4943217 C6.55957158,44.8920925 7.47606904,41.043147 8.63722776,35.9474851 C4.38906416,34.0332021 1.94610338,31.9826169 1.30834542,29.7957294 C0.351708466,26.5153982 1.85257972,20.7693202 2.66737033,17.5447518 C3.10318783,15.1329686 3.44156114,13.8282271 3.68249025,13.6305273 Z" id="Path-25" fill="#F9C071"></path>
        </g>
    </g>
</svg>