<?xml version="1.0" encoding="UTF-8"?>
<svg width="500px" height="432px" viewBox="0 0 500 432" version="1.1" xmlns="http://www.w3.org/2000/svg" xmlns:xlink="http://www.w3.org/1999/xlink">
    <!-- Generator: Sketch 63.1 (92452) - https://sketch.com -->
    <title>12.0_PL_CI"Interest calculations and changes" </title>
    <desc>Created with Sketch.</desc>
    <defs>
        <linearGradient x1="50%" y1="100%" x2="50%" y2="0%" id="linearGradient-1">
            <stop stop-color="#FFFFFF" offset="0%"></stop>
            <stop stop-color="#ECF3FA" offset="100%"></stop>
        </linearGradient>
        <filter x="0.0%" y="0.0%" width="100.0%" height="100.0%" filterUnits="objectBoundingBox" id="filter-2">
            <feGaussianBlur stdDeviation="0" in="SourceGraphic"></feGaussianBlur>
        </filter>
    </defs>
    <g id="12.0_PL_CI&quot;Interest-calculations-and-changes&quot;-" stroke="none" stroke-width="1" fill="none" fill-rule="evenodd">
        <g id="Background" transform="translate(249.500000, 215.500000) scale(-1, 1) translate(-249.500000, -215.500000) translate(0.000000, -1.000000)">
            <path d="M207.659342,431.278286 C344.249511,445.672455 499,368.868209 499,236.248915 C499,103.629622 346.946063,2.20889047 226,0.885041869 C105.053937,-0.438806733 -9.97265625,152.142761 1.1747449,251.858481 C12.3221461,351.5742 71.0691732,416.884117 207.659342,431.278286 Z" id="Oval" fill-opacity="0.15" fill="#D8E5F0"></path>
            <path d="M12.0605469,302 L485.59375,302 C468.210863,331.893329 452.050381,353.559996 437.112305,367 C419.338876,382.991012 387.995705,401.704982 354.337891,413.399414 C336.140857,419.721986 297.446763,431.829801 229.463838,432.935599 C201.973231,433.382757 110.196433,422.950786 62.09375,391.828125 C40.5909978,377.915744 23.9132635,347.973035 12.0605469,302 Z" id="Path-8" fill="url(#linearGradient-1)" filter="url(#filter-2)"></path>
            <g id="Tree" transform="translate(30.536585, 290.000000) scale(-1, 1) translate(-30.536585, -290.000000) translate(22.036585, 276.000000)">
                <ellipse id="Oval" fill="#E0E7ED" cx="9.03658537" cy="27.5" rx="5" ry="1"></ellipse>
                <polygon id="Rectangle" fill="#E8F0F8" points="8.03658537 20 9.03658537 20 9.03658537 28 8.03658537 28"></polygon>
                <path d="M5.50847017,17.0729408 C7.67082085,17.0885932 9.4110637,15.3336987 9.39541137,13.1532742 C9.37975905,10.9728498 7.61413876,9.19257786 5.45178809,9.17692554 C3.92836162,9.16589811 2.7517193,9.85140202 1.92186111,11.2334373 L4.16222019,12.8505221 L1.65245466,12.2343573 C1.59263099,12.6115797 1.56341197,12.8989913 1.56479761,13.0965922 C1.58049922,15.2770166 3.3461195,17.0572885 5.50847017,17.0729408 Z" id="Oval" fill="#E8F0F8" transform="translate(5.480157, 13.124920) rotate(120.000000) translate(-5.480157, -13.124920) "></path>
                <path d="M6.13924256,16.0011385 C9.2910055,16.0162422 14.3592921,10.6317689 14.3442848,7.52075574 C14.3292107,4.40974262 11.7620091,1.87549835 8.61024611,1.86027682 C6.38975562,1.8496707 4.67225055,2.83170399 3.45773088,4.80637667 L6.71748838,7.10620269 L3.06147836,6.23540237 C2.97293511,6.77382866 2.92933468,7.18400948 2.93067708,7.46594482 C2.94574878,10.5769579 2.98747961,15.985971 6.13924256,16.0011385 Z" id="Oval" fill="#E8F0F8" transform="translate(8.637481, 8.930708) scale(-1, 1) rotate(-27.000000) translate(-8.637481, -8.930708) "></path>
                <path d="M8.49446156,23.2166547 C11.600324,23.2040375 14.1283121,20.6346486 14.1409281,17.4777176 C14.15345,14.3207866 11.6458402,11.771779 8.53997773,11.7843035 C6.35182523,11.7931908 4.65061415,12.8049674 3.4363445,14.8196334 L6.0788344,16.9376206 L3.03326402,16.273324 C2.94126588,16.8205051 2.89468161,17.2371439 2.89351118,17.5232406 C2.88098928,20.6801716 5.38859912,23.2291792 8.49446156,23.2166547 Z" id="Oval" fill="#E8F0F8" transform="translate(8.517220, 17.500479) scale(-1, 1) rotate(77.000000) translate(-8.517220, -17.500479) "></path>
            </g>
        </g>
        <path d="M171.798581,357.315366 C137.244381,357.315366 131.392679,365.651304 174.392679,368.89068 C177.126179,369.096607 196.059033,368.542626 197.583303,368.89068 C229.184671,376.106591 239.491434,376.106591 256.045399,372.464899 C273.723134,368.57599 252.863296,360.149095 229.184671,357.315366 C223.255474,356.605792 178.718329,357.315366 171.798581,357.315366 Z" id="Oval" fill="#E0E7ED" transform="translate(203.323239, 365.930887) scale(-1, 1) translate(-203.323239, -365.930887) "></path>
        <g id="Bank" transform="translate(192.000000, 240.000000)">
            <rect id="Rectangle" fill="#E1E3EF" x="1" y="102" width="135" height="15"></rect>
            <rect id="Rectangle" fill="#C9CBD9" x="0" y="110" width="142" height="12"></rect>
            <rect id="Rectangle" fill="#E1E3EF" x="19" y="47" width="21" height="55"></rect>
            <path d="M16.2278666,40.2621448 L41.7303687,39.1031467 C42.8337993,39.0529997 43.7689587,39.9068547 43.8191057,41.0102853 C43.8229556,41.0949983 43.8214138,41.1798704 43.8144898,41.2643876 L43.085445,50.1633031 C43.0004251,51.2010781 42.1333748,52 41.0921231,52 L17.521151,52 C16.5351305,52 15.6962335,51.2813713 15.5448598,50.3070396 L14.3423746,42.5671222 C14.1728013,41.4756467 14.9201507,40.4533648 16.0116262,40.2837915 C16.0832607,40.2726622 16.1554474,40.265436 16.2278666,40.2621448 Z" id="Rectangle" fill="#C9CBD9"></path>
            <rect id="Rectangle" fill="#C9CBD9" x="16" y="99" width="28" height="6"></rect>
            <rect id="Rectangle" fill="#E1E3EF" x="61" y="47" width="21" height="55"></rect>
            <path d="M58.1669396,38.4595158 L83.7400094,37.1185099 C84.8430634,37.0606677 85.7841557,37.9079793 85.8419979,39.0110332 C85.8463028,39.0931285 85.8455419,39.1754111 85.8397197,39.2574127 L85.0669197,50.141647 C84.9925831,51.1886155 84.1215463,52 83.071942,52 L59.5566357,52 C58.555212,52 57.708155,51.2593524 57.5745226,50.2668849 L56.289559,40.7236566 C56.1421625,39.6289658 56.9100964,38.6220551 58.0047872,38.4746586 C58.05861,38.4674116 58.1127056,38.4623598 58.1669396,38.4595158 Z" id="Rectangle" fill="#C9CBD9"></path>
            <rect id="Rectangle" fill="#C9CBD9" x="57" y="99" width="28" height="6"></rect>
            <rect id="Rectangle" fill="#E1E3EF" x="102" y="45" width="21" height="57"></rect>
            <path d="M99.1804198,38.4624973 L125.738292,37.1147741 C126.841442,37.0587929 127.781104,37.907691 127.837085,39.010841 C127.841274,39.0933882 127.840342,39.1761157 127.834294,39.2585475 L127.035472,50.1463437 C126.958804,51.1913268 126.088626,52 125.040834,52 L100.609139,52 C99.6110656,52 98.7657632,51.264166 98.6282213,50.2756148 L97.3008646,40.7355418 C97.1486468,39.6415109 97.9121371,38.6312267 99.0061679,38.4790089 C99.0639831,38.4709648 99.1221227,38.4654557 99.1804198,38.4624973 Z" id="Rectangle" fill="#C9CBD9"></path>
            <rect id="Rectangle" fill="#C9CBD9" x="98" y="99" width="29" height="6"></rect>
            <polygon id="Triangle" fill="#C9CBD9" points="70 0 139 35.5416072 139 43 1 43 1 35.5416072"></polygon>
            <polygon id="Triangle" fill="#E1E3EF" points="69.4453782 9 122 35 16 35"></polygon>
            <ellipse id="Oval" fill="#5E5D87" cx="69.5" cy="23" rx="4.5" ry="6"></ellipse>
        </g>
        <path d="M378,367.699348 C378,365.796434 362.663889,363 341.534606,363 C320.405324,363 307.733578,365.228967 317.167063,367.699348 C326.600548,370.169728 339.914141,371.109248 353.980733,370.990012 C367.299457,370.877114 378,369.602261 378,367.699348 Z" id="Oval" fill="#E0E7ED" transform="translate(346.000000, 367.000000) scale(-1, 1) translate(-346.000000, -367.000000) "></path>
        <path d="M399.66118,374.199348 C399.66118,372.296434 384.325068,369.5 363.195786,369.5 C342.066504,369.5 334.586464,371.728967 344.019949,374.199348 C353.453434,376.669728 361.575321,377.609248 375.641913,377.490012 C388.960637,377.377114 399.66118,376.102261 399.66118,374.199348 Z" id="Oval" fill="#E0E7ED" transform="translate(369.830590, 373.500000) scale(-1, 1) translate(-369.830590, -373.500000) "></path>
        <g id="Little-coins" transform="translate(318.000000, 315.500000)">
            <path d="M36.3036922,46 C55.4553408,46 62,44.2955705 62,43 C62,41.7044295 51.1139814,40 34.7071664,40 C18.3003514,40 5,41.8330199 5,43.1285903 C5,44.4241608 17.1520435,46 36.3036922,46 Z" id="Oval" fill="#FFD638"></path>
            <path d="M1,33 C6.71890526,34.863849 16.4895241,35.78886 30.3118564,35.775033 C44.1341888,35.7612059 53.0302367,34.9131248 57,33.2307897 L57,40.8827785 C45.7837935,42.2942595 36.8877456,43 30.3118564,43 C23.7359673,43 13.9653484,42.2942595 1,40.8827785 L1,33 Z" id="Rectangle" fill="#F5BC2B"></path>
            <path d="M5,43 C10.7189053,44.5753477 20.4895241,45.3566524 34.3118564,45.3439141 C48.1341888,45.3311757 57.0302367,44.5498711 61,43 L61,50.0494848 C49.7837935,51.3498283 40.8877456,52 34.3118564,52 C27.7359673,52 17.9653484,51.3498283 5,50.0494848 L5,43 Z" id="Rectangle" fill="#F5BC2B"></path>
            <path d="M32.3036922,35 C51.4553408,35 58,33.8637136 58,33 C58,32.1362864 47.1139814,31 30.7071664,31 C14.3003514,31 1,32.2220132 1,33.0857269 C1,33.9494405 13.1520435,35 32.3036922,35 Z" id="Oval" fill="#FFD638"></path>
            <path d="M4,28 C9.61678195,29.7503864 19.2129254,30.6185027 32.7884304,30.604349 C46.3639354,30.5901953 55.1011253,29.722079 59,28 L59,35.8327609 C47.9840829,37.277587 39.246893,38 32.7884304,38 C26.3299678,38 16.7338244,37.277587 4,35.8327609 L4,28 Z" id="Rectangle" fill="#F5BC2B"></path>
            <path d="M35.3036922,31 C54.4553408,31 61,29.2955705 61,28 C61,26.7044295 50.1139814,25 33.7071664,25 C17.3003514,25 4,26.8330199 4,28.1285903 C4,29.4241608 16.1520435,31 35.3036922,31 Z" id="Oval" fill="#FFD638"></path>
            <path d="M32.3036922,23 C51.4553408,23 58,21.2955705 58,20 C58,18.7044295 47.1139814,17 30.7071664,17 C14.3003514,17 1,18.8330199 1,20.1285903 C1,21.4241608 13.1520435,23 32.3036922,23 Z" id="Oval" fill="#FFD638"></path>
            <path d="M3,11.010604 C8.71890526,11.0247427 18.4895241,11.0247427 32.3118564,11.010604 C46.1341888,10.9964653 55.0302367,10.9964653 59,11.010604 L59,18.835059 C47.7837935,20.278353 38.8877456,21 32.3118564,21 C25.7359673,21 15.9653484,20.278353 3,18.835059 L3,11.010604 Z" id="Rectangle" fill="#F5BC2B"></path>
            <path d="M0,4 C5.92315187,6.34982827 16.0427214,7.51837324 30.3587085,7.50563491 C44.6746956,7.49289657 53.8884594,6.3243516 58,4 L58,11.0494848 C46.3832147,12.3498283 37.1694508,13 30.3587085,13 C23.5479661,13 13.4283966,12.3498283 0,11.0494848 L0,4 Z" id="Rectangle" fill="#F5BC2B"></path>
            <path d="M1,20 C6.71890526,21.7503864 16.4895241,22.6185027 30.3118564,22.604349 C44.1341888,22.5901953 53.0302367,21.722079 57,20 L57,27.8327609 C45.7837935,29.277587 36.8877456,30 30.3118564,30 C23.7359673,30 13.9653484,29.277587 1,27.8327609 L1,20 Z" id="Rectangle" fill="#F5BC2B"></path>
            <path d="M30.3587085,8 C49.0544603,8 58,5.13765179 58,3.63314275 C58,2.12863371 45.0162577,0 29,0 C12.9837423,0 0,2.12863371 0,3.63314275 C0,5.13765179 11.6629566,8 30.3587085,8 Z" id="Oval" fill="#FFD638"></path>
            <path d="M29.4604663,5 C42.6764289,5 49,3.21103237 49,2.27071422 C49,1.33039607 39.8218374,0 28.5,0 C17.1781626,0 8,1.33039607 8,2.27071422 C8,3.21103237 16.2445038,5 29.4604663,5 Z" id="Oval" fill="#FFC83B"></path>
            <path d="M38,2.67369367 L36.1654136,2.66273855 C36.1186878,2.40736652 36.0032541,2.17575115 35.8191125,1.96812805 C35.634971,1.76096039 35.3865747,1.58499836 35.0739237,1.44031186 C34.7612728,1.29617404 34.3874093,1.18607783 33.9523333,1.10992808 C33.5172573,1.03420012 33.0223248,0.997693393 32.4675357,1.00011277 C31.887529,1.00267236 31.3784275,1.04445101 30.9402312,1.12512241 C30.5020349,1.20538961 30.1144195,1.32025179 29.777385,1.46955843 C29.4403505,1.61826016 29.1430017,1.79793275 28.8853386,2.00853087 C28.6276755,2.21846367 28.3862216,2.45521361 28.160977,2.71872802 C27.9953332,2.91256857 27.8294339,3.07401997 27.663279,3.2031806 C27.4971241,3.3320735 27.3209819,3.43535139 27.1348524,3.51307843 C26.9487229,3.5906233 26.7477952,3.64464604 26.5320693,3.67521936 C26.3163435,3.70570745 26.0729355,3.71929813 25.8018454,3.7160604 C25.5181465,3.71267931 25.2588044,3.69254538 25.0238192,3.65573292 C24.788834,3.61902694 24.5892384,3.56584159 24.4250324,3.49620516 C24.2608264,3.42671292 24.1336686,3.33883977 24.0435591,3.23256895 C23.9534496,3.12642003 23.911476,3.00059707 23.9176385,2.85500004 C23.9233608,2.71979255 23.9883423,2.59981375 24.1125831,2.49494685 C24.2368239,2.38991433 24.4123884,2.30116598 24.6392765,2.22867139 C24.8661647,2.15597064 25.1396207,2.10017392 25.4596446,2.06132339 C25.7796686,2.02232292 26.1382698,2.00299435 26.5354483,2.003461 L26.5748991,1.05532633 C25.9381526,1.05837175 25.3630472,1.09461986 24.849583,1.16373491 C24.3361188,1.23243955 23.8907652,1.32974735 23.5135223,1.45552512 C23.1362794,1.58071488 22.8288332,1.73171632 22.5911838,1.90856907 C22.3535344,2.08488662 22.1920963,2.28464998 22.1068694,2.50807645 L20.0264106,2.49980237 L20,3.10827505 L22.0615456,3.12467922 C22.115016,3.34877248 22.2387428,3.55256362 22.4327262,3.73627971 C22.6267095,3.92045322 22.8833165,4.07885742 23.202547,4.21154967 C23.5217774,4.34477583 23.8989857,4.4502532 24.3341718,4.52788694 C24.7693578,4.60592812 25.2517365,4.64981959 25.7813079,4.65927509 C26.367619,4.66977373 26.8815038,4.63925225 27.3229624,4.56737066 C27.764421,4.49506734 28.1537225,4.38676534 28.4908671,4.24231873 C28.8280116,4.09725583 29.125443,3.92014013 29.3831611,3.71093153 C29.6408792,3.50105319 29.8760011,3.26464635 30.0885269,3.00169791 C30.2411216,2.81616767 30.4004414,2.6587638 30.5664863,2.5295503 C30.7325311,2.40007476 30.9101944,2.29482555 31.0994761,2.2138603 C31.2887579,2.13270984 31.4944689,2.07389907 31.7166092,2.03749563 C31.9387495,2.00099717 32.1822125,1.98291509 32.4469982,1.98332547 C33.0333093,1.9842571 33.4979462,2.07195046 33.8409088,2.24692788 C34.1838713,2.42263336 34.34886,2.67438693 34.3358748,3.00160442 C34.3308128,3.12915001 34.2864032,3.25493414 34.2026459,3.37886927 C34.1188887,3.50267993 33.9788868,3.61326221 33.7826404,3.71053623 C33.586394,3.80757926 33.3262701,3.88493908 33.0022686,3.94261466 C32.6782672,4.00005789 32.270394,4.02526719 31.7786492,4.01843347 L31.7391984,4.99679717 C32.4768156,5.01144244 33.1107596,4.97588581 33.6410303,4.88964708 C34.1713009,4.80281809 34.611423,4.6818213 34.9613965,4.52660247 C35.31137,4.37072109 35.5818975,4.18922822 35.772979,3.98226651 C35.9640605,3.77483243 36.0892757,3.55777758 36.1486247,3.33133679 L37.9737545,3.34945674 L38,2.67369367 Z" id="$" fill="#FFFFFF" fill-rule="nonzero"></path>
        </g>
        <g id="Big-coin" transform="translate(359.000000, 312.500000)">
            <path d="M23.6085341,9.09114482 L35.0722433,7.95933969 L29.62652,65.9349059 L18.3192654,63.9894066 C11.9153077,55.4708784 9.13411879,46.6174419 9.97569882,37.429097 C10.8172789,28.2407522 15.3615573,18.7947681 23.6085341,9.09114482 Z" id="Rectangle" fill="#F5BC2B" transform="translate(22.450658, 36.947123) rotate(-20.000000) translate(-22.450658, -36.947123) "></path>
            <ellipse id="Oval" fill="#FFD638" transform="translate(33.238671, 33.062500) rotate(-13.000000) translate(-33.238671, -33.062500) " cx="33.2386714" cy="33.0625" rx="18.781492" ry="29.2571374"></ellipse>
            <ellipse id="Oval" fill="#FFC83B" transform="translate(33.238671, 33.062500) rotate(-13.000000) translate(-33.238671, -33.062500) " cx="33.2386714" cy="33.0625" rx="14.488651" ry="23.516095"></ellipse>
            <path d="M34.2319244,46.3235486 L34.2573546,43.5455753 C35.1049633,43.4517062 35.8744126,43.2559571 36.5657026,42.9583282 C37.2569926,42.6606992 37.8467934,42.2685686 38.335105,41.7819362 C38.8234165,41.2953038 39.2008894,40.7190302 39.4675236,40.0531155 C39.7341578,39.3872007 39.87132,38.6342061 39.8790103,37.7941317 C39.8870501,36.9158721 39.7591517,36.1486621 39.4953152,35.4925017 C39.2314786,34.8363413 38.8459465,34.2600739 38.3387188,33.7636996 C37.8314912,33.2673252 37.214353,32.8340286 36.4873045,32.4638098 C35.7602559,32.093591 34.9375832,31.7505203 34.0192863,31.4345976 C33.3421522,31.2023195 32.7767087,30.9666062 32.322956,30.7274576 C31.8692032,30.4883091 31.5040079,30.2316242 31.2273701,29.9574032 C30.9507322,29.6831822 30.755738,29.3843308 30.6423875,29.0608489 C30.529037,28.7373671 30.4742406,28.3703807 30.4779984,27.9598898 C30.4819309,27.5303063 30.546023,27.1359534 30.6702747,26.7768311 C30.7945264,26.4177088 30.9787847,26.1105231 31.2230497,25.855274 C31.4673147,25.600025 31.7785439,25.3990335 32.1567371,25.2522998 C32.5349303,25.105566 32.9845876,25.0297522 33.505709,25.0248584 C33.9896074,25.0203142 34.4191675,25.1069623 34.7943896,25.2848027 C35.1696116,25.4626432 35.4859517,25.7197868 35.7434101,26.0562335 C36.0008684,26.3926803 36.1971841,26.8012923 36.332357,27.2820696 C36.4675299,27.762847 36.5323636,28.3039441 36.5268581,28.905361 L36.5268581,28.905361 L39.8629652,28.8740319 C39.8717916,27.9098556 39.7610958,27.0422565 39.530878,26.2712347 C39.3006602,25.5002128 38.9647916,24.8351833 38.5232721,24.2761463 C38.0817526,23.7171093 37.5438662,23.2663639 36.9096129,22.9239101 C36.2753595,22.5814563 35.5539575,22.356753 34.745407,22.2498003 L34.745407,22.2498003 L34.7742454,19.0995213 L32.5408682,19.1204947 L32.512292,22.2421348 C31.7018189,22.3452007 30.9671568,22.5525549 30.3083058,22.8641974 C29.6494548,23.1758399 29.087462,23.5796413 28.6223274,24.0756015 C28.1571928,24.5715618 27.7959613,25.1524555 27.5386328,25.8182829 C27.2813043,26.4841103 27.1489698,27.2179685 27.1416291,28.0198578 C27.1335019,28.9076637 27.2659876,29.6819897 27.5390862,30.3428359 C27.8121848,31.003682 28.2070008,31.5822486 28.7235342,32.0785356 C29.2400676,32.5748225 29.864185,33.0080536 30.5958865,33.3782287 C31.3275879,33.7484038 32.1480216,34.0819501 33.0571875,34.3788675 C33.6972734,34.5924026 34.2395399,34.8187881 34.683987,35.058024 C35.128434,35.29726 35.4889546,35.5563751 35.7655487,35.8353693 C36.0421429,36.1143634 36.2417244,36.4203309 36.3642932,36.7532716 C36.4868621,37.0862124 36.5463113,37.4531551 36.542641,37.8540997 C36.5345138,38.7419056 36.2348944,39.4534711 35.6437828,39.9887963 C35.0526712,40.5241214 34.2080768,40.79694 33.1099997,40.8072519 C32.6819357,40.8112718 32.2590708,40.7555837 31.841405,40.6401874 C31.4237391,40.5247912 31.0487356,40.323085 30.7163944,40.0350689 C30.3840532,39.7470527 30.1154214,39.3605971 29.9104992,38.8757021 C29.7055769,38.390807 29.606524,37.7760538 29.6133403,37.0314424 L29.6133403,37.0314424 L26.2772332,37.0627714 C26.2670086,38.1796885 26.4210983,39.1351758 26.7395021,39.9292332 C27.057906,40.7232907 27.4845929,41.3779218 28.019563,41.8931266 C28.5545332,42.4083313 29.1697162,42.801078 29.8651123,43.0713665 C30.5605084,43.341655 31.2847393,43.5114452 32.037805,43.5807371 L32.037805,43.5807371 L32.0125058,46.3443909 L34.2319244,46.3235486 Z" id="$" fill="#FFFFFF" fill-rule="nonzero" transform="translate(33.078061, 32.721956) rotate(-18.000000) translate(-33.078061, -32.721956) "></path>
        </g>
        <g id="Big-coin" transform="translate(366.379165, 268.084936) rotate(-60.000000) translate(-366.379165, -268.084936) translate(342.379165, 235.084936)">
            <path d="M25.1555972,5.9560296 L31.148338,5.70956599 L21.4269245,63.3236499 C16.6541009,62.0785943 13.8202228,60.5853293 12.92529,58.8438548 C11.5828909,56.2316431 7.5922653,48.0696552 10.1923693,31.4405273 C11.9257719,20.354442 16.9135145,11.8596095 25.1555972,5.9560296 Z" id="Rectangle" fill="#F5BC2B" transform="translate(20.239812, 34.516608) rotate(-20.000000) translate(-20.239812, -34.516608) "></path>
            <ellipse id="Oval" fill="#FFD638" transform="translate(26.990834, 31.939389) rotate(-13.000000) translate(-26.990834, -31.939389) " cx="26.9908343" cy="31.9393886" rx="13.9462593" ry="29.4390882"></ellipse>
            <ellipse id="Oval" fill="#FFC83B" transform="translate(26.990834, 31.939389) rotate(-13.000000) translate(-26.990834, -31.939389) " cx="26.9908343" cy="31.9393886" rx="10.7688616" ry="23.6602968"></ellipse>
            <path d="M26.5253494,44.9803468 L26.7904577,42.2247553 C27.432158,42.0566275 28.0244786,41.7944476 28.5674196,41.4382154 C29.1103605,41.0819833 29.5858347,40.6410786 29.9938421,40.1155012 C30.4018495,39.5899239 30.734973,38.9853197 30.9932126,38.3016886 C31.2514522,37.6180575 31.4206572,36.859589 31.5008274,36.0262829 C31.5846417,35.1550993 31.5570367,34.4060236 31.4180125,33.7790556 C31.2789882,33.1520876 31.0419479,32.6150854 30.7068914,32.168049 C30.371835,31.7210126 29.9490587,31.3462317 29.4385625,31.0437064 C28.9280662,30.7411811 28.3437088,30.4740346 27.6854902,30.2422669 C27.2000727,30.072037 26.7984215,29.8885076 26.4805367,29.6916784 C26.1626519,29.4948493 25.9124961,29.272794 25.7300693,29.0255125 C25.5476425,28.778231 25.4284068,28.4993046 25.3723623,28.1887333 C25.3163178,27.878162 25.3078825,27.5192845 25.3470566,27.1121008 C25.3880527,26.6859784 25.4708826,26.2894446 25.5955462,25.9224992 C25.7202098,25.5555539 25.8851128,25.2347685 26.0902553,24.9601431 C26.2953977,24.6855177 26.5457731,24.4587364 26.8413812,24.2797991 C27.1369894,24.1008618 27.4797169,23.9858844 27.8695637,23.934867 C28.2315643,23.8874937 28.5448812,23.935318 28.8095145,24.0783398 C29.0741478,24.2213617 29.2877555,24.4481998 29.4503375,24.7588544 C29.6129195,25.0695089 29.7234188,25.4571055 29.7818353,25.9216442 C29.8402518,26.3861828 29.8407627,26.9167378 29.7833682,27.5133092 L29.7833682,27.5133092 L32.2790839,27.1867067 C32.3710974,26.2302987 32.3652409,25.3802 32.2615144,24.6364109 C32.1577879,23.8926217 31.9657227,23.2632448 31.6853188,22.7482801 C31.4049148,22.2333155 31.042906,21.8342195 30.5992922,21.5509921 C30.1556784,21.2677647 29.6365103,21.1089642 29.0417877,21.0745908 L29.0417877,21.0745908 L29.3424259,17.9496931 L27.6716539,18.1683391 L27.3737487,21.2648286 C26.7589836,21.4387816 26.19163,21.709382 25.6716879,22.0766296 C25.1517458,22.4438773 24.6960175,22.8938857 24.304503,23.4266548 C23.9129885,23.959424 23.5915922,24.5671686 23.3403141,25.2498886 C23.089036,25.9326087 22.9251339,26.671683 22.8486078,27.4671115 C22.7638825,28.3477644 22.794285,29.1034867 22.9398152,29.7342784 C23.0853455,30.36507 23.3291196,30.9035285 23.6711376,31.3496539 C24.0131556,31.7957793 24.4411531,32.1698769 24.9551301,32.4719467 C25.4691071,32.7740165 26.0526351,33.0319214 26.7057142,33.2456613 C27.1651076,33.4005965 27.550266,33.5769342 27.8611892,33.7746743 C28.1721125,33.9724145 28.4185598,34.1972927 28.600531,34.4493088 C28.7825023,34.701325 28.9045355,34.9868979 28.9666305,35.3060276 C29.0287256,35.6251573 29.0406416,35.9835793 29.0023785,36.3812935 C28.9176532,37.2619465 28.6307208,37.9937458 28.1415812,38.5766913 C27.6524417,39.1596369 26.9971405,39.5048601 26.1756775,39.612361 C25.8554462,39.6542682 25.5443896,39.6365362 25.2425076,39.5591649 C24.9406257,39.4817937 24.67827,39.3150984 24.4554404,39.059079 C24.2326109,38.8030596 24.0661098,38.4438296 23.9559372,37.9813889 C23.8457646,37.5189483 23.8262082,36.9184219 23.8972682,36.1798097 L23.8972682,36.1798097 L21.4015525,36.5064121 C21.2949625,37.6143304 21.3254594,38.5476935 21.4930431,39.3065014 C21.6606268,40.0653093 21.9214781,40.6763344 22.2755972,41.1395765 C22.6297162,41.6028186 23.054624,41.9375824 23.5503205,42.1438677 C24.0460171,42.350153 24.572164,42.4542768 25.1287614,42.4562388 L25.1287614,42.4562388 L24.8650197,45.1976263 L26.5253494,44.9803468 Z" id="$" fill="#FFFFFF" fill-rule="nonzero" transform="translate(26.841679, 31.573660) rotate(-18.000000) translate(-26.841679, -31.573660) "></path>
        </g>
        <g id="Big-coin" transform="translate(353.552264, 225.497261) rotate(-96.000000) translate(-353.552264, -225.497261) translate(336.552264, 202.997261)">
            <path d="M18.1820779,3.99964364 C19.1017468,3.42419655 21.1239941,3.23747178 24.2488199,3.43946931 L15.5154358,42.8423032 C12.5127142,42.3002901 10.5104785,40.9266029 9.50872868,38.7212413 C8.00610391,35.4131989 6.08271356,32.4417536 7.85551172,21.1036044 C9.62830988,9.76545525 16.8025747,4.86281426 18.1820779,3.99964364 Z" id="Rectangle" fill="#F5BC2B" transform="translate(15.696977, 23.101524) rotate(-20.000000) translate(-15.696977, -23.101524) "></path>
            <ellipse id="Oval" fill="#FFD638" transform="translate(19.402842, 21.776856) rotate(-13.000000) translate(-19.402842, -21.776856) " cx="19.4028416" cy="21.7768559" rx="9.50881314" ry="20.0721056"></ellipse>
            <ellipse id="Oval" fill="#FFC83B" transform="translate(19.402842, 21.776856) rotate(-13.000000) translate(-19.402842, -21.776856) " cx="19.4028416" cy="21.7768559" rx="7.34240565" ry="16.1320205"></ellipse>
            <path d="M19.0854655,30.6684183 L19.2662211,28.7896059 C19.7037441,28.6749733 20.107599,28.4962143 20.4777861,28.2533287 C20.8479731,28.0104432 21.17216,27.7098263 21.4503469,27.3514781 C21.7285337,26.9931299 21.9556634,26.5808998 22.1317359,26.1147877 C22.3078083,25.6486756 22.4231753,25.1315379 22.4778368,24.5633747 C22.5349829,23.9693859 22.5161614,23.4586524 22.4213721,23.0311743 C22.3265829,22.6036961 22.1649645,22.2375583 21.9365169,21.9327607 C21.7080693,21.6279631 21.4198127,21.3724307 21.0717471,21.1661634 C20.7236815,20.9598962 20.325256,20.7777508 19.8764706,20.6197274 C19.5455041,20.5036616 19.271651,20.3785279 19.0549114,20.2443262 C18.8381717,20.1101245 18.6676109,19.9587232 18.543229,19.7901222 C18.4188472,19.6215212 18.3375501,19.4313441 18.2993379,19.2195909 C18.2611258,19.0078377 18.2553745,18.7631485 18.2820841,18.4855233 C18.310036,18.1949853 18.3665109,17.9246213 18.4515088,17.6744313 C18.5365067,17.4242413 18.6489406,17.205524 18.7888104,17.0182794 C18.9286803,16.8310348 19.0993907,16.6764112 19.3009417,16.5544085 C19.5024928,16.4324057 19.7361706,16.3540121 20.0019752,16.3192275 C20.2487938,16.2869275 20.462419,16.319535 20.6428508,16.4170499 C20.8232826,16.5145648 20.9689242,16.6692272 21.0797756,16.8810371 C21.190627,17.092847 21.2659674,17.3571174 21.3057968,17.6738483 C21.3456262,17.9905792 21.3459746,18.3523212 21.3068419,18.7590745 L21.3068419,18.7590745 L23.0084663,18.536391 C23.0712028,17.8842946 23.0672097,17.3046819 22.9964871,16.7975529 C22.9257645,16.2904239 22.7948109,15.8613032 22.6036264,15.510191 C22.4124419,15.1590788 22.1656177,14.8869678 21.8631538,14.6938582 C21.5606898,14.5007486 21.2067115,14.3924756 20.8012189,14.3690392 L20.8012189,14.3690392 L21.0061995,12.2384271 L19.8670367,12.387504 L19.6639196,14.4987468 C19.2447615,14.6173511 18.8579295,14.8018514 18.5034236,15.0522475 C18.1489176,15.3026436 17.8381938,15.6094675 17.571252,15.9727192 C17.3043103,16.3359709 17.0851765,16.7503422 16.9138505,17.2158332 C16.7425245,17.6813241 16.6307731,18.1852384 16.5785962,18.727576 C16.520829,19.3280212 16.5415579,19.8432864 16.6407831,20.2733716 C16.7400083,20.7034568 16.9062179,21.0705876 17.139412,21.374764 C17.3726061,21.6789404 17.6644226,21.934007 18.0148614,22.1399637 C18.3653003,22.3459204 18.7631603,22.5217646 19.2084415,22.6674964 C19.5216643,22.773134 19.7842722,22.8933642 19.9962654,23.0281871 C20.2082585,23.1630099 20.3762908,23.3163359 20.5003621,23.4881651 C20.6244334,23.6599943 20.7076378,23.8547031 20.7499754,24.0722916 C20.7923129,24.28988 20.8004374,24.5342586 20.774349,24.8054274 C20.7165817,25.4058726 20.520946,25.9048267 20.1874418,26.3022895 C19.8539375,26.6997524 19.4071412,26.9351319 18.8470529,27.008428 C18.6287133,27.037001 18.4166293,27.024911 18.2108007,26.9721579 C18.0049721,26.9194048 17.8260932,26.8057489 17.6741639,26.6311903 C17.5222347,26.4566316 17.4087112,26.211702 17.3335935,25.8964016 C17.2584758,25.5811011 17.245142,25.1716513 17.293592,24.6680521 L17.293592,24.6680521 L15.5919676,24.8907356 C15.5192926,25.6461344 15.540086,26.2825183 15.6543476,26.7998873 C15.7686091,27.3172564 15.9464623,27.7338643 16.1879072,28.0497112 C16.429352,28.3655581 16.7190618,28.5938062 17.0570367,28.7344553 C17.3950116,28.8751043 17.7537482,28.9460978 18.1332464,28.9474356 L18.1332464,28.9474356 L17.9534225,30.8165634 L19.0854655,30.6684183 Z" id="$" fill="#FFFFFF" fill-rule="nonzero" transform="translate(19.301145, 21.527495) rotate(-18.000000) translate(-19.301145, -21.527495) "></path>
        </g>
        <polygon id="Path-73" fill="#E8F0F8" fill-rule="nonzero" points="345.999998 96.9987009 346.300427 212.626559 345.300431 212.629157 345.000002 97.0012991"></polygon>
        <polygon id="Path-73" fill="#E8F0F8" fill-rule="nonzero" points="331.924892 148.109752 332.075106 219.959206 331.075108 219.961296 330.924894 148.111843"></polygon>
        <polygon id="Path-73" fill="#E8F0F8" fill-rule="nonzero" points="359.000003 52.9983713 359.999997 53.0016287 359.499997 206.501629 358.500003 206.498371"></polygon>
        <g id="5.-Illustrations-/1.-Characters/Walking" transform="translate(203.000000, 231.500000) scale(-1, 1) translate(-203.000000, -231.500000) translate(124.000000, 96.000000)">
            <g id="Character">
                <path d="M76.147152,24.680342 C76.147152,24.680342 82.5571401,13.3886335 73.716086,4.13662837 C69.0767314,-0.718163227 59.0006577,-1.48079332 52.6528156,2.81491335 C49.1301398,5.19899601 45.725278,8.880347 43.0777543,14.0513511 C40.1400406,19.7883489 33.9580966,23.0594209 27.6550207,21.9449712 C27.5354687,21.9242446 27.4132834,21.9088326 27.2932047,21.8796029 C-2.58004685,14.5450677 -11.6055162,67.0012636 21.6894503,89.1547379 L51.1070663,51.1125165 C51.1070663,51.1125165 58.8010533,20.8709116 76.147152,24.680342 Z" id="Fill" fill="#313050"></path>
                <path d="M111.176574,241.350467 L111.503339,256.08407 C111.503339,256.08407 125.650886,266.346799 122.03461,269.508799 C118.418334,272.670798 110.68571,266.346799 103.539787,260.122955 L101.362626,242.288982 L111.176574,241.350467 Z" id="Fill" fill="#016E80"></path>
                <path d="M88.7577489,222 L87.8911851,235.654079 C87.8911851,235.654079 101.154547,246.378065 97.2961966,248.987094 C93.4378465,251.596124 86.2463176,245.073764 79.6311536,238.695159 L78.9052119,222.012594 L88.7577489,222 Z" id="Fill" fill="#016E80" transform="translate(88.452606, 235.788344) rotate(39.000000) translate(-88.452606, -235.788344) "></path>
                <path d="M102.586392,163.936666 C109.56088,180.047731 112.555235,208.301063 111.569458,248.696663 C110.187951,251.92594 103.42961,251.92594 101.107727,250.202548 C101.107727,250.202548 92.5005869,202.652706 71.2039474,180.217805 C55.9057012,164.101899 25.2340156,153.766538 30.1146694,131.821378 C30.1146694,131.821378 35.8171469,130.145554 53.5485231,129.350467 C79.2659484,136.296869 95.6119048,147.825602 102.586392,163.936666 Z" id="Fill" fill="#00424D"></path>
                <path d="M121.412042,154.443378 C128.389068,168.815766 119.323994,194.450674 94.2168203,231.348103 C92.8348105,234.228882 86.846131,226.806938 84.5234029,225.269531 C84.5234029,225.269531 115.521211,187.189035 94.2168203,167.175268 C78.9130061,152.798561 43.9788989,142.118244 53.2658433,131.422467 C53.2658433,131.422467 65.1771643,127.101283 82.9149942,126.392 C101.602667,130.720531 114.435016,140.070991 121.412042,154.443378 Z" id="Fill" fill="#00424D"></path>
                <path d="M63.0060703,49.7089832 C76.8917373,46.8359647 80.3054927,54.0141972 88.5299195,61.2981189 C98.9465179,70.52273 112.622935,67.1455312 130.262584,61.2981189 C140.263291,57.9823923 149.862717,58.7038823 155.753037,60.6327088 C155.678938,58.3776481 155.715466,55.8955714 155.945067,53.2166757 C156.328606,48.7507711 157.141604,44.9049813 158,41.8178884 C142.751336,36.9006481 132.909784,37.9149401 122.744182,44.7243392 C117.186262,48.4471845 105.266297,54.1382202 97.8266892,47.4188725 C88.8163995,39.2808102 83.3717152,34.5690167 59.25,44.6499254 L59.25,45.813045 C59.3877608,45.7747596 60.2414606,46.7680217 61.1035095,47.7607445 C61.9645148,48.7529281 62.8338692,49.7445724 63.0060703,49.7089832 Z" id="Scarfe" fill="#F9C071"></path>
                <g id="Cup" transform="translate(97.045225, 58.711657)">
                    <path d="M8.36258661,3.01737697 L8.36258661,3.01375839 L7.99703485,3.01530921 L7.63148308,3.01375839 L7.63148308,3.01737697 L0.544918626,3.05201193 L3.34136339,18.6222354 C3.39118752,18.8993151 3.63611245,19.1014385 3.92194561,19.1014385 L12.0721241,19.1014385 C12.3579572,19.1014385 12.6023577,18.8993151 12.6527063,18.6222354 L15.4491511,3.05201193 L8.36258661,3.01737697 Z" id="Fill" fill="#00424D"></path>
                    <path d="M15.2225824,5.6682437 C14.5989941,9.14983251 13.9748813,12.6319383 13.3507686,16.1135271 L13.3507686,16.1135271 L2.55624002,16.1135271 C1.93212725,12.6319383 1.30801449,9.14983251 0.684426186,5.6682437 L0.684426186,5.6682437 Z M13.9937621,2.56532924e-10 C14.4573887,2.56532924e-10 14.8339542,0.370645758 14.8339542,0.828137383 L14.833,1.659 L15.227827,1.65989334 C15.6028192,1.65989334 15.9070086,1.95971836 15.9070086,2.32933024 L15.9070086,3.58962921 L1.37560054e-10,3.58962921 L1.37560054e-10,2.32933024 C1.37560054e-10,1.95971836 0.304189416,1.65989334 0.678657076,1.65989334 L1.072,1.659 L1.07252992,0.828137383 C1.07252992,0.370645758 1.44909544,2.56532924e-10 1.91324653,2.56532924e-10 L13.9937621,2.56532924e-10 Z" id="Combined-Shape" fill="#016E80"></path>
                    <path d="M7.95350429,14.7260609 C5.80424873,14.7260609 4.06250209,13.0087873 4.06250209,10.8908854 C4.06250209,8.77246654 5.80424873,7.05570983 7.95350429,7.05570983 C10.1022354,7.05570983 11.8445065,8.77246654 11.8445065,10.8908854 C11.8445065,13.0087873 10.1022354,14.7260609 7.95350429,14.7260609 Z" id="Fill" fill="#D8E5F0"></path>
                </g>
                <path d="M110.987492,83.7436912 C110.987492,83.7436912 114.21412,76.3884055 114.600781,70.8225205 C114.600781,70.8225205 108.987557,63.6853393 105.649088,63.0718809 C105.134782,62.9770976 104.708764,63.5005119 104.883213,63.989699 C105.182117,64.8269513 106.309123,65.9264374 108.912033,68.6604085 C108.912033,68.6604085 105.398583,65.3866993 103.455708,65.1413159 C102.973313,65.0797067 102.672814,65.6568316 102.794609,66.123376 C103.030754,67.0275032 103.827476,68.2101879 107.258489,70.9115115 C107.258489,70.9115115 103.821626,68.9421255 101.894175,68.9842514 C101.531448,68.99215 101.314982,69.3891867 101.503791,69.6956526 C102.061178,70.5987267 103.162655,72.362056 108.912033,75.7600367 C108.912033,75.7600367 107.25054,79.3467366 106.408609,80.8511579 L110.987492,83.7436912 Z" id="Fill" fill="#8D5524"></path>
                <path d="M65.43475,46.7518747 C65.1633106,46.789305 82.064494,84.0266994 90.3027317,90.1140122 C98.5409694,96.201325 104.726384,81.2778561 105.71153,78.3735848 C107.943307,79.5254877 110.175084,80.6773905 112.406336,81.8292933 C112.406336,81.8292933 111.062764,108.49703 96.1718517,115.862355 C78.3558925,122.098446 58.8583716,65.0273274 65.43475,46.7518747 Z" id="Fill" fill="#A5D867"></path>
                <path d="M45.443352,46.1595157 C45.443352,46.1595157 28.874001,98.1322795 30.1889958,131.246423 C30.1889958,131.246423 59.5235797,141.997747 84.9757805,126.200272 C84.9757805,126.200272 82.3874211,82.5523604 65.450163,46.1595157 C63.1651838,45.4189759 59.8706717,44.6302667 55.856477,44.5799798 C51.4421117,44.5238703 47.8433346,45.3824518 45.443352,46.1595157 Z" id="Fill" fill="#A5D867"></path>
                <path d="M58.6067433,22.8357036 C58.6067433,22.8357036 59.1567911,19.6429 55.9389844,17.7329284 C54.4690952,16.8605414 52.6671016,17.7528133 52.1765923,19.5990512 C51.7745713,21.1103048 52.2492401,24.6635863 56.0733556,27.1813225 L58.6067433,22.8357036 Z" id="Fill" fill="#8D5524"></path>
                <path d="M60.3977297,18.4832993 C55.1378771,25.022283 51.661244,38.4285474 50.9618916,47.2801643 C50.9618916,47.2801643 56.1324543,50.9841509 61.408823,47.2801643 C61.433081,45.0866668 64.2074615,34.599785 65.2257805,31.9345966 L60.3977297,18.4832993 Z" id="Fill" fill="#8D5524"></path>
                <path d="M57.6772083,27.5444124 C58.2147582,26.2256342 60.3652082,28.4993048 64.1285583,34.3654241 L60.9906323,44.5773689 C58.2441331,34.5408428 57.1396585,28.8631906 57.6772083,27.5444124 Z" id="Path-60" fill="#6E421C"></path>
                <path d="M75.7273882,27.9026683 C74.5252245,34.509564 70.2480251,37.4495179 65.8686028,36.9022768 C61.1355722,36.3102324 57.2307568,28.2925642 59.135443,21.6504659 C61.0401293,15.0083676 66.6592666,12.0694805 70.8770097,13.3341087 C75.0947528,14.5992703 77.2059713,19.771925 75.7273882,27.9026683 Z" id="Fill" fill="#8D5524"></path>
                <g id="Phone" transform="translate(67.420225, 81.543968)">
                    <path d="M6.5118174,0.00335587269 L15.8733754,0.890839209 C16.1191082,0.914207253 16.3168609,1.05548972 16.4378723,1.25948711 L17.1031779,2.04577608 L16.5447794,1.99126991 C16.5359755,2.03295422 16.5247401,2.07483296 16.5109717,2.11671169 L11.0289253,18.8049715 C10.8799393,19.2584339 10.4783711,19.5605671 10.0735989,19.5237857 L0.699224917,18.675711 C0.172166692,18.6278951 -0.13541744,18.0388668 0.0584246429,17.4493131 L5.55328699,0.721644635 C5.70280706,0.267131263 6.10597723,-0.0355273522 6.5118174,0.00335587269 Z" id="Combined-Shape" fill="#D8E5F0"></path>
                    <path d="M10.7346912,20.3003993 L1.3597832,19.4523246 C0.833258974,19.4045087 0.525140842,18.8154804 0.718982925,18.2259267 L6.21437928,1.49825824 C6.36389934,1.04321941 6.76653551,0.741086248 7.17237568,0.779444024 L16.5339337,1.66745281 C17.0593899,1.71684501 17.364838,2.30534788 17.17153,2.89332529 L11.6900176,19.5815851 C11.5404976,20.0350475 11.1394634,20.3371807 10.7346912,20.3003993 Z" id="Fill" fill="#313050"></path>
                    <path d="M8.32421418,3.2238327 C8.18911212,3.63473381 7.74055193,3.86067687 7.32242975,3.72773828 C6.90430757,3.59479969 6.67522147,3.15342254 6.80978953,2.74199598 C6.94489159,2.33056943 7.39345178,2.10462636 7.81157396,2.23809041 C8.22969614,2.371029 8.45931624,2.8118807 8.32421418,3.2238327 Z" id="Fill" fill="#F9C071"></path>
                    <path d="M9.39488464,3.26849587 C9.34629061,3.41614703 9.18502255,3.49759162 9.03443448,3.44977577 C8.88438042,3.40143446 8.80214438,3.24327431 8.8507384,3.0950977 C8.89933242,2.94744654 9.06060049,2.86652739 9.21065456,2.91434325 C9.36070862,2.96215911 9.44347866,3.12031925 9.39488464,3.26849587 Z" id="Fill" fill="#5C7594"></path>
                </g>
                <path d="M77.7614176,97.0562309 C79.4004833,94.8312599 77.3286575,95.70064 77.3286575,95.70064 C71.0291798,98.7401047 65.9211216,99.5970577 65.9211216,99.5970577 C66.9525155,98.9793267 67.7802889,98.4107862 68.459733,97.8857407 L69.5527979,94.5910024 C68.6128471,95.1082809 67.4793771,95.6079544 66.4979579,96.0056221 C64.6648413,96.7481421 63.0640541,97.9556432 61.905065,99.5256018 C60.528101,101.391222 59.7396694,102.805842 59.7396694,102.805842 L61.7785332,108.72529 C71.207813,107.386786 73.3700187,106.423167 75.8267565,104.150041 C77.6705061,102.443384 77.1213154,101.282485 77.1213154,101.282485 C75.1685783,102.7406 71.7272315,103.506938 71.7272315,103.506938 C71.7272315,103.506938 76.6662261,101.731932 77.7444049,99.9077356 C78.8225837,98.0840567 77.6795441,98.0799143 77.6795441,98.0799143 C76.1361747,99.6550509 72.2865234,100.533234 72.2865234,100.533234 C72.2865234,100.533234 76.1223519,99.2806841 77.7614176,97.0562309 Z" id="Fill" fill="#8D5524"></path>
                <path d="M46.3021169,45.6959463 C63.8361219,44.1019106 30.5114189,103.855297 27.2301836,108.52285 C23.9489483,113.190403 56.4325698,103.855297 59.9209057,102.426019 C60.5918001,104.457941 61.2632195,106.490395 61.9341139,108.52285 C61.9341139,108.52285 29.8670816,142.032411 12.3272352,137.693379 C-14.4788511,121.192973 28.7681119,47.2899819 46.3021169,45.6959463 Z" id="Fill" fill="#A5D867"></path>
                <path d="M49.914594,36.1674213 C49.914594,36.1674213 55.0770598,38.5475517 65.7314328,37.5738857 C65.7314328,37.5738857 68.4550474,43.3965649 66.6022051,49.498031 C66.6022051,49.498031 55.4061831,52.1809637 47.8174267,47.7428219 C47.8174267,47.7428219 46.2899978,40.7115439 49.914594,36.1674213 Z" id="Fill" fill="#F9C071"></path>
            </g>
        </g>
    </g>
</svg>