<?xml version="1.0" encoding="UTF-8"?>
<svg width="500px" height="432px" viewBox="0 0 500 432" version="1.1" xmlns="http://www.w3.org/2000/svg" xmlns:xlink="http://www.w3.org/1999/xlink">
    <!-- Generator: Sketch 63.1 (92452) - https://sketch.com -->
    <title>8.0_PL_CI"Lending Terms and Conditions" </title>
    <desc>Created with Sketch.</desc>
    <defs>
        <linearGradient x1="50%" y1="100%" x2="50%" y2="0%" id="linearGradient-1">
            <stop stop-color="#FFFFFF" offset="0%"></stop>
            <stop stop-color="#ECF3FA" offset="100%"></stop>
        </linearGradient>
        <filter x="0.0%" y="0.0%" width="100.0%" height="100.0%" filterUnits="objectBoundingBox" id="filter-2">
            <feGaussianBlur stdDeviation="0" in="SourceGraphic"></feGaussianBlur>
        </filter>
    </defs>
    <g id="8.0_PL_CI&quot;Lending-Terms-and-Conditions&quot;-" stroke="none" stroke-width="1" fill="none" fill-rule="evenodd">
        <g id="Background" transform="translate(250.000000, 215.500000) scale(-1, 1) translate(-250.000000, -215.500000) translate(0.000000, -1.000000)">
            <path d="M208.659342,431.278286 C345.249511,445.672455 500,368.868209 500,236.248915 C500,103.629622 397.456734,69.0273605 262,12.6008072 C126.543266,-43.825746 -19.5335536,112.431821 2.1747449,251.858481 C23.8830434,391.28514 72.0691732,416.884117 208.659342,431.278286 Z" id="Oval" fill-opacity="0.15" fill="#D8E5F0"></path>
            <path d="M13.0605469,302 C159.096368,285.959987 273.188816,277.93998 355.337891,277.93998 C437.486965,277.93998 481.240414,285.959987 486.598237,302 C469.212359,331.893329 453.050381,353.559996 438.112305,367 C420.338876,382.991012 388.995705,401.704982 355.337891,413.399414 C337.140857,419.721986 298.446763,431.829801 230.463838,432.935599 C202.973231,433.382757 111.196433,422.950786 63.09375,391.828125 C41.5909978,377.915744 24.9132635,347.973035 13.0605469,302 Z" id="Path-8" fill="url(#linearGradient-1)" filter="url(#filter-2)"></path>
            <g id="Tree" transform="translate(444.000000, 257.500000) scale(-1, 1) translate(-444.000000, -257.500000) translate(412.000000, 217.000000)">
                <ellipse id="Oval" fill="#E0E7ED" cx="28" cy="80.5" rx="14" ry="1"></ellipse>
                <polygon id="Rectangle" fill="#E8F0F8" points="26 60 30 60 30 80 26 80"></polygon>
                <path d="M21.1818433,53.9965621 C27.066939,54.1628133 31.7029784,49.3711511 31.5367273,43.2940852 C31.3704761,37.2170192 26.4648903,32.1558107 20.5797946,31.9895595 C16.4336075,31.8724317 13.2705947,33.7159915 11.0907562,37.520239 L17.2789507,42.1536185 L10.4144099,40.2942191 C10.2730105,41.3420303 10.2098441,42.1413028 10.2249106,42.6920365 C10.3911618,48.7691024 15.2967476,53.830311 21.1818433,53.9965621 Z" id="Oval" fill="#E8F0F8" transform="translate(20.881898, 42.992536) rotate(120.000000) translate(-20.881898, -42.992536) "></path>
                <path d="M39.9193333,57.6460837 C48.7212974,57.8541637 54.9017689,31.6762791 54.6949475,23.2275998 C54.488126,14.7789205 47.1850624,7.76123055 38.3830983,7.55315056 C32.1819093,7.40655335 27.4378768,9.98217074 24.1510008,15.2800027 L26.9774611,26.082342 L23.1201923,19.1394948 C13.9973391,36.24168 9.44526483,45.1756031 9.46396958,45.9412641 C9.67084868,54.3899434 31.1173692,57.4380037 39.9193333,57.6460837 Z" id="Oval" fill="#E8F0F8" transform="translate(32.081978, 32.597273) scale(-1, 1) rotate(-27.000000) translate(-32.081978, -32.597273) "></path>
                <path d="M29.2193593,70.8340068 C37.5903095,70.7094866 44.4772339,63.4097102 44.6017353,54.5294999 C44.7262367,45.6492896 38.041169,38.5514004 29.6702188,38.6759206 C23.7726892,38.763648 19.1587215,41.6583779 15.8283157,47.3601103 L22.8892712,53.2417486 L14.7002447,51.4606381 C14.436593,53.002396 14.2991257,54.1756591 14.2878428,54.9804275 C14.1633414,63.8606378 20.848409,70.9585271 29.2193593,70.8340068 Z" id="Oval" fill="#E8F0F8" transform="translate(29.444789, 54.754964) scale(-1, 1) rotate(77.000000) translate(-29.444789, -54.754964) "></path>
            </g>
        </g>
        <path d="M309.015625,376.721667 C309.015625,374.10516 266.601692,370.260064 208.16602,370.260064 C149.730348,370.260064 114.685051,373.324894 140.774533,376.721667 C166.864015,380.118439 203.684423,381.41028 242.58734,381.24633 C279.421936,381.091096 309.015625,379.338173 309.015625,376.721667 Z" id="Oval" fill="#E0E7ED" transform="translate(220.515625, 375.760064) scale(-1, 1) translate(-220.515625, -375.760064) "></path>
        <path d="M343.015625,386.721667 C343.015625,384.10516 321.688845,380.260064 292.305937,380.260064 C262.923028,380.260064 245.301381,383.324894 258.419821,386.721667 C271.538262,390.118439 290.052478,391.41028 309.613832,391.24633 C328.135183,391.091096 343.015625,389.338173 343.015625,386.721667 Z" id="Oval" fill="#E0E7ED" transform="translate(298.515625, 385.760064) scale(-1, 1) translate(-298.515625, -385.760064) "></path>
        <g id="Little-coins" transform="translate(232.000000, 304.000000)">
            <path d="M50.8366314,63 C77.0441506,63 86,60.4433557 86,58.5 C86,56.5566443 71.1033429,54 48.6519119,54 C26.2004809,54 8,56.7495298 8,58.6928855 C8,60.6362412 24.6291121,63 50.8366314,63 Z" id="Oval" fill="#FFD638"></path>
            <path d="M1,46.6928855 C8.86349473,49.1731308 22.2980956,50.4040535 41.3038026,50.3856537 C60.3095096,50.3672539 72.5415754,49.2387026 78,47 L78,57.1825892 C62.577716,59.0608631 50.3456502,60 41.3038026,60 C32.261955,60 18.8273541,59.0608631 1,57.1825892 L1,46.6928855 Z" id="Rectangle" fill="#F5BC2B"></path>
            <path d="M8,59 C15.8634947,61.2755023 29.2980956,62.4040535 48.3038026,62.3856537 C67.3095096,62.3672539 79.5415754,61.2387026 85,59 L85,69.1825892 C69.577716,71.0608631 57.3456502,72 48.3038026,72 C39.261955,72 25.8273541,71.0608631 8,69.1825892 L8,59 Z" id="Rectangle" fill="#F5BC2B"></path>
            <path d="M43.8366314,51 C70.0441506,51 79,48.4433557 79,46.5 C79,44.5566443 64.1033429,42 41.6519119,42 C19.2004809,42 1,44.7495298 1,46.6928855 C1,48.6362412 17.6291121,51 43.8366314,51 Z" id="Oval" fill="#FFD638"></path>
            <path d="M6,38 C13.7613714,40.4505409 27.021497,41.6659038 45.7803766,41.6460886 C64.5392563,41.6262734 76.6124641,40.4109105 82,38 L82,48.9658653 C66.7780054,50.9886218 54.7047976,52 45.7803766,52 C36.8559556,52 23.59583,50.9886218 6,48.9658653 L6,38 Z" id="Rectangle" fill="#F5BC2B"></path>
            <path d="M48.8366314,42 C75.0441506,42 84,39.4433557 84,37.5 C84,35.5566443 69.1033429,33 46.6519119,33 C24.2004809,33 6,35.7495298 6,37.6928855 C6,39.6362412 22.6291121,42 48.8366314,42 Z" id="Oval" fill="#FFD638"></path>
            <path d="M44.8366314,31 C71.0441506,31 80,28.7274273 80,27 C80,25.2725727 65.1033429,23 42.6519119,23 C20.2004809,23 2,25.4440265 2,27.1714538 C2,28.8988811 18.6291121,31 44.8366314,31 Z" id="Oval" fill="#FFD638"></path>
            <path d="M4,15.0148456 C11.8634947,15.0346398 25.2980956,15.0346398 44.3038026,15.0148456 C63.3095096,14.9950515 75.5415754,14.9950515 81,15.0148456 L81,25.9690827 C65.577716,27.9896942 53.3456502,29 44.3038026,29 C35.261955,29 21.8273541,27.9896942 4,25.9690827 L4,15.0148456 Z" id="Rectangle" fill="#F5BC2B"></path>
            <path d="M0,5 C8.27198796,8.39419639 22.4044902,10.0820947 42.3975066,10.0636949 C62.3905231,10.045295 75.2580209,8.35739676 81,5 L81,15.1825892 C64.7765584,17.0608631 51.9090606,18 42.3975066,18 C32.8859526,18 18.7534504,17.0608631 0,15.1825892 L0,5 Z" id="Rectangle" fill="#F5BC2B"></path>
            <path d="M2,27 C9.86349473,29.4505409 23.2980956,30.6659038 42.3038026,30.6460886 C61.3095096,30.6262734 73.5415754,29.4109105 79,27 L79,37.9658653 C63.577716,39.9886218 51.3456502,41 42.3038026,41 C33.261955,41 19.8273541,39.9886218 2,37.9658653 L2,27 Z" id="Rectangle" fill="#F5BC2B"></path>
            <path d="M42.3975066,11 C68.5070912,11 81,7.06427121 81,4.99557128 C81,2.92687135 62.8675324,0 40.5,0 C18.1324676,0 0,2.92687135 0,4.99557128 C0,7.06427121 16.2879221,11 42.3975066,11 Z" id="Oval" fill="#FFD638"></path>
            <path d="M40.8352825,8 C59.2086938,8 68,5.13765179 68,3.63314275 C68,2.12863371 55.2401154,0 39.5,0 C23.7598846,0 11,2.12863371 11,3.63314275 C11,5.13765179 22.4618711,8 40.8352825,8 Z" id="Oval" fill="#FFC83B"></path>
            <path d="M53,3.51054051 L50.4519633,3.49410783 C50.3870664,3.11104977 50.2267418,2.76362673 49.9709896,2.45219207 C49.7152374,2.14144059 49.3702426,1.87749754 48.9360052,1.6604678 C48.5017678,1.44426106 47.9825129,1.27911675 47.3782407,1.16489213 C46.7739685,1.05130018 46.0865622,0.99654009 45.3160219,1.00016915 C44.510457,1.00400853 43.8033716,1.06667652 43.1947656,1.18768361 C42.5861596,1.30808441 42.0478048,1.48037769 41.5797013,1.70433764 C41.1115979,1.92739024 40.6986134,2.19689912 40.340748,2.51279631 C39.9828826,2.8276955 39.64753,3.18282042 39.3346902,3.57809204 C39.1046295,3.86885285 38.8742138,4.11102996 38.6434431,4.3047709 C38.4126724,4.49811025 38.1680304,4.65302708 37.9095172,4.76961765 C37.651004,4.88593495 37.3719378,4.96696907 37.0723185,5.01282905 C36.7726993,5.05856117 36.4346326,5.07894719 36.0581186,5.0740906 C35.6640923,5.06901897 35.303895,5.03881807 34.9775267,4.98359938 C34.6511583,4.92854041 34.3739422,4.84876239 34.1458783,4.74430773 C33.9178144,4.64006938 33.7412064,4.50825965 33.6160543,4.34885343 C33.4909022,4.18963005 33.4326056,4.0008956 33.4411646,3.78250006 C33.4491122,3.57968882 33.5393643,3.39972063 33.711921,3.24242027 C33.8844776,3.0848715 34.1283172,2.95174897 34.4434396,2.84300708 C34.7585621,2.73395596 35.1383621,2.65026088 35.5828398,2.59198509 C36.0273174,2.53348438 36.5253747,2.50449152 37.0770115,2.5051915 L37.1318043,1.0829895 C36.2474341,1.08755762 35.4486767,1.14192979 34.735532,1.24560237 C34.0223872,1.34865933 33.4038406,1.49462103 32.8798921,1.68328769 C32.3559436,1.87107231 31.928935,2.09757448 31.5988664,2.3628536 C31.2687978,2.62732993 31.0445782,2.92697496 30.9262075,3.26211467 L28.0366814,3.24970356 L28,4.16241258 L30.8632578,4.18701882 C30.9375222,4.52315872 31.109365,4.82884543 31.3787864,5.10441956 C31.6482077,5.38067984 32.0046062,5.61828614 32.4479819,5.8173245 C32.8913576,6.01716375 33.4152579,6.1753798 34.019683,6.2918304 C34.6241081,6.40889218 35.2940785,6.47472938 36.0295943,6.48891263 C36.8439153,6.50466059 37.5576442,6.45887837 38.1707811,6.35105599 C38.783918,6.24260101 39.3246146,6.08014801 39.792871,5.8634781 C40.2611273,5.64588375 40.6742264,5.3802102 41.0321682,5.0663973 C41.39011,4.75157978 41.7166682,4.39696952 42.0118429,4.00254687 C42.22378,3.72425151 42.4450575,3.4881457 42.6756754,3.29432545 C42.9062932,3.10011214 43.1530478,2.94223832 43.4159391,2.82079045 C43.6788304,2.69906476 43.9645401,2.6108486 44.2730683,2.55624344 C44.5815966,2.50149576 44.9197396,2.47437263 45.2874975,2.47498821 C46.1018185,2.47638566 46.7471475,2.60792569 47.2234844,2.87039182 C47.6998213,3.13395004 47.9289723,3.51158039 47.9109373,4.00240663 C47.9039067,4.19372501 47.8422266,4.38240122 47.7258971,4.56830391 C47.6095676,4.7540199 47.4151206,4.91989332 47.1425561,5.06580434 C46.8699917,5.21136889 46.5087084,5.32740862 46.0587064,5.413922 C45.6087044,5.50008684 45.0422139,5.53790078 44.359235,5.52765021 L44.3044422,6.99519575 C45.3289106,7.01716367 46.2093883,6.96382871 46.9458754,6.83447061 C47.6823624,6.70422713 48.2936431,6.52273195 48.7797174,6.28990371 C49.2657917,6.05608163 49.6415243,5.78384233 49.9069153,5.47339977 C50.1723063,5.16224865 50.3462163,4.83666637 50.4286454,4.49700518 L52.9635479,4.5241851 L53,3.51054051 Z" id="$" fill="#FFFFFF" fill-rule="nonzero"></path>
        </g>
        <g id="5.-Illustrations-/1.-Characters/Welcoming" transform="translate(275.341985, 214.000000) scale(-1, 1) translate(-275.341985, -214.000000) translate(139.841985, 46.000000)">
            <g id="Character">
                <path d="M252.661037,195.49189 C251.907995,201.924707 251.197629,212.826765 254.48441,217.67619 C257.77119,222.525615 262.051989,219.540315 263.172491,218.391861 C264.292993,217.243406 261.297156,211.075073 261.857138,209.26149 C262.417121,207.447906 263.780778,203.939857 263.780892,200.633093 C266.336248,189.237973 253.414078,189.059074 252.661037,195.49189 Z" id="Path-77" fill="#FDE2BF" transform="translate(258.071245, 205.791608) scale(-1, 1) rotate(-16.000000) translate(-258.071245, -205.791608) "></path>
                <path d="M211.809984,329.773593 C199.063983,333.477771 191.342152,334.27215 188.644492,332.15673 C184.598,328.983601 201.541221,322.597717 201.541232,322.133145 C202.503893,318.127337 203.306699,316.041756 203.949649,315.876401 C205.579626,315.457202 208.609327,316.101168 213.038753,317.808301 C213.038753,317.808301 213.086106,326.273393 211.809984,329.773593 Z" id="Fill" fill="#313050" transform="translate(200.529390, 324.531298) rotate(-12.000000) translate(-200.529390, -324.531298) "></path>
                <path d="M247.572945,329.075637 C236.066698,332.5071 228.964643,333.165115 226.26678,331.049681 C222.219985,327.876531 239.471364,322.631303 239.471378,322.166721 C240.174702,317.928446 240.847866,315.726626 241.49087,315.561261 C243.120984,315.142035 246.280136,315.944895 250.968327,317.969843 C250.968327,317.969843 248.849202,325.57535 247.572945,329.075637 Z" id="Fill" fill="#313050" transform="translate(238.310089, 323.856618) scale(-1, 1) rotate(-17.000000) translate(-238.310089, -323.856618) "></path>
                <path d="M183.529491,159.721454 C178.738022,168.889634 184.416979,222.299616 200.566363,319.9514 L213.783284,319.9514 C213.00597,305.897322 216.361565,213.084869 217.362618,213.10642 C217.649289,213.112606 224.120436,231.629041 225.21333,258.934189 C226.390453,288.343715 227.093405,308.098605 227.093405,317.210193 C234.91632,318.500562 238.880566,318.802952 238.986146,318.117366 C239.915939,312.079671 252.550049,286.419415 252.830939,254.770856 C253.162475,217.416059 248.218713,172.223085 242.643668,162.521733 C227.308556,162.521733 198.864602,159.721454 183.529491,159.721454 Z" id="Fill" fill="#A5D867"></path>
                <path d="M221.240085,68.4323686 C221.240085,74.6861775 220.846622,79.3812935 219.603354,84.3724078 C222.089065,85.5769947 223.739715,87.5765645 223.829695,89.9048082 C223.983009,93.8711771 219.5473,97.2902687 213.922549,97.5407177 C208.297798,97.7911666 203.613099,94.7783588 203.459786,90.8113715 C203.322202,87.2519552 206.880275,84.1332751 211.676844,83.3497877 C213.023648,77.7540832 213.021173,72.2756233 213.0263,72.257744 L213.0263,72.257744 Z" id="Combined-Shape" fill="#FFC7C0"></path>
                <polygon id="Fill" fill="#FFC7C0" points="205.137874 84.2516917 211.759656 81.8737063 222.939914 86.8428332 223.833553 85.0556478 217.980047 82.5304245 205.023438 93.6348768"></polygon>
                <path d="M197.797617,88.4450865 C195.391399,98.7639151 193.144908,110.89521 191.66156,124.600904 C189.952648,140.392373 189.65781,154.578515 189.99215,166.535755 C194.117013,169.065295 201.100942,172.685193 210.151024,173.123205 C218.028053,173.504398 226.829097,171.690494 235.851126,166.535755 C235.851126,166.535755 229.682438,128.228713 233.377926,90.046098 C227.873749,88.3691711 223.954837,86.6322246 221.621188,84.8352586 C221.006418,84.3618704 220.541971,82.6932856 220.227847,79.8295041 L205.023438,84.8884555 L197.797617,88.4450865 Z" id="Fill" fill="#D8E5F0"></path>
                <path d="M221.627069,84.1139293 L242.643668,91.2120181 C242.643668,91.2120181 235.70435,134.739902 254.661241,182.284101 C254.661241,182.284101 247.418061,196.537765 227.932991,198.3653 C227.932991,198.3653 222.38514,183.642225 221.223493,146.838099 C220.560681,125.825447 216.472438,95.727479 221.627069,84.1139293 Z" id="Fill" fill="#313050"></path>
                <path d="M244.733681,146.840172 C244.732597,146.840172 244.732597,146.839562 244.731514,146.839562 C243.779144,141.333073 243.106309,136.079848 242.643668,131.158611 L242.643668,131.159222 C243.106851,136.079238 243.781853,141.335515 244.733681,146.840172 Z" id="Fill" fill="#EFEDDA"></path>
                <g id="Fill-46" opacity="0.0700000003" transform="translate(231.148598, 110.996605)" fill="#343839">
                    <path d="M13.5850831,35.8435673 C-3.38476936,28.4708252 0.348552726,0 0.348552726,0 L11.3950948,20.0914273 C11.8803698,25.0345854 12.5861211,30.311865 13.5850831,35.8435673 Z" id="Fill"></path>
                </g>
                <path d="M242.643668,91.2266395 C247.368579,93.1206042 255.031105,109.044855 265.631245,138.999392 C271.066078,165.728374 271.569394,185.18929 267.141191,197.38214 L252.840246,196.48699 C252.840246,196.48699 248.068888,162.641586 247.789435,157.885057 C247.509981,153.128529 246.050331,143.400403 238.986146,123.7968 C231.92196,104.193196 235.556301,88.3856925 242.643668,91.2266395 Z" id="Fill" fill="#313050"></path>
                <polygon id="Path-3" fill="#A5D867" points="209.022444 85.7092454 214.459369 85.7092454 212.94807 94.6787616 212.164315 170.837718 205.110522 168.587846 209.784945 94.6787616"></polygon>
                <path d="M119.152826,88.2552946 C119.152826,88.2552946 118.052211,87.8171217 118.327187,89.4256298 C118.562964,90.8054895 119.943774,92.6204518 120.273935,95.8773397 C114.007541,89.8374697 112.244883,89.0003862 110.976998,88.3697476 C110.368437,88.067605 109.715342,88.7315728 109.978894,89.3886894 C110.350288,90.313679 111.176242,91.3557001 111.176242,91.3557001 L116.790639,97.2153403 L116.299077,97.8020497 C110.351076,92.0956201 109.540148,92.1338039 108.29303,91.514197 C107.684469,91.2114414 107.031374,91.8760222 107.294925,92.5331388 C107.666896,93.4581283 108.492273,94.4995365 108.492273,94.4995365 L114.132627,100.385533 L113.697606,100.905418 C113.697606,100.905418 107.750662,95.2099978 106.833324,96.1854063 C105.915986,97.1602018 107.65849,99.0125152 107.65849,99.0125152 C114.171541,107.102877 122.586013,113.007189 122.586013,113.007189 C124.38902,110.559223 128.470738,110.554964 130.273745,108.106998 C130.273745,108.106998 123.968624,92.3490262 119.152826,88.2552946 Z" id="Fill" fill="#FDE2BF" transform="translate(118.420130, 100.603992) rotate(2.000000) translate(-118.420130, -100.603992) "></path>
                <path d="M204.979539,84.1139293 C205.009384,112.697761 199.753849,149.199613 191.236077,198.925356 C174.847345,196.884491 167.049287,187.465878 167.049287,187.465878 C173.242257,173.364021 176.143585,157.95835 177.775697,141.806934 C174.209734,149.744806 169.617899,156.139142 163.943072,156.502635 C149.045526,157.456877 124.700403,120.350579 119.090182,114.498455 L119.090182,114.498455 L133.066462,102.457256 C145.398977,119.818984 154.099918,128.178849 159.169287,127.536852 C166.77334,126.573856 172.25971,82.9938178 181.607188,84.1462633 L181.433927,84.1329348 C181.434438,84.1265996 181.434949,84.1202645 181.43546,84.1139293 L204.979539,84.1139293 Z" id="Combined-Shape" fill="#313050"></path>
                <g id="document" transform="translate(114.333640, 135.543707) rotate(-1.000000) translate(-114.333640, -135.543707) translate(2.833640, 2.043707)">
                    <polygon id="Path-41" fill="#C9CBD9" points="203.099166 85.0480895 146.099166 85.0480895 197.203761 58.0480895"></polygon>
                    <path d="M73.8593447,0.947642781 L222.000457,0.947642781 C215.755396,1.82203182 211.312125,8.51028363 208.670644,21.0123982 C207.216104,27.8967302 212.111101,44.5657183 212.111101,60.0133277 C212.111101,75.4609372 209.566014,84.6119932 203.222321,84.6119932 C196.878629,84.6119932 190.608804,42.5827447 178.207938,84.6119932 C174.132108,98.4258706 186.41363,132.24872 185.433569,181.483798 C185.107386,197.870161 180.955856,226.358109 172.97898,266.947643 L20.1192709,263.434597 C28.262656,230.115509 29.2341318,205.523371 23.0336985,189.658185 C13.7330484,165.860406 -6.60580095,119.690168 2.13353733,91.8339343 C7.31324953,75.3238427 24.3133142,67.4533526 38.1184351,52.8109717 C45.0854083,45.4214619 56.9990449,28.1336856 73.8593447,0.947642781 Z" id="Path-37" fill="#FFFFFF"></path>
                    <path d="M74.2250755,1.20583621 L222.586494,1.20583621 C216.332145,2.08373317 211.882267,8.7988173 209.236858,21.3510886 C207.780154,28.2630396 212.682431,44.9989013 212.682431,60.5084843 C212.682431,76.0180674 210.133559,85.2058362 203.780432,85.2058362 C198.965946,85.2058362 195.403004,66.0806277 188.773173,66.0806277 C186.880045,66.0806277 179.736451,61.5502903 150.519757,60.5084843 C133.217538,59.8915235 93.2397835,59.8915235 30.5864936,60.5084843 L74.2250755,1.20583621 Z" id="Path-37" fill="#F5F5F5"></path>
                    <path d="M152.241031,22.2262586 C153.17198,22.2262586 153.926663,22.8978314 153.926663,23.7262586 C153.926663,24.5059547 153.258155,25.1467072 152.403369,25.219392 L152.241031,25.2262586 L103.612296,25.2262586 C102.681347,25.2262586 101.926663,24.5546857 101.926663,23.7262586 C101.926663,22.9465624 102.595172,22.3058099 103.449958,22.2331251 L103.612296,22.2262586 L152.241031,22.2262586 Z" id="Path-38" fill="#BDBFCE" fill-rule="nonzero"></path>
                    <path d="M127.769069,47.6900002 C128.712635,47.6900002 129.477546,48.3615731 129.477546,49.1900002 C129.477546,49.9696964 128.799977,50.6104489 127.933606,50.6831337 L127.769069,50.6900002 L66.1860233,50.6900002 C65.2424574,50.6900002 64.477546,50.0184274 64.477546,49.1900002 C64.477546,48.4103041 65.1551145,47.7695516 66.0214856,47.6968668 L66.1860233,47.6900002 L127.769069,47.6900002 Z" id="Path-39" fill="#BDBFCE" fill-rule="nonzero"></path>
                    <path d="M103.037602,89.0465906 C103.983391,89.0465906 104.750104,89.7181635 104.750104,90.5465906 C104.750104,91.3262867 104.070939,91.9670393 103.202528,92.039724 L103.037602,92.0465906 L16.4626059,92.0465906 C15.5168172,92.0465906 14.750104,91.3750177 14.750104,90.5465906 C14.750104,89.7668945 15.4292687,89.1261419 16.2976805,89.0534572 L16.4626059,89.0465906 L103.037602,89.0465906 Z" id="Path-40" fill="#C9CBD9" fill-rule="nonzero"></path>
                    <path d="M117.27029,132.240745 C118.223158,132.23969 118.996631,132.887189 118.997901,133.686975 C118.999074,134.439715 118.315799,135.059073 117.440997,135.130215 L117.274847,135.137028 L23.7255023,135.240745 C22.7726336,135.241793 21.9991607,134.594294 21.9979006,133.794508 C21.9967176,133.041768 22.679993,132.42241 23.5547952,132.351268 L23.7209448,132.344455 L117.27029,132.240745 Z" id="Path-40" fill="#C9CBD9" fill-rule="nonzero"></path>
                    <path d="M153.529311,175.731589 C154.475288,175.731138 155.243105,176.390532 155.243105,177.204388 C155.243105,177.970369 154.564704,178.600176 153.696165,178.671997 L153.531211,178.678821 L42.9568985,178.731589 C42.0109213,178.732039 41.2431049,178.072644 41.2431049,177.258789 C41.2431049,176.492807 41.9215055,175.863001 42.7900445,175.79118 L42.9549984,175.784355 L153.529311,175.731589 Z" id="Path-40" fill="#C9CBD9" fill-rule="nonzero"></path>
                    <path d="M157.795549,217.812454 C158.741526,217.812003 159.509342,218.471397 159.509342,219.285253 C159.509342,220.051235 158.830942,220.681041 157.962403,220.752862 L157.797449,220.759686 L47.223136,220.812454 C46.2771587,220.812904 45.5093423,220.15351 45.5093423,219.339654 C45.5093423,218.573672 46.1877429,217.943866 47.0562819,217.872045 L47.2212358,217.865221 L157.795549,217.812454 Z" id="Path-40" fill="#C9CBD9" fill-rule="nonzero"></path>
                </g>
                <path d="M215.183704,38.2752884 C232.769191,38.2752884 230.910748,57.4903436 229.029542,66.638217 C228.811482,74.6109757 227.020749,83.627061 221.240082,90.0933136 C215.288329,96.750458 197.526419,96.1992438 196.192626,81.8737063 C195.221595,71.4444002 197.680466,66.583669 199.089813,64.711122 C200.987402,56.4846594 194.191652,38.2752884 215.183704,38.2752884 Z M218.520494,51.3147678 C214.015558,53.6555377 207.295116,59.6541194 202.730854,63.7285864 L219.618714,63.7290601 C219.951837,61.5055728 220.263935,58.5560089 220.268498,55.2844347 C219.654237,53.9190202 219.062583,52.5785515 218.520494,51.3147678 Z" id="Combined-Shape" fill="#F9C071"></path>
                <path d="M222.603949,49.9348871 C222.603949,49.9348871 223.913281,53.9201823 224.354226,58.1910904 C225.352018,57.2380743 226.964299,56.137685 228.262369,57.3245545 C230.297802,59.1858345 226.425206,67.2927015 222.996566,66.790193 C222.996566,66.790193 222.966078,66.7885433 222.913455,66.7801896 C222.070929,67.8049828 220.831392,68.4323686 219.059389,68.4323686 C209.437652,68.4323686 205.303014,70.3851866 203.381651,66.8416206 C203.371186,66.8223201 203.360835,66.8027324 203.350598,66.7828612 C200.102102,66.3257493 196.80057,59.0657874 198.712644,57.3173122 C200.002823,56.1376574 201.603405,57.2175383 202.602992,58.1670889 C202.809322,54.0114342 203.381651,50.0715739 203.381651,50.0715739 C205.358287,53.888176 222.603949,49.9348871 222.603949,49.9348871 Z" id="Combined-Shape" fill="#FDE2BF"></path>
                <g id="Fill" opacity="0.0700000003" transform="translate(234.806120, 162.521733)" fill="#343839">
                    <path d="M7.50170821,17.3617279 C7.30550021,17.3617279 7.10814814,17.2900308 6.94683427,17.1435727 C0.441652332,11.230709 0.0160582975,1.3708296 0.000613352704,0.954128672 C-0.0171197321,0.447346803 0.351842838,0.0202283468 0.824915777,0.000618891139 C1.29455651,-0.0177649735 1.69669711,0.375649731 1.71557426,0.8824316 C1.71900647,0.976802105 2.13716405,10.3605394 8.05715419,15.7421094 C8.41868031,16.0705678 8.462727,16.6502723 8.15611625,17.0375591 C7.98622185,17.2514247 7.74482309,17.3617279 7.50170821,17.3617279 Z"></path>
                </g>
            </g>
        </g>
        <g id="Big-coin" transform="translate(290.000000, 300.000000)">
            <path d="M31.8972604,12.5985607 L48.137081,11.1295403 L40.9716716,91.9408801 L24.924215,89.1192206 C15.7646941,77.1764841 11.7375096,64.8012596 12.8426615,51.9935473 C13.9478135,39.1858351 20.2993464,26.0541729 31.8972604,12.5985607 Z" id="Rectangle" fill="#F5BC2B" transform="translate(30.400631, 51.535210) rotate(-20.000000) translate(-30.400631, -51.535210) "></path>
            <ellipse id="Oval" fill="#FFD638" transform="translate(45.812849, 46.000000) rotate(-13.000000) translate(-45.812849, -46.000000) " cx="45.8128489" cy="46" rx="26.6589852" ry="40.747949"></ellipse>
            <ellipse id="Oval" fill="#FFC83B" transform="translate(45.812849, 46.000000) rotate(-13.000000) translate(-45.812849, -46.000000) " cx="45.8128489" cy="46" rx="20.5655137" ry="32.7521221"></ellipse>
            <path d="M47.338786,64.4860068 L47.3505642,60.6133314 C48.5518323,60.4898747 49.6413631,60.2236993 50.6191567,59.8148052 C51.5969504,59.4059111 52.4299845,58.8643805 53.1182592,58.1902136 C53.806534,57.5160467 54.3368323,56.7159379 54.7091541,55.7898873 C55.081476,54.8638366 55.2694178,53.8152522 55.2730338,52.6441338 C55.2767033,51.4197828 55.0886088,50.3490626 54.7086959,49.4319731 C54.3287831,48.5148836 53.7769787,47.7081127 53.0532826,47.0116603 C52.3295866,46.3152078 51.4505657,45.705734 50.41622,45.1832389 C49.3818743,44.6607437 48.2121507,44.1752609 46.9070491,43.7267904 C45.9446986,43.397041 45.1407191,43.0634788 44.4951108,42.726104 C43.8495024,42.3887291 43.3293339,42.0276804 42.9346053,41.6429579 C42.5398767,41.2582354 42.2607209,40.8398884 42.0971377,40.3879168 C41.9335546,39.9359452 41.8526332,39.4238339 41.8543736,38.8515829 C41.856195,38.2527156 41.9436434,37.7034907 42.1167189,37.2039085 C42.2897944,36.7043262 42.5484261,36.2776757 42.8926141,35.923957 C43.236802,35.5702384 43.6764337,35.2927482 44.211509,35.0914865 C44.7465843,34.8902248 45.3836308,34.7884607 46.1226485,34.7861941 C46.8088792,34.7840894 47.4188441,34.908645 47.9525433,35.1598608 C48.4862424,35.4110767 48.937128,35.7723378 49.3052,36.2436443 C49.673272,36.7149508 49.9552616,37.2863316 50.1511688,37.9577867 C50.3470759,38.6292418 50.4437546,39.3841765 50.4412047,40.2225908 L50.4412047,40.2225908 L55.1722377,40.2080805 C55.1763257,38.863956 55.0117504,37.6534293 54.6785119,36.5765002 C54.3452734,35.4995711 53.8631262,34.5694871 53.2320705,33.7862483 C52.6010148,33.0030095 51.8342371,32.3699024 50.9317374,31.886927 C50.0292377,31.4039516 49.0041723,31.0843755 47.8565412,30.9281989 L47.8565412,30.9281989 L47.8698979,26.5365051 L44.7026792,26.5462191 L44.6894438,30.8979884 C43.5409223,31.0345914 42.5008287,31.3172502 41.5691629,31.7459649 C40.6374972,32.1746796 39.8440027,32.7327239 39.1886794,33.4200978 C38.533356,34.1074717 38.0261318,34.9141637 37.6670067,35.8401739 C37.3078816,36.7661841 37.126619,37.788132 37.1232192,38.9060177 C37.119455,40.1436768 37.3141176,41.2243579 37.7072069,42.148061 C38.1002962,43.0717641 38.6652873,43.8818216 39.4021801,44.5782336 C40.1390728,45.2746455 41.0279913,45.884089 42.0689353,46.4065639 C43.1098794,46.9290388 44.2763444,47.4012236 45.5683302,47.8231182 C46.4779746,48.1264132 47.2490027,48.4467684 47.8814143,48.7841837 C48.513826,49.1215991 49.027386,49.485995 49.4220943,49.8773716 C49.8168026,50.2687482 50.1025265,50.6970561 50.2792659,51.1622954 C50.4560054,51.6275347 50.5435251,52.1396257 50.5418252,52.6985686 C50.538061,53.9362277 50.1193583,54.9256338 49.285717,55.6667868 C48.4520757,56.4079397 47.2566471,56.7809043 45.6994312,56.7856803 C45.0923809,56.7875422 44.492182,56.7062077 43.8988344,56.5416771 C43.3054868,56.3771464 42.7718889,56.0926602 42.2980406,55.6882183 C41.8241922,55.2837764 41.4398368,54.7426527 41.1449743,54.064847 C40.8501117,53.3870414 40.704259,52.5291202 40.707416,51.4910835 L40.707416,51.4910835 L35.9763104,51.5055938 C35.9716474,53.0626489 36.1985328,54.3960839 36.6570392,55.5058989 C37.1155457,56.6157139 37.7264015,57.532095 38.4896068,58.2550424 C39.2528121,58.9779897 40.1287059,59.5309139 41.1172879,59.913815 C42.10587,60.2967161 43.1344673,60.5397601 44.2030799,60.6429469 L44.2030799,60.6429469 L44.1913624,64.4956601 L47.338786,64.4860068 Z" id="$" fill="#FFFFFF" fill-rule="nonzero" transform="translate(45.624672, 45.516083) rotate(-18.000000) translate(-45.624672, -45.516083) "></path>
        </g>
        <g id="Tree" transform="translate(429.000000, 242.000000)">
            <ellipse id="Oval" fill="#E0E7ED" cx="20" cy="66.5" rx="12" ry="1"></ellipse>
            <polygon id="Rectangle" fill="#E8F0F8" points="18 47 21 47 21 66 18 66"></polygon>
            <path d="M13.182437,41.3820835 C18.419003,41.3943365 22.6541239,37.147721 22.6418709,31.8969758 C22.6295647,26.6462305 18.3745346,22.3797058 13.1379686,22.3673927 C9.44868574,22.3587638 6.59105329,24.0234446 4.56507125,27.3614352 L9.97173494,31.2293905 L3.90086254,29.7750313 C3.75154887,30.6841669 3.67744433,31.376659 3.67854894,31.8525074 C3.69084089,37.1032527 7.94587098,41.3697773 13.182437,41.3820835 Z" id="Oval" fill="#E8F0F8" transform="translate(13.160210, 31.874738) rotate(120.000000) translate(-13.160210, -31.874738) "></path>
            <path d="M14.6151859,38.8390241 C22.2013853,38.8410925 34.4599861,25.7389896 34.4579402,18.2012412 C34.4558943,10.6634928 28.304406,4.55126367 20.7182066,4.54919458 C15.3735522,4.54773778 11.2286962,6.94597013 8.28363855,11.7438916 L16.1046986,17.2805268 L7.31415965,15.2107388 C7.09512235,16.5163056 6.98569633,17.5106429 6.98588158,18.1937508 C6.98792773,25.7314991 7.02898643,38.8369557 14.6151859,38.8390241 Z" id="Oval" fill="#E8F0F8" transform="translate(20.721911, 21.694109) scale(-1, 1) rotate(-27.000000) translate(-20.721911, -21.694109) "></path>
            <path d="M20.4322633,56.2357722 C27.9707314,56.224028 34.0913728,50.0653348 34.1031153,42.4799291 C34.1148242,34.8945235 28.0131939,28.7548442 20.4747259,28.7665548 C15.1636994,28.7748282 11.0405427,31.1957747 8.10525581,36.0293941 L14.5317024,41.1342191 L7.13554818,39.5199268 C6.91550586,40.8341473 6.80494775,41.834971 6.80387386,42.5223979 C6.79216502,50.1078035 12.8937953,56.2474828 20.4322633,56.2357722 Z" id="Oval" fill="#E8F0F8" transform="translate(20.453495, 42.501164) scale(-1, 1) rotate(77.000000) translate(-20.453495, -42.501164) "></path>
        </g>
    </g>
</svg>