<?xml version="1.0" encoding="UTF-8"?>
<svg width="500px" height="432px" viewBox="0 0 500 432" version="1.1" xmlns="http://www.w3.org/2000/svg" xmlns:xlink="http://www.w3.org/1999/xlink">
    <!-- Generator: Sketch 63.1 (92452) - https://sketch.com -->
    <title>4_PL_CI"Other Terms and conditions" </title>
    <desc>Created with Sketch.</desc>
    <defs>
        <linearGradient x1="50%" y1="100%" x2="50%" y2="0%" id="linearGradient-1">
            <stop stop-color="#FFFFFF" offset="0%"></stop>
            <stop stop-color="#ECF3FA" offset="100%"></stop>
        </linearGradient>
        <filter x="0.0%" y="0.0%" width="100.0%" height="100.0%" filterUnits="objectBoundingBox" id="filter-2">
            <feGaussianBlur stdDeviation="0" in="SourceGraphic"></feGaussianBlur>
        </filter>
    </defs>
    <g id="4_PL_CI&quot;Other-Terms-and-conditions&quot;-" stroke="none" stroke-width="1" fill="none" fill-rule="evenodd">
        <g id="Background" transform="translate(249.000000, 215.500000) scale(-1, 1) translate(-249.000000, -215.500000) translate(0.000000, -1.000000)">
            <path d="M206.659342,431.278286 C343.249511,445.672455 498,368.868209 498,236.248915 C498,103.629622 410.075019,-10.0403456 221,1.43602094 C31.9249808,12.9123875 -2,146 0.174744901,251.858481 C2.3494898,357.716961 70.0691732,416.884117 206.659342,431.278286 Z" id="Oval" fill-opacity="0.15" fill="#D8E5F0"></path>
            <path d="M4.28417969,290 C150.271851,275.003247 263.510458,266.669914 344,265 C424.489542,263.330086 473.889282,268.289166 492.199219,279.877241 C486.586789,298.055298 481.658403,310.818223 477.414063,318.166016 C463.711382,341.888064 446.878987,359.419246 436.679688,368.595703 C418.906259,384.586715 380.503517,406.831936 346.845703,418.526367 C328.64867,424.848939 296.446763,431.829801 228.463838,432.935599 C200.973231,433.382757 109.92304,422.839213 61.09375,391.828125 C35.03125,375.276042 16.0947266,341.333333 4.28417969,290 Z" id="Path-8" fill="url(#linearGradient-1)" filter="url(#filter-2)"></path>
            <g id="Tree" transform="translate(44.000000, 171.000000)">
                <ellipse id="Oval" fill="#E0E7ED" cx="377.5" cy="184" rx="33.5" ry="1"></ellipse>
                <polygon id="Rectangle" fill="#E8F0F8" points="373 132 382 132 382 183 373 183"></polygon>
                <path d="M360.005672,115.084569 C374.315116,115.115351 385.890209,103.511386 385.859427,89.1663274 C385.828523,74.8212687 374.203423,63.1672975 359.893979,63.1363768 C349.812642,63.1146986 342.00301,67.6640871 336.465084,76.7845421 L351.237345,87.3490249 L334.648819,83.3788432 C334.240335,85.8626839 334.03748,87.7546142 334.040257,89.0546342 C334.071128,103.399693 345.696228,115.053664 360.005672,115.084569 Z" id="Oval" fill="#E8F0F8" transform="translate(359.949842, 89.110473) rotate(120.000000) translate(-359.949842, -89.110473) "></path>
                <path d="M360.097137,107.225405 C380.822277,107.227397 447.246569,57.7892772 404.030889,23.6596045 C404.030889,23.6596045 399.245527,29.7473734 389.674802,41.9229113 C386.317854,22.9877594 382.021869,13.5201835 376.786848,13.5201835 C362.185504,13.5187995 350.860794,20.0743485 342.812719,33.1868303 L364.176818,48.3127664 L340.162476,42.6609928 C339.563623,46.2287611 339.264197,48.945994 339.264197,50.8126917 C339.266149,71.4107511 339.371996,107.223413 360.097137,107.225405 Z" id="Oval" fill="#E8F0F8" transform="translate(378.807111, 60.372794) scale(-1, 1) rotate(-27.000000) translate(-378.807111, -60.372794) "></path>
                <path d="M379.81853,155.671185 C400.419952,155.641079 417.145074,138.81856 417.175176,118.096997 C417.205197,97.375434 400.528814,80.6016612 379.927392,80.6316865 C365.413209,80.6528953 354.145916,87.2652788 346.125511,100.468837 L363.689294,114.415713 L343.476368,110.003908 C342.875371,113.593995 342.573497,116.327984 342.570745,118.205874 C342.540725,138.927437 359.217108,155.70121 379.81853,155.671185 Z" id="Oval" fill="#E8F0F8" transform="translate(379.872961, 118.151436) scale(-1, 1) rotate(77.000000) translate(-379.872961, -118.151436) "></path>
                <path d="M7.45458984,83.6318359 C7.45458984,83.3583984 7.45800781,83.1225586 7.46484375,82.9243164 C7.47167969,82.7260742 7.50073242,82.5415039 7.55200195,82.3706055 C7.60327148,82.199707 7.68359375,82.0322266 7.79296875,81.8681641 C7.90234375,81.7041016 8.05957031,81.5195312 8.26464844,81.3144531 C8.59277344,81.0205078 8.92431641,80.7128906 9.25927734,80.3916016 C9.59423828,80.0703125 9.89672852,79.7250977 10.166748,79.355957 C10.4367676,78.9868164 10.6555176,78.592041 10.822998,78.1716309 C10.9904785,77.7512207 11.0742188,77.2983398 11.0742188,76.8129883 C11.0742188,76.1772461 10.9699707,75.6132812 10.7614746,75.1210938 C10.5529785,74.6289062 10.2487793,74.215332 9.84887695,73.8803711 C9.44897461,73.5454102 8.96191406,73.2907715 8.38769531,73.1164551 C7.81347656,72.9421387 7.15722656,72.8549805 6.41894531,72.8549805 C5.76269531,72.8549805 5.15429688,72.9387207 4.59375,73.1062012 C4.03320312,73.2736816 3.54443359,73.5231934 3.12744141,73.8547363 C2.71044922,74.1862793 2.38061523,74.5964355 2.13793945,75.0852051 C1.89526367,75.5739746 1.77050781,76.1362305 1.76367188,76.7719727 L1.76367188,76.7719727 L4.22460938,76.7719727 C4.22460938,76.4438477 4.2878418,76.1618652 4.41430664,75.9260254 C4.54077148,75.6901855 4.70654297,75.4970703 4.91162109,75.3466797 C5.11669922,75.1962891 5.35083008,75.0852051 5.61401367,75.0134277 C5.87719727,74.9416504 6.14550781,74.9057617 6.41894531,74.9057617 C7.12988281,74.9057617 7.67333984,75.0715332 8.04931641,75.4030762 C8.42529297,75.7346191 8.61328125,76.2387695 8.61328125,76.9155273 C8.61328125,77.2163086 8.55004883,77.5068359 8.42358398,77.7871094 C8.29711914,78.0673828 8.13647461,78.3391113 7.94165039,78.6022949 C7.74682617,78.8654785 7.52978516,79.1184082 7.29052734,79.361084 C7.05126953,79.6037598 6.81884766,79.8378906 6.59326172,80.0634766 C6.25830078,80.3505859 5.99511719,80.6052246 5.80371094,80.8273926 C5.61230469,81.0495605 5.46875,81.2871094 5.37304688,81.5400391 C5.27734375,81.7929688 5.21582031,82.0834961 5.18847656,82.4116211 C5.16113281,82.7397461 5.14746094,83.1464844 5.14746094,83.6318359 L5.14746094,83.6318359 L7.45458984,83.6318359 Z M6.27539062,88.1230469 C6.74023438,88.1230469 7.10083008,87.994873 7.35717773,87.7385254 C7.61352539,87.4821777 7.74169922,87.1591797 7.74169922,86.7695312 C7.74169922,86.3662109 7.61352539,86.032959 7.35717773,85.7697754 C7.10083008,85.5065918 6.74023438,85.375 6.27539062,85.375 C5.81054688,85.375 5.45336914,85.5065918 5.20385742,85.7697754 C4.9543457,86.032959 4.82958984,86.3662109 4.82958984,86.7695312 C4.82958984,87.1591797 4.9543457,87.4821777 5.20385742,87.7385254 C5.45336914,87.994873 5.81054688,88.1230469 6.27539062,88.1230469 Z" id="?" fill="#FFFFFF" fill-rule="nonzero" opacity="0.414318266"></path>
                <path d="M403.341797,108.944824 L403.423828,99.0703125 L400.942383,99.0703125 L401.024414,108.944824 L403.341797,108.944824 Z M402.193359,114.133301 C402.658203,114.133301 403.01709,114.005127 403.27002,113.748779 C403.522949,113.492432 403.649414,113.169434 403.649414,112.779785 C403.649414,112.383301 403.522949,112.053467 403.27002,111.790283 C403.01709,111.5271 402.658203,111.395508 402.193359,111.395508 C401.728516,111.395508 401.371338,111.5271 401.121826,111.790283 C400.872314,112.053467 400.747559,112.383301 400.747559,112.779785 C400.747559,113.169434 400.872314,113.492432 401.121826,113.748779 C401.371338,114.005127 401.728516,114.133301 402.193359,114.133301 Z" id="!" fill="#FFFFFF" fill-rule="nonzero" opacity="0.414318266" transform="translate(402.198486, 106.601807) scale(-1, 1) translate(-402.198486, -106.601807) "></path>
                <path d="M390.341797,141.944824 L390.423828,132.070312 L387.942383,132.070312 L388.024414,141.944824 L390.341797,141.944824 Z M389.193359,147.133301 C389.658203,147.133301 390.01709,147.005127 390.27002,146.748779 C390.522949,146.492432 390.649414,146.169434 390.649414,145.779785 C390.649414,145.383301 390.522949,145.053467 390.27002,144.790283 C390.01709,144.5271 389.658203,144.395508 389.193359,144.395508 C388.728516,144.395508 388.371338,144.5271 388.121826,144.790283 C387.872314,145.053467 387.747559,145.383301 387.747559,145.779785 C387.747559,146.169434 387.872314,146.492432 388.121826,146.748779 C388.371338,147.005127 388.728516,147.133301 389.193359,147.133301 Z" id="!" fill="#FFFFFF" fill-rule="nonzero" opacity="0.414318266" transform="translate(389.198486, 139.601807) scale(-1, 1) translate(-389.198486, -139.601807) "></path>
                <path d="M388.341797,70.9448242 L388.423828,61.0703125 L385.942383,61.0703125 L386.024414,70.9448242 L388.341797,70.9448242 Z M387.193359,76.1333008 C387.658203,76.1333008 388.01709,76.005127 388.27002,75.7487793 C388.522949,75.4924316 388.649414,75.1694336 388.649414,74.7797852 C388.649414,74.3833008 388.522949,74.0534668 388.27002,73.7902832 C388.01709,73.5270996 387.658203,73.3955078 387.193359,73.3955078 C386.728516,73.3955078 386.371338,73.5270996 386.121826,73.7902832 C385.872314,74.0534668 385.747559,74.3833008 385.747559,74.7797852 C385.747559,75.1694336 385.872314,75.4924316 386.121826,75.7487793 C386.371338,76.005127 386.728516,76.1333008 387.193359,76.1333008 Z" id="!" fill="#FFFFFF" fill-rule="nonzero" opacity="0.414318266" transform="translate(387.198486, 68.601807) scale(-1, 1) translate(-387.198486, -68.601807) "></path>
                <path d="M360.341797,125.944824 L360.423828,116.070312 L357.942383,116.070312 L358.024414,125.944824 L360.341797,125.944824 Z M359.193359,131.133301 C359.658203,131.133301 360.01709,131.005127 360.27002,130.748779 C360.522949,130.492432 360.649414,130.169434 360.649414,129.779785 C360.649414,129.383301 360.522949,129.053467 360.27002,128.790283 C360.01709,128.5271 359.658203,128.395508 359.193359,128.395508 C358.728516,128.395508 358.371338,128.5271 358.121826,128.790283 C357.872314,129.053467 357.747559,129.383301 357.747559,129.779785 C357.747559,130.169434 357.872314,130.492432 358.121826,130.748779 C358.371338,131.005127 358.728516,131.133301 359.193359,131.133301 Z" id="!" fill="#FFFFFF" fill-rule="nonzero" opacity="0.414318266" transform="translate(359.198486, 123.601807) scale(-1, 1) translate(-359.198486, -123.601807) "></path>
                <path d="M377.341797,100.944824 L377.423828,91.0703125 L374.942383,91.0703125 L375.024414,100.944824 L377.341797,100.944824 Z M376.193359,106.133301 C376.658203,106.133301 377.01709,106.005127 377.27002,105.748779 C377.522949,105.492432 377.649414,105.169434 377.649414,104.779785 C377.649414,104.383301 377.522949,104.053467 377.27002,103.790283 C377.01709,103.5271 376.658203,103.395508 376.193359,103.395508 C375.728516,103.395508 375.371338,103.5271 375.121826,103.790283 C374.872314,104.053467 374.747559,104.383301 374.747559,104.779785 C374.747559,105.169434 374.872314,105.492432 375.121826,105.748779 C375.371338,106.005127 375.728516,106.133301 376.193359,106.133301 Z" id="!" fill="#FFFFFF" fill-rule="nonzero" opacity="0.414318266" transform="translate(376.198486, 98.601807) scale(-1, 1) translate(-376.198486, -98.601807) "></path>
                <path d="M351.341797,86.9448242 L351.423828,77.0703125 L348.942383,77.0703125 L349.024414,86.9448242 L351.341797,86.9448242 Z M350.193359,92.1333008 C350.658203,92.1333008 351.01709,92.005127 351.27002,91.7487793 C351.522949,91.4924316 351.649414,91.1694336 351.649414,90.7797852 C351.649414,90.3833008 351.522949,90.0534668 351.27002,89.7902832 C351.01709,89.5270996 350.658203,89.3955078 350.193359,89.3955078 C349.728516,89.3955078 349.371338,89.5270996 349.121826,89.7902832 C348.872314,90.0534668 348.747559,90.3833008 348.747559,90.7797852 C348.747559,91.1694336 348.872314,91.4924316 349.121826,91.7487793 C349.371338,92.005127 349.728516,92.1333008 350.193359,92.1333008 Z" id="!" fill="#FFFFFF" fill-rule="nonzero" opacity="0.414318266" transform="translate(350.198486, 84.601807) scale(-1, 1) translate(-350.198486, -84.601807) "></path>
                <path d="M364.341797,43.9448242 L364.423828,34.0703125 L361.942383,34.0703125 L362.024414,43.9448242 L364.341797,43.9448242 Z M363.193359,49.1333008 C363.658203,49.1333008 364.01709,49.005127 364.27002,48.7487793 C364.522949,48.4924316 364.649414,48.1694336 364.649414,47.7797852 C364.649414,47.3833008 364.522949,47.0534668 364.27002,46.7902832 C364.01709,46.5270996 363.658203,46.3955078 363.193359,46.3955078 C362.728516,46.3955078 362.371338,46.5270996 362.121826,46.7902832 C361.872314,47.0534668 361.747559,47.3833008 361.747559,47.7797852 C361.747559,48.1694336 361.872314,48.4924316 362.121826,48.7487793 C362.371338,49.005127 362.728516,49.1333008 363.193359,49.1333008 Z" id="!" fill="#FFFFFF" fill-rule="nonzero" opacity="0.414318266" transform="translate(363.198486, 41.601807) scale(-1, 1) translate(-363.198486, -41.601807) "></path>
                <path d="M403.341797,40.9448242 L403.423828,31.0703125 L400.942383,31.0703125 L401.024414,40.9448242 L403.341797,40.9448242 Z M402.193359,46.1333008 C402.658203,46.1333008 403.01709,46.005127 403.27002,45.7487793 C403.522949,45.4924316 403.649414,45.1694336 403.649414,44.7797852 C403.649414,44.3833008 403.522949,44.0534668 403.27002,43.7902832 C403.01709,43.5270996 402.658203,43.3955078 402.193359,43.3955078 C401.728516,43.3955078 401.371338,43.5270996 401.121826,43.7902832 C400.872314,44.0534668 400.747559,44.3833008 400.747559,44.7797852 C400.747559,45.1694336 400.872314,45.4924316 401.121826,45.7487793 C401.371338,46.005127 401.728516,46.1333008 402.193359,46.1333008 Z" id="!" fill="#FFFFFF" fill-rule="nonzero" opacity="0.414318266" transform="translate(402.198486, 38.601807) scale(-1, 1) translate(-402.198486, -38.601807) "></path>
            </g>
            <g id="Tree" transform="translate(36.500000, 265.500000) scale(-1, 1) translate(-36.500000, -265.500000) translate(4.000000, 210.000000)">
                <ellipse id="Oval" fill="#E0E7ED" cx="32.5" cy="108" rx="19.5" ry="2"></ellipse>
                <polygon id="Rectangle" fill="#E8F0F8" points="31 76 35 76 35 108 31 108"></polygon>
                <path d="M21.0051371,65.7527874 C29.3272337,65.781203 36.0505177,59.0312358 36.0221024,50.6762239 C35.9935066,42.3212119 29.224006,35.5250281 20.9019094,35.4964091 C15.0387983,35.4764019 10.5002309,38.1203708 7.28620736,43.4283156 L15.8852291,49.5922674 L6.23476368,47.2676949 C5.99902747,48.7140567 5.88243702,49.8158238 5.88499233,50.5729962 C5.91353987,58.9280082 12.6830405,65.7241919 21.0051371,65.7527874 Z" id="Oval" fill="#E8F0F8" transform="translate(20.953547, 50.624598) rotate(120.000000) translate(-20.953547, -50.624598) "></path>
                <path d="M23.3153433,61.6927949 C35.3878312,61.7082074 54.8748992,40.9079148 54.8595956,28.9300503 C54.844274,16.9521858 45.0451756,7.22970684 32.9726877,7.21426255 C24.4673385,7.20341349 17.8751563,11.0077029 13.196141,18.6271308 L25.6512326,27.4376325 L11.6588822,24.1345746 C11.3124001,26.2088355 11.1398501,27.7887124 11.1412323,28.8742056 C11.1565532,40.85207 11.2428554,61.6773652 23.3153433,61.6927949 Z" id="Oval" fill="#E8F0F8" transform="translate(33.000414, 34.453529) scale(-1, 1) rotate(-27.000000) translate(-33.000414, -34.453529) "></path>
                <path d="M32.5202114,89.3672401 C44.494591,89.3419878 54.2221722,79.5321086 54.2474211,67.4562128 C54.2725719,55.380317 44.5858479,45.6113008 32.6114682,45.6364557 C24.1752386,45.6542447 17.6237723,49.5119467 12.9570695,57.2095618 L23.1606402,65.3308193 L11.4137263,62.7672934 C11.0630642,64.8597093 10.886575,66.4531058 10.8842585,67.547483 C10.8591077,79.6233788 20.5458318,89.392395 32.5202114,89.3672401 Z" id="Oval" fill="#E8F0F8" transform="translate(32.565840, 67.501848) scale(-1, 1) rotate(77.000000) translate(-32.565840, -67.501848) "></path>
                <path d="M18.1953125,48.1113281 L18.2421875,42.46875 L16.8242188,42.46875 L16.8710938,48.1113281 L18.1953125,48.1113281 Z M17.5390625,51.0761719 C17.8046875,51.0761719 18.0097656,51.0029297 18.1542969,50.8564453 C18.2988281,50.7099609 18.3710938,50.5253906 18.3710938,50.3027344 C18.3710938,50.0761719 18.2988281,49.8876953 18.1542969,49.7373047 C18.0097656,49.5869141 17.8046875,49.5117188 17.5390625,49.5117188 C17.2734375,49.5117188 17.0693359,49.5869141 16.9267578,49.7373047 C16.7841797,49.8876953 16.7128906,50.0761719 16.7128906,50.3027344 C16.7128906,50.5253906 16.7841797,50.7099609 16.9267578,50.8564453 C17.0693359,51.0029297 17.2734375,51.0761719 17.5390625,51.0761719 Z" id="!" fill="#FFFFFF" fill-rule="nonzero" opacity="0.414318266"></path>
                <path d="M36.1953125,55.1113281 L36.2421875,49.46875 L34.8242188,49.46875 L34.8710938,55.1113281 L36.1953125,55.1113281 Z M35.5390625,58.0761719 C35.8046875,58.0761719 36.0097656,58.0029297 36.1542969,57.8564453 C36.2988281,57.7099609 36.3710938,57.5253906 36.3710938,57.3027344 C36.3710938,57.0761719 36.2988281,56.8876953 36.1542969,56.7373047 C36.0097656,56.5869141 35.8046875,56.5117188 35.5390625,56.5117188 C35.2734375,56.5117188 35.0693359,56.5869141 34.9267578,56.7373047 C34.7841797,56.8876953 34.7128906,57.0761719 34.7128906,57.3027344 C34.7128906,57.5253906 34.7841797,57.7099609 34.9267578,57.8564453 C35.0693359,58.0029297 35.2734375,58.0761719 35.5390625,58.0761719 Z" id="!" fill="#FFFFFF" fill-rule="nonzero" opacity="0.414318266"></path>
                <path d="M36.1953125,24.1113281 L36.2421875,18.46875 L34.8242188,18.46875 L34.8710938,24.1113281 L36.1953125,24.1113281 Z M35.5390625,27.0761719 C35.8046875,27.0761719 36.0097656,27.0029297 36.1542969,26.8564453 C36.2988281,26.7099609 36.3710938,26.5253906 36.3710938,26.3027344 C36.3710938,26.0761719 36.2988281,25.8876953 36.1542969,25.7373047 C36.0097656,25.5869141 35.8046875,25.5117188 35.5390625,25.5117188 C35.2734375,25.5117188 35.0693359,25.5869141 34.9267578,25.7373047 C34.7841797,25.8876953 34.7128906,26.0761719 34.7128906,26.3027344 C34.7128906,26.5253906 34.7841797,26.7099609 34.9267578,26.8564453 C35.0693359,27.0029297 35.2734375,27.0761719 35.5390625,27.0761719 Z" id="!" fill="#FFFFFF" fill-rule="nonzero" opacity="0.414318266"></path>
                <path d="M22.1953125,71.1113281 L22.2421875,65.46875 L20.8242188,65.46875 L20.8710938,71.1113281 L22.1953125,71.1113281 Z M21.5390625,74.0761719 C21.8046875,74.0761719 22.0097656,74.0029297 22.1542969,73.8564453 C22.2988281,73.7099609 22.3710938,73.5253906 22.3710938,73.3027344 C22.3710938,73.0761719 22.2988281,72.8876953 22.1542969,72.7373047 C22.0097656,72.5869141 21.8046875,72.5117188 21.5390625,72.5117188 C21.2734375,72.5117188 21.0693359,72.5869141 20.9267578,72.7373047 C20.7841797,72.8876953 20.7128906,73.0761719 20.7128906,73.3027344 C20.7128906,73.5253906 20.7841797,73.7099609 20.9267578,73.8564453 C21.0693359,74.0029297 21.2734375,74.0761719 21.5390625,74.0761719 Z" id="!" fill="#FFFFFF" fill-rule="nonzero" opacity="0.414318266"></path>
                <path d="M43.1953125,79.1113281 L43.2421875,73.46875 L41.8242188,73.46875 L41.8710938,79.1113281 L43.1953125,79.1113281 Z M42.5390625,82.0761719 C42.8046875,82.0761719 43.0097656,82.0029297 43.1542969,81.8564453 C43.2988281,81.7099609 43.3710938,81.5253906 43.3710938,81.3027344 C43.3710938,81.0761719 43.2988281,80.8876953 43.1542969,80.7373047 C43.0097656,80.5869141 42.8046875,80.5117188 42.5390625,80.5117188 C42.2734375,80.5117188 42.0693359,80.5869141 41.9267578,80.7373047 C41.7841797,80.8876953 41.7128906,81.0761719 41.7128906,81.3027344 C41.7128906,81.5253906 41.7841797,81.7099609 41.9267578,81.8564453 C42.0693359,82.0029297 42.2734375,82.0761719 42.5390625,82.0761719 Z" id="!" fill="#FFFFFF" fill-rule="nonzero" opacity="0.414318266"></path>
            </g>
        </g>
        <g id="noun_Smile_169431" transform="translate(415.000000, 145.000000)">
            <circle id="Oval" fill="#FF9E14" cx="17" cy="17" r="16"></circle>
            <path d="M17,0 C7.62256974,0 0,7.62256842 0,17 C0,26.377432 7.62256974,34 17,34 C26.3774307,34 34,26.377432 34,17 C34,7.62256842 26.3774307,0 17,0 Z M16.9999995,2.07777778 C25.261097,2.07777778 31.9222212,8.73890213 31.9222212,17.0000008 C31.9222212,25.2610982 25.2611197,31.922223 17.0000225,31.922223 C8.73892608,31.922223 2.07777778,25.2610982 2.07777778,17.0000008 C2.07777778,8.73890213 8.73890379,2.07777778 16.9999995,2.07777778 Z" id="Shape" fill="#FFFFFF" fill-rule="nonzero"></path>
        </g>
        <path d="M390.10555,379.482737 C390.10555,378.437896 387.682274,376.473893 371.301455,373.731194 C348.231025,369.868431 321.273404,364.563392 269.91708,364.56208 C268.475778,364.562043 166.893913,362.991919 165.507462,363.012728 C122.916956,363.658592 214.192572,367.662185 202.786732,374.383721 C195.854363,378.469011 179.566656,379.238213 191.58125,380.954575 C224.006978,385.586798 249.004495,384.6049 297.355112,384.382595 C343.135109,384.172109 390.10555,383.050263 390.10555,379.482737 Z" id="Oval" fill="#E0E7ED" transform="translate(272.105535, 373.817495) scale(-1, 1) rotate(-1.000000) translate(-272.105535, -373.817495) "></path>
        <g id="Guy-waving" transform="translate(312.000000, 163.000000)">
            <g id="Hat-head" transform="translate(62.103714, 20.679985) rotate(-4.000000) translate(-62.103714, -20.679985) translate(44.603714, 1.179985)">
                <path d="M7.44555654,17.7804185 C9.11859651,16.9461414 7.70337987,11.264337 10.7856489,7.46459653 C13.4275255,4.92532991 13.7958169,1.81765084 17.5081198,1.73326528 C18.9009386,1.70160467 23.4912218,2.76382031 25.287287,4.84442628 C26.5561304,6.31428555 27.6616776,7.41601343 28.3345123,10.4192374 L27.6345206,14.2680876 L7.44555654,17.7804185 Z" id="Path-28" fill="#F9C071" transform="translate(17.890034, 9.756498) scale(-1, 1) rotate(10.000000) translate(-17.890034, -9.756498) "></path>
                <path d="M16.4329136,24.8347312 C27.2288269,26.4160406 34.3391067,18.2491648 34.1330923,15.207202 C33.9270778,12.1652391 34.5239115,10.155947 25.1371033,6.63461288 C13.8396126,4.6272484 2.23908734,3.52879904 0.938627689,11.4641524 C-0.361831967,19.3995058 5.63700032,23.2534218 16.4329136,24.8347312 Z" id="man-bend-hat-over-shade" fill="#F9C071" transform="translate(17.450250, 15.108936) scale(-1, 1) rotate(-3.000000) translate(-17.450250, -15.108936) "></path>
                <path d="M15.7538831,25.6487809 C26.4155514,27.2264413 33.1346774,22.0889372 33.9955729,16.7646014 C34.8564685,11.4402657 29.1643909,7.00397536 13.5192849,6.0848215 C5.01998011,6.0374877 -0.84246481,9.40611136 1.06722343,15.6382115 C2.97691168,21.8703116 5.09221484,24.0711206 15.7538831,25.6487809 Z" id="Man-bend-hat-shade" fill="#C9954F" transform="translate(17.392303, 16.011355) scale(-1, 1) rotate(-3.000000) translate(-17.392303, -16.011355) "></path>
                <path d="M13.4661018,21.3820915 C16.1231613,21.5207147 26.3465323,22.3034099 25.8172786,18.3340901 C25.288025,14.3647704 24.8324075,8.64852951 17.6817794,8.27546941 C10.5311513,7.90240932 8.86954948,11.0515702 8.27916145,14.365303 C7.68877342,17.6790357 10.8090423,21.2434683 13.4661018,21.3820915 Z" id="manbendy-hair" fill="#313050" transform="translate(17.021776, 14.890764) scale(-1, 1) rotate(-7.000000) translate(-17.021776, -14.890764) "></path>
                <polygon id="Rectangle" fill="#F7DAB9" transform="translate(14.048967, 28.976148) rotate(-17.000000) translate(-14.048967, -28.976148) " points="12.4751467 21.1281416 21.7338444 25.6024942 18.7194152 36.8241537 6.36408954 33.2211527"></polygon>
                <polygon id="Path-59" fill="#E7CBAB" transform="translate(18.529091, 28.327742) rotate(-17.000000) translate(-18.529091, -28.327742) " points="14.9006688 24.8036889 19.8658611 31.8517942 22.1575139 25.0693471"></polygon>
                <path d="M21.6837047,25.6268155 C23.1237683,25.1041247 24.6328404,23.678976 24.3222986,19.1462971 C24.2955076,18.7552541 25.3704518,17.6870298 25.1786357,16.4777878 C24.9868197,15.2685459 24.258239,15.1493107 24.2262233,14.8573532 C24.0175453,12.9543751 23.2473436,11.8923038 21.9014822,10.5464472 C19.7564925,8.40146512 18.2097939,9.06244348 15.9836347,9.33806799 C12.1463872,9.81316406 8.98641456,10.5210569 8.87051178,16.2744261 C8.84512125,17.5348024 7.49880052,18.3940723 7.87186531,19.8118907 C8.13186735,20.8000184 8.70449376,20.9039966 9.47688388,21.8393035 C10.832333,23.4806515 10.407173,24.3044417 11.3496294,25.4191776 C13.3350692,27.7675524 20.190914,26.1686444 21.6837047,25.6268155 Z" id="Man-bendy-head" fill="#F7DAB9" transform="translate(16.504076, 17.842556) rotate(13.000000) translate(-16.504076, -17.842556) "></path>
            </g>
            <path d="M106.27984,203 C119.619082,203 127,202.485092 127,201.003218 C127,199.521344 119.619082,199.013132 106.27984,199.013132 C92.9405983,199.013132 83,198.781546 83,200.26342 C83,201.745293 92.9405983,203 106.27984,203 Z" id="Oval" fill="#E0E7ED" transform="translate(105.000000, 201.000000) scale(-1, 1) translate(-105.000000, -201.000000) "></path>
            <path d="M54.220586,211 C63.6293665,211 69.7880834,209.090228 77.391806,208.8198 C92.8987838,208.268291 106,208.990597 106,207.807554 C106,206.044414 82.8175667,204.615107 54.220586,204.615107 C39.0716,204.615107 9.8849482,199.415122 0.416229459,200.05447 C-2.03251383,200.219814 7.12304311,208.232214 7.12304311,208.8198 C7.12304311,210.582939 25.6236053,211 54.220586,211 Z" id="Oval" fill="#E0E7ED" transform="translate(53.000000, 205.500000) scale(-1, 1) translate(-53.000000, -205.500000) "></path>
            <path d="M46.2768831,201.319735 C41.817353,203.442784 39.4862815,205.395809 39.2836683,207.178809 C39.301949,209.412232 43.7319475,208.336744 52.5736637,203.952346 L50.4104888,194.407315 L44.3500526,194.868418 L46.2768831,201.319735 Z" id="Path-145" fill="#00424D" transform="translate(45.928666, 201.358374) rotate(8.000000) translate(-45.928666, -201.358374) "></path>
            <path d="M79.8996153,202.113387 C75.4307175,204.896316 73.1798546,207.178335 73.1470265,208.959442 C73.1141984,210.740549 77.3864957,209.59263 85.9639184,205.515684 L84.1685177,194.796095 L77.6623557,195.331922 L79.8996153,202.113387 Z" id="Path-145" fill="#00424D" transform="translate(79.555379, 202.283920) scale(-1, 1) rotate(12.000000) translate(-79.555379, -202.283920) "></path>
            <path d="M36.9223136,95.6908288 C53.1171235,94.5732777 61.8096857,94.0096681 63,94 C58.9675354,119.996404 55.2903396,155.329738 51.9684127,200 L45.928666,200 C40.5509239,184.860224 37.1773405,168.448302 35.8079158,150.764232 C34.4384911,133.080162 34.809957,114.722361 36.9223136,95.6908288 Z" id="Rectangle" fill="#F9C071"></path>
            <path d="M53.6885881,100.789493 C53.6854029,86.9919809 62.0632032,83.1962648 78.821989,89.4023445 C82.6532688,145.154082 83.8931824,182.054319 82.5417298,200.103053 C80.726372,200.102622 78.5942519,200.214362 76.1453695,200.438275 C61.1775275,147.803265 53.6919337,114.587005 53.6885881,100.789493 Z" id="Rectangle" fill="#F9C071" transform="translate(68.379463, 143.476241) rotate(3.000000) translate(-68.379463, -143.476241) "></path>
            <path d="M113,22.7023287 C113.112843,15.736629 113.564231,12.1736346 114.354164,12.0133452 C115.144096,11.8530559 115.721448,13.0297771 116.086221,15.5435087 C117.54152,15.8478362 118.667587,16 119.464421,16 C120.261256,16 121.457083,15.9156192 123.051901,15.7468576 L119.464421,23 L113,22.7023287 Z" id="Male-R-hand" fill="#F7DAB9"></path>
            <path d="M76.3108953,54.4946353 C69.9446798,53.2584056 78.6171897,34.0298149 79.8673193,34.0561218 C81.1174489,34.0824287 93.1989837,41.0052119 101.935305,38.0419165 C107.759519,36.0663863 111.447751,30.4675253 113,21.2453337 L120,22.1109711 C121.918963,34.0623827 119.145012,43.5623521 111.678146,50.6108795 C100.477847,61.1836705 82.6771108,55.730865 76.3108953,54.4946353 Z" id="Man-bending-arm-" fill="#00424D"></path>
            <path d="M43.8981521,32.3068505 C44.2344428,32.2143542 47.6714436,32.0478914 54.2091547,31.8074621 C55.9943928,33.1104266 58.0147873,33.8599799 60.2703382,34.0561218 C63.5777482,34.3437331 65.5692052,33.3558914 66.2447094,31.092597 C74.6468493,32.9215303 79.2311881,33.9093719 79.9977256,34.0561218 C83.8469388,39.0776636 81.2969628,42.1588141 82.2834674,52.2611954 C83.2388442,62.0448089 83.2388442,77.0862337 82.2834674,97.38547 C72.3827913,99.12849 64.9138278,100 59.8765771,100 C54.8393263,100 47.087918,99.12849 36.6223523,97.38547 C34.821126,79.9386363 37.2463926,58.2457631 43.8981521,32.3068505 Z" id="Rectangle" fill="#00424D"></path>
            <path d="M22.2727125,55.5826754 C21.8872468,50.7449972 2.30702695,40.5124901 7.91531512,32.6870491 C17.7117443,29.1714985 54.5060817,-4.54742299 54.6073314,14.2146233 C54.7081062,32.9766696 22.5471117,59.0264467 22.2727125,55.5826754 Z" id="Rectangle" fill="#00424D" transform="translate(30.756781, 32.230577) scale(-1, 1) rotate(4.000000) translate(-30.756781, -32.230577) "></path>
            <polygon id="Path" fill="#F5AB44" points="58.5221145 128.259723 57 123.933745 57 142.41324"></polygon>
            <polygon id="shadow" fill="#00323B" points="36 82 40 58 37.4386813 64.037988"></polygon>
        </g>
        <g id="document" transform="translate(135.000000, 74.000000)">
            <polygon id="Path-41" fill="#C9CBD9" points="242 91 174 91 234.966886 62"></polygon>
            <path d="M88.1648886,0 L265,0 C257.54531,0.949994105 252.241406,8.2165534 249.088287,21.7996779 C247.352011,29.2792717 253.195139,47.3895633 253.195139,64.1728683 C253.195139,80.9561732 250.157084,90.898486 242.584658,90.898486 C235.012232,90.898486 227.527982,45.2351295 212.725146,90.898486 C207.859854,105.906796 222.52023,142.654178 221.350336,196.146425 C220.960974,213.949653 216.005319,244.900845 206.483372,289 L24.0157014,285.183195 C33.7364088,248.983132 34.8960534,222.264607 27.4946352,205.02762 C16.3925079,179.172138 -7.88584836,129.009736 2.54624463,98.7448806 C8.72923443,80.8072247 29.0221044,72.2562035 45.5011902,56.3477521 C53.8176222,48.3192997 68.038855,29.5367157 88.1648886,0 Z" id="Path-37" fill="#FFFFFF"></path>
            <path d="M88.3783183,0 L265,0 C257.554307,0.951055044 252.256805,8.22572951 249.107491,21.8240234 C247.373311,29.3119703 253.209387,47.4424872 253.209387,64.2445355 C253.209387,81.0465838 250.174998,91 242.611712,91 C236.880149,91 232.638529,70.2810241 224.745831,70.2810241 C222.492096,70.2810241 213.987772,65.3731586 179.205807,64.2445355 C158.607816,63.5761613 111.014997,63.5761613 36.4273474,64.2445355 L88.3783183,0 Z" id="Path-37" fill="#F5F5F5"></path>
            <path d="M181.957792,23 C183.085672,23 184,23.8954305 184,25 C184,26.0395948 183.190076,26.8939316 182.15447,26.9908446 L181.957792,27 L123.042208,27 C121.914328,27 121,26.1045695 121,25 C121,23.9604052 121.809924,23.1060684 122.84553,23.0091554 L123.042208,23 L181.957792,23 Z" id="Path-38" fill="#BDBFCE" fill-rule="nonzero"></path>
            <path d="M152.976111,49 C154.093874,49 155,49.8954305 155,51 C155,52.0395948 154.197342,52.8939316 153.171025,52.9908446 L152.976111,53 L80.0238886,53 C78.9061258,53 78,52.1045695 78,51 C78,49.9604052 78.8026581,49.1060684 79.8289746,49.0091554 L80.0238886,49 L152.976111,49 Z" id="Path-39" fill="#BDBFCE" fill-rule="nonzero"></path>
            <path d="M122.944998,96 C124.079944,96 125,96.8954305 125,98 C125,99.0395948 124.185002,99.8939316 123.142908,99.9908446 L122.944998,100 L19.0550022,100 C17.9200558,100 17,99.1045695 17,98 C17,96.9604052 17.8149976,96.1060684 18.8570918,96.0091554 L19.0550022,96 L122.944998,96 Z" id="Path-40" fill="#C9CBD9" fill-rule="nonzero"></path>
            <path d="M139.934002,142 C141.073515,141.998593 141.998493,142.861927 142,143.928311 C142.001415,144.931967 141.184302,145.75778 140.138146,145.852636 L139.939452,145.86172 L28.0659981,146 C26.9264849,146.001407 26.0015069,145.138073 26,144.071689 C25.9985853,143.068033 26.8156982,142.24222 27.8618536,142.147364 L28.0605479,142.13828 L139.934002,142 Z" id="Path-40" fill="#C9CBD9" fill-rule="nonzero"></path>
            <path d="M182.955474,190 C184.084008,189.999398 185,190.878591 185,191.963733 C185,192.985042 184.19068,193.824784 183.154528,193.920545 L182.957741,193.929645 L51.0445258,194 C49.9159915,194.000602 49,193.121409 49,192.036267 C49,191.014958 49.8093201,190.175216 50.8454718,190.079455 L51.0422589,190.070355 L182.955474,190 Z" id="Path-40" fill="#C9CBD9" fill-rule="nonzero"></path>
            <path d="M188.955474,236 C190.084008,235.999398 191,236.878591 191,237.963733 C191,238.985042 190.19068,239.824784 189.154528,239.920545 L188.957741,239.929645 L57.0445258,240 C55.9159915,240.000602 55,239.121409 55,238.036267 C55,237.014958 55.8093201,236.175216 56.8454718,236.079455 L57.0422589,236.070355 L188.955474,236 Z" id="Path-40" fill="#C9CBD9" fill-rule="nonzero"></path>
        </g>
        <path d="M433.740234,164.981934 L433.837891,153.226562 L430.883789,153.226562 L430.981445,164.981934 L433.740234,164.981934 Z M432.373047,171.158691 C432.926432,171.158691 433.353678,171.006104 433.654785,170.700928 C433.955892,170.395752 434.106445,170.01123 434.106445,169.547363 C434.106445,169.075358 433.955892,168.682699 433.654785,168.369385 C433.353678,168.056071 432.926432,167.899414 432.373047,167.899414 C431.819661,167.899414 431.39445,168.056071 431.097412,168.369385 C430.800374,168.682699 430.651855,169.075358 430.651855,169.547363 C430.651855,170.01123 430.800374,170.395752 431.097412,170.700928 C431.39445,171.006104 431.819661,171.158691 432.373047,171.158691 Z" id="!" fill="#FFFFFF" fill-rule="nonzero"></path>
        <path d="M138.0998,378 C147.148899,378 151.152954,376.375569 155.530563,376 C159.219225,375.683538 164,376.680871 164,376.003218 C164,375.425961 159.802935,374.967566 157.107991,374.658293 C152.884764,374.173633 148.278548,374.013132 138.0998,374.013132 C121.425748,374.013132 109,373.781546 109,375.26342 C109,376.745293 121.425748,378 138.0998,378 Z" id="Oval" fill="#E0E7ED" transform="translate(136.500000, 376.000000) scale(-1, 1) translate(-136.500000, -376.000000) "></path>
        <g id="5.-Illustrations-/1.-Characters/Dog" transform="translate(135.000000, 356.500000) scale(-1, 1) translate(-135.000000, -356.500000) translate(96.000000, 335.000000)">
            <g id="Dog">
                <path d="M12.8558894,14.8050565 C17.8357387,10.7276505 22.6830075,13.953834 24.6179171,20.446114 C26.4155427,31.2763445 21.9422035,38.1633764 19.548701,40.1924044 C16.8524095,42.4781305 14.2122663,41.5104826 14.2122663,41.5104826 C13.9303492,39.7768528 16.2092035,39.3086952 16.2092035,39.3086952 C17.9503869,38.1731698 18.5580226,36.4755771 18.6779623,34.8904156 C18.8431734,32.7100789 17.2951281,29.8124312 16.9388367,29.3605762 C9.80154271,20.3080012 12.8558894,14.8050565 12.8558894,14.8050565 Z M51.2423503,0.829210186 L51.451191,0.838439491 C54.8483065,1.07365738 57.1539121,4.53298766 57.1539121,4.53298766 C62.5794196,14.310951 55.195191,28.4276932 55.195191,28.4276932 C52.3436834,39.8293404 45.3401457,40.6439044 45.3401457,40.6439044 C43.3432085,40.5565039 44.2168869,39.3447028 44.2168869,39.3447028 C50.3044146,35.9701101 49.7023643,29.316728 49.7023643,29.316728 C38.2534146,18.694081 42.7179347,9.00153582 42.7179347,9.00153582 C43.963191,4.53180417 48.0537814,0.603221601 51.451191,0.838439491 Z" id="Combined-Shape" fill="#FF9E14"></path>
                <path d="M6.04078643,21.3256218 C6.04078643,21.3256218 2.22446985,22.8391232 1.50444481e-12,26.7435922 C1.50444481e-12,26.7435922 0.355997487,29.6539033 2.97350503,31.2806643 C2.97350503,31.2806643 4.29431156,32.1015007 4.64266583,30.5710163 C4.64266583,30.5710163 4.87019849,28.3482516 6.17277889,27.6749072 C6.17277889,27.6749072 7.92895477,23.6007854 6.04078643,21.3256218" id="Shape" fill="#FF9E14"></path>
                <path d="M52.9992362,0.174503711 C52.9992362,0.174503711 53.0033911,0.179803553 53.0113768,0.190239903 C53.7910639,0.508046646 54.5018698,0.887443242 55.1500892,1.31422034 C56.5448476,0.50708828 59.9658791,-0.933059445 63.9860653,1.30266197 C63.9860653,1.30266197 65.734892,2.27519178 67.7897412,5.86500142 C68.3582789,6.85469178 69.2595905,7.60679729 70.3314045,7.98580876 C72.2228065,8.64767344 75.2048367,9.11426289 77.6203869,6.85617114 L77.6240109,6.87606955 C77.6912062,7.25679701 78.6079982,12.9851604 73.1396985,14.0322399 C67.4002312,15.1311069 64.2856206,12.0377698 62.3689372,7.55649912 C62.3689372,7.55649912 60.7504893,2.51171333 57.406873,3.22052864 C61.4948166,7.58809318 61.8289146,13.8931803 61.8289146,13.8931803 C63.1817638,30.0487734 56.2843492,40.3277065 53.6988844,40.9548358 C50.7859372,41.6614363 50.9643769,39.8290741 50.9643769,39.8290741 C57.4140754,35.154984 53.7044698,28.7414058 53.7044698,28.7414058 C48.9842797,25.7872247 46.2788505,21.7365995 44.7518726,18.4124464 C42.2000009,18.5735998 37.4816115,19.1688243 31.5498469,21.2593054 C33.0611269,30.1339202 29.2990364,37.3958339 29.0808076,37.8072747 L29.0709724,37.8256686 C25.1497085,44.4991996 21.1908166,42.3891028 21.1908166,42.3891028 C20.2230678,41.2608558 22.9340578,40.0639666 22.9340578,40.0639666 C27.524397,35.853803 23.5399296,30.6874418 23.5399296,30.6874418 C22.2267347,29.113647 21.3000193,27.6598184 20.6638776,26.3330353 C18.1402776,27.8088849 15.5266781,29.5576084 12.8688241,31.628698 C10.5920276,35.3544902 5.37964824,40.0681383 1.8749397,37.939017 L6.01785678,29.5215007 L3.89862814,24.5918367 L3.91446305,24.5598859 C4.43300536,23.523554 17.7490646,-2.35940542 52.9992362,0.174503711 Z" id="Combined-Shape" fill="#F9C071"></path>
                <path d="M6.69277794,21.0809782 C10.1103077,20.3407702 12.6994039,20.0048934 14.4600667,20.0733477 C16.2207295,20.1418021 18.3227642,20.6600696 20.7661709,21.6281501 L21.2495501,24.3041302 C19.0347545,23.4960404 16.5981605,22.9487421 13.939768,22.6622354 C11.2813755,22.3757287 8.82261496,23.2614795 6.56348635,25.3194877 L6.69277794,21.0809782 Z" id="Rectangle" fill="#00424D" transform="translate(13.906518, 22.692072) rotate(46.000000) translate(-13.906518, -22.692072) "></path>
                <path d="M14.0455854,21.6667322 C14.0455854,21.6667322 17.8539648,21.674987 17.847799,27.407528 C17.847799,27.407528 17.4765075,31.9950166 13.620505,32.9970744 C13.620505,32.9970744 10.5429347,33.7829388 11.2158317,31.3641888 C11.2158317,31.3641888 13.0910653,28.0225266 10.0543568,24.2132099 C10.0543568,24.2132099 11.3510578,21.1206716 14.0455854,21.6667322 Z" id="Shape" fill="#FF9E14"></path>
                <path d="M25.8552362,4.5596161 C25.8552362,4.5596161 24.7390327,7.97249454 28.0206181,8.09468949 C28.0206181,8.09468949 30.5519925,6.05731793 33.1180553,7.76982252 C33.1180553,7.76982252 35.7970025,10.0690404 38.2228417,7.95947619 C41.2466156,5.33006564 39.7156206,0.750269766 39.575103,0.597895913 C39.575103,0.597895913 34.339206,1.07188215 25.8552362,4.5596161 Z" id="Shape" fill="#FF9E14"></path>
                <path d="M2.80682412,36.0479539 L1.87582161,37.915081 C1.87582161,37.915081 3.11049497,38.9543299 4.02033166,36.5616461 L2.80682412,36.0479539 Z" id="Shape" fill="#313050"></path>
                <path d="M58.5970101,16.0110289 C59.3057714,15.3364418 58.9571231,13.8890381 58.5799598,13.1487675 C58.1107839,12.2271276 57.2844347,11.1821092 55.9395226,11.1321069 C55.2816181,11.1078455 54.4993643,11.3214647 53.5742412,11.9046276 C53.5742412,11.9046276 50.9996533,14.3079922 52.8901734,16.8952411 C53.1500427,17.2508491 54.4593844,17.9659115 55.0605528,18.2424035 C55.9821482,18.6661803 57.0851231,19.7548397 56.7614623,22.5509443 C56.7614623,22.5509443 55.624093,25.6789872 57.8444472,26.8640416 C57.8444472,26.8640416 61.1583693,27.4006934 59.9992462,23.3328441 C59.5574095,21.7830688 62.5450251,19.7197789 59.4210075,19.3763608 C58.4353266,19.2680127 57.2923719,17.2530682 58.5970101,16.0110289 Z" id="Shape" fill="#FF9E14"></path>
            </g>
        </g>
    </g>
</svg>