<?xml version="1.0" encoding="UTF-8"?>
<svg width="500px" height="432px" viewBox="0 0 500 432" version="1.1" xmlns="http://www.w3.org/2000/svg" xmlns:xlink="http://www.w3.org/1999/xlink">
    <!-- Generator: Sketch 63.1 (92452) - https://sketch.com -->
    <title>6.0_PL_OaO"Redraw Facility" </title>
    <desc>Created with Sketch.</desc>
    <defs>
        <linearGradient x1="50%" y1="100%" x2="50%" y2="0%" id="linearGradient-1">
            <stop stop-color="#FFFFFF" offset="0%"></stop>
            <stop stop-color="#ECF3FA" offset="100%"></stop>
        </linearGradient>
        <filter x="0.0%" y="0.0%" width="100.0%" height="100.0%" filterUnits="objectBoundingBox" id="filter-2">
            <feGaussianBlur stdDeviation="0" in="SourceGraphic"></feGaussianBlur>
        </filter>
        <linearGradient x1="50%" y1="0%" x2="50%" y2="100%" id="linearGradient-3">
            <stop stop-color="#FFCB6B" offset="0%"></stop>
            <stop stop-color="#FFFFFF" offset="100%"></stop>
        </linearGradient>
        <rect id="path-4" x="8.61160446" y="9.8957204" width="113" height="68"></rect>
        <mask id="mask-5" maskContentUnits="userSpaceOnUse" maskUnits="objectBoundingBox" x="0" y="0" width="113" height="68" fill="white">
            <use xlink:href="#path-4"></use>
        </mask>
    </defs>
    <g id="6.0_PL_OaO&quot;Redraw-Facility&quot;-" stroke="none" stroke-width="1" fill="none" fill-rule="evenodd">
        <g id="Background" transform="translate(249.500000, 215.500000) scale(-1, 1) translate(-249.500000, -215.500000) translate(0.000000, -1.000000)">
            <path d="M207.659342,431.278286 C344.249511,445.672455 499,368.868209 499,236.248915 C499,103.629622 296.541667,8.52651283e-14 190.25,8.52651283e-14 C83.9583333,8.52651283e-14 -9.97265625,152.142761 1.1747449,251.858481 C12.3221461,351.5742 71.0691732,416.884117 207.659342,431.278286 Z" id="Oval" fill-opacity="0.15" fill="#D8E5F0"></path>
            <path d="M12.0605469,302 L485.59375,302 C468.210863,331.893329 452.050381,353.559996 437.112305,367 C419.338876,382.991012 387.995705,401.704982 354.337891,413.399414 C336.140857,419.721986 297.446763,431.829801 229.463838,432.935599 C201.973231,433.382757 110.196433,422.950786 62.09375,391.828125 C40.5909978,377.915744 23.9132635,347.973035 12.0605469,302 Z" id="Path-8" fill="url(#linearGradient-1)" filter="url(#filter-2)"></path>
            <g id="Tree" transform="translate(438.000000, 240.000000)">
                <ellipse id="Oval" fill="#E0E7ED" cx="20" cy="66.5" rx="12" ry="1"></ellipse>
                <polygon id="Rectangle" fill="#E8F0F8" points="18 47 21 47 21 66 18 66"></polygon>
                <path d="M13.182437,41.3820835 C18.419003,41.3943365 22.6541239,37.147721 22.6418709,31.8969758 C22.6295647,26.6462305 18.3745346,22.3797058 13.1379686,22.3673927 C9.44868574,22.3587638 6.59105329,24.0234446 4.56507125,27.3614352 L9.97173494,31.2293905 L3.90086254,29.7750313 C3.75154887,30.6841669 3.67744433,31.376659 3.67854894,31.8525074 C3.69084089,37.1032527 7.94587098,41.3697773 13.182437,41.3820835 Z" id="Oval" fill="#E8F0F8" transform="translate(13.160210, 31.874738) rotate(120.000000) translate(-13.160210, -31.874738) "></path>
                <path d="M14.6151859,38.8390241 C22.2013853,38.8410925 34.4599861,25.7389896 34.4579402,18.2012412 C34.4558943,10.6634928 28.304406,4.55126367 20.7182066,4.54919458 C15.3735522,4.54773778 11.2286962,6.94597013 8.28363855,11.7438916 L16.1046986,17.2805268 L7.31415965,15.2107388 C7.09512235,16.5163056 6.98569633,17.5106429 6.98588158,18.1937508 C6.98792773,25.7314991 7.02898643,38.8369557 14.6151859,38.8390241 Z" id="Oval" fill="#E8F0F8" transform="translate(20.721911, 21.694109) scale(-1, 1) rotate(-27.000000) translate(-20.721911, -21.694109) "></path>
                <path d="M20.4322633,56.2357722 C27.9707314,56.224028 34.0913728,50.0653348 34.1031153,42.4799291 C34.1148242,34.8945235 28.0131939,28.7548442 20.4747259,28.7665548 C15.1636994,28.7748282 11.0405427,31.1957747 8.10525581,36.0293941 L14.5317024,41.1342191 L7.13554818,39.5199268 C6.91550586,40.8341473 6.80494775,41.834971 6.80387386,42.5223979 C6.79216502,50.1078035 12.8937953,56.2474828 20.4322633,56.2357722 Z" id="Oval" fill="#E8F0F8" transform="translate(20.453495, 42.501164) scale(-1, 1) rotate(77.000000) translate(-20.453495, -42.501164) "></path>
            </g>
            <g id="Tree" transform="translate(30.536585, 290.000000) scale(-1, 1) translate(-30.536585, -290.000000) translate(22.036585, 276.000000)">
                <ellipse id="Oval" fill="#E0E7ED" cx="9.03658537" cy="27.5" rx="5" ry="1"></ellipse>
                <polygon id="Rectangle" fill="#E8F0F8" points="8.03658537 20 9.03658537 20 9.03658537 28 8.03658537 28"></polygon>
                <path d="M5.50847017,17.0729408 C7.67082085,17.0885932 9.4110637,15.3336987 9.39541137,13.1532742 C9.37975905,10.9728498 7.61413876,9.19257786 5.45178809,9.17692554 C3.92836162,9.16589811 2.7517193,9.85140202 1.92186111,11.2334373 L4.16222019,12.8505221 L1.65245466,12.2343573 C1.59263099,12.6115797 1.56341197,12.8989913 1.56479761,13.0965922 C1.58049922,15.2770166 3.3461195,17.0572885 5.50847017,17.0729408 Z" id="Oval" fill="#E8F0F8" transform="translate(5.480157, 13.124920) rotate(120.000000) translate(-5.480157, -13.124920) "></path>
                <path d="M6.13924256,16.0011385 C9.2910055,16.0162422 14.3592921,10.6317689 14.3442848,7.52075574 C14.3292107,4.40974262 11.7620091,1.87549835 8.61024611,1.86027682 C6.38975562,1.8496707 4.67225055,2.83170399 3.45773088,4.80637667 L6.71748838,7.10620269 L3.06147836,6.23540237 C2.97293511,6.77382866 2.92933468,7.18400948 2.93067708,7.46594482 C2.94574878,10.5769579 2.98747961,15.985971 6.13924256,16.0011385 Z" id="Oval" fill="#E8F0F8" transform="translate(8.637481, 8.930708) scale(-1, 1) rotate(-27.000000) translate(-8.637481, -8.930708) "></path>
                <path d="M8.49446156,23.2166547 C11.600324,23.2040375 14.1283121,20.6346486 14.1409281,17.4777176 C14.15345,14.3207866 11.6458402,11.771779 8.53997773,11.7843035 C6.35182523,11.7931908 4.65061415,12.8049674 3.4363445,14.8196334 L6.0788344,16.9376206 L3.03326402,16.273324 C2.94126588,16.8205051 2.89468161,17.2371439 2.89351118,17.5232406 C2.88098928,20.6801716 5.38859912,23.2291792 8.49446156,23.2166547 Z" id="Oval" fill="#E8F0F8" transform="translate(8.517220, 17.500479) scale(-1, 1) rotate(77.000000) translate(-8.517220, -17.500479) "></path>
            </g>
        </g>
        <path d="M203.798581,359.315366 C169.244381,359.315366 163.392679,367.651304 206.392679,370.89068 C209.126179,371.096607 228.059033,370.542626 229.583303,370.89068 C261.184671,378.106591 271.491434,378.106591 288.045399,374.464899 C305.723134,370.57599 284.863296,362.149095 261.184671,359.315366 C255.255474,358.605792 210.718329,359.315366 203.798581,359.315366 Z" id="Oval" fill="#E0E7ED" transform="translate(235.323239, 367.930887) scale(-1, 1) translate(-235.323239, -367.930887) "></path>
        <g id="Bank" transform="translate(217.000000, 241.000000)">
            <rect id="Rectangle" fill="#E1E3EF" x="1" y="102" width="135" height="15"></rect>
            <rect id="Rectangle" fill="#C9CBD9" x="0" y="110" width="142" height="12"></rect>
            <rect id="Rectangle" fill="#E1E3EF" x="19" y="47" width="21" height="55"></rect>
            <path d="M16.2278666,40.2621448 L41.7303687,39.1031467 C42.8337993,39.0529997 43.7689587,39.9068547 43.8191057,41.0102853 C43.8229556,41.0949983 43.8214138,41.1798704 43.8144898,41.2643876 L43.085445,50.1633031 C43.0004251,51.2010781 42.1333748,52 41.0921231,52 L17.521151,52 C16.5351305,52 15.6962335,51.2813713 15.5448598,50.3070396 L14.3423746,42.5671222 C14.1728013,41.4756467 14.9201507,40.4533648 16.0116262,40.2837915 C16.0832607,40.2726622 16.1554474,40.265436 16.2278666,40.2621448 Z" id="Rectangle" fill="#C9CBD9"></path>
            <rect id="Rectangle" fill="#C9CBD9" x="16" y="99" width="28" height="6"></rect>
            <rect id="Rectangle" fill="#E1E3EF" x="61" y="47" width="21" height="55"></rect>
            <path d="M58.1669396,38.4595158 L83.7400094,37.1185099 C84.8430634,37.0606677 85.7841557,37.9079793 85.8419979,39.0110332 C85.8463028,39.0931285 85.8455419,39.1754111 85.8397197,39.2574127 L85.0669197,50.141647 C84.9925831,51.1886155 84.1215463,52 83.071942,52 L59.5566357,52 C58.555212,52 57.708155,51.2593524 57.5745226,50.2668849 L56.289559,40.7236566 C56.1421625,39.6289658 56.9100964,38.6220551 58.0047872,38.4746586 C58.05861,38.4674116 58.1127056,38.4623598 58.1669396,38.4595158 Z" id="Rectangle" fill="#C9CBD9"></path>
            <rect id="Rectangle" fill="#C9CBD9" x="57" y="99" width="28" height="6"></rect>
            <rect id="Rectangle" fill="#E1E3EF" x="102" y="45" width="21" height="57"></rect>
            <path d="M99.1804198,38.4624973 L125.738292,37.1147741 C126.841442,37.0587929 127.781104,37.907691 127.837085,39.010841 C127.841274,39.0933882 127.840342,39.1761157 127.834294,39.2585475 L127.035472,50.1463437 C126.958804,51.1913268 126.088626,52 125.040834,52 L100.609139,52 C99.6110656,52 98.7657632,51.264166 98.6282213,50.2756148 L97.3008646,40.7355418 C97.1486468,39.6415109 97.9121371,38.6312267 99.0061679,38.4790089 C99.0639831,38.4709648 99.1221227,38.4654557 99.1804198,38.4624973 Z" id="Rectangle" fill="#C9CBD9"></path>
            <rect id="Rectangle" fill="#C9CBD9" x="98" y="99" width="29" height="6"></rect>
            <polygon id="Triangle" fill="#C9CBD9" points="70 0 139 35.5416072 139 43 1 43 1 35.5416072"></polygon>
            <polygon id="Triangle" fill="#E1E3EF" points="69.4453782 9 122 35 16 35"></polygon>
            <ellipse id="Oval" fill="#5E5D87" cx="69.5" cy="23" rx="4.5" ry="6"></ellipse>
        </g>
        <g id="5.-Illustrations-/1.-Characters/Walking" transform="translate(248.000000, 231.500000) scale(-1, 1) translate(-248.000000, -231.500000) translate(143.000000, 95.000000)">
            <g id="Character">
                <path d="M122.181537,64.5130315 C128.352958,44.7590081 141.578616,28.8992315 132.737562,19.6472263 C123.896508,10.3952212 115.314494,14.8320108 108.966652,19.1277174 C105.443976,21.5118001 102.039114,25.1931511 99.3915907,30.3641551 C96.453877,36.101153 91.5832632,44.3396436 70.9187319,45.1613988 C50.2542006,45.9831539 43.0143762,77.1390734 76.3093428,99.2925477 C84.4397487,117.332865 93.0098193,123.559386 102.019554,117.97211 C107.757596,114.413734 116.010116,84.2670548 122.181537,64.5130315 Z" id="Fill" fill="#313050" transform="translate(94.533066, 67.079788) rotate(-36.000000) translate(-94.533066, -67.079788) "></path>
                <path d="M148.176574,243.350467 L148.503339,258.08407 C148.503339,258.08407 162.650886,268.346799 159.03461,271.508799 C155.418334,274.670798 147.68571,268.346799 140.539787,262.122955 L138.362626,244.288982 L148.176574,243.350467 Z" id="Fill" fill="#016E80"></path>
                <path d="M125.757749,224 L124.891185,237.654079 C124.891185,237.654079 138.154547,248.378065 134.296197,250.987094 C130.437846,253.596124 123.246318,247.073764 116.631154,240.695159 L115.905212,224.012594 L125.757749,224 Z" id="Fill" fill="#016E80" transform="translate(125.452606, 237.788344) rotate(39.000000) translate(-125.452606, -237.788344) "></path>
                <path d="M139.586392,165.936666 C146.56088,182.047731 149.555235,210.301063 148.569458,250.696663 C147.187951,253.92594 140.42961,253.92594 138.107727,252.202548 C138.107727,252.202548 129.500587,204.652706 108.203947,182.217805 C92.9057012,166.101899 62.2340156,155.766538 67.1146694,133.821378 C67.1146694,133.821378 72.8171469,132.145554 90.5485231,131.350467 C116.265948,138.296869 132.611905,149.825602 139.586392,165.936666 Z" id="Fill" fill="#00424D"></path>
                <path d="M158.412042,156.443378 C165.389068,170.815766 156.323994,196.450674 131.21682,233.348103 C129.83481,236.228882 123.846131,228.806938 121.523403,227.269531 C121.523403,227.269531 152.521211,189.189035 131.21682,169.175268 C115.913006,154.798561 80.9788989,144.118244 90.2658433,133.422467 C90.2658433,133.422467 102.177164,129.101283 119.914994,128.392 C138.602667,132.720531 151.435016,142.070991 158.412042,156.443378 Z" id="Fill" fill="#00424D"></path>
                <path d="M153.450806,137.385391 C155.089872,135.16042 153.018046,136.0298 153.018046,136.0298 C146.718568,139.069265 141.61051,139.926218 141.61051,139.926218 C142.641904,139.308487 143.469677,138.739947 144.149121,138.214901 L145.242186,134.920163 C144.302235,135.437441 143.168765,135.937115 142.187346,136.334782 C140.354229,137.077302 138.753442,138.284804 137.594453,139.854762 C136.217489,141.720382 135.429058,143.135002 135.429058,143.135002 L137.467921,149.05445 C146.897201,147.715947 149.059407,146.752328 151.516145,144.479202 C153.359894,142.772545 152.810704,141.611645 152.810704,141.611645 C150.857967,143.06976 147.41662,143.836098 147.41662,143.836098 C147.41662,143.836098 152.355614,142.061092 153.433793,140.236896 C154.511972,138.413217 153.368932,138.409075 153.368932,138.409075 C151.825563,139.984211 147.975912,140.862394 147.975912,140.862394 C147.975912,140.862394 151.81174,139.609844 153.450806,137.385391 Z" id="Fill" fill="#8D5524" transform="translate(144.755447, 141.987307) scale(-1, 1) rotate(156.000000) translate(-144.755447, -141.987307) "></path>
                <path d="M3.62782435,51.7089832 C16.1151689,48.8359647 21.3260101,60.4834448 28.722216,67.7673665 C38.0898361,76.9919776 47.8727668,68.2189624 63.7360586,62.37155 C72.7296684,59.0558234 90.9528506,50.3728825 96.25,52.301709 C96.1833633,50.0466483 92.9198545,45.7932638 91.9248441,44.7595479 C78.2117595,39.8423076 63.3173461,39.7679699 54.1754461,46.5773689 C49.1772234,50.3002143 41.6323371,56.1382202 34.9419173,49.4188725 C26.8389869,41.2808102 21.9425963,36.5690167 0.25,46.6499254 L0.25,47.813045 C0.373887973,47.7747596 1.14161799,48.7680217 1.91685636,49.7607445 C2.69115619,50.7529281 3.47296438,51.7445724 3.62782435,51.7089832 Z" id="Scarfe" fill="#F9C071"></path>
                <path d="M102.43475,48.7518747 C102.294013,48.7712817 110.574213,56.9688145 115.392447,69.8919927 C118.375577,77.893165 122.552481,88.5605025 127.923157,101.894005 L141.950399,132.849627 L136.739132,137.5 L119.914994,123.158878 C103.877246,85.7378444 98.0504977,60.9355098 102.43475,48.7518747 Z" id="Fill" fill="#A5D867"></path>
                <path d="M82.443352,48.1595157 C82.443352,48.1595157 65.874001,100.13228 67.1889958,133.246423 C67.1889958,133.246423 96.5235797,143.997747 121.975781,128.200272 C121.975781,128.200272 119.387421,84.5523604 102.450163,48.1595157 C100.165184,47.4189759 96.8706717,46.6302667 92.856477,46.5799798 C88.4421117,46.5238703 84.8433346,47.3824518 82.443352,48.1595157 Z" id="Fill" fill="#A5D867"></path>
                <path d="M91.1388635,21.274159 C89.6689743,20.4017721 88.1736386,21.7307414 87.6831293,23.5769793 C87.2811083,25.0882329 88.1869436,26.756847 92.0110591,29.2745832 C93.5747998,25.2142815 93.284068,22.5474735 91.1388635,21.274159 Z" id="Fill" fill="#8D5524"></path>
                <path d="M97.3977297,20.4832993 C92.1378771,27.022283 88.661244,40.4285474 87.9618916,49.2801643 C87.9618916,49.2801643 93.1324543,52.9841509 98.408823,49.2801643 C98.433081,47.0866668 101.207461,36.599785 102.225781,33.9345966 L97.3977297,20.4832993 Z" id="Fill" fill="#8D5524"></path>
                <path d="M93.1559787,30.8634301 C93.6935285,29.5446519 96.9673809,30.0279738 102.977536,32.3133959 L97.9906323,46.5773689 C94.22998,37.4201879 92.6184288,32.1822083 93.1559787,30.8634301 Z" id="Path-60" fill="#6E421C"></path>
                <path d="M106.529385,27.8556335 C105.327222,34.4625292 101.050022,37.4024831 96.6706,36.855242 C91.9375694,36.2631976 88.032754,28.2455294 89.9374403,21.6034311 C91.8421265,14.9613328 97.4612639,12.0224457 101.679007,13.2870739 C105.89675,14.5522355 108.007969,19.7248902 106.529385,27.8556335 Z" id="Fill" fill="#8D5524" transform="translate(98.222222, 24.959782) rotate(-13.000000) translate(-98.222222, -24.959782) "></path>
                <g id="Group" transform="translate(156.000000, 74.000000) scale(-1, 1) translate(-156.000000, -74.000000) translate(133.000000, 51.000000)">
                    <circle id="Oval" fill="#FFD638" cx="23" cy="23" r="23"></circle>
                    <path d="M23,0 C35.7025492,0 46,10.2974508 46,23 C46,35.7025492 35.7025492,46 23,46 C10.2974508,46 0,35.7025492 0,23 C0,10.2974508 10.2974508,0 23,0 Z M23,0.438095238 C10.5394041,0.438095238 0.438095238,10.5394041 0.438095238,23 C0.438095238,35.4605959 10.5394041,45.5619048 23,45.5619048 C35.4605959,45.5619048 45.5619048,35.4605959 45.5619048,23 C45.5619048,10.5394041 35.4605959,0.438095238 23,0.438095238 Z" id="Oval-Copy-7" fill="url(#linearGradient-3)" fill-rule="nonzero"></path>
                    <circle id="Oval" fill="#FFC83B" cx="23.5" cy="23.5" r="18.5"></circle>
                    <path d="M23.5,5 C33.7172679,5 42,13.2827321 42,23.5 C42,33.7172679 33.7172679,42 23.5,42 C13.2827321,42 5,33.7172679 5,23.5 C5,13.2827321 13.2827321,5 23.5,5 Z M23.5,5.43023256 C13.520343,5.43023256 5.43023256,13.520343 5.43023256,23.5 C5.43023256,33.479657 13.520343,41.5697674 23.5,41.5697674 C33.479657,41.5697674 41.5697674,33.479657 41.5697674,23.5 C41.5697674,13.520343 33.479657,5.43023256 23.5,5.43023256 Z" id="Oval-Copy-6" fill="#EAB430" fill-rule="nonzero"></path>
                    <path d="M25.1194472,34 L25.1194472,31.7317201 C25.8617966,31.662283 26.5330701,31.5099071 27.1332675,31.2745923 C27.733465,31.0392776 28.2467917,30.7248816 28.6732478,30.3314045 C29.0997038,29.9379274 29.4274432,29.4692267 29.6564659,28.9253025 C29.8854886,28.3813782 30,27.7699456 30,27.0910047 C30,26.3503419 29.875617,25.7080484 29.6268509,25.1641241 C29.3780849,24.6201999 29.0227048,24.1418552 28.5607108,23.72909 C28.0987167,23.3163247 27.5439289,22.9537086 26.8963475,22.6412415 C26.248766,22.3287743 25.5261599,22.0259513 24.7285291,21.7327722 C24.1994077,21.5476065 23.757157,21.3643696 23.4017769,21.1830615 C23.0463968,21.0017535 22.7601185,20.8108013 22.5429418,20.6102052 C22.3257651,20.409609 22.171767,20.1916535 22.0809477,19.9563388 C21.9901283,19.721024 21.9447187,19.4529195 21.9447187,19.1520252 C21.9447187,18.851131 21.9901283,18.5733824 22.0809477,18.3187796 C22.171767,18.0641767 22.3119447,17.8423637 22.5014808,17.6533403 C22.6910168,17.464317 22.9338598,17.3177275 23.2300099,17.2135718 C23.5261599,17.1094161 23.875617,17.0573382 24.278381,17.0573382 C25.0207305,17.0573382 25.6090819,17.2984394 26.0434353,17.7806418 C26.4777887,18.2628441 26.6949654,18.9707172 26.6949654,19.9042609 L26.6949654,19.9042609 L29.988154,19.9042609 C29.988154,19.1327372 29.8795656,18.436437 29.6623889,17.8153603 C29.4452122,17.1942837 29.1372162,16.6542171 28.7384008,16.1951604 C28.3395854,15.7361038 27.8558736,15.3638436 27.2872655,15.0783798 C26.7186575,14.792916 26.0789733,14.6038927 25.3682132,14.5113098 L25.3682132,14.5113098 L25.3682132,12 L23.4728529,12 L23.4728529,14.4881641 C22.7462981,14.5576013 22.0868707,14.7157636 21.4945706,14.9626512 C20.9022705,15.2095388 20.3968411,15.5335788 19.9782823,15.9347712 C19.5597236,16.3359635 19.2359329,16.8085218 19.0069102,17.3524461 C18.7778875,17.8963703 18.6633761,18.4962301 18.6633761,19.1520252 C18.6633761,19.9004033 18.7897335,20.5465544 19.0424482,21.0904787 C19.2951629,21.6344029 19.6525173,22.1108189 20.1145114,22.5197265 C20.5765054,22.9286341 21.1352419,23.2873926 21.7907206,23.5960021 C22.4461994,23.9046116 23.1727542,24.1977906 23.970385,24.4755392 C24.4679171,24.6452744 24.8923988,24.8169385 25.2438302,24.9905313 C25.5952616,25.1641241 25.8795656,25.3550763 26.0967423,25.5633877 C26.3139191,25.7716991 26.4718657,26.0012274 26.5705824,26.2519726 C26.6692991,26.5027179 26.7186575,26.7901105 26.7186575,27.1141504 C26.7186575,27.7236542 26.5014808,28.221287 26.0671273,28.6070489 C25.6327739,28.9928108 24.9930898,29.1856917 24.148075,29.1856917 C23.792695,29.1856917 23.4452122,29.1394003 23.1056269,29.0468175 C22.7660415,28.9542346 22.4639684,28.7980011 22.1994077,28.5781168 C21.934847,28.3582325 21.7196446,28.0611959 21.5538006,27.6870068 C21.3879566,27.3128178 21.3050346,26.8479748 21.3050346,26.2924776 L21.3050346,26.2924776 L18,26.2924776 C18,27.2183062 18.1461007,28.0110468 18.4383021,28.6706996 C18.7305035,29.3303524 19.1194472,29.8762055 19.6051333,30.3082588 C20.0908193,30.7403121 20.6495558,31.0701385 21.2813425,31.297738 C21.9131293,31.5253375 22.5646594,31.6699982 23.2359329,31.7317201 L23.2359329,31.7317201 L23.2359329,34 L25.1194472,34 Z" id="$" fill="#FFFFFF" fill-rule="nonzero"></path>
                </g>
                <g id="wallet" transform="translate(144.630448, 119.964135) scale(-1, 1) rotate(-5.000000) translate(-144.630448, -119.964135) translate(83.630448, 76.464135)">
                    <rect id="Rectangle" stroke="#ADAFBD" fill="#ADAFBD" x="9.11160446" y="1.3957204" width="112" height="85" rx="12"></rect>
                    <use id="Rectangle" stroke="#FFFFFF" mask="url(#mask-5)" stroke-width="2" fill="#E1E3EF" stroke-dasharray="4" xlink:href="#path-4"></use>
                    <rect id="Rectangle" stroke="#ADAFBD" fill="#ADAFBD" x="1.04592718" y="31.8999774" width="48" height="22" rx="10"></rect>
                    <circle id="Oval" stroke="#FFFFFF" fill="#FFFFFF" cx="37.5419388" cy="43.4913269" r="6.5"></circle>
                </g>
                <path d="M114.761418,99.0562309 C116.400483,96.8312599 114.328657,97.70064 114.328657,97.70064 C108.02918,100.740105 102.921122,101.597058 102.921122,101.597058 C103.952516,100.979327 104.780289,100.410786 105.459733,99.8857407 L106.552798,96.5910024 C105.612847,97.1082809 104.479377,97.6079544 103.497958,98.0056221 C101.664841,98.7481421 100.064054,99.9556432 98.905065,101.525602 C97.528101,103.391222 96.7396694,104.805842 96.7396694,104.805842 L98.7785332,110.72529 C108.207813,109.386786 110.370019,108.423167 112.826757,106.150041 C114.670506,104.443384 114.121315,103.282485 114.121315,103.282485 C112.168578,104.7406 108.727231,105.506938 108.727231,105.506938 C108.727231,105.506938 113.666226,103.731932 114.744405,101.907736 C115.822584,100.084057 114.679544,100.079914 114.679544,100.079914 C113.136175,101.655051 109.286523,102.533234 109.286523,102.533234 C109.286523,102.533234 113.122352,101.280684 114.761418,99.0562309 Z" id="Fill" fill="#8D5524"></path>
                <path d="M83.3021169,47.6959463 C100.836122,46.1019106 67.5114189,105.855297 64.2301836,110.52285 C60.9489483,115.190403 93.4325698,105.855297 96.9209057,104.426019 C97.5918001,106.457941 98.2632195,108.490395 98.9341139,110.52285 C98.9341139,110.52285 66.8670816,144.032411 49.3272352,139.693379 C22.5211489,123.192973 65.7681119,49.2899819 83.3021169,47.6959463 Z" id="Fill" fill="#A5D867"></path>
                <path d="M86.914594,38.1674213 C86.914594,38.1674213 92.0770598,40.5475517 102.731433,39.5738857 C102.731433,39.5738857 105.455047,45.3965649 103.602205,51.498031 C103.602205,51.498031 92.4061831,54.1809637 84.8174267,49.7428219 C84.8174267,49.7428219 83.2899978,42.7115439 86.914594,38.1674213 Z" id="Fill" fill="#F9C071"></path>
            </g>
        </g>
        <path d="M424.66118,378.699348 C424.66118,376.796434 409.325068,374 388.195786,374 C367.066504,374 359.586464,376.228967 369.019949,378.699348 C378.453434,381.169728 386.575321,382.109248 400.641913,381.990012 C413.960637,381.877114 424.66118,380.602261 424.66118,378.699348 Z" id="Oval" fill="#E0E7ED" transform="translate(394.830590, 378.000000) scale(-1, 1) translate(-394.830590, -378.000000) "></path>
        <path d="M369.144318,374 C389.10786,374 405,372.316981 405,370.781049 C405,369.245118 388.816351,368 368.852808,368 C348.889265,368 333,369.245118 333,370.781049 C333,372.316981 349.180775,374 369.144318,374 Z" id="Oval" fill="#E0E7ED" fill-rule="nonzero"></path>
        <path d="M103.582181,280 C114.950309,280 124,279.719497 124,279.463508 C124,279.20752 114.784311,279 103.416182,279 C92.0480537,279 83,279.20752 83,279.463508 C83,279.719497 92.2140522,280 103.582181,280 Z" id="Oval" fill="#E0E7ED" fill-rule="nonzero"></path>
        <path d="M153.036079,274 C158.026965,274 162,273.719497 162,273.463508 C162,273.20752 157.954088,273 152.963202,273 C147.972316,273 144,273.20752 144,273.463508 C144,273.719497 148.045194,274 153.036079,274 Z" id="Oval" fill="#E0E7ED" fill-rule="nonzero"></path>
        <g id="Little-coins" transform="translate(343.000000, 320.000000)">
            <path d="M36.3036922,46 C55.4553408,46 62,44.2955705 62,43 C62,41.7044295 51.1139814,40 34.7071664,40 C18.3003514,40 5,41.8330199 5,43.1285903 C5,44.4241608 17.1520435,46 36.3036922,46 Z" id="Oval" fill="#FFD638"></path>
            <path d="M1,33 C6.71890526,34.863849 16.4895241,35.78886 30.3118564,35.775033 C44.1341888,35.7612059 53.0302367,34.9131248 57,33.2307897 L57,40.8827785 C45.7837935,42.2942595 36.8877456,43 30.3118564,43 C23.7359673,43 13.9653484,42.2942595 1,40.8827785 L1,33 Z" id="Rectangle" fill="#F5BC2B"></path>
            <path d="M5,43 C10.7189053,44.5753477 20.4895241,45.3566524 34.3118564,45.3439141 C48.1341888,45.3311757 57.0302367,44.5498711 61,43 L61,50.0494848 C49.7837935,51.3498283 40.8877456,52 34.3118564,52 C27.7359673,52 17.9653484,51.3498283 5,50.0494848 L5,43 Z" id="Rectangle" fill="#F5BC2B"></path>
            <path d="M32.3036922,35 C51.4553408,35 58,33.8637136 58,33 C58,32.1362864 47.1139814,31 30.7071664,31 C14.3003514,31 1,32.2220132 1,33.0857269 C1,33.9494405 13.1520435,35 32.3036922,35 Z" id="Oval" fill="#FFD638"></path>
            <path d="M4,28 C9.61678195,29.7503864 19.2129254,30.6185027 32.7884304,30.604349 C46.3639354,30.5901953 55.1011253,29.722079 59,28 L59,35.8327609 C47.9840829,37.277587 39.246893,38 32.7884304,38 C26.3299678,38 16.7338244,37.277587 4,35.8327609 L4,28 Z" id="Rectangle" fill="#F5BC2B"></path>
            <path d="M35.3036922,31 C54.4553408,31 61,29.2955705 61,28 C61,26.7044295 50.1139814,25 33.7071664,25 C17.3003514,25 4,26.8330199 4,28.1285903 C4,29.4241608 16.1520435,31 35.3036922,31 Z" id="Oval" fill="#FFD638"></path>
            <path d="M32.3036922,23 C51.4553408,23 58,21.2955705 58,20 C58,18.7044295 47.1139814,17 30.7071664,17 C14.3003514,17 1,18.8330199 1,20.1285903 C1,21.4241608 13.1520435,23 32.3036922,23 Z" id="Oval" fill="#FFD638"></path>
            <path d="M3,11.010604 C8.71890526,11.0247427 18.4895241,11.0247427 32.3118564,11.010604 C46.1341888,10.9964653 55.0302367,10.9964653 59,11.010604 L59,18.835059 C47.7837935,20.278353 38.8877456,21 32.3118564,21 C25.7359673,21 15.9653484,20.278353 3,18.835059 L3,11.010604 Z" id="Rectangle" fill="#F5BC2B"></path>
            <path d="M0,4 C5.92315187,6.34982827 16.0427214,7.51837324 30.3587085,7.50563491 C44.6746956,7.49289657 53.8884594,6.3243516 58,4 L58,11.0494848 C46.3832147,12.3498283 37.1694508,13 30.3587085,13 C23.5479661,13 13.4283966,12.3498283 0,11.0494848 L0,4 Z" id="Rectangle" fill="#F5BC2B"></path>
            <path d="M1,20 C6.71890526,21.7503864 16.4895241,22.6185027 30.3118564,22.604349 C44.1341888,22.5901953 53.0302367,21.722079 57,20 L57,27.8327609 C45.7837935,29.277587 36.8877456,30 30.3118564,30 C23.7359673,30 13.9653484,29.277587 1,27.8327609 L1,20 Z" id="Rectangle" fill="#F5BC2B"></path>
            <path d="M30.3587085,8 C49.0544603,8 58,5.13765179 58,3.63314275 C58,2.12863371 45.0162577,0 29,0 C12.9837423,0 0,2.12863371 0,3.63314275 C0,5.13765179 11.6629566,8 30.3587085,8 Z" id="Oval" fill="#FFD638"></path>
            <path d="M29.4604663,5 C42.6764289,5 49,3.21103237 49,2.27071422 C49,1.33039607 39.8218374,0 28.5,0 C17.1781626,0 8,1.33039607 8,2.27071422 C8,3.21103237 16.2445038,5 29.4604663,5 Z" id="Oval" fill="#FFC83B"></path>
            <path d="M38,2.67369367 L36.1654136,2.66273855 C36.1186878,2.40736652 36.0032541,2.17575115 35.8191125,1.96812805 C35.634971,1.76096039 35.3865747,1.58499836 35.0739237,1.44031186 C34.7612728,1.29617404 34.3874093,1.18607783 33.9523333,1.10992808 C33.5172573,1.03420012 33.0223248,0.997693393 32.4675357,1.00011277 C31.887529,1.00267236 31.3784275,1.04445101 30.9402312,1.12512241 C30.5020349,1.20538961 30.1144195,1.32025179 29.777385,1.46955843 C29.4403505,1.61826016 29.1430017,1.79793275 28.8853386,2.00853087 C28.6276755,2.21846367 28.3862216,2.45521361 28.160977,2.71872802 C27.9953332,2.91256857 27.8294339,3.07401997 27.663279,3.2031806 C27.4971241,3.3320735 27.3209819,3.43535139 27.1348524,3.51307843 C26.9487229,3.5906233 26.7477952,3.64464604 26.5320693,3.67521936 C26.3163435,3.70570745 26.0729355,3.71929813 25.8018454,3.7160604 C25.5181465,3.71267931 25.2588044,3.69254538 25.0238192,3.65573292 C24.788834,3.61902694 24.5892384,3.56584159 24.4250324,3.49620516 C24.2608264,3.42671292 24.1336686,3.33883977 24.0435591,3.23256895 C23.9534496,3.12642003 23.911476,3.00059707 23.9176385,2.85500004 C23.9233608,2.71979255 23.9883423,2.59981375 24.1125831,2.49494685 C24.2368239,2.38991433 24.4123884,2.30116598 24.6392765,2.22867139 C24.8661647,2.15597064 25.1396207,2.10017392 25.4596446,2.06132339 C25.7796686,2.02232292 26.1382698,2.00299435 26.5354483,2.003461 L26.5748991,1.05532633 C25.9381526,1.05837175 25.3630472,1.09461986 24.849583,1.16373491 C24.3361188,1.23243955 23.8907652,1.32974735 23.5135223,1.45552512 C23.1362794,1.58071488 22.8288332,1.73171632 22.5911838,1.90856907 C22.3535344,2.08488662 22.1920963,2.28464998 22.1068694,2.50807645 L20.0264106,2.49980237 L20,3.10827505 L22.0615456,3.12467922 C22.115016,3.34877248 22.2387428,3.55256362 22.4327262,3.73627971 C22.6267095,3.92045322 22.8833165,4.07885742 23.202547,4.21154967 C23.5217774,4.34477583 23.8989857,4.4502532 24.3341718,4.52788694 C24.7693578,4.60592812 25.2517365,4.64981959 25.7813079,4.65927509 C26.367619,4.66977373 26.8815038,4.63925225 27.3229624,4.56737066 C27.764421,4.49506734 28.1537225,4.38676534 28.4908671,4.24231873 C28.8280116,4.09725583 29.125443,3.92014013 29.3831611,3.71093153 C29.6408792,3.50105319 29.8760011,3.26464635 30.0885269,3.00169791 C30.2411216,2.81616767 30.4004414,2.6587638 30.5664863,2.5295503 C30.7325311,2.40007476 30.9101944,2.29482555 31.0994761,2.2138603 C31.2887579,2.13270984 31.4944689,2.07389907 31.7166092,2.03749563 C31.9387495,2.00099717 32.1822125,1.98291509 32.4469982,1.98332547 C33.0333093,1.9842571 33.4979462,2.07195046 33.8409088,2.24692788 C34.1838713,2.42263336 34.34886,2.67438693 34.3358748,3.00160442 C34.3308128,3.12915001 34.2864032,3.25493414 34.2026459,3.37886927 C34.1188887,3.50267993 33.9788868,3.61326221 33.7826404,3.71053623 C33.586394,3.80757926 33.3262701,3.88493908 33.0022686,3.94261466 C32.6782672,4.00005789 32.270394,4.02526719 31.7786492,4.01843347 L31.7391984,4.99679717 C32.4768156,5.01144244 33.1107596,4.97588581 33.6410303,4.88964708 C34.1713009,4.80281809 34.611423,4.6818213 34.9613965,4.52660247 C35.31137,4.37072109 35.5818975,4.18922822 35.772979,3.98226651 C35.9640605,3.77483243 36.0892757,3.55777758 36.1486247,3.33133679 L37.9737545,3.34945674 L38,2.67369367 Z" id="$" fill="#FFFFFF" fill-rule="nonzero"></path>
        </g>
        <g id="Big-coin" transform="translate(384.000000, 317.000000)">
            <path d="M23.6085341,9.09114482 L35.0722433,7.95933969 L29.62652,65.9349059 L18.3192654,63.9894066 C11.9153077,55.4708784 9.13411879,46.6174419 9.97569882,37.429097 C10.8172789,28.2407522 15.3615573,18.7947681 23.6085341,9.09114482 Z" id="Rectangle" fill="#F5BC2B" transform="translate(22.450658, 36.947123) rotate(-20.000000) translate(-22.450658, -36.947123) "></path>
            <ellipse id="Oval" fill="#FFD638" transform="translate(33.238671, 33.062500) rotate(-13.000000) translate(-33.238671, -33.062500) " cx="33.2386714" cy="33.0625" rx="18.781492" ry="29.2571374"></ellipse>
            <ellipse id="Oval" fill="#FFC83B" transform="translate(33.238671, 33.062500) rotate(-13.000000) translate(-33.238671, -33.062500) " cx="33.2386714" cy="33.0625" rx="14.488651" ry="23.516095"></ellipse>
            <path d="M34.2319244,46.3235486 L34.2573546,43.5455753 C35.1049633,43.4517062 35.8744126,43.2559571 36.5657026,42.9583282 C37.2569926,42.6606992 37.8467934,42.2685686 38.335105,41.7819362 C38.8234165,41.2953038 39.2008894,40.7190302 39.4675236,40.0531155 C39.7341578,39.3872007 39.87132,38.6342061 39.8790103,37.7941317 C39.8870501,36.9158721 39.7591517,36.1486621 39.4953152,35.4925017 C39.2314786,34.8363413 38.8459465,34.2600739 38.3387188,33.7636996 C37.8314912,33.2673252 37.214353,32.8340286 36.4873045,32.4638098 C35.7602559,32.093591 34.9375832,31.7505203 34.0192863,31.4345976 C33.3421522,31.2023195 32.7767087,30.9666062 32.322956,30.7274576 C31.8692032,30.4883091 31.5040079,30.2316242 31.2273701,29.9574032 C30.9507322,29.6831822 30.755738,29.3843308 30.6423875,29.0608489 C30.529037,28.7373671 30.4742406,28.3703807 30.4779984,27.9598898 C30.4819309,27.5303063 30.546023,27.1359534 30.6702747,26.7768311 C30.7945264,26.4177088 30.9787847,26.1105231 31.2230497,25.855274 C31.4673147,25.600025 31.7785439,25.3990335 32.1567371,25.2522998 C32.5349303,25.105566 32.9845876,25.0297522 33.505709,25.0248584 C33.9896074,25.0203142 34.4191675,25.1069623 34.7943896,25.2848027 C35.1696116,25.4626432 35.4859517,25.7197868 35.7434101,26.0562335 C36.0008684,26.3926803 36.1971841,26.8012923 36.332357,27.2820696 C36.4675299,27.762847 36.5323636,28.3039441 36.5268581,28.905361 L36.5268581,28.905361 L39.8629652,28.8740319 C39.8717916,27.9098556 39.7610958,27.0422565 39.530878,26.2712347 C39.3006602,25.5002128 38.9647916,24.8351833 38.5232721,24.2761463 C38.0817526,23.7171093 37.5438662,23.2663639 36.9096129,22.9239101 C36.2753595,22.5814563 35.5539575,22.356753 34.745407,22.2498003 L34.745407,22.2498003 L34.7742454,19.0995213 L32.5408682,19.1204947 L32.512292,22.2421348 C31.7018189,22.3452007 30.9671568,22.5525549 30.3083058,22.8641974 C29.6494548,23.1758399 29.087462,23.5796413 28.6223274,24.0756015 C28.1571928,24.5715618 27.7959613,25.1524555 27.5386328,25.8182829 C27.2813043,26.4841103 27.1489698,27.2179685 27.1416291,28.0198578 C27.1335019,28.9076637 27.2659876,29.6819897 27.5390862,30.3428359 C27.8121848,31.003682 28.2070008,31.5822486 28.7235342,32.0785356 C29.2400676,32.5748225 29.864185,33.0080536 30.5958865,33.3782287 C31.3275879,33.7484038 32.1480216,34.0819501 33.0571875,34.3788675 C33.6972734,34.5924026 34.2395399,34.8187881 34.683987,35.058024 C35.128434,35.29726 35.4889546,35.5563751 35.7655487,35.8353693 C36.0421429,36.1143634 36.2417244,36.4203309 36.3642932,36.7532716 C36.4868621,37.0862124 36.5463113,37.4531551 36.542641,37.8540997 C36.5345138,38.7419056 36.2348944,39.4534711 35.6437828,39.9887963 C35.0526712,40.5241214 34.2080768,40.79694 33.1099997,40.8072519 C32.6819357,40.8112718 32.2590708,40.7555837 31.841405,40.6401874 C31.4237391,40.5247912 31.0487356,40.323085 30.7163944,40.0350689 C30.3840532,39.7470527 30.1154214,39.3605971 29.9104992,38.8757021 C29.7055769,38.390807 29.606524,37.7760538 29.6133403,37.0314424 L29.6133403,37.0314424 L26.2772332,37.0627714 C26.2670086,38.1796885 26.4210983,39.1351758 26.7395021,39.9292332 C27.057906,40.7232907 27.4845929,41.3779218 28.019563,41.8931266 C28.5545332,42.4083313 29.1697162,42.801078 29.8651123,43.0713665 C30.5605084,43.341655 31.2847393,43.5114452 32.037805,43.5807371 L32.037805,43.5807371 L32.0125058,46.3443909 L34.2319244,46.3235486 Z" id="$" fill="#FFFFFF" fill-rule="nonzero" transform="translate(33.078061, 32.721956) rotate(-18.000000) translate(-33.078061, -32.721956) "></path>
        </g>
        <g id="Fly-coin-main" transform="translate(182.000000, 107.000000) rotate(24.000000) translate(-182.000000, -107.000000) translate(155.000000, 81.000000)">
            <path d="M18,40.844391 C13.3667881,33.6292192 10.2836766,30.2876977 8.75066546,30.8198267 C6.45114872,31.6180202 5.00262145,41.2947516 6.82225445,44.7243381 C8.03534311,47.0107291 10.6023254,49.3576171 14.5232012,51.7650022 L18,40.844391 Z" id="Path-72" fill="#FFC83B" transform="translate(12.000000, 41.265002) rotate(-78.000000) translate(-12.000000, -41.265002) "></path>
            <path d="M47.2799689,12.0793888 C42.6467571,4.86421695 39.5636456,1.52269553 38.0306344,2.0548245 C35.7311176,2.85301795 34.2825904,12.5297494 36.1022234,15.9593359 C37.315312,18.2457268 39.8822943,20.5926149 43.8031702,23 L47.2799689,12.0793888 Z" id="Path-72" fill="#FFC83B" transform="translate(41.279969, 12.500000) scale(1, -1) rotate(-168.000000) translate(-41.279969, -12.500000) "></path>
            <g id="Group" transform="translate(28.500000, 27.265002) rotate(-52.000000) translate(-28.500000, -27.265002) translate(11.000000, 9.765002)">
                <circle id="Oval" fill="#FFD638" cx="17.5" cy="17.5" r="17.5"></circle>
                <path d="M17.5,0 C27.1649831,0 35,7.83501688 35,17.5 C35,27.1649831 27.1649831,35 17.5,35 C7.83501688,35 0,27.1649831 0,17.5 C0,7.83501688 7.83501688,0 17.5,0 Z M17.5,0.333333333 C8.0191118,0.333333333 0.333333333,8.0191118 0.333333333,17.5 C0.333333333,26.9808882 8.0191118,34.6666667 17.5,34.6666667 C26.9808882,34.6666667 34.6666667,26.9808882 34.6666667,17.5 C34.6666667,8.0191118 26.9808882,0.333333333 17.5,0.333333333 Z" id="Oval-Copy-7" fill="url(#linearGradient-3)" fill-rule="nonzero"></path>
                <circle id="Oval" fill="#FFC83B" cx="17.5" cy="17.5" r="14.5"></circle>
                <path d="M17.5,3 C25.5081289,3 32,9.49187113 32,17.5 C32,25.5081289 25.5081289,32 17.5,32 C9.49187113,32 3,25.5081289 3,17.5 C3,9.49187113 9.49187113,3 17.5,3 Z M17.5,3.3372093 C9.67810668,3.3372093 3.3372093,9.67810668 3.3372093,17.5 C3.3372093,25.3218933 9.67810668,31.6627907 17.5,31.6627907 C25.3218933,31.6627907 31.6627907,25.3218933 31.6627907,17.5 C31.6627907,9.67810668 25.3218933,3.3372093 17.5,3.3372093 Z" id="Oval-Copy-6" fill="#EAB430" fill-rule="nonzero"></path>
                <path d="M17.9328727,26 L17.9328727,24.2472383 C18.5514972,24.1935823 19.1108917,24.0758373 19.6110563,23.8940032 C20.1112208,23.712169 20.5389931,23.4692267 20.8943731,23.1651762 C21.2497532,22.8611257 21.5228694,22.4989479 21.7137216,22.0786428 C21.9045739,21.6583377 22,21.1858671 22,20.6612309 C22,20.0889006 21.8963475,19.5925829 21.6890424,19.1722777 C21.4817374,18.7519726 21.1855874,18.3823426 20.8005923,18.0633877 C20.4155972,17.7444328 19.9532741,17.4642294 19.4136229,17.2227775 C18.8739717,16.9813256 18.2717999,16.747326 17.6071076,16.5207785 C17.1661731,16.3776959 16.7976308,16.2361038 16.5014808,16.0960021 C16.2053307,15.9559004 15.9667654,15.8083465 15.7857848,15.6533403 C15.6048042,15.4983342 15.4764725,15.3299141 15.4007897,15.14808 C15.3251069,14.9662458 15.2872655,14.7590742 15.2872655,14.526565 C15.2872655,14.2940558 15.3251069,14.0794319 15.4007897,13.8826933 C15.4764725,13.6859548 15.5932873,13.5145537 15.751234,13.3684903 C15.9091807,13.2224268 16.1115499,13.1091531 16.3583416,13.0286691 C16.6051333,12.9481852 16.8963475,12.9079432 17.2319842,12.9079432 C17.8506088,12.9079432 18.3409016,13.0942486 18.7028628,13.4668595 C19.064824,13.8394705 19.2458045,14.3864633 19.2458045,15.107838 L19.2458045,15.107838 L21.9901283,15.107838 C21.9901283,14.5116605 21.899638,13.9736104 21.7186575,13.4936875 C21.5376769,13.0137647 21.2810135,12.5964405 20.9486673,12.2417149 C20.6163212,11.8869893 20.213228,11.5993337 19.739388,11.378748 C19.2655479,11.1581624 18.7324778,11.0120989 18.1401777,10.9405576 L18.1401777,10.9405576 L18.1401777,9 L16.5607108,9 L16.5607108,10.9226723 C15.9552484,10.9763282 15.4057256,11.0985446 14.9121422,11.2893214 C14.4185587,11.4800982 13.9973676,11.7304927 13.6485686,12.040505 C13.2997697,12.3505173 13.0299441,12.715676 12.8390918,13.1359811 C12.6482396,13.5562862 12.5528134,14.0198141 12.5528134,14.526565 C12.5528134,15.1048571 12.6581112,15.6041557 12.8687068,16.0244608 C13.0793024,16.4447659 13.3770977,16.8129055 13.7620928,17.1288795 C14.1470879,17.4448536 14.6127015,17.7220761 15.1589339,17.9605471 C15.7051662,18.1990181 16.3106285,18.4255655 16.9753208,18.6401894 C17.3899309,18.7713484 17.7436657,18.9039979 18.0365252,19.0381378 C18.3293847,19.1722777 18.5663047,19.3198317 18.7472853,19.4807996 C18.9282659,19.6417675 19.0598881,19.8191303 19.142152,20.012888 C19.2244159,20.2066456 19.2655479,20.4287217 19.2655479,20.6791163 C19.2655479,21.1500964 19.0845673,21.5346309 18.7226061,21.8327196 C18.3606449,22.1308083 17.8275749,22.2798527 17.1233959,22.2798527 C16.8272458,22.2798527 16.5376769,22.2440821 16.254689,22.1725408 C15.9717012,22.1009995 15.7199737,21.9802735 15.4995064,21.810363 C15.2790392,21.6404524 15.0997038,21.4109241 14.9615005,21.121778 C14.8232971,20.8326319 14.7541955,20.473435 14.7541955,20.0441873 L14.7541955,20.0441873 L12,20.0441873 C12,20.7596002 12.1217506,21.3721725 12.3652517,21.8819043 C12.6087529,22.391636 12.9328727,22.8134315 13.3376111,23.1472909 C13.7423495,23.4811503 14.2079631,23.7360161 14.7344521,23.9118885 C15.2609411,24.0877608 15.8038829,24.1995441 16.3632774,24.2472383 L16.3632774,24.2472383 L16.3632774,26 L17.9328727,26 Z" id="$" fill="#FFFFFF" fill-rule="nonzero"></path>
            </g>
        </g>
        <g id="Fly-coin-2" transform="translate(112.000000, 67.000000)">
            <path d="M9.65521679,19.7745606 C3.73991963,22.059791 0.856673084,23.8092241 1.00547715,25.0228597 C1.22868324,26.8433132 7.98716076,29.4277284 10.7402017,28.6236223 C12.5755623,28.0875516 14.6621617,26.562775 17,24.0492923 L9.65521679,19.7745606 Z" id="Path-72" fill="#FFC83B" transform="translate(9.000000, 24.274561) rotate(17.000000) translate(-9.000000, -24.274561) "></path>
            <path d="M27.3465439,10.6552168 C29.6317743,4.73991963 31.3812074,1.85667308 32.594843,2.00547715 C34.4152965,2.22868324 36.9997117,8.98716076 36.1956056,11.7402017 C35.6595349,13.5755623 34.1347583,15.6621617 31.6212756,18 L27.3465439,10.6552168 Z" id="Path-72" fill="#FFC83B" transform="translate(31.846544, 10.000000) rotate(17.000000) translate(-31.846544, -10.000000) "></path>
            <g id="Group" transform="translate(22.173820, 18.862419) rotate(-32.000000) translate(-22.173820, -18.862419) translate(9.173820, 5.862419)">
                <circle id="Oval" fill="#FFD638" cx="12.5152694" cy="12.9974403" r="12.5"></circle>
                <path d="M12.5152694,0.497440293 C19.4188288,0.497440293 25.0152694,6.09388092 25.0152694,12.9974403 C25.0152694,19.9009997 19.4188288,25.4974403 12.5152694,25.4974403 C5.61171005,25.4974403 0.0152694273,19.9009997 0.0152694273,12.9974403 C0.0152694273,6.09388092 5.61171005,0.497440293 12.5152694,0.497440293 Z M12.5152694,0.735535531 C5.74320642,0.735535531 0.253364665,6.22537729 0.253364665,12.9974403 C0.253364665,19.7695033 5.74320642,25.2593451 12.5152694,25.2593451 C19.2873324,25.2593451 24.7771742,19.7695033 24.7771742,12.9974403 C24.7771742,6.22537729 19.2873324,0.735535531 12.5152694,0.735535531 Z" id="Oval-Copy-7" fill="url(#linearGradient-3)" fill-rule="nonzero"></path>
                <circle id="Oval" fill="#FFC83B" cx="12.5152694" cy="12.9974403" r="10.5"></circle>
                <path d="M12.5152694,2.49744029 C18.3142593,2.49744029 23.0152694,7.19845042 23.0152694,12.9974403 C23.0152694,18.7964302 18.3142593,23.4974403 12.5152694,23.4974403 C6.71627955,23.4974403 2.01526943,18.7964302 2.01526943,12.9974403 C2.01526943,7.19845042 6.71627955,2.49744029 12.5152694,2.49744029 Z M12.5152694,2.74162634 C6.85113978,2.74162634 2.25945547,7.33331065 2.25945547,12.9974403 C2.25945547,18.6615699 6.85113978,23.2532542 12.5152694,23.2532542 C18.1793991,23.2532542 22.7710834,18.6615699 22.7710834,12.9974403 C22.7710834,7.33331065 18.1793991,2.74162634 12.5152694,2.74162634 Z" id="Oval-Copy-6" fill="#EAB430" fill-rule="nonzero"></path>
                <path d="M12.9033207,19.4214643 L12.9033207,18.1842208 C13.3363578,18.146346 13.727934,18.0632318 14.0780492,17.9348783 C14.4281644,17.8065248 14.727605,17.6350361 14.976371,17.4204123 C15.225137,17.2057884 15.4163184,16.9501335 15.5499149,16.6534475 C15.6835115,16.3567616 15.7503098,16.0232529 15.7503098,15.6529215 C15.7503098,15.2489236 15.677753,14.8985816 15.5326395,14.6018957 C15.387526,14.3052097 15.180221,14.0442944 14.9107244,13.8191498 C14.6412279,13.5940051 14.3176017,13.3962145 13.9398458,13.2257779 C13.56209,13.0553412 13.1405697,12.890165 12.6752851,12.7302492 C12.366631,12.6292497 12.1086514,12.5293023 11.9013463,12.430407 C11.6940413,12.3315117 11.5270456,12.227356 11.4003592,12.1179399 C11.2736727,12.0085238 11.1838406,11.889639 11.1308626,11.7612855 C11.0778847,11.632932 11.0513957,11.4866932 11.0513957,11.322569 C11.0513957,11.1584449 11.0778847,11.0069457 11.1308626,10.8680714 C11.1838406,10.7291971 11.2656109,10.6082082 11.3761736,10.5051045 C11.4867363,10.4020009 11.6283947,10.322043 11.8011489,10.2652308 C11.9739031,10.2084186 12.177753,10.1800125 12.4126987,10.1800125 C12.8457359,10.1800125 13.1889409,10.3115222 13.4423137,10.5745417 C13.6956866,10.8375611 13.822373,11.2236737 13.822373,11.7328794 L13.822373,11.7328794 L15.7433996,11.7328794 C15.7433996,11.3120482 15.6800564,10.9322481 15.55337,10.5934791 C15.4266836,10.25471 15.2470192,9.9601282 15.0143769,9.70973367 C14.7817346,9.45933914 14.4995694,9.25628812 14.1678814,9.1005806 C13.8361933,8.94487307 13.4630442,8.84176944 13.0484342,8.79126971 L13.0484342,8.79126971 L13.0484342,7.42146434 L11.9428073,7.42146434 L11.9428073,8.77864477 C11.5189837,8.81651958 11.1343177,8.90278996 10.7888093,9.03745592 C10.4433009,9.17212189 10.1484671,9.34887097 9.90430782,9.56770316 C9.66014856,9.78653536 9.47127064,10.0442944 9.33767406,10.3409804 C9.20407748,10.6376663 9.13727919,10.9648626 9.13727919,11.322569 C9.13727919,11.7307752 9.21098765,12.0832213 9.35840456,12.3799073 C9.50582148,12.6765932 9.71427821,12.9364565 9.98377475,13.159497 C10.2532713,13.3825375 10.5792009,13.5782239 10.9615635,13.7465564 C11.3439261,13.9148889 11.7677497,14.0748047 12.2330344,14.2263039 C12.5232614,14.3188868 12.7708758,14.4125217 12.9758774,14.5072087 C13.1808791,14.6018957 13.3467231,14.7060514 13.4734095,14.8196758 C13.6000959,14.9333002 13.6922315,15.0584975 13.7498162,15.1952676 C13.8074009,15.3320377 13.8361933,15.4887973 13.8361933,15.6655464 C13.8361933,15.998003 13.7095069,16.2694391 13.4561341,16.4798547 C13.2027613,16.6902702 12.8296122,16.795478 12.3366869,16.795478 C12.1293819,16.795478 11.9266836,16.7702281 11.7285921,16.7197284 C11.5305006,16.6692287 11.3542914,16.5840104 11.1999643,16.4640735 C11.0456372,16.3441366 10.9201025,16.1821166 10.8233601,15.9780135 C10.7266178,15.7739104 10.6782466,15.5203597 10.6782466,15.2173612 L10.6782466,15.2173612 L8.7503098,15.2173612 C8.7503098,15.7223586 8.8355352,16.1547626 9.005986,16.5145732 C9.17643681,16.8743839 9.40332065,17.1721219 9.68663753,17.4077873 C9.96995442,17.6434528 10.295884,17.8233581 10.6644263,17.9475033 C11.0329686,18.0716485 11.4130278,18.1505543 11.804604,18.1842208 L11.804604,18.1842208 L11.804604,19.4214643 L12.9033207,19.4214643 Z" id="$" fill="#FFFFFF" fill-rule="nonzero"></path>
            </g>
        </g>
        <path d="M131.61371,108.99722 L132.61371,109.000478 C143.738742,117.941672 151.529499,126.137382 155.985981,133.587606 C160.442463,141.03783 165.01439,153.509714 169.701761,171.003257 L168.701766,171 C163.770418,153.010916 159.22536,140.540118 155.066592,133.587606 C150.907825,126.635094 143.090197,118.438299 131.61371,108.99722 Z" id="Path-73" fill="#E8F0F8" fill-rule="nonzero"></path>
        <path d="M131,129 L131.682625,129.002259 C139.276895,135.202806 144.595091,140.886374 147.637214,146.052962 C150.679337,151.219549 153.800266,159.868562 157,172 L156.317375,171.997741 C152.951095,159.522656 149.848507,150.874396 147.009613,146.052962 C144.170718,141.231528 138.834181,135.547207 131,129 Z" id="Path-73" fill="#E8F0F8" fill-rule="nonzero"></path>
    </g>
</svg>