<?xml version="1.0" encoding="UTF-8"?>
<svg width="500px" height="432px" viewBox="0 0 500 432" version="1.1" xmlns="http://www.w3.org/2000/svg" xmlns:xlink="http://www.w3.org/1999/xlink">
    <!-- Generator: Sketch 63.1 (92452) - https://sketch.com -->
    <title>10.0_PL_CI"Repayments" </title>
    <desc>Created with Sketch.</desc>
    <defs>
        <linearGradient x1="50%" y1="100%" x2="50%" y2="0%" id="linearGradient-1">
            <stop stop-color="#FFFFFF" offset="0%"></stop>
            <stop stop-color="#ECF3FA" offset="100%"></stop>
        </linearGradient>
        <filter x="0.0%" y="0.0%" width="100.0%" height="100.0%" filterUnits="objectBoundingBox" id="filter-2">
            <feGaussianBlur stdDeviation="0" in="SourceGraphic"></feGaussianBlur>
        </filter>
        <linearGradient x1="50%" y1="0%" x2="50%" y2="100%" id="linearGradient-3">
            <stop stop-color="#FFCB6B" offset="0%"></stop>
            <stop stop-color="#FFFFFF" offset="100%"></stop>
        </linearGradient>
    </defs>
    <g id="10.0_PL_CI&quot;Repayments&quot;-" stroke="none" stroke-width="1" fill="none" fill-rule="evenodd">
        <g id="Background" transform="translate(249.500000, 216.000000) scale(-1, 1) translate(-249.500000, -216.000000) ">
            <path d="M207.659342,430.278286 C344.249511,444.672455 499,367.868209 499,235.248915 C499,102.629622 318.177676,-45.8925995 242.25,14.8121052 C166.322324,75.5168098 -9.97265625,151.142761 1.1747449,250.858481 C12.3221461,350.5742 71.0691732,415.884117 207.659342,430.278286 Z" id="Oval" fill-opacity="0.15" fill="#D8E5F0"></path>
            <path d="M12.0605469,301 L485.59375,301 C468.210863,330.893329 452.050381,352.559996 437.112305,366 C419.338876,381.991012 387.995705,400.704982 354.337891,412.399414 C336.140857,418.721986 297.446763,430.829801 229.463838,431.935599 C201.973231,432.382757 110.196433,421.950786 62.09375,390.828125 C40.5909978,376.915744 23.9132635,346.973035 12.0605469,301 Z" id="Path-8" fill="url(#linearGradient-1)" filter="url(#filter-2)"></path>
            <g id="Tree" transform="translate(466.000000, 282.000000) scale(-1, 1) translate(-466.000000, -282.000000) translate(451.000000, 258.000000)">
                <ellipse id="Oval" fill="#E0E7ED" cx="15" cy="47.5" rx="8" ry="1"></ellipse>
                <polygon id="Rectangle" fill="#E8F0F8" points="13 34 15 34 15 48 13 48"></polygon>
                <path d="M9.84822914,29.5505084 C13.5721326,29.4736129 16.653289,26.4644361 16.7301846,22.8293239 C16.8070801,19.1942117 13.850596,16.3097072 10.1266925,16.3866027 C7.50311565,16.4407774 5.44369773,17.6399003 3.94843873,19.9839714 L7.73043324,22.5737489 L3.43671091,21.6658377 C3.31569701,22.2977056 3.25170573,22.7783554 3.24473708,23.1077872 C3.16784154,26.7428994 6.12432564,29.6274039 9.84822914,29.5505084 Z" id="Oval" fill="#E8F0F8" transform="translate(9.987461, 22.968556) rotate(120.000000) translate(-9.987461, -22.968556) "></path>
                <path d="M10.5833298,27.9254821 C15.8230037,27.8113856 24.4894881,18.2851148 24.6029078,12.9120434 C24.7163275,7.538972 20.5606773,3.27573047 15.3210034,3.38982693 C11.6295309,3.47021055 8.73018841,5.24287685 6.62297589,8.70782583 L11.9405499,12.5353342 L5.90055216,11.1938538 C5.72937601,12.1278326 5.63864861,12.838289 5.62836996,13.3252232 C5.51495028,18.6982946 5.34365585,28.0395785 10.5833298,27.9254821 Z" id="Oval" fill="#E8F0F8" transform="translate(15.098500, 15.657053) scale(-1, 1) rotate(-27.000000) translate(-15.098500, -15.657053) "></path>
                <path d="M15.0661313,40.0317403 C20.4837992,40.0859378 24.8317578,35.9187887 24.7775686,30.7241524 C24.7233794,25.529516 20.2875627,21.2744955 14.8698948,21.220298 C11.0530214,21.1821146 8.10976549,22.8060178 6.04012706,26.0920077 L10.700841,29.6410076 L5.37202897,28.4744335 C5.22473709,29.3726382 5.1535466,30.0571223 5.1584575,30.5278858 C5.21264672,35.7225222 9.64846337,39.9775427 15.0661313,40.0317403 Z" id="Oval" fill="#E8F0F8" transform="translate(14.968145, 30.625952) scale(-1, 1) rotate(77.000000) translate(-14.968145, -30.625952) "></path>
            </g>
            <g id="Tree" transform="translate(30.536585, 289.000000) scale(-1, 1) translate(-30.536585, -289.000000) translate(22.036585, 275.000000)">
                <ellipse id="Oval" fill="#E0E7ED" cx="9.03658537" cy="27.5" rx="5" ry="1"></ellipse>
                <polygon id="Rectangle" fill="#E8F0F8" points="8.03658537 20 9.03658537 20 9.03658537 28 8.03658537 28"></polygon>
                <path d="M5.50847017,17.0729408 C7.67082085,17.0885932 9.4110637,15.3336987 9.39541137,13.1532742 C9.37975905,10.9728498 7.61413876,9.19257786 5.45178809,9.17692554 C3.92836162,9.16589811 2.7517193,9.85140202 1.92186111,11.2334373 L4.16222019,12.8505221 L1.65245466,12.2343573 C1.59263099,12.6115797 1.56341197,12.8989913 1.56479761,13.0965922 C1.58049922,15.2770166 3.3461195,17.0572885 5.50847017,17.0729408 Z" id="Oval" fill="#E8F0F8" transform="translate(5.480157, 13.124920) rotate(120.000000) translate(-5.480157, -13.124920) "></path>
                <path d="M6.13924256,16.0011385 C9.2910055,16.0162422 14.3592921,10.6317689 14.3442848,7.52075574 C14.3292107,4.40974262 11.7620091,1.87549835 8.61024611,1.86027682 C6.38975562,1.8496707 4.67225055,2.83170399 3.45773088,4.80637667 L6.71748838,7.10620269 L3.06147836,6.23540237 C2.97293511,6.77382866 2.92933468,7.18400948 2.93067708,7.46594482 C2.94574878,10.5769579 2.98747961,15.985971 6.13924256,16.0011385 Z" id="Oval" fill="#E8F0F8" transform="translate(8.637481, 8.930708) scale(-1, 1) rotate(-27.000000) translate(-8.637481, -8.930708) "></path>
                <path d="M8.49446156,23.2166547 C11.600324,23.2040375 14.1283121,20.6346486 14.1409281,17.4777176 C14.15345,14.3207866 11.6458402,11.771779 8.53997773,11.7843035 C6.35182523,11.7931908 4.65061415,12.8049674 3.4363445,14.8196334 L6.0788344,16.9376206 L3.03326402,16.273324 C2.94126588,16.8205051 2.89468161,17.2371439 2.89351118,17.5232406 C2.88098928,20.6801716 5.38859912,23.2291792 8.49446156,23.2166547 Z" id="Oval" fill="#E8F0F8" transform="translate(8.517220, 17.500479) scale(-1, 1) rotate(77.000000) translate(-8.517220, -17.500479) "></path>
            </g>
        </g>
        <path d="M216.798581,359.315366 C182.244381,359.315366 176.392679,367.651304 219.392679,370.89068 C222.126179,371.096607 241.059033,370.542626 242.583303,370.89068 C274.184671,378.106591 284.491434,378.106591 301.045399,374.464899 C318.723134,370.57599 297.863296,362.149095 274.184671,359.315366 C268.255474,358.605792 223.718329,359.315366 216.798581,359.315366 Z" id="Oval" fill="#E0E7ED" transform="translate(248.323239, 367.930887) scale(-1, 1) translate(-248.323239, -367.930887) "></path>
        <path d="M107.400296,343.270924 C74.258175,343.270924 42.9924046,353.103301 84.235183,355.886181 C86.8569773,356.063088 173.524959,356.437445 189.402436,353.308945 C206.357759,349.968065 185.152251,345.70532 162.441268,343.270924 C156.754371,342.661345 114.037264,343.270924 107.400296,343.270924 Z" id="Oval" fill="#E0E7ED" transform="translate(130.037225, 349.500000) scale(-1, 1) translate(-130.037225, -349.500000) "></path>
        <g id="Bank" transform="translate(230.000000, 241.000000)">
            <rect id="Rectangle" fill="#E1E3EF" x="1" y="102" width="135" height="15"></rect>
            <rect id="Rectangle" fill="#C9CBD9" x="0" y="110" width="142" height="12"></rect>
            <rect id="Rectangle" fill="#E1E3EF" x="19" y="47" width="21" height="55"></rect>
            <path d="M16.2278666,40.2621448 L41.7303687,39.1031467 C42.8337993,39.0529997 43.7689587,39.9068547 43.8191057,41.0102853 C43.8229556,41.0949983 43.8214138,41.1798704 43.8144898,41.2643876 L43.085445,50.1633031 C43.0004251,51.2010781 42.1333748,52 41.0921231,52 L17.521151,52 C16.5351305,52 15.6962335,51.2813713 15.5448598,50.3070396 L14.3423746,42.5671222 C14.1728013,41.4756467 14.9201507,40.4533648 16.0116262,40.2837915 C16.0832607,40.2726622 16.1554474,40.265436 16.2278666,40.2621448 Z" id="Rectangle" fill="#C9CBD9"></path>
            <rect id="Rectangle" fill="#C9CBD9" x="16" y="99" width="28" height="6"></rect>
            <rect id="Rectangle" fill="#E1E3EF" x="61" y="47" width="21" height="55"></rect>
            <path d="M58.1669396,38.4595158 L83.7400094,37.1185099 C84.8430634,37.0606677 85.7841557,37.9079793 85.8419979,39.0110332 C85.8463028,39.0931285 85.8455419,39.1754111 85.8397197,39.2574127 L85.0669197,50.141647 C84.9925831,51.1886155 84.1215463,52 83.071942,52 L59.5566357,52 C58.555212,52 57.708155,51.2593524 57.5745226,50.2668849 L56.289559,40.7236566 C56.1421625,39.6289658 56.9100964,38.6220551 58.0047872,38.4746586 C58.05861,38.4674116 58.1127056,38.4623598 58.1669396,38.4595158 Z" id="Rectangle" fill="#C9CBD9"></path>
            <rect id="Rectangle" fill="#C9CBD9" x="57" y="99" width="28" height="6"></rect>
            <rect id="Rectangle" fill="#E1E3EF" x="102" y="45" width="21" height="57"></rect>
            <path d="M99.1804198,38.4624973 L125.738292,37.1147741 C126.841442,37.0587929 127.781104,37.907691 127.837085,39.010841 C127.841274,39.0933882 127.840342,39.1761157 127.834294,39.2585475 L127.035472,50.1463437 C126.958804,51.1913268 126.088626,52 125.040834,52 L100.609139,52 C99.6110656,52 98.7657632,51.264166 98.6282213,50.2756148 L97.3008646,40.7355418 C97.1486468,39.6415109 97.9121371,38.6312267 99.0061679,38.4790089 C99.0639831,38.4709648 99.1221227,38.4654557 99.1804198,38.4624973 Z" id="Rectangle" fill="#C9CBD9"></path>
            <rect id="Rectangle" fill="#C9CBD9" x="98" y="99" width="29" height="6"></rect>
            <polygon id="Triangle" fill="#C9CBD9" points="70 0 139 35.5416072 139 43 1 43 1 35.5416072"></polygon>
            <polygon id="Triangle" fill="#E1E3EF" points="69.4453782 9 122 35 16 35"></polygon>
            <ellipse id="Oval" fill="#5E5D87" cx="69.5" cy="23" rx="4.5" ry="6"></ellipse>
        </g>
        <g id="envelope" transform="translate(65.000000, 208.000000)">
            <path d="M65.5,0 L131,48 L131,144 L0,144 L0,48 L65.5,0 Z" id="Combined-Shape" fill="#FFFFFF"></path>
            <path d="M65.5,96 L9,48 C34.0553004,44.4134218 52.8886337,42.6201327 65.5,42.6201327 C78.1113663,42.6201327 96.9446996,44.4134218 122,48 L65.5,96 Z" id="Path-5" fill="#E1E3EF"></path>
            <path d="M65.5,144 C59.5397772,144 44.1029065,132.865323 22.7970675,109.935582 C17.9306385,104.69824 10.331616,95.3863794 0,82 L131,82 C130.258625,84.7703353 122.559794,94.0821958 107.903505,109.935582 C85.9190722,133.71566 71.5697326,144 65.5,144 Z" id="Path-5" fill="#F5F5F5" transform="translate(65.500000, 113.000000) scale(1, -1) translate(-65.500000, -113.000000) "></path>
            <path d="M65.5,144 C56.5773872,144 34.7440539,123.333333 0,82 L131,82 C96.2559461,123.333333 74.4226128,144 65.5,144 Z" id="Path-5" fill="#FFFFFF" transform="translate(65.500000, 113.000000) scale(1, -1) translate(-65.500000, -113.000000) "></path>
            <polygon id="Path-5" fill="#F6F6F6" transform="translate(65.500000, 27.500000) scale(1, -1) translate(-65.500000, -27.500000) " points="65.5 48 9 7 122 7"></polygon>
        </g>
        <g id="5.-Illustrations-/1.-Characters/Walking" transform="translate(261.500000, 231.500000) scale(-1, 1) translate(-261.500000, -231.500000) translate(171.000000, 95.000000)">
            <g id="Character">
                <path d="M102.338872,72.8037765 C108.510293,53.0497532 121.735951,37.1899765 112.894897,27.9379714 C104.053843,18.6859662 95.4718287,23.1227558 89.1239866,27.4184625 C85.6013108,29.8025451 82.196449,33.4838961 79.5489254,38.6549002 C76.6112116,44.391898 71.0451936,48.8907042 52.8571634,43.8690907 C34.6691332,38.8474772 -8.5922098,69.1505424 28.3142552,99.164978 C42.6707083,103.466929 54.3538024,102.824266 63.3635375,97.2369903 C69.1015795,93.6786144 96.1674507,92.5577998 102.338872,72.8037765 Z" id="Fill" fill="#313050" transform="translate(64.853588, 62.234223) rotate(-36.000000) translate(-64.853588, -62.234223) "></path>
                <path d="M134.176574,243.350467 L134.503339,258.08407 C134.503339,258.08407 148.650886,268.346799 145.03461,271.508799 C141.418334,274.670798 133.68571,268.346799 126.539787,262.122955 L124.362626,244.288982 L134.176574,243.350467 Z" id="Fill" fill="#016E80"></path>
                <path d="M111.757749,224 L110.891185,237.654079 C110.891185,237.654079 124.154547,248.378065 120.296197,250.987094 C116.437846,253.596124 109.246318,247.073764 102.631154,240.695159 L101.905212,224.012594 L111.757749,224 Z" id="Fill" fill="#016E80" transform="translate(111.452606, 237.788344) rotate(39.000000) translate(-111.452606, -237.788344) "></path>
                <path d="M125.586392,165.936666 C132.56088,182.047731 135.555235,210.301063 134.569458,250.696663 C133.187951,253.92594 126.42961,253.92594 124.107727,252.202548 C124.107727,252.202548 115.500587,204.652706 94.2039474,182.217805 C78.9057012,166.101899 48.2340156,155.766538 53.1146694,133.821378 C53.1146694,133.821378 58.8171469,132.145554 76.5485231,131.350467 C102.265948,138.296869 118.611905,149.825602 125.586392,165.936666 Z" id="Fill" fill="#00424D"></path>
                <path d="M144.412042,156.443378 C151.389068,170.815766 142.323994,196.450674 117.21682,233.348103 C115.83481,236.228882 109.846131,228.806938 107.523403,227.269531 C107.523403,227.269531 138.521211,189.189035 117.21682,169.175268 C101.913006,154.798561 66.9788989,144.118244 76.2658433,133.422467 C76.2658433,133.422467 88.1771643,129.101283 105.914994,128.392 C124.602667,132.720531 137.435016,142.070991 144.412042,156.443378 Z" id="Fill" fill="#00424D"></path>
                <path d="M145.781275,120.686367 C147.42034,118.461396 145.348515,119.330776 145.348515,119.330776 C139.049037,122.370241 133.940979,123.227194 133.940979,123.227194 C134.972373,122.609463 135.800146,122.040923 136.47959,121.515877 L137.572655,118.221139 C136.632704,118.738417 135.499234,119.238091 134.517815,119.635759 C132.684698,120.378279 131.083911,121.58578 129.924922,123.155738 C128.547958,125.021359 127.759526,126.435978 127.759526,126.435978 L129.79839,132.355427 C139.22767,131.016923 141.389876,130.053304 143.846614,127.780178 C145.690363,126.073521 145.141172,124.912621 145.141172,124.912621 C143.188435,126.370736 139.747089,127.137075 139.747089,127.137075 C139.747089,127.137075 144.686083,125.362069 145.764262,123.537872 C146.842441,121.714193 145.699401,121.710051 145.699401,121.710051 C144.156032,123.285187 140.30638,124.16337 140.30638,124.16337 C140.30638,124.16337 144.142209,122.910821 145.781275,120.686367 Z" id="Fill" fill="#8D5524" transform="translate(137.085915, 125.288283) scale(-1, -1) rotate(234.000000) translate(-137.085915, -125.288283) "></path>
                <path d="M87.3778243,49.7834162 C99.8651689,46.9103976 105.07601,58.5578778 112.472216,65.8417994 C121.839836,75.0664106 131.622767,66.2933953 147.486059,60.4459829 C156.479668,57.1302564 174.702851,48.4473155 180,50.3761419 C179.933363,48.1210812 176.669855,43.8676967 175.674844,42.8339808 C161.96176,37.9167406 147.067346,37.8424028 137.925446,44.6518019 C132.927223,48.3746472 125.382337,54.2126531 118.691917,47.4933055 C110.588987,39.3552432 105.692596,34.6434496 84,44.7243584 L84,45.8874779 C84.123888,45.8491926 84.891618,46.8424546 85.6668564,47.8351774 C86.4411562,48.827361 87.2229644,49.8190054 87.3778243,49.7834162 Z" id="Scarfe" fill="#F9C071" transform="translate(132.000000, 54.427841) scale(-1, 1) translate(-132.000000, -54.427841) "></path>
                <path d="M88.43475,48.7518747 C88.2940131,48.7712817 96.5742127,56.9688145 101.392447,69.8919927 C104.375577,77.893165 108.552481,88.5605025 113.923157,101.894005 L130.675496,118.417674 L127.084976,123.546514 L104.35622,115.329239 C89.3576544,83.1279646 84.0504977,60.9355098 88.43475,48.7518747 Z" id="Fill" fill="#A5D867"></path>
                <path d="M68.443352,48.1595157 C68.443352,48.1595157 51.874001,100.13228 53.1889958,133.246423 C53.1889958,133.246423 82.5235797,143.997747 107.975781,128.200272 C107.975781,128.200272 105.387421,84.5523604 88.450163,48.1595157 C86.1651838,47.4189759 82.8706717,46.6302667 78.856477,46.5799798 C74.4421117,46.5238703 70.8433346,47.3824518 68.443352,48.1595157 Z" id="Fill" fill="#A5D867"></path>
                <path d="M76.1388635,21.274159 C74.6689743,20.4017721 73.1736386,21.7307414 72.6831293,23.5769793 C72.2811083,25.0882329 73.1869436,26.756847 77.0110591,29.2745832 C78.5747998,25.2142815 78.284068,22.5474735 76.1388635,21.274159 Z" id="Fill" fill="#8D5524"></path>
                <path d="M83.3977297,20.4832993 C78.1378771,27.022283 74.661244,40.4285474 73.9618916,49.2801643 C73.9618916,49.2801643 79.1324543,52.9841509 84.408823,49.2801643 C84.433081,47.0866668 87.2074615,36.599785 88.2257805,33.9345966 L83.3977297,20.4832993 Z" id="Fill" fill="#8D5524"></path>
                <path d="M79.1559787,30.8634301 C79.6935285,29.5446519 82.9673809,30.0279738 88.9775358,32.3133959 L83.9906323,46.5773689 C80.22998,37.4201879 78.6184288,32.1822083 79.1559787,30.8634301 Z" id="Path-60" fill="#6E421C"></path>
                <path d="M92.5293854,27.8556335 C91.3272217,34.4625292 87.0500224,37.4024831 82.6706,36.855242 C77.9375694,36.2631976 74.032754,28.2455294 75.9374403,21.6034311 C77.8421265,14.9613328 83.4612639,12.0224457 87.679007,13.2870739 C91.89675,14.5522355 94.0079685,19.7248902 92.5293854,27.8556335 Z" id="Fill" fill="#8D5524" transform="translate(84.222222, 24.959782) rotate(-5.000000) translate(-84.222222, -24.959782) "></path>
                <g id="Group" transform="translate(158.000000, 111.000000) scale(-1, 1) translate(-158.000000, -111.000000) translate(135.000000, 88.000000)">
                    <circle id="Oval" fill="#FFD638" cx="23" cy="23" r="23"></circle>
                    <path d="M23,0 C35.7025492,0 46,10.2974508 46,23 C46,35.7025492 35.7025492,46 23,46 C10.2974508,46 0,35.7025492 0,23 C0,10.2974508 10.2974508,0 23,0 Z M23,0.438095238 C10.5394041,0.438095238 0.438095238,10.5394041 0.438095238,23 C0.438095238,35.4605959 10.5394041,45.5619048 23,45.5619048 C35.4605959,45.5619048 45.5619048,35.4605959 45.5619048,23 C45.5619048,10.5394041 35.4605959,0.438095238 23,0.438095238 Z" id="Oval-Copy-7" fill="url(#linearGradient-3)" fill-rule="nonzero"></path>
                    <circle id="Oval" fill="#FFC83B" cx="23.5" cy="23.5" r="18.5"></circle>
                    <path d="M24.1194472,34 L24.1194472,31.7317201 C24.8617966,31.662283 25.5330701,31.5099071 26.1332675,31.2745923 C26.733465,31.0392776 27.2467917,30.7248816 27.6732478,30.3314045 C28.0997038,29.9379274 28.4274432,29.4692267 28.6564659,28.9253025 C28.8854886,28.3813782 29,27.7699456 29,27.0910047 C29,26.3503419 28.875617,25.7080484 28.6268509,25.1641241 C28.3780849,24.6201999 28.0227048,24.1418552 27.5607108,23.72909 C27.0987167,23.3163247 26.5439289,22.9537086 25.8963475,22.6412415 C25.248766,22.3287743 24.5261599,22.0259513 23.7285291,21.7327722 C23.1994077,21.5476065 22.757157,21.3643696 22.4017769,21.1830615 C22.0463968,21.0017535 21.7601185,20.8108013 21.5429418,20.6102052 C21.3257651,20.409609 21.171767,20.1916535 21.0809477,19.9563388 C20.9901283,19.721024 20.9447187,19.4529195 20.9447187,19.1520252 C20.9447187,18.851131 20.9901283,18.5733824 21.0809477,18.3187796 C21.171767,18.0641767 21.3119447,17.8423637 21.5014808,17.6533403 C21.6910168,17.464317 21.9338598,17.3177275 22.2300099,17.2135718 C22.5261599,17.1094161 22.875617,17.0573382 23.278381,17.0573382 C24.0207305,17.0573382 24.6090819,17.2984394 25.0434353,17.7806418 C25.4777887,18.2628441 25.6949654,18.9707172 25.6949654,19.9042609 L28.988154,19.9042609 C28.988154,19.1327372 28.8795656,18.436437 28.6623889,17.8153603 C28.4452122,17.1942837 28.1372162,16.6542171 27.7384008,16.1951604 C27.3395854,15.7361038 26.8558736,15.3638436 26.2872655,15.0783798 C25.7186575,14.792916 25.0789733,14.6038927 24.3682132,14.5113098 L24.3682132,12 L22.4728529,12 L22.4728529,14.4881641 C21.7462981,14.5576013 21.0868707,14.7157636 20.4945706,14.9626512 C19.9022705,15.2095388 19.3968411,15.5335788 18.9782823,15.9347712 C18.5597236,16.3359635 18.2359329,16.8085218 18.0069102,17.3524461 C17.7778875,17.8963703 17.6633761,18.4962301 17.6633761,19.1520252 C17.6633761,19.9004033 17.7897335,20.5465544 18.0424482,21.0904787 C18.2951629,21.6344029 18.6525173,22.1108189 19.1145114,22.5197265 C19.5765054,22.9286341 20.1352419,23.2873926 20.7907206,23.5960021 C21.4461994,23.9046116 22.1727542,24.1977906 22.970385,24.4755392 C23.4679171,24.6452744 23.8923988,24.8169385 24.2438302,24.9905313 C24.5952616,25.1641241 24.8795656,25.3550763 25.0967423,25.5633877 C25.3139191,25.7716991 25.4718657,26.0012274 25.5705824,26.2519726 C25.6692991,26.5027179 25.7186575,26.7901105 25.7186575,27.1141504 C25.7186575,27.7236542 25.5014808,28.221287 25.0671273,28.6070489 C24.6327739,28.9928108 23.9930898,29.1856917 23.148075,29.1856917 C22.792695,29.1856917 22.4452122,29.1394003 22.1056269,29.0468175 C21.7660415,28.9542346 21.4639684,28.7980011 21.1994077,28.5781168 C20.934847,28.3582325 20.7196446,28.0611959 20.5538006,27.6870068 C20.3879566,27.3128178 20.3050346,26.8479748 20.3050346,26.2924776 L17,26.2924776 C17,27.2183062 17.1461007,28.0110468 17.4383021,28.6706996 C17.7305035,29.3303524 18.1194472,29.8762055 18.6051333,30.3082588 C19.0908193,30.7403121 19.6495558,31.0701385 20.2813425,31.297738 C20.9131293,31.5253375 21.5646594,31.6699982 22.2359329,31.7317201 L22.2359329,34 L24.1194472,34 Z" id="$" fill="#FFFFFF" fill-rule="nonzero"></path>
                </g>
                <path d="M158.36897,125.465229 C160.008036,123.240258 157.93621,124.109638 157.93621,124.109638 C151.636733,127.149102 146.528674,128.006055 146.528674,128.006055 C147.560068,127.388324 148.387842,126.819784 149.067286,126.294738 L150.160351,123 C149.2204,123.517279 148.08693,124.016952 147.105511,124.41462 C145.272394,125.15714 143.671607,126.364641 142.512618,127.934599 C141.135654,129.80022 140.347222,131.21484 140.347222,131.21484 L142.386086,137.134288 C151.815366,135.795784 153.977572,134.832165 156.434309,132.559039 C158.278059,130.852382 157.728868,129.691483 157.728868,129.691483 C155.776131,131.149597 152.334784,131.915936 152.334784,131.915936 C152.334784,131.915936 157.273779,130.14093 158.351958,128.316733 C159.430137,126.493054 158.287097,126.488912 158.287097,126.488912 C156.743727,128.064049 152.894076,128.942231 152.894076,128.942231 C152.894076,128.942231 156.729905,127.689682 158.36897,125.465229 Z" id="Fill" fill="#8D5524" transform="translate(149.673611, 130.067144) rotate(28.000000) translate(-149.673611, -130.067144) "></path>
                <path d="M69.3021169,47.6959463 C86.8361219,46.1019106 81.2812353,92.550504 78,97.2180568 C74.7187647,101.88561 137.411752,128.131303 140.900088,126.702025 C141.491851,127.482548 140.900088,135.150915 140.900088,135.199914 C140.900088,135.199914 83.5398464,127.885546 66,123.546514 C37,133.561905 51.7681119,49.2899819 69.3021169,47.6959463 Z" id="Fill" fill="#A5D867"></path>
                <path d="M72.914594,38.1674213 C72.914594,38.1674213 78.0770598,40.5475517 88.7314328,39.5738857 C88.7314328,39.5738857 91.4550474,45.3965649 89.6022051,51.498031 C89.6022051,51.498031 78.4061831,54.1809637 70.8174267,49.7428219 C70.8174267,49.7428219 69.2899978,42.7115439 72.914594,38.1674213 Z" id="Fill" fill="#F9C071"></path>
            </g>
        </g>
        <path d="M437.66118,378.699348 C437.66118,376.796434 422.325068,374 401.195786,374 C380.066504,374 372.586464,376.228967 382.019949,378.699348 C391.453434,381.169728 399.575321,382.109248 413.641913,381.990012 C426.960637,381.877114 437.66118,380.602261 437.66118,378.699348 Z" id="Oval" fill="#E0E7ED" transform="translate(407.830590, 378.000000) scale(-1, 1) translate(-407.830590, -378.000000) "></path>
        <path d="M382.144318,374 C402.10786,374 418,372.316981 418,370.781049 C418,369.245118 401.816351,368 381.852808,368 C361.889265,368 346,369.245118 346,370.781049 C346,372.316981 362.180775,374 382.144318,374 Z" id="Oval" fill="#E0E7ED" fill-rule="nonzero"></path>
        <g id="Little-coins" transform="translate(356.000000, 320.000000)">
            <path d="M36.3036922,46 C55.4553408,46 62,44.2955705 62,43 C62,41.7044295 51.1139814,40 34.7071664,40 C18.3003514,40 5,41.8330199 5,43.1285903 C5,44.4241608 17.1520435,46 36.3036922,46 Z" id="Oval" fill="#FFD638"></path>
            <path d="M1,33 C6.71890526,34.863849 16.4895241,35.78886 30.3118564,35.775033 C44.1341888,35.7612059 53.0302367,34.9131248 57,33.2307897 L57,40.8827785 C45.7837935,42.2942595 36.8877456,43 30.3118564,43 C23.7359673,43 13.9653484,42.2942595 1,40.8827785 L1,33 Z" id="Rectangle" fill="#F5BC2B"></path>
            <path d="M5,43 C10.7189053,44.5753477 20.4895241,45.3566524 34.3118564,45.3439141 C48.1341888,45.3311757 57.0302367,44.5498711 61,43 L61,50.0494848 C49.7837935,51.3498283 40.8877456,52 34.3118564,52 C27.7359673,52 17.9653484,51.3498283 5,50.0494848 L5,43 Z" id="Rectangle" fill="#F5BC2B"></path>
            <path d="M32.3036922,35 C51.4553408,35 58,33.8637136 58,33 C58,32.1362864 47.1139814,31 30.7071664,31 C14.3003514,31 1,32.2220132 1,33.0857269 C1,33.9494405 13.1520435,35 32.3036922,35 Z" id="Oval" fill="#FFD638"></path>
            <path d="M4,28 C9.61678195,29.7503864 19.2129254,30.6185027 32.7884304,30.604349 C46.3639354,30.5901953 55.1011253,29.722079 59,28 L59,35.8327609 C47.9840829,37.277587 39.246893,38 32.7884304,38 C26.3299678,38 16.7338244,37.277587 4,35.8327609 L4,28 Z" id="Rectangle" fill="#F5BC2B"></path>
            <path d="M35.3036922,31 C54.4553408,31 61,29.2955705 61,28 C61,26.7044295 50.1139814,25 33.7071664,25 C17.3003514,25 4,26.8330199 4,28.1285903 C4,29.4241608 16.1520435,31 35.3036922,31 Z" id="Oval" fill="#FFD638"></path>
            <path d="M32.3036922,23 C51.4553408,23 58,21.2955705 58,20 C58,18.7044295 47.1139814,17 30.7071664,17 C14.3003514,17 1,18.8330199 1,20.1285903 C1,21.4241608 13.1520435,23 32.3036922,23 Z" id="Oval" fill="#FFD638"></path>
            <path d="M3,11.010604 C8.71890526,11.0247427 18.4895241,11.0247427 32.3118564,11.010604 C46.1341888,10.9964653 55.0302367,10.9964653 59,11.010604 L59,18.835059 C47.7837935,20.278353 38.8877456,21 32.3118564,21 C25.7359673,21 15.9653484,20.278353 3,18.835059 L3,11.010604 Z" id="Rectangle" fill="#F5BC2B"></path>
            <path d="M0,4 C5.92315187,6.34982827 16.0427214,7.51837324 30.3587085,7.50563491 C44.6746956,7.49289657 53.8884594,6.3243516 58,4 L58,11.0494848 C46.3832147,12.3498283 37.1694508,13 30.3587085,13 C23.5479661,13 13.4283966,12.3498283 0,11.0494848 L0,4 Z" id="Rectangle" fill="#F5BC2B"></path>
            <path d="M1,20 C6.71890526,21.7503864 16.4895241,22.6185027 30.3118564,22.604349 C44.1341888,22.5901953 53.0302367,21.722079 57,20 L57,27.8327609 C45.7837935,29.277587 36.8877456,30 30.3118564,30 C23.7359673,30 13.9653484,29.277587 1,27.8327609 L1,20 Z" id="Rectangle" fill="#F5BC2B"></path>
            <path d="M30.3587085,8 C49.0544603,8 58,5.13765179 58,3.63314275 C58,2.12863371 45.0162577,0 29,0 C12.9837423,0 0,2.12863371 0,3.63314275 C0,5.13765179 11.6629566,8 30.3587085,8 Z" id="Oval" fill="#FFD638"></path>
            <path d="M29.4604663,5 C42.6764289,5 49,3.21103237 49,2.27071422 C49,1.33039607 39.8218374,0 28.5,0 C17.1781626,0 8,1.33039607 8,2.27071422 C8,3.21103237 16.2445038,5 29.4604663,5 Z" id="Oval" fill="#FFC83B"></path>
            <path d="M38,2.67369367 L36.1654136,2.66273855 C36.1186878,2.40736652 36.0032541,2.17575115 35.8191125,1.96812805 C35.634971,1.76096039 35.3865747,1.58499836 35.0739237,1.44031186 C34.7612728,1.29617404 34.3874093,1.18607783 33.9523333,1.10992808 C33.5172573,1.03420012 33.0223248,0.997693393 32.4675357,1.00011277 C31.887529,1.00267236 31.3784275,1.04445101 30.9402312,1.12512241 C30.5020349,1.20538961 30.1144195,1.32025179 29.777385,1.46955843 C29.4403505,1.61826016 29.1430017,1.79793275 28.8853386,2.00853087 C28.6276755,2.21846367 28.3862216,2.45521361 28.160977,2.71872802 C27.9953332,2.91256857 27.8294339,3.07401997 27.663279,3.2031806 C27.4971241,3.3320735 27.3209819,3.43535139 27.1348524,3.51307843 C26.9487229,3.5906233 26.7477952,3.64464604 26.5320693,3.67521936 C26.3163435,3.70570745 26.0729355,3.71929813 25.8018454,3.7160604 C25.5181465,3.71267931 25.2588044,3.69254538 25.0238192,3.65573292 C24.788834,3.61902694 24.5892384,3.56584159 24.4250324,3.49620516 C24.2608264,3.42671292 24.1336686,3.33883977 24.0435591,3.23256895 C23.9534496,3.12642003 23.911476,3.00059707 23.9176385,2.85500004 C23.9233608,2.71979255 23.9883423,2.59981375 24.1125831,2.49494685 C24.2368239,2.38991433 24.4123884,2.30116598 24.6392765,2.22867139 C24.8661647,2.15597064 25.1396207,2.10017392 25.4596446,2.06132339 C25.7796686,2.02232292 26.1382698,2.00299435 26.5354483,2.003461 L26.5748991,1.05532633 C25.9381526,1.05837175 25.3630472,1.09461986 24.849583,1.16373491 C24.3361188,1.23243955 23.8907652,1.32974735 23.5135223,1.45552512 C23.1362794,1.58071488 22.8288332,1.73171632 22.5911838,1.90856907 C22.3535344,2.08488662 22.1920963,2.28464998 22.1068694,2.50807645 L20.0264106,2.49980237 L20,3.10827505 L22.0615456,3.12467922 C22.115016,3.34877248 22.2387428,3.55256362 22.4327262,3.73627971 C22.6267095,3.92045322 22.8833165,4.07885742 23.202547,4.21154967 C23.5217774,4.34477583 23.8989857,4.4502532 24.3341718,4.52788694 C24.7693578,4.60592812 25.2517365,4.64981959 25.7813079,4.65927509 C26.367619,4.66977373 26.8815038,4.63925225 27.3229624,4.56737066 C27.764421,4.49506734 28.1537225,4.38676534 28.4908671,4.24231873 C28.8280116,4.09725583 29.125443,3.92014013 29.3831611,3.71093153 C29.6408792,3.50105319 29.8760011,3.26464635 30.0885269,3.00169791 C30.2411216,2.81616767 30.4004414,2.6587638 30.5664863,2.5295503 C30.7325311,2.40007476 30.9101944,2.29482555 31.0994761,2.2138603 C31.2887579,2.13270984 31.4944689,2.07389907 31.7166092,2.03749563 C31.9387495,2.00099717 32.1822125,1.98291509 32.4469982,1.98332547 C33.0333093,1.9842571 33.4979462,2.07195046 33.8409088,2.24692788 C34.1838713,2.42263336 34.34886,2.67438693 34.3358748,3.00160442 C34.3308128,3.12915001 34.2864032,3.25493414 34.2026459,3.37886927 C34.1188887,3.50267993 33.9788868,3.61326221 33.7826404,3.71053623 C33.586394,3.80757926 33.3262701,3.88493908 33.0022686,3.94261466 C32.6782672,4.00005789 32.270394,4.02526719 31.7786492,4.01843347 L31.7391984,4.99679717 C32.4768156,5.01144244 33.1107596,4.97588581 33.6410303,4.88964708 C34.1713009,4.80281809 34.611423,4.6818213 34.9613965,4.52660247 C35.31137,4.37072109 35.5818975,4.18922822 35.772979,3.98226651 C35.9640605,3.77483243 36.0892757,3.55777758 36.1486247,3.33133679 L37.9737545,3.34945674 L38,2.67369367 Z" id="$" fill="#FFFFFF" fill-rule="nonzero"></path>
        </g>
        <g id="Big-coin" transform="translate(397.000000, 317.000000)">
            <path d="M23.6085341,9.09114482 L35.0722433,7.95933969 L29.62652,65.9349059 L18.3192654,63.9894066 C11.9153077,55.4708784 9.13411879,46.6174419 9.97569882,37.429097 C10.8172789,28.2407522 15.3615573,18.7947681 23.6085341,9.09114482 Z" id="Rectangle" fill="#F5BC2B" transform="translate(22.450658, 36.947123) rotate(-20.000000) translate(-22.450658, -36.947123) "></path>
            <ellipse id="Oval" fill="#FFD638" transform="translate(33.238671, 33.062500) rotate(-13.000000) translate(-33.238671, -33.062500) " cx="33.2386714" cy="33.0625" rx="18.781492" ry="29.2571374"></ellipse>
            <ellipse id="Oval" fill="#FFC83B" transform="translate(33.238671, 33.062500) rotate(-13.000000) translate(-33.238671, -33.062500) " cx="33.2386714" cy="33.0625" rx="14.488651" ry="23.516095"></ellipse>
            <path d="M34.2319244,46.3235486 L34.2573546,43.5455753 C35.1049633,43.4517062 35.8744126,43.2559571 36.5657026,42.9583282 C37.2569926,42.6606992 37.8467934,42.2685686 38.335105,41.7819362 C38.8234165,41.2953038 39.2008894,40.7190302 39.4675236,40.0531155 C39.7341578,39.3872007 39.87132,38.6342061 39.8790103,37.7941317 C39.8870501,36.9158721 39.7591517,36.1486621 39.4953152,35.4925017 C39.2314786,34.8363413 38.8459465,34.2600739 38.3387188,33.7636996 C37.8314912,33.2673252 37.214353,32.8340286 36.4873045,32.4638098 C35.7602559,32.093591 34.9375832,31.7505203 34.0192863,31.4345976 C33.3421522,31.2023195 32.7767087,30.9666062 32.322956,30.7274576 C31.8692032,30.4883091 31.5040079,30.2316242 31.2273701,29.9574032 C30.9507322,29.6831822 30.755738,29.3843308 30.6423875,29.0608489 C30.529037,28.7373671 30.4742406,28.3703807 30.4779984,27.9598898 C30.4819309,27.5303063 30.546023,27.1359534 30.6702747,26.7768311 C30.7945264,26.4177088 30.9787847,26.1105231 31.2230497,25.855274 C31.4673147,25.600025 31.7785439,25.3990335 32.1567371,25.2522998 C32.5349303,25.105566 32.9845876,25.0297522 33.505709,25.0248584 C33.9896074,25.0203142 34.4191675,25.1069623 34.7943896,25.2848027 C35.1696116,25.4626432 35.4859517,25.7197868 35.7434101,26.0562335 C36.0008684,26.3926803 36.1971841,26.8012923 36.332357,27.2820696 C36.4675299,27.762847 36.5323636,28.3039441 36.5268581,28.905361 L36.5268581,28.905361 L39.8629652,28.8740319 C39.8717916,27.9098556 39.7610958,27.0422565 39.530878,26.2712347 C39.3006602,25.5002128 38.9647916,24.8351833 38.5232721,24.2761463 C38.0817526,23.7171093 37.5438662,23.2663639 36.9096129,22.9239101 C36.2753595,22.5814563 35.5539575,22.356753 34.745407,22.2498003 L34.745407,22.2498003 L34.7742454,19.0995213 L32.5408682,19.1204947 L32.512292,22.2421348 C31.7018189,22.3452007 30.9671568,22.5525549 30.3083058,22.8641974 C29.6494548,23.1758399 29.087462,23.5796413 28.6223274,24.0756015 C28.1571928,24.5715618 27.7959613,25.1524555 27.5386328,25.8182829 C27.2813043,26.4841103 27.1489698,27.2179685 27.1416291,28.0198578 C27.1335019,28.9076637 27.2659876,29.6819897 27.5390862,30.3428359 C27.8121848,31.003682 28.2070008,31.5822486 28.7235342,32.0785356 C29.2400676,32.5748225 29.864185,33.0080536 30.5958865,33.3782287 C31.3275879,33.7484038 32.1480216,34.0819501 33.0571875,34.3788675 C33.6972734,34.5924026 34.2395399,34.8187881 34.683987,35.058024 C35.128434,35.29726 35.4889546,35.5563751 35.7655487,35.8353693 C36.0421429,36.1143634 36.2417244,36.4203309 36.3642932,36.7532716 C36.4868621,37.0862124 36.5463113,37.4531551 36.542641,37.8540997 C36.5345138,38.7419056 36.2348944,39.4534711 35.6437828,39.9887963 C35.0526712,40.5241214 34.2080768,40.79694 33.1099997,40.8072519 C32.6819357,40.8112718 32.2590708,40.7555837 31.841405,40.6401874 C31.4237391,40.5247912 31.0487356,40.323085 30.7163944,40.0350689 C30.3840532,39.7470527 30.1154214,39.3605971 29.9104992,38.8757021 C29.7055769,38.390807 29.606524,37.7760538 29.6133403,37.0314424 L29.6133403,37.0314424 L26.2772332,37.0627714 C26.2670086,38.1796885 26.4210983,39.1351758 26.7395021,39.9292332 C27.057906,40.7232907 27.4845929,41.3779218 28.019563,41.8931266 C28.5545332,42.4083313 29.1697162,42.801078 29.8651123,43.0713665 C30.5605084,43.341655 31.2847393,43.5114452 32.037805,43.5807371 L32.037805,43.5807371 L32.0125058,46.3443909 L34.2319244,46.3235486 Z" id="$" fill="#FFFFFF" fill-rule="nonzero" transform="translate(33.078061, 32.721956) rotate(-18.000000) translate(-33.078061, -32.721956) "></path>
        </g>
    </g>
</svg>