<?xml version="1.0" encoding="UTF-8"?>
<svg width="500px" height="432px" viewBox="0 0 500 432" version="1.1" xmlns="http://www.w3.org/2000/svg" xmlns:xlink="http://www.w3.org/1999/xlink">
    <!-- Generator: Sketch 63.1 (92452) - https://sketch.com -->
    <title>5_PL_OaO"Security" 1</title>
    <desc>Created with Sketch.</desc>
    <defs>
        <linearGradient x1="50%" y1="100%" x2="50%" y2="0%" id="linearGradient-1">
            <stop stop-color="#FFFFFF" offset="0%"></stop>
            <stop stop-color="#ECF3FA" offset="100%"></stop>
        </linearGradient>
        <filter x="0.0%" y="0.0%" width="100.0%" height="100.0%" filterUnits="objectBoundingBox" id="filter-2">
            <feGaussianBlur stdDeviation="0" in="SourceGraphic"></feGaussianBlur>
        </filter>
    </defs>
    <g id="5_PL_OaO&quot;Security&quot;-1" stroke="none" stroke-width="1" fill="none" fill-rule="evenodd">
        <g id="Background" transform="translate(249.000000, 216.000000) scale(-1, 1) translate(-249.000000, -216.000000) ">
            <path d="M206.659342,430.278286 C343.249511,444.672455 498,367.868209 498,235.248915 C498,102.629622 342.847656,-67.8828125 214.078125,28.875 C85.3085937,125.632813 -2,145 0.174744901,250.858481 C2.3494898,356.716961 70.0691732,415.884117 206.659342,430.278286 Z" id="Oval" fill-opacity="0.15" fill="#D8E5F0"></path>
            <path d="M2.37402344,278.877241 C17.7076698,274.035656 46.5829954,271.159257 89,270.248047 C131.417005,269.336836 265.816744,272.213235 492.199219,278.877241 C486.586789,297.055298 481.658403,309.818223 477.414063,317.166016 C463.711382,340.888064 446.878987,358.419246 436.679688,367.595703 C418.906259,383.586715 380.503517,405.831936 346.845703,417.526367 C328.64867,423.848939 296.446763,430.829801 228.463838,431.935599 C200.973231,432.382757 109.92304,421.839213 61.09375,390.828125 C35.03125,374.276042 15.4580078,336.95908 2.37402344,278.877241 Z" id="Path-8" fill="url(#linearGradient-1)" filter="url(#filter-2)"></path>
            <g id="Tree" transform="translate(442.000000, 221.000000)">
                <ellipse id="Oval" fill="#E0E7ED" cx="24" cy="81.5" rx="15" ry="1"></ellipse>
                <polygon id="Rectangle" fill="#E8F0F8" points="22 58 26 58 26 81 22 81"></polygon>
                <path d="M16.0553803,50.6393816 C22.4613059,50.6428833 27.6514944,45.4494153 27.6479927,39.0394442 C27.6444874,32.6294732 22.4486185,27.4303248 16.042693,27.426819 C11.5295691,27.4243522 8.03014218,29.4628148 5.54441226,33.5422069 L12.1499623,38.2522641 L4.72658341,36.4901307 C4.54193192,37.6003116 4.44976465,38.4458537 4.45008161,39.0267569 C4.45358594,45.4367279 9.64945479,50.6358763 16.0553803,50.6393816 Z" id="Oval" fill="#E8F0F8" transform="translate(16.049037, 39.033100) rotate(120.000000) translate(-16.049037, -39.033100) "></path>
                <path d="M17.7662689,47.5522931 C27.0256485,47.53927 42.0148107,31.4832799 42.027777,22.2605922 C42.0407098,13.0379046 34.5449973,5.57198988 25.2856177,5.58498808 C18.7621689,5.59416891 13.698224,8.53698709 10.0937832,14.4134426 L19.6284816,21.1716771 L8.90337515,18.6572349 C8.63335236,20.2550892 8.49775419,21.471919 8.49658064,22.3077244 C8.48363111,31.5304121 8.5068893,47.5653004 17.7662689,47.5522931 Z" id="Oval" fill="#E8F0F8" transform="translate(25.261762, 26.568641) scale(-1, 1) rotate(-27.000000) translate(-25.261762, -26.568641) "></path>
                <path d="M24.932543,68.7990017 C34.1620411,68.7930641 41.6488375,61.2876801 41.6547743,52.0352539 C41.660704,42.7828277 34.1835273,35.2870647 24.9540292,35.2929952 C18.4516326,35.2971782 13.4062499,38.2455886 9.81788133,44.1382263 L17.6915887,50.3720671 L8.63452296,48.3947915 C8.36657965,49.997592 8.23233796,51.2182425 8.23179791,52.056743 C8.22586819,61.3091692 15.7030449,68.8049322 24.932543,68.7990017 Z" id="Oval" fill="#E8F0F8" transform="translate(24.943286, 52.045998) scale(-1, 1) rotate(77.000000) translate(-24.943286, -52.045998) "></path>
            </g>
            <g id="Tree" transform="translate(39.500000, 262.000000) scale(-1, 1) translate(-39.500000, -262.000000) translate(22.000000, 233.000000)">
                <ellipse id="Oval" fill="#E0E7ED" cx="18.5" cy="57" rx="10.5" ry="1"></ellipse>
                <polygon id="Rectangle" fill="#E8F0F8" points="17 41 19 41 19 58 17 58"></polygon>
                <path d="M11.3197238,35.3279306 C15.7919792,35.3483166 19.4008625,31.7202699 19.3804769,27.2243751 C19.3599179,22.7284804 15.7178425,19.0672415 11.2455871,19.0466604 C8.09477892,19.0323097 5.65741471,20.4522601 3.9334945,23.3065114 L8.55835207,26.6286713 L3.37082409,25.3718536 C3.24503322,26.1500034 3.18305195,26.7427983 3.18488028,27.1502384 C3.20539301,31.6461332 6.8474684,35.3073721 11.3197238,35.3279306 Z" id="Oval" fill="#E8F0F8" transform="translate(11.282679, 27.187295) rotate(120.000000) translate(-11.282679, -27.187295) "></path>
                <path d="M12.5802779,33.1355015 C19.0773127,33.1507286 29.5526423,21.985323 29.5375161,15.5492406 C29.522357,9.11315823 24.2431941,3.88332596 17.7461593,3.86804112 C13.1688468,3.85733041 9.62333778,5.89770301 7.10963225,9.9891589 L13.8176401,14.7304883 L6.2855024,12.9475914 C6.10023208,14.0619556 6.00827802,14.9107725 6.00964024,15.494042 C6.02479803,21.9301244 6.08324312,33.1202433 12.5802779,33.1355015 Z" id="Oval" fill="#E8F0F8" transform="translate(17.773578, 18.501771) scale(-1, 1) rotate(-27.000000) translate(-17.773578, -18.501771) "></path>
                <path d="M17.5041177,48.0231196 C23.9356741,48.0057689 29.1635096,42.7211961 29.1808583,36.2196533 C29.1981207,29.7181105 23.9983431,24.4615997 17.5667867,24.4788652 C13.0356052,24.4910875 9.51554847,26.5700847 7.00661636,30.7158566 L12.4845116,35.0850701 L6.17593736,33.7085625 C5.98694025,34.8352067 5.89164319,35.6931296 5.89004616,36.2823315 C5.87278368,42.7838743 11.0725614,48.0403851 17.5041177,48.0231196 Z" id="Oval" fill="#E8F0F8" transform="translate(17.535452, 36.250992) scale(-1, 1) rotate(77.000000) translate(-17.535452, -36.250992) "></path>
            </g>
        </g>
        <path d="M236.298273,387.229482 C210.404245,390.296432 179.058592,393.07769 191.311158,394.730046 C213.844619,397.768863 224.846691,397.472988 258.447104,397.326315 C276.244646,397.248625 293.568046,393.449288 309.782997,392.299677 C322.553088,391.3943 263.760324,383.976811 236.298273,387.229482 Z" id="Oval" fill="#E0E7ED" transform="translate(250.073253, 391.909872) scale(-1, 1) translate(-250.073253, -391.909872) "></path>
        <g id="Guy-on-phone" transform="translate(176.000000, 72.000000)">
            <path d="M58.3391158,320.186739 C64.0814284,319.547953 66.8581166,318.051781 66.8581166,315.5665 C66.8581166,313.081218 61.7093912,311.0665 55.3581166,311.0665 C49.006842,311.0665 43.3093736,312.563965 43.3093736,315.049246 C43.3093736,316.206979 45.5478517,318.81223 47.3469659,319.769919 C49.4099747,320.868083 55.0854717,320.54868 58.3391158,320.186739 Z" id="Oval" fill="#313050" transform="translate(55.083745, 315.796492) rotate(-11.000000) translate(-55.083745, -315.796492) "></path>
            <path d="M56.8288129,308.285562 C48.0585953,311.354248 43.9998465,313.771686 44.6525664,315.537874 C45.3052863,317.304063 46.5847989,317.604235 48.4911041,316.43839 C47.0464427,317.842774 47.2507133,318.791093 49.1039158,319.283347 C50.8278302,319.741259 51.0993099,319.477247 55.3586653,317.885249 C57.9675008,316.910157 65.4231903,314.814422 65.7862508,313.908891 C66.423462,312.319583 66.757268,307.683286 66.7876687,300 L56.8288129,300 L56.8288129,308.285562 Z" id="Path-145" fill="#FDE2BF"></path>
            <path d="M96.3142569,327.422525 C102.05657,326.783739 106.734303,325.330876 106.488025,322.04862 C106.241748,318.766363 102.89094,316.260673 96.5396649,316.260673 C90.1883903,316.260673 87.8041866,317.664678 87.8041866,320.149959 C87.8041866,321.307691 88.4251849,326.197979 90.2242992,327.155668 C92.2873079,328.253832 93.0606129,327.784466 96.3142569,327.422525 Z" id="Oval" fill="#313050" transform="translate(97.150756, 322.049938) rotate(-66.000000) translate(-97.150756, -322.049938) "></path>
            <path d="M93.5122063,314.195114 C90.4899079,323.000211 89.5881928,327.610476 90.8070611,328.025909 C92.0259294,328.441343 93.229175,327.625373 94.4167979,325.578001 C93.4099313,328.035597 94.2315529,329.158538 96.8816626,328.946822 C100.856827,328.629248 101.249175,322.621027 101.908138,320.295611 C102.347447,318.745334 102.605865,314.427996 102.683393,307.343598 L93.5122063,307 L93.5122063,314.195114 Z" id="Path-145" fill="#FDE2BF"></path>
            <path d="M93.9332111,321.972066 C93.3544769,322.176042 95.4864685,323.344154 100.329186,325.476402 L104.085404,323.265102 C97.8960097,322.199101 94.5119453,321.768089 93.9332111,321.972066 Z" id="Path-66" fill="#313050" transform="translate(98.962973, 323.699662) rotate(-43.000000) translate(-98.962973, -323.699662) "></path>
            <path d="M91.3313218,325.946067 C90.9513189,326.204413 91.1489185,321.77621 91.5957365,320.823645 C91.8936151,320.188601 92.9132587,319.712866 94.6546672,319.396438 C92.6924389,323.590627 91.5846571,325.773837 91.3313218,325.946067 Z" id="Path-67" fill="#313050" transform="translate(92.892382, 322.676682) rotate(-49.000000) translate(-92.892382, -322.676682) "></path>
            <path d="M32.359785,152.325938 L24.2190976,167.871584 C25.0553328,176.35834 26.2829774,180.129093 27.9020314,179.183843 C30.3306124,177.765968 27.9020314,171.370932 31.6422606,167.871584 C32.0139049,166.098229 31.6403485,176.875338 33.8656665,173.41237 C35.3492117,171.103724 37.1336888,165.396286 39.2190976,156.290056 L32.359785,152.325938 Z" id="Male-R-hand" fill="#FDE2BF" transform="translate(31.719098, 165.825938) rotate(-41.000000) translate(-31.719098, -165.825938) "></path>
            <path d="M37,138 L71.1941111,141.530637 L67.3663856,304.519798 L56.4546517,304.519798 C45.4538511,274.527791 38.3023005,249.687859 35,230 C31.6976995,210.312141 32.3643662,179.645475 37,138 Z" id="Rectangle" fill="#00424D"></path>
            <path d="M54,141.019697 L106,137 C106.978601,167.566594 107.409825,193.916847 107.293672,216.050759 C107.17752,238.184671 105.8511,270.167751 103.314412,312 L92.8923817,312 L54,141.019697 Z" id="Rectangle" fill="#00424D"></path>
            <path d="M47.9922448,93.0838346 C59.2645349,107.771817 64.2802939,128.221692 63.0395218,154.433457 L50.6205699,155.775021 L35.0424752,106.495806 C19.0152441,78.4066484 10.9736785,60.7936669 10.9177783,53.6568611 C10.8948219,50.6807483 31.0838095,71.0518605 47.9922448,93.0838346 Z" id="Path-22" fill="#F9C071" transform="translate(37.070925, 104.570737) scale(-1, 1) rotate(12.000000) translate(-37.070925, -104.570737) "></path>
            <g id="newspaper" transform="translate(38.000000, 119.500000) scale(-1, 1) translate(-38.000000, -119.500000) translate(11.000000, 102.000000)">
                <polygon id="Rectangle" fill="#E8F0F8" points="0 2.01916355 54 0 54 35 0 32.9808365"></polygon>
                <path d="M42.5,3.51638959 L32.5,3.83897958 L32.5,17.4717716 L42.5,17.4986541 L42.5,3.51638959 Z" id="Rectangle" stroke="#C9CBD9" fill="#C9CBD9"></path>
                <path d="M43,3 L43,18 L32,17.9704293 L32,3.35484899 L43,3 Z M42,4.032 L33,4.323 L33,16.973 L42,16.997 L42,4.032 Z" id="Rectangle-Copy-3" fill="#C9CBD9" fill-rule="nonzero"></path>
                <polygon id="Path-20" fill="#C9CBD9" fill-rule="nonzero" points="51 2 51 32 48 32 48 2"></polygon>
                <polygon id="Path-21" fill="#C9CBD9" fill-rule="nonzero" points="44 22 44 32 42 32 42 22"></polygon>
                <polygon id="Path-21" fill="#C9CBD9" fill-rule="nonzero" points="41 22 41 32 39 32 39 22"></polygon>
                <polygon id="Path-21" fill="#C9CBD9" fill-rule="nonzero" points="37 22 37 32 35 32 35 22"></polygon>
            </g>
            <polygon id="Path" fill="#F5AB44" transform="translate(38.073077, 90.899236) scale(-1, 1) translate(-38.073077, -90.899236) " points="42.4926008 102.798471 33.6535534 79 36.6498078 102.798471"></polygon>
            <polygon id="Path" fill="#F5AB44" transform="translate(34.493696, 146.736607) scale(-1, 1) translate(-34.493696, -146.736607) " points="34.5240509 157.473214 35.9873915 136.301712 33 136"></polygon>
            <path d="M115.753475,167.680393 L107.612788,183.226039 C108.449023,191.712795 109.676667,195.483548 111.295721,194.538298 C113.724302,193.120423 111.295721,186.725387 115.035951,183.226039 C115.407595,181.452683 115.034039,192.229793 117.259356,188.766825 C118.742902,186.458179 120.527379,180.750741 122.612788,171.644511 L115.753475,167.680393 Z" id="Male-R-hand" fill="#FDE2BF" transform="translate(115.112788, 181.180393) scale(-1, 1) rotate(-27.000000) translate(-115.112788, -181.180393) "></path>
            <path d="M103.363931,46.9631267 C111.0046,49.8110423 123.209645,82.2882636 128.123856,118.997 C129.681548,130.632827 128.142681,147.97051 123.507257,171.01005 L110.241992,170.998535 C109.175479,147.523168 107.761482,130.189323 106,118.997 C99.1953054,75.7604836 96.4399027,46.9631267 103.363931,46.9631267 Z" id="Path-2" fill="#F9C071"></path>
            <path d="M59,42.7300737 C60.7717976,46.7836581 62.8056801,48.9685178 65.1016473,49.2846529 C67.3976146,49.600788 71.3746591,48.3326089 77.032781,45.4801155 L76.5177183,38.8736458 C79.4119582,40.0593138 82.0946364,38.6959985 84.5657529,34.7836999 C88.2724276,28.9152519 87.6430937,17.6627957 85.8812625,10.4649661 C84.1194312,3.2671364 81.5926168,1.13931774 76.2975798,1.00469752 C71.0025428,0.870077306 67.1770631,3.63523964 64.644985,8.48141732 C62.9569329,11.7122024 62.2301764,17.3110343 62.4647156,25.277913 L62.4647156,19.9018638 C60.3431525,20.2110975 59.282371,21.4053331 59.282371,23.4845707 C59.282371,25.5638082 60.3431525,26.938818 62.4647156,27.6096 L59,42.7300737 Z" id="Path-47" fill="#FDE2BF" transform="translate(73.141185, 25.165982) scale(-1, 1) translate(-73.141185, -25.165982) "></path>
            <polygon id="Path-122" fill="#E2C297" transform="translate(70.917765, 42.054971) scale(-1, 1) translate(-70.917765, -42.054971) " points="69.24959 38.629826 72.0708766 38.8736458 72.5859393 45.4801155"></polygon>
            <path d="M76.365951,8.56331218 C79.2120311,9.17626548 81.8246279,13.674087 84.1898349,12.1313097 C88.0513223,9.61253852 89.6421826,5.31745519 88.7651019,1.11557115 C88.2838808,-1.18984402 85.0217154,3.63716412 82.400837,3.56064901 C80.9323204,3.51777646 80.7185247,0.436406102 79.2865796,0.141984724 C76.0206114,-0.529529072 71.6613399,1.41539347 68.3269857,1.11557115 C67.1865174,1.01302121 58.0119248,1.03265077 56.1429722,8.61397881 C54.2740197,16.1953069 55.0075157,18.6685712 56.1429722,21.2089912 C56.6960108,22.4463351 58.8961075,22.0638 60.039093,21.2089912 C63.9898483,18.2543251 67.6088065,12.1650874 70.8886359,8.61397881 C71.9503174,8.02242888 73.7760891,8.00554 76.365951,8.56331218 Z" id="Path-4" fill="#D8D8D8" transform="translate(72.000000, 11.000000) scale(-1, 1) translate(-72.000000, -11.000000) "></path>
            <path d="M52.1137046,49.0478448 C52.9635823,48.4949592 58.7249777,46.5793119 69.3978908,43.3009028 C70.4531662,46.1288686 72.9872026,47.3496099 77,46.9631267 C83.6666667,46.3210422 87,44.4161177 87,41.2483532 C96.2197307,43.9151582 101.674374,45.8200827 103.363931,46.9631267 C107.207309,49.5633068 108.38106,82.6430829 106.885183,146.202455 C93.2876118,149.07267 82.3364714,150.299742 74.031762,149.883672 C65.7270526,149.467603 52.915843,147.597188 35.5981334,144.272428 C38.2702481,86.2138089 43.7754385,54.4722812 52.1137046,49.0478448 Z" id="Rectangle" fill="#F9C071"></path>
            <path d="M48.4798956,316.314242 C47.9011614,316.518219 49.956671,317.32236 54.6464242,318.726666 L59.7732054,317.072133 C52.8230664,316.362896 49.0586298,316.110265 48.4798956,316.314242 Z" id="Path-66" fill="#313050"></path>
            <path d="M48.4911041,316.43839 C48.1111012,316.658794 48.2278943,312.265296 48.6747122,311.452627 C48.9725909,310.910848 49.7800919,310.571561 51.0972154,310.434764 C49.6131432,314.290246 48.7444394,316.291454 48.4911041,316.43839 Z" id="Path-67" fill="#313050"></path>
        </g>
        <g id="Tick-Copy" transform="translate(325.000000, 151.000000)">
            <path d="M19,0 L81,0 C91.4934102,-7.69491504e-15 100,8.50658975 100,19 L100,81.3191872 C100,91.8125974 91.4934102,100.319187 81,100.319187 L60.9265479,100.319187 L60.9265479,100.319187 L48.8290377,115 L36.2514603,100.319187 L19,100.319187 C8.50658975,100.319187 4.83778581e-15,91.8125974 0,81.3191872 L0,19 C2.26764155e-15,8.50658975 8.50658975,5.48032187e-15 19,0 Z" id="Rectangle" fill="#FFFFFF"></path>
            <path d="M80.2083333,0 C91.138969,0 100,8.73444484 100,19.5089286 L100,80.8102586 C100,91.5847423 91.138969,100.319187 80.2083333,100.319187 L60.9265479,100.319187 L48.8290377,115 L36.2514603,100.319187 L19.7916667,100.319187 C8.86103099,100.319187 0,91.5847423 0,80.8102586 L0,19.5089286 C0,8.73444484 8.86103099,0 19.7916667,0 L80.2083333,0 Z M80.2083333,5.13392857 L19.7916667,5.13392857 C11.846354,5.13392857 5.38507616,11.3970672 5.21189796,19.1879091 L5.20833333,19.5089286 L5.20833333,80.8102586 C5.20833333,88.6420668 11.562242,95.0110407 19.4659948,95.1817449 L19.7916667,95.1852586 L38.6701389,95.1852586 L48.75,106.951027 L58.4470798,95.1852586 L80.2083333,95.1852586 C88.153646,95.1852586 94.6149238,88.92212 94.788102,81.1312781 L94.7916667,80.8102586 L94.7916667,19.5089286 C94.7916667,11.6771203 88.437758,5.3081465 80.5340052,5.13744228 L80.2083333,5.13392857 Z" id="Rectangle-Copy" fill="#FFFFFF" fill-rule="nonzero"></path>
            <polygon id="Path-27" fill="#5E5D87" points="13.6481085 51.5 21.8132914 44.9357867 42.9697508 63.2010758 82.5295833 24 90 32.7418592 42.9697508 80"></polygon>
            <path d="M91,32.452682 L82.7979223,23 L42.9196755,62.5580208 L21.7253424,44.4400264 L13,51.4868815 L42.9543053,80 L91,32.452682 Z M82.7391777,24.5184681 L89.5773252,32.3988241 L42.9395873,78.5531386 L14.5704452,51.5491686 L21.7051744,45.7866904 L42.9737972,63.9675588 L82.7391777,24.5184681 Z" id="Path-27-Copy" fill="#5E5D87" fill-rule="nonzero"></path>
        </g>
        <g id="Tick-Copy-2" transform="translate(67.000000, 209.000000)">
            <path d="M13,0 L57,0 C65.836556,-1.623249e-15 73,7.163444 73,16 L73,57.1489644 C73,66.5378052 65.3888407,74.1489644 56,74.1489644 L44.47638,74.1489644 L44.47638,74.1489644 L35.6451975,85 L26.463566,74.1489644 L17,74.1489644 C7.61115925,74.1489644 1.76657057e-15,66.5378052 0,57.1489644 L0,13 C-8.79259876e-16,5.82029825 5.82029825,-2.23382386e-15 13,0 Z" id="Rectangle" fill="#FFFFFF"></path>
            <path d="M58.5520833,0 C66.5314474,0 73,6.45589401 73,14.4196429 L73,59.7293216 C73,67.6930704 66.5314474,74.1489644 58.5520833,74.1489644 L44.47638,74.1489644 L35.6451975,85 L26.463566,74.1489644 L14.4479167,74.1489644 C6.46855262,74.1489644 0,67.6930704 0,59.7293216 L0,14.4196429 C0,6.45589401 6.46855262,0 14.4479167,0 L58.5520833,0 Z M58.5520833,3.79464286 L14.4479167,3.79464286 C8.64783839,3.79464286 3.9311056,8.42391921 3.80468551,14.1823676 L3.80208333,14.4196429 L3.80208333,59.7293216 C3.80208333,65.5180494 8.44043669,70.2255518 14.2101762,70.3517245 L14.4479167,70.3543216 L28.2292014,70.3543216 L35.5875,79.0507589 L42.6663682,70.3543216 L58.5520833,70.3543216 C64.3521616,70.3543216 69.0688944,65.7250452 69.1953145,59.9665968 L69.1979167,59.7293216 L69.1979167,14.4196429 C69.1979167,8.63091503 64.5595633,3.92341263 58.7898238,3.79723995 L58.5520833,3.79464286 Z" id="Rectangle-Copy" fill="#FFFFFF" fill-rule="nonzero"></path>
            <polygon id="Path-27" fill="#5E5D87" points="9 38.0263814 15.4360352 33.5 30.7366063 45.4381505 59.0691532 18.1188712 65 24 30.7366063 58.4341063"></polygon>
            <path d="M65,23.9651341 L59.1113288,17 L30.4807927,46.1480153 L15.2643484,32.7979142 L9,37.9903338 L30.5056551,59 L65,23.9651341 Z M59.0691532,18.1188712 L63.9785924,23.9254493 L30.4950883,57.9338916 L10.1274991,38.0362295 L15.2498688,33.7901929 L30.5196492,47.1866223 L59.0691532,18.1188712 Z" id="Path-27-Copy" fill="#5E5D87" fill-rule="nonzero"></path>
        </g>
        <g id="Tick-Copy-3" transform="translate(158.000000, 228.000000)">
            <path d="M7,0 L19,0 C23.9705627,8.63279275e-16 28,4.02943725 28,9 L28,19.787245 C28,24.7578078 23.9705627,28.787245 19,28.787245 L17.0594334,28.787245 L17.0594334,28.787245 L13.6721305,33 L10.1504089,28.787245 L9,28.787245 C4.02943725,28.787245 6.08718376e-16,24.7578078 0,19.787245 L0,7 C4.14730794e-16,3.13400675 3.13400675,7.10171439e-16 7,0 Z" id="Rectangle" fill="#FFFFFF"></path>
            <path d="M22.4583333,0 C25.5189113,0 28,2.50640591 28,5.59821429 L28,23.1890307 C28,26.2808391 25.5189113,28.787245 22.4583333,28.787245 L17.0594334,28.787245 L13.6721305,33 L10.1504089,28.787245 L5.54166667,28.787245 C2.48108868,28.787245 0,26.2808391 0,23.1890307 L0,5.59821429 C0,2.50640591 2.48108868,0 5.54166667,0 L22.4583333,0 Z M22.4583333,1.47321429 L5.54166667,1.47321429 C3.31697911,1.47321429 1.50782132,3.27046275 1.45933143,5.50609566 L1.45833333,5.59821429 L1.45833333,23.1890307 C1.45833333,25.4364192 3.23742777,27.2640378 5.45047853,27.3130225 L5.54166667,27.3140307 L10.8276389,27.3140307 L13.65,30.6902946 L16.3651823,27.3140307 L22.4583333,27.3140307 C24.6830209,27.3140307 26.4921787,25.5167823 26.5406686,23.2811494 L26.5416667,23.1890307 L26.5416667,5.59821429 C26.5416667,3.35082584 24.7625722,1.52320726 22.5495215,1.47422257 L22.4583333,1.47321429 Z" id="Rectangle-Copy" fill="#FFFFFF" fill-rule="nonzero"></path>
            <polygon id="Path-27" fill="#5E5D87" points="3.28320312 15.0100501 5.51220703 13.2178955 11.3859805 18.3847887 22.7080078 7.18041992 24.8193359 9.71142578 11.5533447 22.8166504"></polygon>
            <path d="M25,9.65338443 L22.6865935,7 L11.4388828,18.1040058 L5.460994,13.018253 L3,14.9963176 L11.4486502,23 L25,9.65338443 Z M22.6700245,7.42623665 L24.5987327,9.6382664 L11.444499,22.5938635 L3.44294608,15.0138017 L5.4553056,13.396264 L11.4541479,18.4996656 L22.6700245,7.42623665 Z" id="Path-27-Copy" fill="#5E5D87" fill-rule="nonzero"></path>
        </g>
        <g id="House---Left" transform="translate(325.000000, 269.000000)">
            <path d="M47.5554629,68.9095052 C87.2049846,69.4733784 87.2049846,67.26855 92.3012461,65.9918358 C95.6987539,65.1406929 94,64.1434143 87.2049846,63 C80.6945336,63 67.4780264,63 47.5554629,63 C31.7067971,63 17.955181,63 6.30061446,63 C2.10020482,64.2202688 0,64.9683786 0,65.2443293 C0,67.26855 7.90594131,68.345632 47.5554629,68.9095052 Z" id="Oval" fill="#E0E7ED" fill-rule="nonzero"></path>
            <path d="M2,27.5820896 L48.5,0 L95,27.5820896 L89.0638298,27.5820896 L89.0638298,66 L8.92553191,66 L8.92553191,27.5820896 L2,27.5820896 Z" id="Combined-Shape" fill="#C9CBD9"></path>
            <path d="M58,40 L58,65 L42,65 L42,40 L58,40 Z M57,41 L43,41 L43,64 L57,64 L57,41 Z" id="Rectangle" fill="#FFFFFF" fill-rule="nonzero"></path>
            <path d="M35,35 L35,53 L18,53 L18,35 L35,35 Z M34,36 L19,36 L19,52 L34,52 L34,36 Z" id="Rectangle" fill="#FFFFFF" fill-rule="nonzero"></path>
            <path d="M82,35 L82,53 L65,53 L65,35 L82,35 Z M81,36 L66,36 L66,52 L81,52 L81,36 Z" id="Rectangle" fill="#FFFFFF" fill-rule="nonzero"></path>
        </g>
        <path d="M189,287.937092 C189,286.747771 180.852691,285 169.62776,285 C158.402828,285 151.670963,286.393105 156.682502,287.937092 C161.694041,289.48108 168.766888,290.06828 176.239764,289.993757 C183.315337,289.923197 189,289.126413 189,287.937092 Z" id="Oval" fill="#E0E7ED" transform="translate(172.000000, 287.500000) scale(-1, 1) translate(-172.000000, -287.500000) "></path>
        <g id="Boat" transform="translate(160.062197, 266.248047)">
            <path d="M13.3788644,0 L14.9550741,3 L18.7407407,3 L18.7407407,11 L4.07407407,11 L4.07407407,3 L7.83007407,3 L9.32202153,0 L13.3788644,0 Z" id="Combined-Shape" fill="#C9CBD9"></path>
            <path d="M16.7407407,4 L16.7407407,11 L5.74074074,11 L5.74074074,4 L16.7407407,4 Z M16.24,4.5 L6.24,4.5 L6.24,10.5 L16.24,10.5 L16.24,4.5 Z" id="Rectangle-Copy-2" fill="#FFFFFF" fill-rule="nonzero"></path>
            <path d="M-1.59872116e-14,12.0112049 L5.28613484,21.7265667 C6.5051192,21.9268127 7.53541983,21.9268127 8.37703673,21.7265667 C9.21865363,21.5263207 10.2433851,21.2179682 11.4512313,20.8015092 C12.6737666,21.1734094 13.6474492,21.431691 14.372279,21.576354 C15.0971088,21.7210169 16.1250943,21.8622323 17.4562355,22 L22.8148148,12.0112049 L11.4512313,7 L-1.59872116e-14,12.0112049 Z" id="Path-31" fill="#C9CBD9"></path>
            <path d="M20.8445702,19.6339652 C21.0467257,19.4458488 21.3631035,19.4572296 21.55122,19.659385 C21.7393364,19.8615405 21.7279556,20.1779183 21.5258001,20.3660348 C20.0071648,21.7792062 18.4701706,22.499998 16.9204582,22.499998 C15.5527052,22.499998 13.822292,22.2026638 11.7219662,21.6109549 L11.428,21.526 L11.1445506,21.6311133 C9.66224951,22.157438 8.1555229,22.4448969 6.62608439,22.4928123 L6.16657319,22.499998 C4.24882924,22.499998 2.60460408,21.7751838 1.26436629,20.3414421 C1.07579304,20.1397127 1.08645818,19.8233099 1.28818756,19.6347367 C1.48991693,19.4461634 1.80631972,19.4568286 1.99489297,19.6585579 C3.14741065,20.8914829 4.52781452,21.499998 6.16657319,21.499998 C7.72634238,21.499998 9.26119028,21.2341929 10.7733416,20.7016991 L11.3851275,20.4722351 L11.548583,20.5203444 C13.7716847,21.1746632 15.5652832,21.499998 16.9204582,21.499998 C18.1913707,21.499998 19.4975277,20.8874604 20.8445702,19.6339652 Z" id="Path-33" fill="#FFFFFF" fill-rule="nonzero"></path>
        </g>
        <path d="M148,343.461603 C148,340.845096 126.67322,337 97.2903117,337 C67.9074033,337 50.2857564,340.06483 63.4041965,343.461603 C76.5226366,346.858375 95.036853,348.150216 114.598207,347.986266 C133.119558,347.831032 148,346.078109 148,343.461603 Z" id="Oval" fill="#E0E7ED" transform="translate(103.500000, 342.500000) scale(-1, 1) translate(-103.500000, -342.500000) "></path>
        <g id="Car" transform="translate(72.738095, 300.000000)">
            <path d="M47.0346616,1.52766688e-13 C48.698925,1.55125503e-13 50.1893031,1.03048658 50.7769804,2.58753768 L55.478,15.044 L55.5792881,15.0447761 C58.0288324,16.7538577 59.5897048,18.3115234 60.2619053,19.7177734 C60.9341058,21.1240234 60.9341058,26.8847656 60.2619053,37 L59.2619053,37 C59.9181553,43.2563536 57.84869,46.3845304 53.0535094,46.3845304 C48.343957,46.3845304 46.2158498,43.3670767 46.669188,37.3321693 L46.6964756,37 L13.8805576,37 C14.5368076,43 12.4673423,46 7.6721617,46 C2.96578072,46 0.709743986,43.1100823 0.904051509,37.3302469 L0.917667005,37 L0.261905286,37 C-0.275621423,26.5014496 0.0142548788,20.5183766 1.13153419,19.0507813 C2.24881351,17.5831859 3.69835778,16.2478508 5.480167,15.0447761 L5.624,15.044 L10.7818997,2.48096188 C11.3980425,0.980052599 12.8597855,1.53952907e-13 14.4822406,1.52766688e-13 L47.0346616,1.52766688e-13 Z" id="Combined-Shape" fill="#C9CBD9"></path>
            <path d="M41.9734437,8.2679558 C46.4101068,8.2679558 49.0758541,10.5363422 49.8424511,14.9593897 C49.8896087,15.2314757 49.7072683,15.4902737 49.4351823,15.5374313 C49.1630963,15.5845889 48.9042983,15.4022485 48.8571407,15.1301625 C48.1732169,11.1841163 45.9213961,9.2679558 41.9734437,9.2679558 C38.0205437,9.2679558 35.7036421,11.1911871 34.9018288,15.1441708 C34.8469346,15.414802 34.5830442,15.5896914 34.312413,15.5347972 C34.0417818,15.4799031 33.8668924,15.2160127 33.9217865,14.9453815 C34.8175393,10.5292714 37.5417284,8.2679558 41.9734437,8.2679558 Z" id="Path-34" fill="#FFFFFF" fill-rule="nonzero"></path>
            <path d="M16.2619053,24 C16.81419,24 17.2619053,24.4477153 17.2619053,25 L17.2619053,30 C17.2619053,30.5522847 16.81419,31 16.2619053,31 L8.26190529,31 C7.70962054,31 7.26190529,30.5522847 7.26190529,30 L7.26190529,25 C7.26190529,24.4477153 7.70962054,24 8.26190529,24 L16.2619053,24 Z M16.2619053,25 L8.26190529,25 L8.26190529,30 L16.2619053,30 L16.2619053,25 Z" id="Rectangle" fill="#FFFFFF" fill-rule="nonzero"></path>
            <path d="M52.2619053,24 C52.81419,24 53.2619053,24.4477153 53.2619053,25 L53.2619053,30 C53.2619053,30.5522847 52.81419,31 52.2619053,31 L44.2619053,31 C43.7096205,31 43.2619053,30.5522847 43.2619053,30 L43.2619053,25 C43.2619053,24.4477153 43.7096205,24 44.2619053,24 L52.2619053,24 Z M52.2619053,25 L44.2619053,25 L44.2619053,30 L52.2619053,30 L52.2619053,25 Z" id="Rectangle" fill="#FFFFFF" fill-rule="nonzero"></path>
            <path d="M35.8772899,24 C36.705717,24 37.3772899,24.6715729 37.3772899,25.5 C37.3772899,26.2796961 36.7824018,26.9204487 36.0217499,26.9931334 L35.8772899,27 L23.2829014,27 C22.4544743,27 21.7829014,26.3284271 21.7829014,25.5 C21.7829014,24.7203039 22.3777895,24.0795513 23.1384414,24.0068666 L23.2829014,24 L35.8772899,24 Z" id="Path-36" fill="#FFFFFF" fill-rule="nonzero"></path>
            <path d="M35.8772899,28 C36.705717,28 37.3772899,28.6715729 37.3772899,29.5 C37.3772899,30.2796961 36.7824018,30.9204487 36.0217499,30.9931334 L35.8772899,31 L23.2829014,31 C22.4544743,31 21.7829014,30.3284271 21.7829014,29.5 C21.7829014,28.7203039 22.3777895,28.0795513 23.1384414,28.0068666 L23.2829014,28 L35.8772899,28 Z" id="Path-36" fill="#FFFFFF" fill-rule="nonzero"></path>
        </g>
        <polygon id="Path-68" fill="#00323B" points="245.655237 282.640311 241.201448 272.220248 244.952334 303.555331"></polygon>
        <polygon id="Path-69" fill="#F5AB44" points="283.312158 199.535563 280.710639 151 278.583702 218.736607 283.312158 218.736607"></polygon>
    </g>
</svg>