<?xml version="1.0" encoding="UTF-8"?>
<svg width="500px" height="432px" viewBox="0 0 500 432" version="1.1" xmlns="http://www.w3.org/2000/svg" xmlns:xlink="http://www.w3.org/1999/xlink">
    <!-- Generator: Sketch 63.1 (92452) - https://sketch.com -->
    <title>PLC_8.0</title>
    <desc>Created with Sketch.</desc>
    <defs>
        <linearGradient x1="50%" y1="100%" x2="50%" y2="0%" id="linearGradient-1">
            <stop stop-color="#FFFFFF" offset="0%"></stop>
            <stop stop-color="#ECF3FA" offset="100%"></stop>
        </linearGradient>
        <filter x="0.0%" y="0.0%" width="100.0%" height="100.0%" filterUnits="objectBoundingBox" id="filter-2">
            <feGaussianBlur stdDeviation="0" in="SourceGraphic"></feGaussianBlur>
        </filter>
        <path d="M50.6800103,76.0214094 C58.9497616,76.0214094 58.7730402,64.8517161 58.7730402,51.6440386 C58.7730402,38.4363612 58.9788612,29.0214094 50.2523242,29.0214094 C41.5257872,29.0214094 41.7741785,39.6304521 41.7741785,52.8381296 C41.7741785,66.0458071 42.410259,76.0214094 50.6800103,76.0214094 Z" id="path-3"></path>
        <path d="M58.9743728,88.19625 C68.6303223,88.19625 68.4239784,75.0125462 68.4239784,59.4233886 C68.4239784,43.8342311 68.6642997,32.7216667 58.4749968,32.7216667 C48.2856939,32.7216667 48.5757212,45.2436289 48.5757212,60.8327865 C48.5757212,76.421944 49.3184232,88.19625 58.9743728,88.19625 Z" id="path-5"></path>
    </defs>
    <g id="PLC_8.0" stroke="none" stroke-width="1" fill="none" fill-rule="evenodd">
        <g id="Background" transform="translate(250.000000, 216.000000) scale(-1, 1) translate(-250.000000, -216.000000) ">
            <path d="M208.659342,430.278286 C345.249511,444.672455 500,367.868209 500,235.248915 C500,102.629622 400.262305,54.4204125 262.713435,8.49179801 C125.164565,-37.4368165 -19.5335536,111.431821 2.1747449,250.858481 C23.8830434,390.28514 72.0691732,415.884117 208.659342,430.278286 Z" id="Oval" fill-opacity="0.15" fill="#D8E5F0"></path>
            <path d="M13.0605469,301 C124.531531,266.722363 224.622926,249.583545 313.334732,249.583545 C402.046537,249.583545 459.800104,266.722363 486.595432,301 C469.211424,330.893329 453.050381,352.559996 438.112305,366 C420.338876,381.991012 388.995705,400.704982 355.337891,412.399414 C337.140857,418.721986 298.446763,430.829801 230.463838,431.935599 C202.973231,432.382757 111.196433,421.950786 63.09375,390.828125 C41.5909978,376.915744 24.9132635,346.973035 13.0605469,301 Z" id="Path-8" fill="url(#linearGradient-1)" filter="url(#filter-2)"></path>
            <g id="Tree" transform="translate(439.000000, 239.000000)">
                <ellipse id="Oval" fill="#E0E7ED" cx="20" cy="66.5" rx="12" ry="1"></ellipse>
                <polygon id="Rectangle" fill="#E8F0F8" points="18 47 21 47 21 66 18 66"></polygon>
                <path d="M13.182437,41.3820835 C18.419003,41.3943365 22.6541239,37.147721 22.6418709,31.8969758 C22.6295647,26.6462305 18.3745346,22.3797058 13.1379686,22.3673927 C9.44868574,22.3587638 6.59105329,24.0234446 4.56507125,27.3614352 L9.97173494,31.2293905 L3.90086254,29.7750313 C3.75154887,30.6841669 3.67744433,31.376659 3.67854894,31.8525074 C3.69084089,37.1032527 7.94587098,41.3697773 13.182437,41.3820835 Z" id="Oval" fill="#E8F0F8" transform="translate(13.160210, 31.874738) rotate(120.000000) translate(-13.160210, -31.874738) "></path>
                <path d="M14.6151859,38.8390241 C22.2013853,38.8410925 34.4599861,25.7389896 34.4579402,18.2012412 C34.4558943,10.6634928 28.304406,4.55126367 20.7182066,4.54919458 C15.3735522,4.54773778 11.2286962,6.94597013 8.28363855,11.7438916 L16.1046986,17.2805268 L7.31415965,15.2107388 C7.09512235,16.5163056 6.98569633,17.5106429 6.98588158,18.1937508 C6.98792773,25.7314991 7.02898643,38.8369557 14.6151859,38.8390241 Z" id="Oval" fill="#E8F0F8" transform="translate(20.721911, 21.694109) scale(-1, 1) rotate(-27.000000) translate(-20.721911, -21.694109) "></path>
                <path d="M20.4322633,56.2357722 C27.9707314,56.224028 34.0913728,50.0653348 34.1031153,42.4799291 C34.1148242,34.8945235 28.0131939,28.7548442 20.4747259,28.7665548 C15.1636994,28.7748282 11.0405427,31.1957747 8.10525581,36.0293941 L14.5317024,41.1342191 L7.13554818,39.5199268 C6.91550586,40.8341473 6.80494775,41.834971 6.80387386,42.5223979 C6.79216502,50.1078035 12.8937953,56.2474828 20.4322633,56.2357722 Z" id="Oval" fill="#E8F0F8" transform="translate(20.453495, 42.501164) scale(-1, 1) rotate(77.000000) translate(-20.453495, -42.501164) "></path>
            </g>
            <g id="Tree" transform="translate(31.536585, 289.000000) scale(-1, 1) translate(-31.536585, -289.000000) translate(23.036585, 275.000000)">
                <ellipse id="Oval" fill="#E0E7ED" cx="9.03658537" cy="27.5" rx="5" ry="1"></ellipse>
                <polygon id="Rectangle" fill="#E8F0F8" points="8.03658537 20 9.03658537 20 9.03658537 28 8.03658537 28"></polygon>
                <path d="M5.50847017,17.0729408 C7.67082085,17.0885932 9.4110637,15.3336987 9.39541137,13.1532742 C9.37975905,10.9728498 7.61413876,9.19257786 5.45178809,9.17692554 C3.92836162,9.16589811 2.7517193,9.85140202 1.92186111,11.2334373 L4.16222019,12.8505221 L1.65245466,12.2343573 C1.59263099,12.6115797 1.56341197,12.8989913 1.56479761,13.0965922 C1.58049922,15.2770166 3.3461195,17.0572885 5.50847017,17.0729408 Z" id="Oval" fill="#E8F0F8" transform="translate(5.480157, 13.124920) rotate(120.000000) translate(-5.480157, -13.124920) "></path>
                <path d="M6.13924256,16.0011385 C9.2910055,16.0162422 14.3592921,10.6317689 14.3442848,7.52075574 C14.3292107,4.40974262 11.7620091,1.87549835 8.61024611,1.86027682 C6.38975562,1.8496707 4.67225055,2.83170399 3.45773088,4.80637667 L6.71748838,7.10620269 L3.06147836,6.23540237 C2.97293511,6.77382866 2.92933468,7.18400948 2.93067708,7.46594482 C2.94574878,10.5769579 2.98747961,15.985971 6.13924256,16.0011385 Z" id="Oval" fill="#E8F0F8" transform="translate(8.637481, 8.930708) scale(-1, 1) rotate(-27.000000) translate(-8.637481, -8.930708) "></path>
                <path d="M8.49446156,23.2166547 C11.600324,23.2040375 14.1283121,20.6346486 14.1409281,17.4777176 C14.15345,14.3207866 11.6458402,11.771779 8.53997773,11.7843035 C6.35182523,11.7931908 4.65061415,12.8049674 3.4363445,14.8196334 L6.0788344,16.9376206 L3.03326402,16.273324 C2.94126588,16.8205051 2.89468161,17.2371439 2.89351118,17.5232406 C2.88098928,20.6801716 5.38859912,23.2291792 8.49446156,23.2166547 Z" id="Oval" fill="#E8F0F8" transform="translate(8.517220, 17.500479) scale(-1, 1) rotate(77.000000) translate(-8.517220, -17.500479) "></path>
            </g>
        </g>
        <path d="M408.102311,337.494447 C408.102311,336.891238 413.595607,336.399324 410.330876,335.74916 C404.961945,334.67995 397.506186,334.891206 386.421238,334.891206 C368.595771,334.891206 359.754719,336.805626 367.713166,338.876531 C375.671613,340.947436 384.132476,340.797934 395.999588,340.697979 C403.006962,340.638957 416.634968,340.70815 420.270321,340 C422.464182,339.572646 408.102311,338.094811 408.102311,337.494447 Z" id="Oval" fill="#E0E7ED" transform="translate(392.635160, 337.810731) scale(-1, 1) translate(-392.635160, -337.810731) "></path>
        <g id="Black-hair-little-girl" transform="translate(372.000000, 227.000000)">
            <path d="M15.9636157,45.4979174 C14.1187498,50.7437724 11.4073298,53.8979353 7.82935552,54.9604061 C4.75285206,56.5155335 3.2065357,57.8076041 3.19040641,58.8366182 C3.16656019,60.3801392 5.63902548,57.7497662 5.97497365,58.3186858 C6.35145232,58.9562428 2.4781303,61.7025185 4.71969167,63.1247541 C7.67314132,64.9986717 10.0169917,62.8257883 11.456952,60.4478587 C12.8969123,58.0699291 18.736279,54.6012689 22.2203059,48.1502105 C25.7043329,41.6991522 26.038136,32.1122021 24.1601809,28.8548833 C22.2822258,25.5975644 21.3730458,24.9757929 18.500358,26.4244598 C16.2932489,27.5374821 18.7309144,37.6291351 15.9636157,45.4979174 Z" id="Fill-3914" fill="#FDE2BF" transform="translate(14.241465, 44.760156) rotate(8.000000) translate(-14.241465, -44.760156) "></path>
            <path d="M17.4700979,77 L26.849083,78 C25.1186541,84.6910575 24.2534396,89.6091154 24.2534396,92.7541737 C24.2534396,95.8992321 24.611193,100.045993 25.3266998,105.194456 L20.9406939,106 C18.2129533,99.4948188 16.849083,94.6614855 16.849083,91.5 C16.849083,88.3385145 17.056088,83.5051812 17.4700979,77 Z" id="Rectangle" fill="#FDE2BF"></path>
            <path d="M29.849083,78 L43.849083,79.7548499 C42.1878712,86.2655236 41.3572654,91.050996 41.3572654,94.111267 C41.3572654,97.1715379 41.2398997,101.244369 41.0051684,106.329759 L36.9700918,107 C34.6470055,101.483767 33.4854623,97.1875222 33.4854623,94.111267 C33.4854623,91.0350118 32.2733359,85.6645894 29.849083,78 Z" id="Rectangle" fill="#FDE2BF"></path>
            <path d="M38.2205054,19.2032504 C38.6338209,23.825738 50.3225504,27.9357339 41.8875236,29.407102 C36.8029807,28.7578961 32.4067023,26.979809 30.6675944,23.7277223 C28.5115,19.6927243 27.1328523,15.2733641 28.261593,11.0957722 C28.4923945,10.2452317 28.8824084,9.35045424 29.8247316,8.86822907 C31.3350604,8.09369225 33.5237066,8.76306631 34.8300549,9.79650892 C38.8688208,8.78826578 37.9722185,16.3901307 38.2205054,19.2032504 Z" id="Fill-3923" fill="#000000" transform="translate(36.398103, 18.969464) rotate(14.000000) translate(-36.398103, -18.969464) "></path>
            <path d="M16,110.292267 C16,108.600599 19.4014086,107.44668 20.4472499,107.167512 C20.6746276,107.106182 20.4023592,105.751729 19.9667259,104.629326 C21.8780911,104.525449 23.5924045,104.103876 25.5021305,104 C25.5021305,104.419551 25.668087,106.296908 26,109.632074 C19.3333333,111.199981 16,111.420045 16,110.292267 Z" id="Fill-3925" fill="#F9C071"></path>
            <path d="M32.1417648,112.51229 C31.0424073,111.27683 36.6959028,109.5 36.7594979,109.5 C37.0014643,109.5 36.254082,106.832483 36.254082,106.305889 C38.2266889,106.192237 39.3693881,106.113652 41.3403032,106 C41.3403032,106.203926 41.5602021,108.155114 42,111.853564 C36.1607483,113.116354 32.8746699,113.335929 32.1417648,112.51229 Z" id="Fill-3925" fill="#F9C071"></path>
            <path d="M18.418966,15.8581014 L29.5979604,19.94023 C29.9252865,26.3203901 29.7978896,30.1344644 29.2157698,31.382453 C28.63365,32.6304416 27.1701625,31.7537529 24.8253071,28.7523869 L17.3584467,26.4376505 C13.5574518,21.2481287 11.7160307,18.0640334 11.8341833,16.8853646 C11.9523359,15.7066957 14.1472635,15.3642747 18.418966,15.8581014 Z" id="Rectangle" fill="#FDE2BF" transform="translate(20.801758, 23.785811) rotate(56.000000) translate(-20.801758, -23.785811) "></path>
            <path d="M34.6946292,41.8132606 C38.2033599,47.6476246 44.2678874,59.5678891 52.8882115,77.5740542 C51.1901899,83.4711771 46.523556,88.1933847 38.8883097,91.7406769 C32.3709147,94.7686217 25.1413523,95.3136634 17.1996227,93.3758019 C14.9984796,84.1231727 13.1257692,76.2511292 11.5814917,69.7596714 C9.97665788,63.013662 29.4315332,33.0617145 34.6946292,41.8132606 Z" id="Fill-3928" fill="#A5D867" transform="translate(32.187966, 67.367423) rotate(15.000000) translate(-32.187966, -67.367423) "></path>
            <path d="M17.8826482,26.4220961 L19.4811472,25.9197962 L19.849083,33 C18.8713421,32.7484396 18.2158639,32.3397417 17.8826482,31.7739065 C17.6748084,31.4209725 18.485883,30.9331906 18.8413001,30.3803602 C19.0256981,30.0935398 18.7061475,28.7741185 17.8826482,26.4220961 Z" id="Path-181" fill="#E7D1B3"></path>
            <path d="M20.069156,29.0116914 C27.1319985,31.3250712 32.4931231,35.1994606 36.1525297,40.6348596 C39.8119363,46.0702586 45.6287767,57.3919279 53.6030509,74.5998676 C52.0132434,80.5775883 47.2606623,85.2319012 39.3453076,88.5628061 C32.5888138,91.4060443 25.5215251,91.4855972 18.1434416,88.8014648 C15.8313264,80.1725333 13.8642021,72.8311255 12.2420687,66.7772414 C10.5563261,60.4859644 10.2479422,39.4038573 10.192179,37.7425594 C10.1550035,36.6350275 10.6409458,35.642389 11.6500057,34.7646442 C11.0713799,36.2869306 11.6798853,36.8075042 13.4755218,36.3263649 C16.795814,35.4366952 18.9936921,32.9984707 20.069156,29.0116914 Z" id="Fill-3928" fill="#00424D" transform="translate(31.896624, 59.884154) rotate(15.000000) translate(-31.896624, -59.884154) "></path>
            <path d="M16.1181264,6.18857828 C15.1512687,5.86489125 14.020302,5.59741618 13.2333581,6.23209379 C12.9846587,6.17181503 12.7337874,6.14740926 12.4975494,6.23443174 C11.8334531,6.4786804 11.1748967,8.66608893 11.0208193,9.49993896 C10.3794883,12.9707539 11.3773434,21.4245688 12.5057415,23.5015073 C13.7000752,25.6998071 17.574742,28.3925918 21.5277118,25.3004366 C23.0357171,24.1208207 23.4672051,20.8141011 23.5146236,18.1680226 C23.573391,14.8722516 23.0922167,11.2261932 21.0874049,8.96183275 C19.7236664,7.42270894 17.8823125,6.77933949 16.1181264,6.18857828 Z" id="Fill-3929" fill="#FDE2BF" transform="translate(17.169366, 16.271975) rotate(14.000000) translate(-17.169366, -16.271975) "></path>
            <path d="M14.2527139,4.05317535 C10.558136,5.26199066 7.67370184,8.83997583 7.21814735,12.1497194 C7.16548145,12.5303606 7.16509884,12.9598471 7.47674228,13.2528818 C7.7862044,13.5390331 8.28667529,13.5907485 8.73748164,13.6244656 C12.1708877,13.8740015 15.6063502,14.1235741 19.0418438,14.3748584 C19.1323279,12.6875902 20.0421503,10.2841116 21.6355392,9.28417702 C23.238753,14.4530369 24.9248198,19.7688223 28.7495483,24.1132327 C31.4942155,21.5425072 33.7047682,18.4283718 34.1533354,14.9610796 C34.6018713,11.4920757 33.0167666,7.65308625 29.5155321,5.60223172 C28.4578895,4.98273879 27.2719535,4.54233452 26.0588536,4.19042386 C22.2231708,3.07471774 17.9472917,2.84436004 14.2527139,4.05317535 Z" id="Fill-3930" fill="#000000" transform="translate(20.709771, 13.678960) rotate(14.000000) translate(-20.709771, -13.678960) "></path>
            <path d="M32.1700473,9.62937511 C33.187618,9.82509824 34.2333996,10.0308828 35.0779655,10.510699 C35.9199471,10.9885562 36.5163131,11.8181475 36.2347263,12.5616327 C35.8486886,13.5770063 33.9949679,13.8949983 32.7045874,13.4150757 C31.4116944,12.9370235 30.6082707,11.9334777 30.019122,10.9451471 C29.2983256,9.72866797 28.7739686,8.39119687 29.0734399,7.10635085 C29.3754595,5.82154921 30.6880169,4.6289903 32.4208134,4.51943683 C32.324384,5.76379535 31.8708296,6.9827953 31.0963313,8.06796661 C32.1545447,7.57725843 33.2914696,7.07260848 34.5556932,7.10801919 C35.8199168,7.1434299 37.1602523,7.97831893 36.9509484,8.9087242 C35.5385861,9.53299063 33.8314854,9.79037229 32.1700473,9.62937511" id="Fill-3931" fill="#F9C071" transform="translate(32.980126, 9.076911) rotate(14.000000) translate(-32.980126, -9.076911) "></path>
        </g>
        <path d="M300.096245,345.247014 C270.378227,327.588164 235.850486,308.162719 219.903529,302.037301 C203.956573,295.911883 184.416237,295.061326 203.294381,307.707628 C222.172525,320.35393 319.286694,383.541347 330.833846,384.303735 C353.092329,390.831106 329.814262,362.905864 300.096245,345.247014 Z" id="Oval" fill="#E0E7ED" transform="translate(267.608989, 341.494023) scale(-1, 1) rotate(-21.000000) translate(-267.608989, -341.494023) "></path>
        <g id="%" transform="translate(264.500609, 224.465101) rotate(2.000000) translate(-264.500609, -224.465101) translate(158.000609, 70.965101)">
            <g id="Top-0" transform="translate(126.910816, 148.470572)">
                <path d="M69.677897,8.94476753 C61.2324416,3.34607541 51.9841405,0.546729342 41.9329937,0.546729342 C31.881847,0.546729342 22.5400232,3.34607541 13.9075225,8.94476753 C5.08777214,17.1080163 0.677896963,29.4292823 0.677896963,45.9085656 C0.677896963,62.3878489 3.90066164,74.6141633 10.346191,82.5875088 C17.7829936,89.7640331 23.8027625,94.1318071 28.4054975,95.6908308 C33.0082326,97.2498546 40.0441271,98.5351541 49.5131813,99.5467293 C34.0964926,73.1691038 28.4773895,51.6806916 32.655872,35.0814926 C36.8343544,18.4822937 49.1750294,9.77005196 69.677897,8.94476753 Z" id="Path-43" fill="#00424D"></path>
                <path d="M50.2560081,100.015555 C76.8962747,100.443355 85.7560081,78.5266021 85.7560081,52.0186347 C85.7560081,25.5106673 78.6544814,4.02171396 50.2560081,4.02171396 C21.8575348,4.02171396 14.7560081,25.5106673 14.7560081,52.0186347 C14.7560081,78.5266021 23.6157415,99.5877563 50.2560081,100.015555 Z" id="Oval" fill="#016E80"></path>
                <mask id="mask-4" fill="white">
                    <use xlink:href="#path-3"></use>
                </mask>
                <use id="Mask" fill="#FFFFFF" xlink:href="#path-3"></use>
                <path d="M38.7557035,28.7760612 C41.7790605,37.1740183 43.5287437,45.1257606 44.0047531,52.6312879 C44.4807625,60.1368152 42.7310793,68.0885574 38.7557035,76.4865146 L62.7310228,80.0042642 C62.9577448,52.2145248 61.6224303,35.1384571 58.7250792,28.7760612 C55.8277282,22.4136652 49.1712696,22.4136652 38.7557035,28.7760612 Z" id="Path-44" fill="#00424D" mask="url(#mask-4)"></path>
            </g>
            <g id="ARROW" transform="translate(98.996345, 153.790603) rotate(7.000000) translate(-98.996345, -153.790603) translate(16.996345, 9.790603)">
                <path d="M163.903823,2.89892183 L163.903823,72.219845 L154.014701,66.6809218 L79.1509482,242.801381 L48.9207006,232.024427 C65.912459,188.687907 79.127576,156.601535 88.5660518,135.765311 C98.0045275,114.929087 111.941435,87.0750948 130.376774,52.2033356 L129.870701,53.1599218 L128.020837,52.1246033 L119.551704,46.1856403 C127.749717,32.6108497 134.485568,23.1995194 139.759259,17.9516495 C145.032949,12.7037796 153.081137,7.6862037 163.903823,2.89892183 L163.903823,2.89892183 Z" id="Combined-Shape" fill="#006273"></path>
                <path d="M130.376774,52.2033356 L48.9207006,232.024427 L36.380164,226.846698 L111.840954,49.8987534 L99.0919123,43.1032682 L147.889709,1.70657518e-13 L163.903823,2.89892183 L120.483348,46.1068059 L130.376774,52.2033356 Z" id="Combined-Shape" fill="#00424D"></path>
                <path d="M17.0188679,252.794431 L70.3962264,278.820086 L74.0862891,209.21741 C58.6254704,217.734568 47.3100845,224.730656 40.1401314,230.205675 C32.9701784,235.680694 25.2630905,243.210279 17.0188679,252.794431 Z" id="Combined-Shape" fill="#006273" transform="translate(45.552579, 244.018748) scale(-1, 1) rotate(-234.000000) translate(-45.552579, -244.018748) "></path>
                <polygon id="Path-51" fill="#00424D" points="35.8559092 215.695841 26.62272 210.347709 26.62272 274.869408 34.2671592 287.639151"></polygon>
            </g>
            <g id="Top-0" transform="translate(2.000000, 47.000000)">
                <path d="M81.242488,9.7965625 C71.2985777,3.26552083 60.409375,0 48.5748798,0 C36.7403845,0 25.7410656,3.26552083 15.5769231,9.7965625 C5.19230769,19.3192361 -6.39488462e-14,33.6923611 -6.39488462e-14,52.9159375 C-6.39488462e-14,72.1395139 3.79457131,86.401875 11.3837139,95.7030208 C20.1400089,104.074651 27.2278494,109.16979 32.6472356,110.988437 C38.0666217,112.807085 46.3508766,114.306426 57.5,115.486458 C39.347969,84.7161699 32.7318832,59.6492949 37.6517428,40.2858333 C42.5716024,20.9223717 57.1018508,10.7592814 81.242488,9.7965625 Z" id="Path-43" fill="#00424D"></path>
                <path d="M57.5,115.486458 C88.9603365,115.986184 99.4230769,90.3845566 99.4230769,59.4197917 C99.4230769,28.4550267 91.0366587,3.353125 57.5,3.353125 C23.9633413,3.353125 15.5769231,28.4550267 15.5769231,59.4197917 C15.5769231,90.3845566 26.0396635,114.986733 57.5,115.486458 Z" id="Oval" fill="#016E80"></path>
                <mask id="mask-6" fill="white">
                    <use xlink:href="#path-5"></use>
                </mask>
                <use id="Mask" fill="#FFFFFF" xlink:href="#path-5"></use>
                <path d="M45.0300481,32.7216667 C48.5719553,42.48626 50.621735,51.7320239 51.179387,60.4589583 C51.737039,69.1858928 49.6872594,78.4316567 45.0300481,88.19625 L73.117488,92.2864583 C73.3830962,59.9743736 71.8187555,40.119443 68.424466,32.7216667 C65.0301765,25.3238903 57.2320372,25.3238903 45.0300481,32.7216667 Z" id="Path-44" fill="#00424D" mask="url(#mask-6)"></path>
            </g>
        </g>
        <path d="M158,335.289341 C158,333.147521 139.806721,330 114.740984,330 C89.6752465,330 73.4066629,331.71889 84.5976371,334.499421 C95.7886114,337.279952 112.818621,339.127348 129.505865,338.993142 C145.305911,338.866071 158,337.431162 158,335.289341 Z" id="Oval" fill="#E0E7ED" transform="translate(119.500000, 334.500000) scale(-1, 1) translate(-119.500000, -334.500000) "></path>
        <g id="Man-standing" transform="translate(69.000000, 125.000000)">
            <path d="M75,148.998456 C73.6666667,147.665122 72.3333333,146.331789 71,144.998456" id="Path-56" stroke="#979797"></path>
            <g id="R-foot" transform="translate(62.000000, 189.998456)">
                <path d="M5.12368671,17.1878649 C4.02461316,17.9288123 4.83175957,19.7800537 5.69889402,20.2160964 C6.16866537,20.4523232 8.9226022,20.2551542 11.413933,19.0232285 C13.547628,17.9681485 18.290886,15.2378741 19.3705276,14.5553925 C21.060476,13.4871132 23.3437342,12.6602316 21.5512591,10.2999862 C19.758784,7.9397408 6.22276026,16.4469175 5.12368671,17.1878649 Z" id="Path-57" fill="#00424D" transform="translate(13.397958, 15.095283) rotate(24.000000) translate(-13.397958, -15.095283) "></path>
                <path d="M5.24958141,13.9391831 C5.70694414,16.7239223 6.99286029,17.8900033 9.10732986,17.4374262 C11.6282279,17.2082877 11.856823,15.7383265 13.4420678,15.017796 C16.1035763,13.8080788 19.3480851,12.7143494 20.1399042,12.2890748 C21.4033456,11.6104986 22.9563454,10.8549554 22.9130152,9.58044643 C22.869685,8.30593749 20.8640365,9.5062432 20.0211183,8.79512236 C19.9398347,8.70937233 14.4540883,8.83584722 12.5806927,8.05927697 C11.241704,7.50423201 10.2556993,6.07058412 9.62267849,3.75833331 L2.19012048,7.06752134 L5.24958141,13.9391831 Z" id="Path-64" fill="#FFDBAC" transform="translate(12.552011, 10.645333) rotate(24.000000) translate(-12.552011, -10.645333) "></path>
                <path d="M19.5773434,10.5953749 C19.3026576,10.371188 19.0855324,10.3054463 18.9259679,10.3981496 C15.6525278,12.299944 12.82123,16.8037141 12.458034,17.211558 C11.8734058,17.8680549 13.0010273,17.4355171 15.0032627,16.6196165 C15.7359124,15.7775515 17.260606,13.7694709 19.5773434,10.5953749 Z" id="Path-54" fill="#016E80" transform="translate(15.940607, 13.944360) rotate(24.000000) translate(-15.940607, -13.944360) "></path>
            </g>
            <g id="L-foot" transform="translate(29.000000, 192.998456)">
                <path d="M1.27521921,11.6054639 C-0.0403844616,11.5747344 -0.299272418,15.0812984 0.320334007,15.9452608 C0.65600669,16.4224487 2.38913173,17.3472333 5.52784834,18.6140883 C7.56111606,19.4347599 14.9010556,21.758357 17.5162803,20.7514057 C18.8636356,20.2326277 20.7559296,18.5675899 19.68448,17.0352562 C17.0230557,13.2290202 2.59082288,11.621979 1.27521921,11.6054639 Z" id="Path-57" fill="#00424D"></path>
                <path d="M1.15141695,6.58698547 C1.14000388,10.0285306 1.14000388,12.2256392 1.15141695,13.1783114 C1.16956085,14.6928203 3.60327703,15.0138468 4.54242107,15.4374772 C7.22806444,16.648921 11.6435444,19.8518817 16.3093967,19.2727457 C16.932156,19.1954474 17.9430654,18.3322042 18.0596175,17.9920154 C18.2810538,17.3456938 17.7420698,16.9205373 18.0596175,17.0318804 C19.7421247,17.6218251 19.641875,15.7795298 18.988859,15.4374772 C18.335843,15.0954246 11.1480795,10.7846512 10.0131189,9.72560956 C8.87815836,8.66656788 9.60101183,2.65103658 10.0131189,0 L1.15141695,0 L1.15141695,6.58698547 Z" id="Path-64" fill="#FFDBAC"></path>
                <path d="M18.2857143,17.0014883 C17.7667159,16.783578 17.5556695,16.5645265 17.3945333,16.579692 C14.0888501,16.8685105 9.82174603,18.763804 9.38466019,18.8845169 C8.68109329,19.0722841 9.55554315,19.1731715 11.453421,19.3421053 C12.3420357,19.0757749 14.5334528,18.4314821 18.2857143,17.0014883 Z" id="Path-54" fill="#016E80"></path>
                <path d="M17.6703584,16.8516536 C17.2375648,15.9327597 15.9062501,14.4727428 15.9256732,14.2688658 C15.9755755,13.7450606 16.5492737,14.2041743 16.9619273,14.394911 C17.5172577,14.6515958 17.922663,15.7865694 18.6616078,17.0253392 L17.6703584,16.8516536 Z" id="Path-55" fill="#016E80" transform="translate(17.293535, 15.525810) rotate(13.000000) translate(-17.293535, -15.525810) "></path>
            </g>
            <path d="M69.2015901,95.6090738 C76.3074229,125.186989 79.9101636,140.218459 80.0098121,140.703486 C83.4449445,157.423558 84.5742754,174.947638 83.3978048,193.275727 L74.4868729,194.846965 C74.0802002,193.522323 69.5732385,180.740918 60.965988,156.502748 C54.8767152,139.355249 43.9562828,117.778427 41.4884912,102.47666 C26.8227788,103.143045 36.0604784,100.853849 69.2015901,95.6090738 Z" id="Man-L-leg" fill="#F9C071" transform="translate(59.293992, 145.228019) rotate(10.000000) translate(-59.293992, -145.228019) "></path>
            <path d="M31.6052854,84.9984557 L64,84.9984557 C60.2038736,112.976968 56.8397435,135.276255 53.9076097,151.896316 C50.975476,168.516377 46.3417716,185.186162 40.0064967,201.90567 C33.2246071,202.233207 29.8900299,201.693579 30.002765,200.286786 C30.002765,195.309196 30.5369385,156.879752 31.6052854,84.9984557 Z" id="Man-R-leg" fill="#F9C071"></path>
            <path d="M38.4660585,8.51390029 C40.1997264,7.69318588 41.2954016,7.04731509 41.7530841,6.57628791 C43.2842046,5.00052429 43.2842046,5.00052429 43.9806019,3.42857668 C46.7255009,0.944840852 47.7654022,1.30109027 51.3978172,1.73036805 C52.8169034,1.89807525 54.5909513,2.71836432 56.4343568,4.73043485 C57.736644,6.15187675 59.2480871,8.13449692 59.9253966,11.0499588 L59.1791707,14.7954213 L38.4660585,8.51390029 Z" id="Path-28" fill="#F9C071" transform="translate(49.195728, 8.109715) scale(-1, 1) rotate(8.000000) translate(-49.195728, -8.109715) "></path>
            <path d="M50.0029135,25.9213784 C62.2345996,27.4510636 70.5297112,18.8735799 70.3121907,15.8143888 C70.0946702,12.7551978 70.3665427,10.9144523 59.7426878,7.42502422 C46.9445789,5.46955025 35.3967344,4.88720512 31.9298591,11.9805976 C31.035998,13.8094802 32.8437059,17.0339497 33.4150113,18.5257946 C35.2757732,23.3847861 40.644515,24.7510244 50.0029135,25.9213784 Z" id="man-bend-hat-over-shade" fill="#F9C071" transform="translate(51.001131, 16.119459) scale(-1, 1) rotate(8.000000) translate(-51.001131, -16.119459) "></path>
            <path d="M48.9919946,25.8488711 C61.2706303,27.3467907 69.0395003,22.2216674 70.0582644,16.9465808 C71.0770285,11.6714943 64.53968,7.31448806 46.5148183,6.49808796 C36.7204323,6.50195871 29.947663,9.87115785 32.1171813,16.0282022 C34.2866996,22.1852466 36.7133588,24.3509514 48.9919946,25.8488711 Z" id="Man-bend-hat-shade" fill="#C9954F" transform="translate(50.935631, 16.305640) scale(-1, 1) rotate(8.000000) translate(-50.935631, -16.305640) "></path>
            <path d="M50.782998,24.9376403 C56.8442876,25.6786709 60.5624731,19.4859333 59.9303149,15.1735465 C59.2981566,10.8611597 53.830372,8.85866303 47.7690824,8.1176324 C41.7077929,7.37660177 40.7280288,10.191212 40.0571553,13.7869372 C39.3862818,17.3826624 44.7217084,24.1966096 50.782998,24.9376403 Z" id="manbendy-hair" fill="#313050" transform="translate(50.000000, 16.498456) scale(-1, 1) translate(-50.000000, -16.498456) "></path>
            <polygon id="Rectangle" fill="#FFDBAC" points="43.39136 19.9984557 54 21.9184557 50.2754012 35.9984557 41 32.4667222"></polygon>
            <polyline id="Path-59" fill="#E2C197" points="47 24.9984557 47.2084593 25.330668 53.3684194 31.9984557 55 26.0702834"></polyline>
            <path d="M56.1957506,25.6987775 C59.7697103,23.2101827 59.6914401,21.697224 58.9981228,15.6143865 C58.7070299,13.0604755 58.7517225,11.7684412 57.1509533,10.1883889 C54.9390528,8.00511447 52.6897283,8.76154291 50.3795531,9.05683315 C46.3974865,9.56582719 42.2693859,10.1169884 42.9627032,16.1998259 C43.108681,17.4805653 41.5278652,18.37789 41.9064815,19.8271771 C42.1703526,20.8372365 42.7635715,20.9403087 43.5591065,21.893273 C44.9551721,23.5656076 44.5094743,24.4114653 45.4803262,25.547117 C47.5255857,27.9395543 54.8364943,26.6452455 56.1957506,25.6987775 Z" id="Man-bendy-head" fill="#FFDBAC" transform="translate(50.611516, 17.798561) rotate(13.000000) translate(-50.611516, -17.798561) "></path>
            <path d="M55.0632339,29.9777463 C70.3129429,30.5601675 75.9519236,68.8113098 78.8795496,77.634612 C80.8313002,83.5168134 80.2331854,90.3047613 77.0852051,97.9984557 L68.1166063,97.9984557 L29.7645716,97.9984557 C26.0949891,55.2995548 25.3580927,32.9203912 27.5538825,30.860965 C30.847567,27.7718256 39.8135249,29.395325 55.0632339,29.9777463 Z" id="Man-bendy-body" fill="#00424D"></path>
            <path d="M32.7178925,92.7258263 L26.825879,103.127167 L30.4417353,105.545503 C32.9693989,107.904079 34.7749329,108.313963 35.8583373,106.775153 C36.9417418,105.236343 37.6544998,101.500992 37.9966113,95.5690979 L32.7178925,92.7258263 Z" id="Male-R-hand" fill="#FFDBAC" transform="translate(32.411245, 100.206167) scale(1, -1) rotate(-142.000000) translate(-32.411245, -100.206167) "></path>
            <path d="M27,31.3272288 C28.709224,29.9849119 30.9451523,29.5419875 33.7077848,29.9984557 C37.9348685,32.1945557 40.0321494,35.1798988 39.9996275,38.9544849 C39.893323,51.1540167 21.605602,59.6533988 20.2750605,71.3972832 C19.3880328,79.2265396 23.7898511,86.5963156 33.4805154,93.5066113 L27.3757932,102.998456 C13.5412717,100.512181 4.69439309,93.0516664 0.835157342,80.6169129 C-4.95369628,61.9647827 22.2157752,35.0844577 27,31.3272288 Z" id="Man-bending-arm-" fill="#00424D"></path>
        </g>
        <path d="M385.76735,272.554652 C380.952867,275.06098 376.62091,275.583846 372.771479,274.12325 C369.386518,273.093928 367.355678,272.946249 366.678959,273.680213 C365.663879,274.781159 369.275534,274.608608 369.168241,275.25598 C369.048003,275.981455 364.277366,275.256452 365.093975,277.856909 C366.169927,281.283235 369.38669,281.351874 372.036289,280.638728 C374.685888,279.925582 381.695097,282.139909 388.556238,279.909258 C395.417379,277.678607 402.056167,270.789707 402.705683,267.115088 C403.539238,263.090314 402.602218,260.742771 399.894623,260.072458 C395.833229,259.066988 392.989074,268.795161 385.76735,272.554652 Z" id="Fill-3914" fill="#FDE2BF"></path>
    </g>
</svg>