<?xml version="1.0" encoding="UTF-8"?>
<svg width="500px" height="432px" viewBox="0 0 500 432" version="1.1" xmlns="http://www.w3.org/2000/svg" xmlns:xlink="http://www.w3.org/1999/xlink">
    <!-- Generator: Sketch 63.1 (92452) - https://sketch.com -->
    <title>2_PL_Imp_info "Before you sign" </title>
    <desc>Created with Sketch.</desc>
    <defs>
        <linearGradient x1="50%" y1="100%" x2="50%" y2="0%" id="linearGradient-1">
            <stop stop-color="#FFFFFF" offset="0%"></stop>
            <stop stop-color="#ECF3FA" offset="100%"></stop>
        </linearGradient>
        <filter x="0.0%" y="0.0%" width="100.0%" height="100.0%" filterUnits="objectBoundingBox" id="filter-2">
            <feGaussianBlur stdDeviation="0" in="SourceGraphic"></feGaussianBlur>
        </filter>
    </defs>
    <g id="2_PL_Imp_info-&quot;Before-you-sign&quot;-" stroke="none" stroke-width="1" fill="none" fill-rule="evenodd">
        <g id="Background" transform="translate(249.000000, 216.000000) scale(-1, 1) translate(-249.000000, -216.000000) ">
            <path d="M206.659342,430.278286 C343.249511,444.672455 498,367.868209 498,235.248915 C498,102.629622 190.5,0.436020938 138.945313,0.436020938 C87.390625,0.436020938 -2,145 0.174744901,250.858481 C2.3494898,356.716961 70.0691732,415.884117 206.659342,430.278286 Z" id="Oval" fill-opacity="0.15" fill="#D8E5F0"></path>
            <path d="M4.28417969,289 C150.271851,274.003247 263.510458,265.669914 344,264 C424.489542,262.330086 473.889282,267.289166 492.199219,278.877241 C486.586789,297.055298 481.658403,309.818223 477.414063,317.166016 C463.711382,340.888064 446.878987,358.419246 436.679688,367.595703 C418.906259,383.586715 380.503517,405.831936 346.845703,417.526367 C328.64867,423.848939 296.446763,430.829801 228.463838,431.935599 C200.973231,432.382757 109.92304,421.839213 61.09375,390.828125 C35.03125,374.276042 16.0947266,340.333333 4.28417969,289 Z" id="Path-8" fill="url(#linearGradient-1)" filter="url(#filter-2)"></path>
            <g id="Tree" transform="translate(44.000000, 170.000000)">
                <ellipse id="Oval" fill="#E0E7ED" cx="377.5" cy="184" rx="33.5" ry="1"></ellipse>
                <polygon id="Rectangle" fill="#E8F0F8" points="373 132 382 132 382 183 373 183"></polygon>
                <path d="M360.005672,115.084569 C374.315116,115.115351 385.890209,103.511386 385.859427,89.1663274 C385.828523,74.8212687 374.203423,63.1672975 359.893979,63.1363768 C349.812642,63.1146986 342.00301,67.6640871 336.465084,76.7845421 L351.237345,87.3490249 L334.648819,83.3788432 C334.240335,85.8626839 334.03748,87.7546142 334.040257,89.0546342 C334.071128,103.399693 345.696228,115.053664 360.005672,115.084569 Z" id="Oval" fill="#E8F0F8" transform="translate(359.949842, 89.110473) rotate(120.000000) translate(-359.949842, -89.110473) "></path>
                <path d="M360.097137,107.225405 C380.822277,107.227397 447.246569,57.7892772 404.030889,23.6596045 C404.030889,23.6596045 399.245527,29.7473734 389.674802,41.9229113 C386.317854,22.9877594 382.021869,13.5201835 376.786848,13.5201835 C362.185504,13.5187995 350.860794,20.0743485 342.812719,33.1868303 L364.176818,48.3127664 L340.162476,42.6609928 C339.563623,46.2287611 339.264197,48.945994 339.264197,50.8126917 C339.266149,71.4107511 339.371996,107.223413 360.097137,107.225405 Z" id="Oval" fill="#E8F0F8" transform="translate(378.807111, 60.372794) scale(-1, 1) rotate(-27.000000) translate(-378.807111, -60.372794) "></path>
                <path d="M379.81853,155.671185 C400.419952,155.641079 417.145074,138.81856 417.175176,118.096997 C417.205197,97.375434 400.528814,80.6016612 379.927392,80.6316865 C365.413209,80.6528953 354.145916,87.2652788 346.125511,100.468837 L363.689294,114.415713 L343.476368,110.003908 C342.875371,113.593995 342.573497,116.327984 342.570745,118.205874 C342.540725,138.927437 359.217108,155.70121 379.81853,155.671185 Z" id="Oval" fill="#E8F0F8" transform="translate(379.872961, 118.151436) scale(-1, 1) rotate(77.000000) translate(-379.872961, -118.151436) "></path>
                <path d="M7.45458984,83.6318359 C7.45458984,83.3583984 7.45800781,83.1225586 7.46484375,82.9243164 C7.47167969,82.7260742 7.50073242,82.5415039 7.55200195,82.3706055 C7.60327148,82.199707 7.68359375,82.0322266 7.79296875,81.8681641 C7.90234375,81.7041016 8.05957031,81.5195312 8.26464844,81.3144531 C8.59277344,81.0205078 8.92431641,80.7128906 9.25927734,80.3916016 C9.59423828,80.0703125 9.89672852,79.7250977 10.166748,79.355957 C10.4367676,78.9868164 10.6555176,78.592041 10.822998,78.1716309 C10.9904785,77.7512207 11.0742188,77.2983398 11.0742188,76.8129883 C11.0742188,76.1772461 10.9699707,75.6132812 10.7614746,75.1210938 C10.5529785,74.6289062 10.2487793,74.215332 9.84887695,73.8803711 C9.44897461,73.5454102 8.96191406,73.2907715 8.38769531,73.1164551 C7.81347656,72.9421387 7.15722656,72.8549805 6.41894531,72.8549805 C5.76269531,72.8549805 5.15429688,72.9387207 4.59375,73.1062012 C4.03320312,73.2736816 3.54443359,73.5231934 3.12744141,73.8547363 C2.71044922,74.1862793 2.38061523,74.5964355 2.13793945,75.0852051 C1.89526367,75.5739746 1.77050781,76.1362305 1.76367188,76.7719727 L1.76367188,76.7719727 L4.22460938,76.7719727 C4.22460938,76.4438477 4.2878418,76.1618652 4.41430664,75.9260254 C4.54077148,75.6901855 4.70654297,75.4970703 4.91162109,75.3466797 C5.11669922,75.1962891 5.35083008,75.0852051 5.61401367,75.0134277 C5.87719727,74.9416504 6.14550781,74.9057617 6.41894531,74.9057617 C7.12988281,74.9057617 7.67333984,75.0715332 8.04931641,75.4030762 C8.42529297,75.7346191 8.61328125,76.2387695 8.61328125,76.9155273 C8.61328125,77.2163086 8.55004883,77.5068359 8.42358398,77.7871094 C8.29711914,78.0673828 8.13647461,78.3391113 7.94165039,78.6022949 C7.74682617,78.8654785 7.52978516,79.1184082 7.29052734,79.361084 C7.05126953,79.6037598 6.81884766,79.8378906 6.59326172,80.0634766 C6.25830078,80.3505859 5.99511719,80.6052246 5.80371094,80.8273926 C5.61230469,81.0495605 5.46875,81.2871094 5.37304688,81.5400391 C5.27734375,81.7929688 5.21582031,82.0834961 5.18847656,82.4116211 C5.16113281,82.7397461 5.14746094,83.1464844 5.14746094,83.6318359 L5.14746094,83.6318359 L7.45458984,83.6318359 Z M6.27539062,88.1230469 C6.74023438,88.1230469 7.10083008,87.994873 7.35717773,87.7385254 C7.61352539,87.4821777 7.74169922,87.1591797 7.74169922,86.7695312 C7.74169922,86.3662109 7.61352539,86.032959 7.35717773,85.7697754 C7.10083008,85.5065918 6.74023438,85.375 6.27539062,85.375 C5.81054688,85.375 5.45336914,85.5065918 5.20385742,85.7697754 C4.9543457,86.032959 4.82958984,86.3662109 4.82958984,86.7695312 C4.82958984,87.1591797 4.9543457,87.4821777 5.20385742,87.7385254 C5.45336914,87.994873 5.81054688,88.1230469 6.27539062,88.1230469 Z" id="?" fill="#FFFFFF" fill-rule="nonzero" opacity="0.414318266"></path>
                <path d="M403.45459,109.631836 C403.45459,109.358398 403.458008,109.122559 403.464844,108.924316 C403.47168,108.726074 403.500732,108.541504 403.552002,108.370605 C403.603271,108.199707 403.683594,108.032227 403.792969,107.868164 C403.902344,107.704102 404.05957,107.519531 404.264648,107.314453 C404.592773,107.020508 404.924316,106.712891 405.259277,106.391602 C405.594238,106.070312 405.896729,105.725098 406.166748,105.355957 C406.436768,104.986816 406.655518,104.592041 406.822998,104.171631 C406.990479,103.751221 407.074219,103.29834 407.074219,102.812988 C407.074219,102.177246 406.969971,101.613281 406.761475,101.121094 C406.552979,100.628906 406.248779,100.215332 405.848877,99.8803711 C405.448975,99.5454102 404.961914,99.2907715 404.387695,99.1164551 C403.813477,98.9421387 403.157227,98.8549805 402.418945,98.8549805 C401.762695,98.8549805 401.154297,98.9387207 400.59375,99.1062012 C400.033203,99.2736816 399.544434,99.5231934 399.127441,99.8547363 C398.710449,100.186279 398.380615,100.596436 398.137939,101.085205 C397.895264,101.573975 397.770508,102.13623 397.763672,102.771973 L397.763672,102.771973 L400.224609,102.771973 C400.224609,102.443848 400.287842,102.161865 400.414307,101.926025 C400.540771,101.690186 400.706543,101.49707 400.911621,101.34668 C401.116699,101.196289 401.35083,101.085205 401.614014,101.013428 C401.877197,100.94165 402.145508,100.905762 402.418945,100.905762 C403.129883,100.905762 403.67334,101.071533 404.049316,101.403076 C404.425293,101.734619 404.613281,102.23877 404.613281,102.915527 C404.613281,103.216309 404.550049,103.506836 404.423584,103.787109 C404.297119,104.067383 404.136475,104.339111 403.94165,104.602295 C403.746826,104.865479 403.529785,105.118408 403.290527,105.361084 C403.05127,105.60376 402.818848,105.837891 402.593262,106.063477 C402.258301,106.350586 401.995117,106.605225 401.803711,106.827393 C401.612305,107.049561 401.46875,107.287109 401.373047,107.540039 C401.277344,107.792969 401.21582,108.083496 401.188477,108.411621 C401.161133,108.739746 401.147461,109.146484 401.147461,109.631836 L401.147461,109.631836 L403.45459,109.631836 Z M402.275391,114.123047 C402.740234,114.123047 403.10083,113.994873 403.357178,113.738525 C403.613525,113.482178 403.741699,113.15918 403.741699,112.769531 C403.741699,112.366211 403.613525,112.032959 403.357178,111.769775 C403.10083,111.506592 402.740234,111.375 402.275391,111.375 C401.810547,111.375 401.453369,111.506592 401.203857,111.769775 C400.954346,112.032959 400.82959,112.366211 400.82959,112.769531 C400.82959,113.15918 400.954346,113.482178 401.203857,113.738525 C401.453369,113.994873 401.810547,114.123047 402.275391,114.123047 Z" id="?" fill="#FFFFFF" fill-rule="nonzero" opacity="0.414318266" transform="translate(402.418945, 106.489014) scale(-1, 1) translate(-402.418945, -106.489014) "></path>
                <path d="M390.45459,142.631836 C390.45459,142.358398 390.458008,142.122559 390.464844,141.924316 C390.47168,141.726074 390.500732,141.541504 390.552002,141.370605 C390.603271,141.199707 390.683594,141.032227 390.792969,140.868164 C390.902344,140.704102 391.05957,140.519531 391.264648,140.314453 C391.592773,140.020508 391.924316,139.712891 392.259277,139.391602 C392.594238,139.070312 392.896729,138.725098 393.166748,138.355957 C393.436768,137.986816 393.655518,137.592041 393.822998,137.171631 C393.990479,136.751221 394.074219,136.29834 394.074219,135.812988 C394.074219,135.177246 393.969971,134.613281 393.761475,134.121094 C393.552979,133.628906 393.248779,133.215332 392.848877,132.880371 C392.448975,132.54541 391.961914,132.290771 391.387695,132.116455 C390.813477,131.942139 390.157227,131.85498 389.418945,131.85498 C388.762695,131.85498 388.154297,131.938721 387.59375,132.106201 C387.033203,132.273682 386.544434,132.523193 386.127441,132.854736 C385.710449,133.186279 385.380615,133.596436 385.137939,134.085205 C384.895264,134.573975 384.770508,135.13623 384.763672,135.771973 L384.763672,135.771973 L387.224609,135.771973 C387.224609,135.443848 387.287842,135.161865 387.414307,134.926025 C387.540771,134.690186 387.706543,134.49707 387.911621,134.34668 C388.116699,134.196289 388.35083,134.085205 388.614014,134.013428 C388.877197,133.94165 389.145508,133.905762 389.418945,133.905762 C390.129883,133.905762 390.67334,134.071533 391.049316,134.403076 C391.425293,134.734619 391.613281,135.23877 391.613281,135.915527 C391.613281,136.216309 391.550049,136.506836 391.423584,136.787109 C391.297119,137.067383 391.136475,137.339111 390.94165,137.602295 C390.746826,137.865479 390.529785,138.118408 390.290527,138.361084 C390.05127,138.60376 389.818848,138.837891 389.593262,139.063477 C389.258301,139.350586 388.995117,139.605225 388.803711,139.827393 C388.612305,140.049561 388.46875,140.287109 388.373047,140.540039 C388.277344,140.792969 388.21582,141.083496 388.188477,141.411621 C388.161133,141.739746 388.147461,142.146484 388.147461,142.631836 L388.147461,142.631836 L390.45459,142.631836 Z M389.275391,147.123047 C389.740234,147.123047 390.10083,146.994873 390.357178,146.738525 C390.613525,146.482178 390.741699,146.15918 390.741699,145.769531 C390.741699,145.366211 390.613525,145.032959 390.357178,144.769775 C390.10083,144.506592 389.740234,144.375 389.275391,144.375 C388.810547,144.375 388.453369,144.506592 388.203857,144.769775 C387.954346,145.032959 387.82959,145.366211 387.82959,145.769531 C387.82959,146.15918 387.954346,146.482178 388.203857,146.738525 C388.453369,146.994873 388.810547,147.123047 389.275391,147.123047 Z" id="?" fill="#FFFFFF" fill-rule="nonzero" opacity="0.414318266" transform="translate(389.418945, 139.489014) scale(-1, 1) translate(-389.418945, -139.489014) "></path>
                <path d="M388.45459,71.6318359 C388.45459,71.3583984 388.458008,71.1225586 388.464844,70.9243164 C388.47168,70.7260742 388.500732,70.5415039 388.552002,70.3706055 C388.603271,70.199707 388.683594,70.0322266 388.792969,69.8681641 C388.902344,69.7041016 389.05957,69.5195312 389.264648,69.3144531 C389.592773,69.0205078 389.924316,68.7128906 390.259277,68.3916016 C390.594238,68.0703125 390.896729,67.7250977 391.166748,67.355957 C391.436768,66.9868164 391.655518,66.592041 391.822998,66.1716309 C391.990479,65.7512207 392.074219,65.2983398 392.074219,64.8129883 C392.074219,64.1772461 391.969971,63.6132812 391.761475,63.1210938 C391.552979,62.6289062 391.248779,62.215332 390.848877,61.8803711 C390.448975,61.5454102 389.961914,61.2907715 389.387695,61.1164551 C388.813477,60.9421387 388.157227,60.8549805 387.418945,60.8549805 C386.762695,60.8549805 386.154297,60.9387207 385.59375,61.1062012 C385.033203,61.2736816 384.544434,61.5231934 384.127441,61.8547363 C383.710449,62.1862793 383.380615,62.5964355 383.137939,63.0852051 C382.895264,63.5739746 382.770508,64.1362305 382.763672,64.7719727 L382.763672,64.7719727 L385.224609,64.7719727 C385.224609,64.4438477 385.287842,64.1618652 385.414307,63.9260254 C385.540771,63.6901855 385.706543,63.4970703 385.911621,63.3466797 C386.116699,63.1962891 386.35083,63.0852051 386.614014,63.0134277 C386.877197,62.9416504 387.145508,62.9057617 387.418945,62.9057617 C388.129883,62.9057617 388.67334,63.0715332 389.049316,63.4030762 C389.425293,63.7346191 389.613281,64.2387695 389.613281,64.9155273 C389.613281,65.2163086 389.550049,65.5068359 389.423584,65.7871094 C389.297119,66.0673828 389.136475,66.3391113 388.94165,66.6022949 C388.746826,66.8654785 388.529785,67.1184082 388.290527,67.361084 C388.05127,67.6037598 387.818848,67.8378906 387.593262,68.0634766 C387.258301,68.3505859 386.995117,68.6052246 386.803711,68.8273926 C386.612305,69.0495605 386.46875,69.2871094 386.373047,69.5400391 C386.277344,69.7929688 386.21582,70.0834961 386.188477,70.4116211 C386.161133,70.7397461 386.147461,71.1464844 386.147461,71.6318359 L386.147461,71.6318359 L388.45459,71.6318359 Z M387.275391,76.1230469 C387.740234,76.1230469 388.10083,75.994873 388.357178,75.7385254 C388.613525,75.4821777 388.741699,75.1591797 388.741699,74.7695312 C388.741699,74.3662109 388.613525,74.032959 388.357178,73.7697754 C388.10083,73.5065918 387.740234,73.375 387.275391,73.375 C386.810547,73.375 386.453369,73.5065918 386.203857,73.7697754 C385.954346,74.032959 385.82959,74.3662109 385.82959,74.7695312 C385.82959,75.1591797 385.954346,75.4821777 386.203857,75.7385254 C386.453369,75.994873 386.810547,76.1230469 387.275391,76.1230469 Z" id="?" fill="#FFFFFF" fill-rule="nonzero" opacity="0.414318266" transform="translate(387.418945, 68.489014) scale(-1, 1) translate(-387.418945, -68.489014) "></path>
                <path d="M360.45459,126.631836 C360.45459,126.358398 360.458008,126.122559 360.464844,125.924316 C360.47168,125.726074 360.500732,125.541504 360.552002,125.370605 C360.603271,125.199707 360.683594,125.032227 360.792969,124.868164 C360.902344,124.704102 361.05957,124.519531 361.264648,124.314453 C361.592773,124.020508 361.924316,123.712891 362.259277,123.391602 C362.594238,123.070312 362.896729,122.725098 363.166748,122.355957 C363.436768,121.986816 363.655518,121.592041 363.822998,121.171631 C363.990479,120.751221 364.074219,120.29834 364.074219,119.812988 C364.074219,119.177246 363.969971,118.613281 363.761475,118.121094 C363.552979,117.628906 363.248779,117.215332 362.848877,116.880371 C362.448975,116.54541 361.961914,116.290771 361.387695,116.116455 C360.813477,115.942139 360.157227,115.85498 359.418945,115.85498 C358.762695,115.85498 358.154297,115.938721 357.59375,116.106201 C357.033203,116.273682 356.544434,116.523193 356.127441,116.854736 C355.710449,117.186279 355.380615,117.596436 355.137939,118.085205 C354.895264,118.573975 354.770508,119.13623 354.763672,119.771973 L354.763672,119.771973 L357.224609,119.771973 C357.224609,119.443848 357.287842,119.161865 357.414307,118.926025 C357.540771,118.690186 357.706543,118.49707 357.911621,118.34668 C358.116699,118.196289 358.35083,118.085205 358.614014,118.013428 C358.877197,117.94165 359.145508,117.905762 359.418945,117.905762 C360.129883,117.905762 360.67334,118.071533 361.049316,118.403076 C361.425293,118.734619 361.613281,119.23877 361.613281,119.915527 C361.613281,120.216309 361.550049,120.506836 361.423584,120.787109 C361.297119,121.067383 361.136475,121.339111 360.94165,121.602295 C360.746826,121.865479 360.529785,122.118408 360.290527,122.361084 C360.05127,122.60376 359.818848,122.837891 359.593262,123.063477 C359.258301,123.350586 358.995117,123.605225 358.803711,123.827393 C358.612305,124.049561 358.46875,124.287109 358.373047,124.540039 C358.277344,124.792969 358.21582,125.083496 358.188477,125.411621 C358.161133,125.739746 358.147461,126.146484 358.147461,126.631836 L358.147461,126.631836 L360.45459,126.631836 Z M359.275391,131.123047 C359.740234,131.123047 360.10083,130.994873 360.357178,130.738525 C360.613525,130.482178 360.741699,130.15918 360.741699,129.769531 C360.741699,129.366211 360.613525,129.032959 360.357178,128.769775 C360.10083,128.506592 359.740234,128.375 359.275391,128.375 C358.810547,128.375 358.453369,128.506592 358.203857,128.769775 C357.954346,129.032959 357.82959,129.366211 357.82959,129.769531 C357.82959,130.15918 357.954346,130.482178 358.203857,130.738525 C358.453369,130.994873 358.810547,131.123047 359.275391,131.123047 Z" id="?" fill="#FFFFFF" fill-rule="nonzero" opacity="0.414318266" transform="translate(359.418945, 123.489014) scale(-1, 1) translate(-359.418945, -123.489014) "></path>
                <path d="M377.45459,101.631836 C377.45459,101.358398 377.458008,101.122559 377.464844,100.924316 C377.47168,100.726074 377.500732,100.541504 377.552002,100.370605 C377.603271,100.199707 377.683594,100.032227 377.792969,99.8681641 C377.902344,99.7041016 378.05957,99.5195312 378.264648,99.3144531 C378.592773,99.0205078 378.924316,98.7128906 379.259277,98.3916016 C379.594238,98.0703125 379.896729,97.7250977 380.166748,97.355957 C380.436768,96.9868164 380.655518,96.592041 380.822998,96.1716309 C380.990479,95.7512207 381.074219,95.2983398 381.074219,94.8129883 C381.074219,94.1772461 380.969971,93.6132812 380.761475,93.1210938 C380.552979,92.6289062 380.248779,92.215332 379.848877,91.8803711 C379.448975,91.5454102 378.961914,91.2907715 378.387695,91.1164551 C377.813477,90.9421387 377.157227,90.8549805 376.418945,90.8549805 C375.762695,90.8549805 375.154297,90.9387207 374.59375,91.1062012 C374.033203,91.2736816 373.544434,91.5231934 373.127441,91.8547363 C372.710449,92.1862793 372.380615,92.5964355 372.137939,93.0852051 C371.895264,93.5739746 371.770508,94.1362305 371.763672,94.7719727 L371.763672,94.7719727 L374.224609,94.7719727 C374.224609,94.4438477 374.287842,94.1618652 374.414307,93.9260254 C374.540771,93.6901855 374.706543,93.4970703 374.911621,93.3466797 C375.116699,93.1962891 375.35083,93.0852051 375.614014,93.0134277 C375.877197,92.9416504 376.145508,92.9057617 376.418945,92.9057617 C377.129883,92.9057617 377.67334,93.0715332 378.049316,93.4030762 C378.425293,93.7346191 378.613281,94.2387695 378.613281,94.9155273 C378.613281,95.2163086 378.550049,95.5068359 378.423584,95.7871094 C378.297119,96.0673828 378.136475,96.3391113 377.94165,96.6022949 C377.746826,96.8654785 377.529785,97.1184082 377.290527,97.361084 C377.05127,97.6037598 376.818848,97.8378906 376.593262,98.0634766 C376.258301,98.3505859 375.995117,98.6052246 375.803711,98.8273926 C375.612305,99.0495605 375.46875,99.2871094 375.373047,99.5400391 C375.277344,99.7929688 375.21582,100.083496 375.188477,100.411621 C375.161133,100.739746 375.147461,101.146484 375.147461,101.631836 L375.147461,101.631836 L377.45459,101.631836 Z M376.275391,106.123047 C376.740234,106.123047 377.10083,105.994873 377.357178,105.738525 C377.613525,105.482178 377.741699,105.15918 377.741699,104.769531 C377.741699,104.366211 377.613525,104.032959 377.357178,103.769775 C377.10083,103.506592 376.740234,103.375 376.275391,103.375 C375.810547,103.375 375.453369,103.506592 375.203857,103.769775 C374.954346,104.032959 374.82959,104.366211 374.82959,104.769531 C374.82959,105.15918 374.954346,105.482178 375.203857,105.738525 C375.453369,105.994873 375.810547,106.123047 376.275391,106.123047 Z" id="?" fill="#FFFFFF" fill-rule="nonzero" opacity="0.414318266" transform="translate(376.418945, 98.489014) scale(-1, 1) translate(-376.418945, -98.489014) "></path>
                <path d="M351.45459,87.6318359 C351.45459,87.3583984 351.458008,87.1225586 351.464844,86.9243164 C351.47168,86.7260742 351.500732,86.5415039 351.552002,86.3706055 C351.603271,86.199707 351.683594,86.0322266 351.792969,85.8681641 C351.902344,85.7041016 352.05957,85.5195312 352.264648,85.3144531 C352.592773,85.0205078 352.924316,84.7128906 353.259277,84.3916016 C353.594238,84.0703125 353.896729,83.7250977 354.166748,83.355957 C354.436768,82.9868164 354.655518,82.592041 354.822998,82.1716309 C354.990479,81.7512207 355.074219,81.2983398 355.074219,80.8129883 C355.074219,80.1772461 354.969971,79.6132812 354.761475,79.1210938 C354.552979,78.6289062 354.248779,78.215332 353.848877,77.8803711 C353.448975,77.5454102 352.961914,77.2907715 352.387695,77.1164551 C351.813477,76.9421387 351.157227,76.8549805 350.418945,76.8549805 C349.762695,76.8549805 349.154297,76.9387207 348.59375,77.1062012 C348.033203,77.2736816 347.544434,77.5231934 347.127441,77.8547363 C346.710449,78.1862793 346.380615,78.5964355 346.137939,79.0852051 C345.895264,79.5739746 345.770508,80.1362305 345.763672,80.7719727 L345.763672,80.7719727 L348.224609,80.7719727 C348.224609,80.4438477 348.287842,80.1618652 348.414307,79.9260254 C348.540771,79.6901855 348.706543,79.4970703 348.911621,79.3466797 C349.116699,79.1962891 349.35083,79.0852051 349.614014,79.0134277 C349.877197,78.9416504 350.145508,78.9057617 350.418945,78.9057617 C351.129883,78.9057617 351.67334,79.0715332 352.049316,79.4030762 C352.425293,79.7346191 352.613281,80.2387695 352.613281,80.9155273 C352.613281,81.2163086 352.550049,81.5068359 352.423584,81.7871094 C352.297119,82.0673828 352.136475,82.3391113 351.94165,82.6022949 C351.746826,82.8654785 351.529785,83.1184082 351.290527,83.361084 C351.05127,83.6037598 350.818848,83.8378906 350.593262,84.0634766 C350.258301,84.3505859 349.995117,84.6052246 349.803711,84.8273926 C349.612305,85.0495605 349.46875,85.2871094 349.373047,85.5400391 C349.277344,85.7929688 349.21582,86.0834961 349.188477,86.4116211 C349.161133,86.7397461 349.147461,87.1464844 349.147461,87.6318359 L349.147461,87.6318359 L351.45459,87.6318359 Z M350.275391,92.1230469 C350.740234,92.1230469 351.10083,91.994873 351.357178,91.7385254 C351.613525,91.4821777 351.741699,91.1591797 351.741699,90.7695312 C351.741699,90.3662109 351.613525,90.032959 351.357178,89.7697754 C351.10083,89.5065918 350.740234,89.375 350.275391,89.375 C349.810547,89.375 349.453369,89.5065918 349.203857,89.7697754 C348.954346,90.032959 348.82959,90.3662109 348.82959,90.7695312 C348.82959,91.1591797 348.954346,91.4821777 349.203857,91.7385254 C349.453369,91.994873 349.810547,92.1230469 350.275391,92.1230469 Z" id="?" fill="#FFFFFF" fill-rule="nonzero" opacity="0.414318266" transform="translate(350.418945, 84.489014) scale(-1, 1) translate(-350.418945, -84.489014) "></path>
                <path d="M364.45459,44.6318359 C364.45459,44.3583984 364.458008,44.1225586 364.464844,43.9243164 C364.47168,43.7260742 364.500732,43.5415039 364.552002,43.3706055 C364.603271,43.199707 364.683594,43.0322266 364.792969,42.8681641 C364.902344,42.7041016 365.05957,42.5195312 365.264648,42.3144531 C365.592773,42.0205078 365.924316,41.7128906 366.259277,41.3916016 C366.594238,41.0703125 366.896729,40.7250977 367.166748,40.355957 C367.436768,39.9868164 367.655518,39.592041 367.822998,39.1716309 C367.990479,38.7512207 368.074219,38.2983398 368.074219,37.8129883 C368.074219,37.1772461 367.969971,36.6132812 367.761475,36.1210938 C367.552979,35.6289062 367.248779,35.215332 366.848877,34.8803711 C366.448975,34.5454102 365.961914,34.2907715 365.387695,34.1164551 C364.813477,33.9421387 364.157227,33.8549805 363.418945,33.8549805 C362.762695,33.8549805 362.154297,33.9387207 361.59375,34.1062012 C361.033203,34.2736816 360.544434,34.5231934 360.127441,34.8547363 C359.710449,35.1862793 359.380615,35.5964355 359.137939,36.0852051 C358.895264,36.5739746 358.770508,37.1362305 358.763672,37.7719727 L358.763672,37.7719727 L361.224609,37.7719727 C361.224609,37.4438477 361.287842,37.1618652 361.414307,36.9260254 C361.540771,36.6901855 361.706543,36.4970703 361.911621,36.3466797 C362.116699,36.1962891 362.35083,36.0852051 362.614014,36.0134277 C362.877197,35.9416504 363.145508,35.9057617 363.418945,35.9057617 C364.129883,35.9057617 364.67334,36.0715332 365.049316,36.4030762 C365.425293,36.7346191 365.613281,37.2387695 365.613281,37.9155273 C365.613281,38.2163086 365.550049,38.5068359 365.423584,38.7871094 C365.297119,39.0673828 365.136475,39.3391113 364.94165,39.6022949 C364.746826,39.8654785 364.529785,40.1184082 364.290527,40.361084 C364.05127,40.6037598 363.818848,40.8378906 363.593262,41.0634766 C363.258301,41.3505859 362.995117,41.6052246 362.803711,41.8273926 C362.612305,42.0495605 362.46875,42.2871094 362.373047,42.5400391 C362.277344,42.7929688 362.21582,43.0834961 362.188477,43.4116211 C362.161133,43.7397461 362.147461,44.1464844 362.147461,44.6318359 L362.147461,44.6318359 L364.45459,44.6318359 Z M363.275391,49.1230469 C363.740234,49.1230469 364.10083,48.994873 364.357178,48.7385254 C364.613525,48.4821777 364.741699,48.1591797 364.741699,47.7695312 C364.741699,47.3662109 364.613525,47.032959 364.357178,46.7697754 C364.10083,46.5065918 363.740234,46.375 363.275391,46.375 C362.810547,46.375 362.453369,46.5065918 362.203857,46.7697754 C361.954346,47.032959 361.82959,47.3662109 361.82959,47.7695312 C361.82959,48.1591797 361.954346,48.4821777 362.203857,48.7385254 C362.453369,48.994873 362.810547,49.1230469 363.275391,49.1230469 Z" id="?" fill="#FFFFFF" fill-rule="nonzero" opacity="0.414318266" transform="translate(363.418945, 41.489014) scale(-1, 1) translate(-363.418945, -41.489014) "></path>
                <path d="M403.45459,41.6318359 C403.45459,41.3583984 403.458008,41.1225586 403.464844,40.9243164 C403.47168,40.7260742 403.500732,40.5415039 403.552002,40.3706055 C403.603271,40.199707 403.683594,40.0322266 403.792969,39.8681641 C403.902344,39.7041016 404.05957,39.5195312 404.264648,39.3144531 C404.592773,39.0205078 404.924316,38.7128906 405.259277,38.3916016 C405.594238,38.0703125 405.896729,37.7250977 406.166748,37.355957 C406.436768,36.9868164 406.655518,36.592041 406.822998,36.1716309 C406.990479,35.7512207 407.074219,35.2983398 407.074219,34.8129883 C407.074219,34.1772461 406.969971,33.6132812 406.761475,33.1210938 C406.552979,32.6289062 406.248779,32.215332 405.848877,31.8803711 C405.448975,31.5454102 404.961914,31.2907715 404.387695,31.1164551 C403.813477,30.9421387 403.157227,30.8549805 402.418945,30.8549805 C401.762695,30.8549805 401.154297,30.9387207 400.59375,31.1062012 C400.033203,31.2736816 399.544434,31.5231934 399.127441,31.8547363 C398.710449,32.1862793 398.380615,32.5964355 398.137939,33.0852051 C397.895264,33.5739746 397.770508,34.1362305 397.763672,34.7719727 L397.763672,34.7719727 L400.224609,34.7719727 C400.224609,34.4438477 400.287842,34.1618652 400.414307,33.9260254 C400.540771,33.6901855 400.706543,33.4970703 400.911621,33.3466797 C401.116699,33.1962891 401.35083,33.0852051 401.614014,33.0134277 C401.877197,32.9416504 402.145508,32.9057617 402.418945,32.9057617 C403.129883,32.9057617 403.67334,33.0715332 404.049316,33.4030762 C404.425293,33.7346191 404.613281,34.2387695 404.613281,34.9155273 C404.613281,35.2163086 404.550049,35.5068359 404.423584,35.7871094 C404.297119,36.0673828 404.136475,36.3391113 403.94165,36.6022949 C403.746826,36.8654785 403.529785,37.1184082 403.290527,37.361084 C403.05127,37.6037598 402.818848,37.8378906 402.593262,38.0634766 C402.258301,38.3505859 401.995117,38.6052246 401.803711,38.8273926 C401.612305,39.0495605 401.46875,39.2871094 401.373047,39.5400391 C401.277344,39.7929688 401.21582,40.0834961 401.188477,40.4116211 C401.161133,40.7397461 401.147461,41.1464844 401.147461,41.6318359 L401.147461,41.6318359 L403.45459,41.6318359 Z M402.275391,46.1230469 C402.740234,46.1230469 403.10083,45.994873 403.357178,45.7385254 C403.613525,45.4821777 403.741699,45.1591797 403.741699,44.7695312 C403.741699,44.3662109 403.613525,44.032959 403.357178,43.7697754 C403.10083,43.5065918 402.740234,43.375 402.275391,43.375 C401.810547,43.375 401.453369,43.5065918 401.203857,43.7697754 C400.954346,44.032959 400.82959,44.3662109 400.82959,44.7695312 C400.82959,45.1591797 400.954346,45.4821777 401.203857,45.7385254 C401.453369,45.994873 401.810547,46.1230469 402.275391,46.1230469 Z" id="?" fill="#FFFFFF" fill-rule="nonzero" opacity="0.414318266" transform="translate(402.418945, 38.489014) scale(-1, 1) translate(-402.418945, -38.489014) "></path>
            </g>
            <g id="Tree" transform="translate(36.500000, 264.500000) scale(-1, 1) translate(-36.500000, -264.500000) translate(4.000000, 209.000000)">
                <ellipse id="Oval" fill="#E0E7ED" cx="32.5" cy="108" rx="19.5" ry="2"></ellipse>
                <polygon id="Rectangle" fill="#E8F0F8" points="31 76 35 76 35 108 31 108"></polygon>
                <path d="M21.0051371,65.7527874 C29.3272337,65.781203 36.0505177,59.0312358 36.0221024,50.6762239 C35.9935066,42.3212119 29.224006,35.5250281 20.9019094,35.4964091 C15.0387983,35.4764019 10.5002309,38.1203708 7.28620736,43.4283156 L15.8852291,49.5922674 L6.23476368,47.2676949 C5.99902747,48.7140567 5.88243702,49.8158238 5.88499233,50.5729962 C5.91353987,58.9280082 12.6830405,65.7241919 21.0051371,65.7527874 Z" id="Oval" fill="#E8F0F8" transform="translate(20.953547, 50.624598) rotate(120.000000) translate(-20.953547, -50.624598) "></path>
                <path d="M23.3153433,61.6927949 C35.3878312,61.7082074 54.8748992,40.9079148 54.8595956,28.9300503 C54.844274,16.9521858 45.0451756,7.22970684 32.9726877,7.21426255 C24.4673385,7.20341349 17.8751563,11.0077029 13.196141,18.6271308 L25.6512326,27.4376325 L11.6588822,24.1345746 C11.3124001,26.2088355 11.1398501,27.7887124 11.1412323,28.8742056 C11.1565532,40.85207 11.2428554,61.6773652 23.3153433,61.6927949 Z" id="Oval" fill="#E8F0F8" transform="translate(33.000414, 34.453529) scale(-1, 1) rotate(-27.000000) translate(-33.000414, -34.453529) "></path>
                <path d="M32.5202114,89.3672401 C44.494591,89.3419878 54.2221722,79.5321086 54.2474211,67.4562128 C54.2725719,55.380317 44.5858479,45.6113008 32.6114682,45.6364557 C24.1752386,45.6542447 17.6237723,49.5119467 12.9570695,57.2095618 L23.1606402,65.3308193 L11.4137263,62.7672934 C11.0630642,64.8597093 10.886575,66.4531058 10.8842585,67.547483 C10.8591077,79.6233788 20.5458318,89.392395 32.5202114,89.3672401 Z" id="Oval" fill="#E8F0F8" transform="translate(32.565840, 67.501848) scale(-1, 1) rotate(77.000000) translate(-32.565840, -67.501848) "></path>
                <path d="M18.2597656,48.5039062 C18.2597656,48.3476562 18.2617188,48.2128906 18.265625,48.0996094 C18.2695312,47.9863281 18.2861328,47.8808594 18.3154297,47.7832031 C18.3447266,47.6855469 18.390625,47.5898438 18.453125,47.4960938 C18.515625,47.4023438 18.6054688,47.296875 18.7226562,47.1796875 C18.9101562,47.0117188 19.0996094,46.8359375 19.2910156,46.6523438 C19.4824219,46.46875 19.6552734,46.2714844 19.8095703,46.0605469 C19.9638672,45.8496094 20.0888672,45.6240234 20.1845703,45.3837891 C20.2802734,45.1435547 20.328125,44.8847656 20.328125,44.6074219 C20.328125,44.2441406 20.2685547,43.921875 20.1494141,43.640625 C20.0302734,43.359375 19.8564453,43.1230469 19.6279297,42.9316406 C19.3994141,42.7402344 19.1210938,42.5947266 18.7929688,42.4951172 C18.4648438,42.3955078 18.0898438,42.3457031 17.6679688,42.3457031 C17.2929688,42.3457031 16.9453125,42.3935547 16.625,42.4892578 C16.3046875,42.5849609 16.0253906,42.7275391 15.7871094,42.9169922 C15.5488281,43.1064453 15.3603516,43.3408203 15.2216797,43.6201172 C15.0830078,43.8994141 15.0117188,44.2207031 15.0078125,44.5839844 L15.0078125,44.5839844 L16.4140625,44.5839844 C16.4140625,44.3964844 16.4501953,44.2353516 16.5224609,44.1005859 C16.5947266,43.9658203 16.6894531,43.8554688 16.8066406,43.7695312 C16.9238281,43.6835938 17.0576172,43.6201172 17.2080078,43.5791016 C17.3583984,43.5380859 17.5117188,43.5175781 17.6679688,43.5175781 C18.0742188,43.5175781 18.3847656,43.6123047 18.5996094,43.8017578 C18.8144531,43.9912109 18.921875,44.2792969 18.921875,44.6660156 C18.921875,44.8378906 18.8857422,45.0039062 18.8134766,45.1640625 C18.7412109,45.3242188 18.6494141,45.4794922 18.5380859,45.6298828 C18.4267578,45.7802734 18.3027344,45.9248047 18.1660156,46.0634766 C18.0292969,46.2021484 17.8964844,46.3359375 17.7675781,46.4648438 C17.5761719,46.6289062 17.4257812,46.7744141 17.3164062,46.9013672 C17.2070312,47.0283203 17.125,47.1640625 17.0703125,47.3085938 C17.015625,47.453125 16.9804688,47.6191406 16.9648438,47.8066406 C16.9492188,47.9941406 16.9414062,48.2265625 16.9414062,48.5039062 L16.9414062,48.5039062 L18.2597656,48.5039062 Z M17.5859375,51.0703125 C17.8515625,51.0703125 18.0576172,50.9970703 18.2041016,50.8505859 C18.3505859,50.7041016 18.4238281,50.5195312 18.4238281,50.296875 C18.4238281,50.0664062 18.3505859,49.8759766 18.2041016,49.7255859 C18.0576172,49.5751953 17.8515625,49.5 17.5859375,49.5 C17.3203125,49.5 17.1162109,49.5751953 16.9736328,49.7255859 C16.8310547,49.8759766 16.7597656,50.0664062 16.7597656,50.296875 C16.7597656,50.5195312 16.8310547,50.7041016 16.9736328,50.8505859 C17.1162109,50.9970703 17.3203125,51.0703125 17.5859375,51.0703125 Z" id="?" fill="#FFFFFF" fill-rule="nonzero" opacity="0.414318266"></path>
                <path d="M36.2597656,55.5039062 C36.2597656,55.3476562 36.2617188,55.2128906 36.265625,55.0996094 C36.2695312,54.9863281 36.2861328,54.8808594 36.3154297,54.7832031 C36.3447266,54.6855469 36.390625,54.5898438 36.453125,54.4960938 C36.515625,54.4023438 36.6054688,54.296875 36.7226562,54.1796875 C36.9101562,54.0117188 37.0996094,53.8359375 37.2910156,53.6523438 C37.4824219,53.46875 37.6552734,53.2714844 37.8095703,53.0605469 C37.9638672,52.8496094 38.0888672,52.6240234 38.1845703,52.3837891 C38.2802734,52.1435547 38.328125,51.8847656 38.328125,51.6074219 C38.328125,51.2441406 38.2685547,50.921875 38.1494141,50.640625 C38.0302734,50.359375 37.8564453,50.1230469 37.6279297,49.9316406 C37.3994141,49.7402344 37.1210938,49.5947266 36.7929688,49.4951172 C36.4648438,49.3955078 36.0898438,49.3457031 35.6679688,49.3457031 C35.2929688,49.3457031 34.9453125,49.3935547 34.625,49.4892578 C34.3046875,49.5849609 34.0253906,49.7275391 33.7871094,49.9169922 C33.5488281,50.1064453 33.3603516,50.3408203 33.2216797,50.6201172 C33.0830078,50.8994141 33.0117188,51.2207031 33.0078125,51.5839844 L33.0078125,51.5839844 L34.4140625,51.5839844 C34.4140625,51.3964844 34.4501953,51.2353516 34.5224609,51.1005859 C34.5947266,50.9658203 34.6894531,50.8554688 34.8066406,50.7695312 C34.9238281,50.6835938 35.0576172,50.6201172 35.2080078,50.5791016 C35.3583984,50.5380859 35.5117188,50.5175781 35.6679688,50.5175781 C36.0742188,50.5175781 36.3847656,50.6123047 36.5996094,50.8017578 C36.8144531,50.9912109 36.921875,51.2792969 36.921875,51.6660156 C36.921875,51.8378906 36.8857422,52.0039062 36.8134766,52.1640625 C36.7412109,52.3242188 36.6494141,52.4794922 36.5380859,52.6298828 C36.4267578,52.7802734 36.3027344,52.9248047 36.1660156,53.0634766 C36.0292969,53.2021484 35.8964844,53.3359375 35.7675781,53.4648438 C35.5761719,53.6289062 35.4257812,53.7744141 35.3164062,53.9013672 C35.2070312,54.0283203 35.125,54.1640625 35.0703125,54.3085938 C35.015625,54.453125 34.9804688,54.6191406 34.9648438,54.8066406 C34.9492188,54.9941406 34.9414062,55.2265625 34.9414062,55.5039062 L34.9414062,55.5039062 L36.2597656,55.5039062 Z M35.5859375,58.0703125 C35.8515625,58.0703125 36.0576172,57.9970703 36.2041016,57.8505859 C36.3505859,57.7041016 36.4238281,57.5195312 36.4238281,57.296875 C36.4238281,57.0664062 36.3505859,56.8759766 36.2041016,56.7255859 C36.0576172,56.5751953 35.8515625,56.5 35.5859375,56.5 C35.3203125,56.5 35.1162109,56.5751953 34.9736328,56.7255859 C34.8310547,56.8759766 34.7597656,57.0664062 34.7597656,57.296875 C34.7597656,57.5195312 34.8310547,57.7041016 34.9736328,57.8505859 C35.1162109,57.9970703 35.3203125,58.0703125 35.5859375,58.0703125 Z" id="?" fill="#FFFFFF" fill-rule="nonzero" opacity="0.414318266"></path>
                <path d="M36.2597656,24.5039062 C36.2597656,24.3476562 36.2617188,24.2128906 36.265625,24.0996094 C36.2695312,23.9863281 36.2861328,23.8808594 36.3154297,23.7832031 C36.3447266,23.6855469 36.390625,23.5898438 36.453125,23.4960938 C36.515625,23.4023438 36.6054688,23.296875 36.7226562,23.1796875 C36.9101562,23.0117188 37.0996094,22.8359375 37.2910156,22.6523438 C37.4824219,22.46875 37.6552734,22.2714844 37.8095703,22.0605469 C37.9638672,21.8496094 38.0888672,21.6240234 38.1845703,21.3837891 C38.2802734,21.1435547 38.328125,20.8847656 38.328125,20.6074219 C38.328125,20.2441406 38.2685547,19.921875 38.1494141,19.640625 C38.0302734,19.359375 37.8564453,19.1230469 37.6279297,18.9316406 C37.3994141,18.7402344 37.1210938,18.5947266 36.7929688,18.4951172 C36.4648438,18.3955078 36.0898438,18.3457031 35.6679688,18.3457031 C35.2929688,18.3457031 34.9453125,18.3935547 34.625,18.4892578 C34.3046875,18.5849609 34.0253906,18.7275391 33.7871094,18.9169922 C33.5488281,19.1064453 33.3603516,19.3408203 33.2216797,19.6201172 C33.0830078,19.8994141 33.0117188,20.2207031 33.0078125,20.5839844 L33.0078125,20.5839844 L34.4140625,20.5839844 C34.4140625,20.3964844 34.4501953,20.2353516 34.5224609,20.1005859 C34.5947266,19.9658203 34.6894531,19.8554688 34.8066406,19.7695312 C34.9238281,19.6835938 35.0576172,19.6201172 35.2080078,19.5791016 C35.3583984,19.5380859 35.5117188,19.5175781 35.6679688,19.5175781 C36.0742188,19.5175781 36.3847656,19.6123047 36.5996094,19.8017578 C36.8144531,19.9912109 36.921875,20.2792969 36.921875,20.6660156 C36.921875,20.8378906 36.8857422,21.0039062 36.8134766,21.1640625 C36.7412109,21.3242188 36.6494141,21.4794922 36.5380859,21.6298828 C36.4267578,21.7802734 36.3027344,21.9248047 36.1660156,22.0634766 C36.0292969,22.2021484 35.8964844,22.3359375 35.7675781,22.4648438 C35.5761719,22.6289062 35.4257812,22.7744141 35.3164062,22.9013672 C35.2070312,23.0283203 35.125,23.1640625 35.0703125,23.3085938 C35.015625,23.453125 34.9804688,23.6191406 34.9648438,23.8066406 C34.9492188,23.9941406 34.9414062,24.2265625 34.9414062,24.5039062 L34.9414062,24.5039062 L36.2597656,24.5039062 Z M35.5859375,27.0703125 C35.8515625,27.0703125 36.0576172,26.9970703 36.2041016,26.8505859 C36.3505859,26.7041016 36.4238281,26.5195312 36.4238281,26.296875 C36.4238281,26.0664062 36.3505859,25.8759766 36.2041016,25.7255859 C36.0576172,25.5751953 35.8515625,25.5 35.5859375,25.5 C35.3203125,25.5 35.1162109,25.5751953 34.9736328,25.7255859 C34.8310547,25.8759766 34.7597656,26.0664062 34.7597656,26.296875 C34.7597656,26.5195312 34.8310547,26.7041016 34.9736328,26.8505859 C35.1162109,26.9970703 35.3203125,27.0703125 35.5859375,27.0703125 Z" id="?" fill="#FFFFFF" fill-rule="nonzero" opacity="0.414318266"></path>
                <path d="M22.2597656,71.5039062 C22.2597656,71.3476562 22.2617188,71.2128906 22.265625,71.0996094 C22.2695312,70.9863281 22.2861328,70.8808594 22.3154297,70.7832031 C22.3447266,70.6855469 22.390625,70.5898438 22.453125,70.4960938 C22.515625,70.4023438 22.6054688,70.296875 22.7226562,70.1796875 C22.9101562,70.0117188 23.0996094,69.8359375 23.2910156,69.6523438 C23.4824219,69.46875 23.6552734,69.2714844 23.8095703,69.0605469 C23.9638672,68.8496094 24.0888672,68.6240234 24.1845703,68.3837891 C24.2802734,68.1435547 24.328125,67.8847656 24.328125,67.6074219 C24.328125,67.2441406 24.2685547,66.921875 24.1494141,66.640625 C24.0302734,66.359375 23.8564453,66.1230469 23.6279297,65.9316406 C23.3994141,65.7402344 23.1210938,65.5947266 22.7929688,65.4951172 C22.4648438,65.3955078 22.0898438,65.3457031 21.6679688,65.3457031 C21.2929688,65.3457031 20.9453125,65.3935547 20.625,65.4892578 C20.3046875,65.5849609 20.0253906,65.7275391 19.7871094,65.9169922 C19.5488281,66.1064453 19.3603516,66.3408203 19.2216797,66.6201172 C19.0830078,66.8994141 19.0117188,67.2207031 19.0078125,67.5839844 L19.0078125,67.5839844 L20.4140625,67.5839844 C20.4140625,67.3964844 20.4501953,67.2353516 20.5224609,67.1005859 C20.5947266,66.9658203 20.6894531,66.8554688 20.8066406,66.7695312 C20.9238281,66.6835938 21.0576172,66.6201172 21.2080078,66.5791016 C21.3583984,66.5380859 21.5117188,66.5175781 21.6679688,66.5175781 C22.0742188,66.5175781 22.3847656,66.6123047 22.5996094,66.8017578 C22.8144531,66.9912109 22.921875,67.2792969 22.921875,67.6660156 C22.921875,67.8378906 22.8857422,68.0039062 22.8134766,68.1640625 C22.7412109,68.3242188 22.6494141,68.4794922 22.5380859,68.6298828 C22.4267578,68.7802734 22.3027344,68.9248047 22.1660156,69.0634766 C22.0292969,69.2021484 21.8964844,69.3359375 21.7675781,69.4648438 C21.5761719,69.6289062 21.4257812,69.7744141 21.3164062,69.9013672 C21.2070312,70.0283203 21.125,70.1640625 21.0703125,70.3085938 C21.015625,70.453125 20.9804688,70.6191406 20.9648438,70.8066406 C20.9492188,70.9941406 20.9414062,71.2265625 20.9414062,71.5039062 L20.9414062,71.5039062 L22.2597656,71.5039062 Z M21.5859375,74.0703125 C21.8515625,74.0703125 22.0576172,73.9970703 22.2041016,73.8505859 C22.3505859,73.7041016 22.4238281,73.5195312 22.4238281,73.296875 C22.4238281,73.0664062 22.3505859,72.8759766 22.2041016,72.7255859 C22.0576172,72.5751953 21.8515625,72.5 21.5859375,72.5 C21.3203125,72.5 21.1162109,72.5751953 20.9736328,72.7255859 C20.8310547,72.8759766 20.7597656,73.0664062 20.7597656,73.296875 C20.7597656,73.5195312 20.8310547,73.7041016 20.9736328,73.8505859 C21.1162109,73.9970703 21.3203125,74.0703125 21.5859375,74.0703125 Z" id="?" fill="#FFFFFF" fill-rule="nonzero" opacity="0.414318266"></path>
                <path d="M43.2597656,79.5039062 C43.2597656,79.3476562 43.2617188,79.2128906 43.265625,79.0996094 C43.2695312,78.9863281 43.2861328,78.8808594 43.3154297,78.7832031 C43.3447266,78.6855469 43.390625,78.5898438 43.453125,78.4960938 C43.515625,78.4023438 43.6054688,78.296875 43.7226562,78.1796875 C43.9101562,78.0117188 44.0996094,77.8359375 44.2910156,77.6523438 C44.4824219,77.46875 44.6552734,77.2714844 44.8095703,77.0605469 C44.9638672,76.8496094 45.0888672,76.6240234 45.1845703,76.3837891 C45.2802734,76.1435547 45.328125,75.8847656 45.328125,75.6074219 C45.328125,75.2441406 45.2685547,74.921875 45.1494141,74.640625 C45.0302734,74.359375 44.8564453,74.1230469 44.6279297,73.9316406 C44.3994141,73.7402344 44.1210938,73.5947266 43.7929688,73.4951172 C43.4648438,73.3955078 43.0898438,73.3457031 42.6679688,73.3457031 C42.2929688,73.3457031 41.9453125,73.3935547 41.625,73.4892578 C41.3046875,73.5849609 41.0253906,73.7275391 40.7871094,73.9169922 C40.5488281,74.1064453 40.3603516,74.3408203 40.2216797,74.6201172 C40.0830078,74.8994141 40.0117188,75.2207031 40.0078125,75.5839844 L40.0078125,75.5839844 L41.4140625,75.5839844 C41.4140625,75.3964844 41.4501953,75.2353516 41.5224609,75.1005859 C41.5947266,74.9658203 41.6894531,74.8554688 41.8066406,74.7695312 C41.9238281,74.6835938 42.0576172,74.6201172 42.2080078,74.5791016 C42.3583984,74.5380859 42.5117188,74.5175781 42.6679688,74.5175781 C43.0742188,74.5175781 43.3847656,74.6123047 43.5996094,74.8017578 C43.8144531,74.9912109 43.921875,75.2792969 43.921875,75.6660156 C43.921875,75.8378906 43.8857422,76.0039062 43.8134766,76.1640625 C43.7412109,76.3242188 43.6494141,76.4794922 43.5380859,76.6298828 C43.4267578,76.7802734 43.3027344,76.9248047 43.1660156,77.0634766 C43.0292969,77.2021484 42.8964844,77.3359375 42.7675781,77.4648438 C42.5761719,77.6289062 42.4257812,77.7744141 42.3164062,77.9013672 C42.2070312,78.0283203 42.125,78.1640625 42.0703125,78.3085938 C42.015625,78.453125 41.9804688,78.6191406 41.9648438,78.8066406 C41.9492188,78.9941406 41.9414062,79.2265625 41.9414062,79.5039062 L41.9414062,79.5039062 L43.2597656,79.5039062 Z M42.5859375,82.0703125 C42.8515625,82.0703125 43.0576172,81.9970703 43.2041016,81.8505859 C43.3505859,81.7041016 43.4238281,81.5195312 43.4238281,81.296875 C43.4238281,81.0664062 43.3505859,80.8759766 43.2041016,80.7255859 C43.0576172,80.5751953 42.8515625,80.5 42.5859375,80.5 C42.3203125,80.5 42.1162109,80.5751953 41.9736328,80.7255859 C41.8310547,80.8759766 41.7597656,81.0664062 41.7597656,81.296875 C41.7597656,81.5195312 41.8310547,81.7041016 41.9736328,81.8505859 C42.1162109,81.9970703 42.3203125,82.0703125 42.5859375,82.0703125 Z" id="?" fill="#FFFFFF" fill-rule="nonzero" opacity="0.414318266"></path>
            </g>
        </g>
        <path d="M373.978565,199.241964 C374.306647,205.523514 361.728424,208.83176 336.243896,209.166702 L337.995346,198.412558 C361.656077,192.683945 373.650483,192.960414 373.978565,199.241964 Z" id="Arm-behind-doc" fill="#005A68" transform="translate(355.114358, 201.740303) rotate(35.000000) translate(-355.114358, -201.740303) "></path>
        <g id="document" transform="translate(135.000000, 74.000000)">
            <path d="M255.10555,305.482737 C255.10555,304.437896 252.682274,302.473893 236.301455,299.731194 C213.231025,295.868431 186.273404,290.563392 134.91708,290.56208 C133.475778,290.562043 31.8939134,288.991919 30.5074618,289.012728 C-12.0830437,289.658592 79.1925725,293.662185 67.7867316,300.383721 C60.8543628,304.469011 44.5666563,305.238213 56.5812504,306.954575 C89.006978,311.586798 114.004495,310.6049 162.355112,310.382595 C208.135109,310.172109 255.10555,309.050263 255.10555,305.482737 Z" id="Oval" fill="#E0E7ED" transform="translate(137.105535, 299.817495) scale(-1, 1) rotate(-1.000000) translate(-137.105535, -299.817495) "></path>
            <polygon id="Path-41" fill="#C9CBD9" points="242 91 174 91 234.966886 62"></polygon>
            <path d="M88.1648886,0 L265,0 C257.54531,0.949994105 252.241406,8.2165534 249.088287,21.7996779 C247.352011,29.2792717 253.195139,47.3895633 253.195139,64.1728683 C253.195139,80.9561732 250.157084,90.898486 242.584658,90.898486 C235.012232,90.898486 227.527982,45.2351295 212.725146,90.898486 C207.859854,105.906796 222.52023,142.654178 221.350336,196.146425 C220.960974,213.949653 216.005319,244.900845 206.483372,289 L24.0157014,285.183195 C33.7364088,248.983132 34.8960534,222.264607 27.4946352,205.02762 C16.3925079,179.172138 -7.88584836,129.009736 2.54624463,98.7448806 C8.72923443,80.8072247 29.0221044,72.2562035 45.5011902,56.3477521 C53.8176222,48.3192997 68.038855,29.5367157 88.1648886,0 Z" id="Path-37" fill="#FFFFFF"></path>
            <path d="M88.3783183,0 L265,0 C257.554307,0.951055044 252.256805,8.22572951 249.107491,21.8240234 C247.373311,29.3119703 253.209387,47.4424872 253.209387,64.2445355 C253.209387,81.0465838 250.174998,91 242.611712,91 C236.880149,91 232.638529,70.2810241 224.745831,70.2810241 C222.492096,70.2810241 213.987772,65.3731586 179.205807,64.2445355 C158.607816,63.5761613 111.014997,63.5761613 36.4273474,64.2445355 L88.3783183,0 Z" id="Path-37" fill="#F5F5F5"></path>
            <path d="M181.957792,23 C183.085672,23 184,23.8954305 184,25 C184,26.0395948 183.190076,26.8939316 182.15447,26.9908446 L181.957792,27 L123.042208,27 C121.914328,27 121,26.1045695 121,25 C121,23.9604052 121.809924,23.1060684 122.84553,23.0091554 L123.042208,23 L181.957792,23 Z" id="Path-38" fill="#BDBFCE" fill-rule="nonzero"></path>
            <path d="M152.976111,49 C154.093874,49 155,49.8954305 155,51 C155,52.0395948 154.197342,52.8939316 153.171025,52.9908446 L152.976111,53 L80.0238886,53 C78.9061258,53 78,52.1045695 78,51 C78,49.9604052 78.8026581,49.1060684 79.8289746,49.0091554 L80.0238886,49 L152.976111,49 Z" id="Path-39" fill="#BDBFCE" fill-rule="nonzero"></path>
            <path d="M122.944998,96 C124.079944,96 125,96.8954305 125,98 C125,99.0395948 124.185002,99.8939316 123.142908,99.9908446 L122.944998,100 L19.0550022,100 C17.9200558,100 17,99.1045695 17,98 C17,96.9604052 17.8149976,96.1060684 18.8570918,96.0091554 L19.0550022,96 L122.944998,96 Z" id="Path-40" fill="#C9CBD9" fill-rule="nonzero"></path>
            <path d="M139.934002,142 C141.073515,141.998593 141.998493,142.861927 142,143.928311 C142.001415,144.931967 141.184302,145.75778 140.138146,145.852636 L139.939452,145.86172 L28.0659981,146 C26.9264849,146.001407 26.0015069,145.138073 26,144.071689 C25.9985853,143.068033 26.8156982,142.24222 27.8618536,142.147364 L28.0605479,142.13828 L139.934002,142 Z" id="Path-40" fill="#C9CBD9" fill-rule="nonzero"></path>
            <path d="M182.955474,190 C184.084008,189.999398 185,190.878591 185,191.963733 C185,192.985042 184.19068,193.824784 183.154528,193.920545 L182.957741,193.929645 L51.0445258,194 C49.9159915,194.000602 49,193.121409 49,192.036267 C49,191.014958 49.8093201,190.175216 50.8454718,190.079455 L51.0422589,190.070355 L182.955474,190 Z" id="Path-40" fill="#C9CBD9" fill-rule="nonzero"></path>
            <path d="M188.955474,236 C190.084008,235.999398 191,236.878591 191,237.963733 C191,238.985042 190.19068,239.824784 189.154528,239.920545 L188.957741,239.929645 L57.0445258,240 C55.9159915,240.000602 55,239.121409 55,238.036267 C55,237.014958 55.8093201,236.175216 56.8454718,236.079455 L57.0422589,236.070355 L188.955474,236 Z" id="Path-40" fill="#C9CBD9" fill-rule="nonzero"></path>
        </g>
        <g id="Woman-holding-Document" transform="translate(318.000000, 171.000000)">
            <path d="M101.373158,208.194133 C101.373158,206.488442 79.5272662,202.026149 45.7411869,202.026149 C42.5537403,202.026149 55.2283982,199.910922 52.1726385,199.998322 C22.8381643,200.837338 -12.0702016,204.273441 4.10026424,208.194133 C14.4838739,210.711744 29.679921,208.301012 52.1726385,208.194133 C61.4080678,208.15025 64.9148981,210.734552 73.820867,210.966259 C85.4520279,211.268867 101.373158,209.160148 101.373158,208.194133 Z" id="Oval" fill="#E0E7ED" transform="translate(50.686579, 205.495686) scale(-1, 1) translate(-50.686579, -205.495686) "></path>
            <path d="M13.1762655,194.181523 L14.7409142,203.304113 C14.7409142,203.304113 19.920743,203.912677 24.4267372,206.432085 C24.739536,206.606237 24.5704556,208.076859 24.0716682,208.13491 C20.0507327,208.594217 15.2636495,208.439763 12.2587145,207.303114 C10.2251398,206.533892 9.71041491,205.299788 8.73290014,204.829632 L7.46430058,194.615564 L13.1762655,194.181523 Z" id="Shape" fill="#FDE2BF" transform="translate(16.024485, 201.278797) scale(-1, 1) rotate(-4.000000) translate(-16.024485, -201.278797) "></path>
            <path d="M21.9840556,208.575843 C22.4179216,208.481565 22.830309,208.264835 23.0708684,207.854931 C23.4746644,207.167048 23.2169222,206.535702 22.7400993,206.196472 C21.4857542,205.306039 20.0847131,205.123005 18.7745238,204.675409 C18.7745238,204.680121 18.9856553,206.220076 17.6453962,207.251855 C17.6453962,207.251855 8.05631069,205.820368 6.11912072,203.502247 C5.96025777,205.110161 5.98966508,205.978509 6.20734264,206.107291 C8.94353326,207.737482 16.0946476,209.871515 21.9840556,208.575843 Z" id="Shape" fill="#313050" transform="translate(14.644666, 206.238640) scale(-1, 1) rotate(-4.000000) translate(-14.644666, -206.238640) "></path>
            <path d="M86.5039018,190.658842 L82.1123968,198.509979 C82.1123968,198.509979 85.6155254,201.82395 87.9960485,206.743654 C88.1617278,207.084515 88.1705203,207.465491 87.9762947,207.764336 C87.7106297,208.1731 87.169526,208.289118 86.7116521,208.043593 C80.5309747,204.711943 75.616657,199.569202 74.2279476,197.092888 L80.3277981,190.118503 L86.5039018,190.658842 Z" id="Shape" fill="#FDE2BF" transform="translate(81.174557, 199.144991) scale(-1, 1) rotate(-9.000000) translate(-81.174557, -199.144991) "></path>
            <path d="M85.4181049,208.855493 C85.8531539,209.008828 86.3564392,209.018399 86.8502166,208.720316 C87.6789383,208.220143 87.9059079,207.392749 87.7405244,206.749852 C87.3040792,205.060722 86.243478,204.043378 85.4468704,202.795888 C85.4435431,202.800936 84.5353194,204.574326 82.6684262,204.893942 C82.6684262,204.893942 75.4858351,198.583012 75.4777178,194.964241 C74.2660737,196.326476 73.7072117,197.140371 73.8011316,197.405924 C74.9736391,200.756136 79.5013941,206.791137 85.4181049,208.855493 Z" id="Shape" fill="#313050" transform="translate(80.790997, 201.962380) scale(-1, 1) rotate(-9.000000) translate(-80.790997, -201.962380) "></path>
            <path d="M75,200 L68.0009766,200 C58.9102807,176.034104 51.7179863,159.104615 46.4240932,149.211534 C32.9517772,124.034842 17.3969727,104.640145 17.3969727,102.548441 C17.3969727,99.2238475 32.6540879,96.7077003 63.1683184,95 C66.5926688,111.656812 69.1501363,127.211176 70.8407209,141.663093 C72.5313055,156.115009 73.9177318,175.560645 75,200 Z" id="Path-124" fill="#A5D867" transform="translate(46.198486, 147.500000) scale(-1, 1) translate(-46.198486, -147.500000) "></path>
            <path d="M46.7054426,195.68545 L41,191.995686 L51.0553832,93 L84.7517254,96.7777857 C79.098646,120.563598 74.4300372,138.210132 70.7458992,149.717389 C67.0617611,161.224646 59.0482756,176.547333 46.7054426,195.68545 Z" id="Path-124" fill="#A5D867" transform="translate(62.875863, 144.342725) scale(-1, 1) translate(-62.875863, -144.342725) "></path>
            <path d="M11.4371038,42.63931 C14.0038507,43.1590929 14.5976942,45.5777323 16.1669146,45.8459805 C16.7125002,45.9392449 15.1237032,41.1959812 17.1557049,42.4132303 C19.1877066,43.6304795 21.0442397,48.7208294 22.0836842,49.390359 C24.4477489,50.9131062 28.1435683,53.3647405 33.1711424,56.745262 L32.8845257,58.1095701 C17.7141941,50.2720469 9.64132487,45.6778502 8.66591806,44.3269801 C8.5216177,44.1271342 8.87035689,42.1195271 11.4371038,42.63931 Z" id="Path-4" fill="#DDDDDD"></path>
            <path d="M5.55183374,47.7220177 L9.31648535,54.5501814 C10.3317631,57.1010467 11.162393,58.4047374 11.8083752,58.4612535 C12.4543574,58.5177696 12.5684466,57.2137237 12.1506429,54.5491159 C15.0791633,57.5817136 17.018433,59.0140948 17.9684522,58.8462595 C19.393481,58.5945067 22.5972899,56.4720163 22.5981261,54.251835 C22.5986835,52.7717142 18.2531428,48.9572362 9.56150378,42.808401 L5.55183374,47.7220177 Z" id="Path-126" fill="#FDE2BF" transform="translate(14.074980, 50.833931) rotate(-185.000000) translate(-14.074980, -50.833931) "></path>
            <path d="M56.846073,30.8263586 C81.958475,40.8906466 57.9969171,86.6828078 43.9324575,79.1782714 C34.5561512,74.1752471 25.7109895,67.1067087 17.3969727,57.9726562 L21.6689453,50.5 C35.1116075,59.1549934 42.5327782,63.5381281 43.9324575,63.6494041 C46.0319765,63.8163181 31.733671,20.7620706 56.846073,30.8263586 Z" id="Path-71" fill="#016E80"></path>
            <path d="M42.0434606,13.687115 C42.506603,20.584129 48.3143264,25.6788253 55.0318993,25.3846761 C60.3749639,25.1508858 63.2358313,22.1514493 65.1056969,16.0515756 C67.2784495,8.96342494 61.2147681,-1.32294431 51.5041479,0.140558605 C44.8861302,1.13849295 41.5762196,6.79010098 42.0434606,13.687115 Z" id="Shape" fill="#F9C071"></path>
            <path d="M54.1436779,63.2301566 C54.6397247,64.4348429 63.9438824,69.2700897 66.4851024,63.2301566 C69.3610886,56.3945563 69.3245588,32.5479927 70.6058846,32.0344268 C73.0157414,31.0634527 74.1164218,28.1964035 73.0588997,25.6247105 C72.0014596,23.0566392 71.7486188,18.1407653 63.9236294,27.3819237 C56.09864,36.6230821 53.3030214,61.1858398 54.1436779,63.2301566 Z" id="Shape" fill="#F9C071" transform="translate(63.730513, 44.101435) scale(-1, 1) translate(-63.730513, -44.101435) "></path>
            <path d="M55.3949737,21.2503029 C55.3949737,21.2503029 52.8648938,26.7528568 58.2264151,31.8806058 C58.2264151,31.8806058 55.0697913,37.4591927 46.803188,33.0425188 C46.803188,33.0425188 44.0783655,30.7366095 45.327826,20 L55.3949737,21.2503029 Z" id="Shape" fill="#FDE2BF" transform="translate(51.613208, 27.371867) rotate(10.000000) translate(-51.613208, -27.371867) "></path>
            <path d="M40.0392076,15.1490068 C40.500941,24.5541073 46.0145755,26.7751525 51.7595054,25.7621664 C57.5044354,24.7491802 58.3346554,19.9395639 57.8987305,14.0832189 C57.4679548,8.23145459 53.1152113,3.723331 48.1843738,4.01323408 C43.2482725,4.30772949 39.5774742,5.74390632 40.0392076,15.1490068 Z" id="Shape" fill="#FDE2BF" transform="translate(48.998700, 14.993400) rotate(10.000000) translate(-48.998700, -14.993400) "></path>
            <path d="M46.5566558,11.9487154 C48.0888392,15.3079452 52.3103235,16.3370992 55.9851694,14.2476048 C59.6600154,12.1581104 61.3996819,7.74299532 59.8674587,4.3837655 C58.3353152,1.02453568 54.1138309,-0.00907349474 50.4389451,2.08042091 C46.764139,4.16991532 45.0244725,8.58948559 46.5566558,11.9487154 Z" id="Shape" fill="#F9C071" transform="translate(53.212068, 8.164642) scale(-1, 1) translate(-53.212068, -8.164642) "></path>
            <polygon id="Path-58" fill="#E5CBAA" transform="translate(46.137908, 28.111575) scale(-1, 1) translate(-46.137908, -28.111575) " points="47.0118488 30.8263586 45.2639668 25.6666641 47.0118488 25.396792"></polygon>
            <path d="M55.8719743,26 C60.1981567,26 63.5918757,32.8295753 67.1095371,40.1744179 C70.8575161,48.0001613 76.6936993,56.809493 71.3701611,71.9912045 C70.4668436,74.5672931 72.3434565,82.5785722 77,96.0250417 C71.0454276,99.3416806 65.1524874,101 59.3211794,101 C53.4898715,101 43.3106001,99.3416806 28.7833653,96.0250417 C33.0334968,85.1462675 35.1585625,77.1349884 35.1585625,71.9912045 C35.1585625,40.7990178 44.6915394,26 55.8719743,26 Z" id="Path-62" fill="#016E80" transform="translate(52.891683, 63.500000) scale(-1, 1) translate(-52.891683, -63.500000) "></path>
            <polygon id="Path-2" fill="#97C75E" points="52 138.90429 56.2810977 132 57 155"></polygon>
            <path d="M34.7443848,73.5136719 C39.8148266,77.0073725 43.5559597,78.0102471 45.9677842,76.5222959 C48.3796087,75.0343447 51.057014,69.860246 54,61 C50.273319,71.7897225 47.4248083,77.8734221 45.4544678,79.2510986 C42.498957,81.3176135 34.236281,77.827715 34.4132042,76.5222959 C34.5311529,75.6520165 34.6415464,74.6491418 34.7443848,73.5136719 Z" id="Path-42" fill="#005A68"></path>
            <path d="M32.4617301,57.3131406 C33.8955523,58.0431438 35.4706222,57.3253242 37.1869399,55.1596818 C38.9032576,52.9940394 41.114397,48.934436 43.8203582,42.9808716 C41.046681,51.4629257 39.1065616,56.4272153 38,57.8737405 C36.8934384,59.3202657 35.0473485,59.133399 32.4617301,57.3131406 Z" id="Path-3" fill="#005A68"></path>
        </g>
        <g id="Cat" transform="translate(140.500000, 351.500000) scale(-1, 1) translate(-140.500000, -351.500000) translate(119.000000, 321.000000)">
            <path d="M32.6689453,46.8422852 C29.5144594,46.8422852 -11.5649414,48.9973271 3.78564453,51 C6.34636097,51.334077 26.0534795,50.1265963 33.8041992,51 C37.7237582,51.4416825 30.6059345,53.7607234 33.8041992,53.5 C34.6552817,53.4306195 42.3440131,50.7601895 42.3440131,49.7601895 C42.3440131,48.7601895 42.534175,46.8422852 32.6689453,46.8422852 Z" id="Oval" fill="#E0E7ED"></path>
            <path d="M9.90220124,16.5220531 C14.6676806,16.5154127 17.9291575,14.0097346 17.9348882,9.92476039 C17.9406066,5.83978613 13.942844,2.5338262 9.17736469,2.54044345 C4.41188536,2.54708059 1.28843996,5.86294374 1.28270902,9.947918 C1.2769908,14.0328923 5.13672191,16.5286671 9.90220124,16.5220531 Z" id="Oval" fill="#F9C071" transform="translate(9.608799, 9.531248) rotate(10.000000) translate(-9.608799, -9.531248) "></path>
            <path d="M7,6 C8.04823019,2.38628168 8.98779167,0.406346974 9.81868443,0.0601958941 C10.6495772,-0.285955186 11.7100157,0.860776744 13,3.50039168 L7,6 Z" id="Path-23" fill="#F9C071"></path>
            <path d="M8.92895508,2.49353027 C9.15804106,1.36015136 9.51505603,0.720665685 10,0.575073242 C10.484944,0.429480799 11.1516106,1.23778972 12,3 L8.92895508,2.49353027 Z" id="Path-23" fill="#F5AB44"></path>
            <circle id="Oval" fill="#313050" cx="3.5" cy="6.5" r="1"></circle>
            <path d="M14,4.7280638 C16.6299706,2.26399414 18.2221863,1.46914111 18.7766469,2.34350472 C19.3311075,3.21786832 18.853257,5.77003341 17.3430954,10 L14,4.7280638 Z" id="Path-24" fill="#F9C071"></path>
            <path d="M15,4.3640319 C16.5779824,3.13199707 17.5333118,2.73457056 17.8659881,3.17175236 C18.1986645,3.60893416 17.9119542,4.88501671 17.0058572,7 L15,4.3640319 Z" id="Path-24" fill="#F5AB44"></path>
            <path d="M3,31 L5.29978591,47.8218538 C4.12038413,48.4148183 3.59677378,48.9976782 3.72895486,49.5704335 C3.86113594,50.1431888 5.61815099,50.1431888 9,49.5704335 L8.66602416,33.8032726 L3,31 Z" id="Path-26" fill="#F5AB44"></path>
            <path d="M20.297523,40.1801073 C20.0638535,41.6034454 20.8419679,43.5685811 22.6318661,46.0755145 C19.4366389,46.1774105 17.4610999,46.3405787 16.7052491,46.5650191 C15.571473,46.9016798 14.9283391,47.600072 15.0063691,48.3398107 C15.0583892,48.8329698 15.8498165,49.0498378 17.3806512,48.9904147 L29,48.9904147 L23.6666046,39.7726703 C21.6542197,38.6209568 20.5311925,38.7567692 20.297523,40.1801073 Z" id="Path-27" fill="#F5AB44"></path>
            <path d="M39.0589694,46.3005507 C41.2599693,47.9381596 41.5891283,49.6527913 40.0464464,51.4444459 C37.7324236,54.1319277 24.3381406,56.3904709 23.7035378,57.5134027 C23.068935,58.6363345 26.3808295,59.0428574 25.1208453,60.4729758 C23.8608611,61.9030943 19.0344507,60.258647 20.1721629,57.5134027 C20.7101764,56.2152025 21.1667178,54.3582009 32.847381,51.9410368 C33.7488981,51.7544793 37.4004517,50.0936848 34.6636397,47.6904488 C32.8390984,46.0882914 34.3042083,45.6249921 39.0589694,46.3005507 Z" id="Path-29" fill="#F9C071"></path>
            <path d="M3.68249025,13.6305273 L16.0038452,13 C15.5770723,16.2004773 16.1041682,18.4654144 17.5851329,19.7948113 C19.80658,21.7889066 27.4451788,23.4171666 32.5423025,26.8902224 C37.6394263,30.3632781 39,42.473257 39,46.2120962 C39,48.7046556 37.6082244,49.9509353 34.8246732,49.9509353 C22.6047426,50.0501866 16.1177468,50.0501866 15.3636859,49.9509353 C14.2325945,49.8020584 14.7798867,47.4943217 16.160571,47.4943217 C17.5412553,47.4943217 25.2202148,47.4943217 25.8432778,47.4943217 C26.0801936,47.4943217 23.8303645,43.9830342 22.6628774,43.7171483 C20.6390832,43.2562452 14.4397374,38.6194152 13.7732596,38.6194152 C13.328941,38.6194152 11.862032,42.3965886 9.37253251,49.9509353 C6.31846634,51.3496882 4.74414149,51.3496882 4.64955795,49.9509353 C4.50768265,47.852806 5.16373172,48.7406004 5.88773539,47.4943217 C6.55957158,44.8920925 7.47606904,41.043147 8.63722776,35.9474851 C4.38906416,34.0332021 1.94610338,31.9826169 1.30834542,29.7957294 C0.351708466,26.5153982 1.85257972,20.7693202 2.66737033,17.5447518 C3.10318783,15.1329686 3.44156114,13.8282271 3.68249025,13.6305273 Z" id="Path-25" fill="#F9C071"></path>
        </g>
    </g>
</svg>