<?xml version="1.0" encoding="UTF-8"?>
<svg width="500px" height="432px" viewBox="0 0 500 432" version="1.1" xmlns="http://www.w3.org/2000/svg" xmlns:xlink="http://www.w3.org/1999/xlink">
    <!-- Generator: Sketch 63.1 (92452) - https://sketch.com -->
    <title>4_PL_CI"Changes to your contract" </title>
    <desc>Created with Sketch.</desc>
    <defs>
        <linearGradient x1="50%" y1="100%" x2="50%" y2="0%" id="linearGradient-1">
            <stop stop-color="#FFFFFF" offset="0%"></stop>
            <stop stop-color="#ECF3FA" offset="100%"></stop>
        </linearGradient>
        <filter x="0.0%" y="0.0%" width="100.0%" height="100.0%" filterUnits="objectBoundingBox" id="filter-2">
            <feGaussianBlur stdDeviation="0" in="SourceGraphic"></feGaussianBlur>
        </filter>
    </defs>
    <g id="4_PL_CI&quot;Changes-to-your-contract&quot;-" stroke="none" stroke-width="1" fill="none" fill-rule="evenodd">
        <g id="Background" transform="translate(248.500000, 216.500000) scale(-1, 1) translate(-248.500000, -216.500000) translate(-1.000000, 0.000000)">
            <path d="M206.659342,430.278286 C343.249511,444.672455 498,394.537736 498,223 C498,51.4622637 270.172592,-5.27899798 156.559384,0.436020938 C42.9461766,6.15103985 -2.1747449,166.141519 4.50403603e-13,272 C2.1747449,377.858481 70.0691732,415.884117 206.659342,430.278286 Z" id="Oval" fill-opacity="0.15" fill="#D8E5F0"></path>
            <path d="M1.19139179,289.221766 C149.240922,274.07717 263.510458,265.669914 344,264 C424.489542,262.330086 473.746473,267.258305 491.770792,278.784658 C486.839979,297.376832 482.252402,310.346815 478.008062,317.694608 C464.305381,341.416656 450.199299,361.871497 440,371.047954 C429.888468,380.145446 412.902954,391.849001 393.793809,401.574455 C379.314074,408.943806 363.542827,414.768558 349.033376,419.809878 C335.572032,424.487031 313.277985,429.833222 275.050099,431.935599 C261.601558,432.675214 246.156066,431.647821 228.463838,431.935599 C200.973231,432.382757 110.481146,423.140001 61.6518558,392.128914 C43.8728916,380.837637 22.358172,361.121485 10.251882,333.713515 C6.49152467,325.200274 3.47136126,310.369691 1.19139179,289.221766 Z" id="Path-8" fill="url(#linearGradient-1)" filter="url(#filter-2)"></path>
            <g id="Tree" transform="translate(45.000000, 170.000000)">
                <ellipse id="Oval" fill="#E0E7ED" cx="376.5" cy="184" rx="33.5" ry="1"></ellipse>
                <polygon id="Rectangle" fill="#E8F0F8" points="372 132 381 132 381 183 372 183"></polygon>
                <path d="M359.005672,115.084569 C373.315116,115.115351 384.890209,103.511386 384.859427,89.1663274 C384.828523,74.8212687 373.203423,63.1672975 358.893979,63.1363768 C348.812642,63.1146986 341.00301,67.6640871 335.465084,76.7845421 L350.237345,87.3490249 L333.648819,83.3788432 C333.240335,85.8626839 333.03748,87.7546142 333.040257,89.0546342 C333.071128,103.399693 344.696228,115.053664 359.005672,115.084569 Z" id="Oval" fill="#E8F0F8" transform="translate(358.949842, 89.110473) rotate(120.000000) translate(-358.949842, -89.110473) "></path>
                <path d="M359.097137,107.225405 C379.822277,107.227397 446.246569,57.7892772 403.030889,23.6596045 C403.030889,23.6596045 398.245527,29.7473734 388.674802,41.9229113 C385.317854,22.9877594 381.021869,13.5201835 375.786848,13.5201835 C361.185504,13.5187995 349.860794,20.0743485 341.812719,33.1868303 L363.176818,48.3127664 L339.162476,42.6609928 C338.563623,46.2287611 338.264197,48.945994 338.264197,50.8126917 C338.266149,71.4107511 338.371996,107.223413 359.097137,107.225405 Z" id="Oval" fill="#E8F0F8" transform="translate(377.807111, 60.372794) scale(-1, 1) rotate(-27.000000) translate(-377.807111, -60.372794) "></path>
                <path d="M378.81853,155.671185 C399.419952,155.641079 416.145074,138.81856 416.175176,118.096997 C416.205197,97.375434 399.528814,80.6016612 378.927392,80.6316865 C364.413209,80.6528953 353.145916,87.2652788 345.125511,100.468837 L362.689294,114.415713 L342.476368,110.003908 C341.875371,113.593995 341.573497,116.327984 341.570745,118.205874 C341.540725,138.927437 358.217108,155.70121 378.81853,155.671185 Z" id="Oval" fill="#E8F0F8" transform="translate(378.872961, 118.151436) scale(-1, 1) rotate(77.000000) translate(-378.872961, -118.151436) "></path>
                <path d="M6.45458984,83.6318359 C6.45458984,83.3583984 6.45800781,83.1225586 6.46484375,82.9243164 C6.47167969,82.7260742 6.50073242,82.5415039 6.55200195,82.3706055 C6.60327148,82.199707 6.68359375,82.0322266 6.79296875,81.8681641 C6.90234375,81.7041016 7.05957031,81.5195312 7.26464844,81.3144531 C7.59277344,81.0205078 7.92431641,80.7128906 8.25927734,80.3916016 C8.59423828,80.0703125 8.89672852,79.7250977 9.16674805,79.355957 C9.43676758,78.9868164 9.65551758,78.592041 9.82299805,78.1716309 C9.99047852,77.7512207 10.0742188,77.2983398 10.0742188,76.8129883 C10.0742188,76.1772461 9.9699707,75.6132812 9.76147461,75.1210938 C9.55297852,74.6289062 9.2487793,74.215332 8.84887695,73.8803711 C8.44897461,73.5454102 7.96191406,73.2907715 7.38769531,73.1164551 C6.81347656,72.9421387 6.15722656,72.8549805 5.41894531,72.8549805 C4.76269531,72.8549805 4.15429688,72.9387207 3.59375,73.1062012 C3.03320312,73.2736816 2.54443359,73.5231934 2.12744141,73.8547363 C1.71044922,74.1862793 1.38061523,74.5964355 1.13793945,75.0852051 C0.895263672,75.5739746 0.770507812,76.1362305 0.763671875,76.7719727 L0.763671875,76.7719727 L3.22460938,76.7719727 C3.22460938,76.4438477 3.2878418,76.1618652 3.41430664,75.9260254 C3.54077148,75.6901855 3.70654297,75.4970703 3.91162109,75.3466797 C4.11669922,75.1962891 4.35083008,75.0852051 4.61401367,75.0134277 C4.87719727,74.9416504 5.14550781,74.9057617 5.41894531,74.9057617 C6.12988281,74.9057617 6.67333984,75.0715332 7.04931641,75.4030762 C7.42529297,75.7346191 7.61328125,76.2387695 7.61328125,76.9155273 C7.61328125,77.2163086 7.55004883,77.5068359 7.42358398,77.7871094 C7.29711914,78.0673828 7.13647461,78.3391113 6.94165039,78.6022949 C6.74682617,78.8654785 6.52978516,79.1184082 6.29052734,79.361084 C6.05126953,79.6037598 5.81884766,79.8378906 5.59326172,80.0634766 C5.25830078,80.3505859 4.99511719,80.6052246 4.80371094,80.8273926 C4.61230469,81.0495605 4.46875,81.2871094 4.37304688,81.5400391 C4.27734375,81.7929688 4.21582031,82.0834961 4.18847656,82.4116211 C4.16113281,82.7397461 4.14746094,83.1464844 4.14746094,83.6318359 L4.14746094,83.6318359 L6.45458984,83.6318359 Z M5.27539062,88.1230469 C5.74023438,88.1230469 6.10083008,87.994873 6.35717773,87.7385254 C6.61352539,87.4821777 6.74169922,87.1591797 6.74169922,86.7695312 C6.74169922,86.3662109 6.61352539,86.032959 6.35717773,85.7697754 C6.10083008,85.5065918 5.74023438,85.375 5.27539062,85.375 C4.81054688,85.375 4.45336914,85.5065918 4.20385742,85.7697754 C3.9543457,86.032959 3.82958984,86.3662109 3.82958984,86.7695312 C3.82958984,87.1591797 3.9543457,87.4821777 4.20385742,87.7385254 C4.45336914,87.994873 4.81054688,88.1230469 5.27539062,88.1230469 Z" id="?" fill="#FFFFFF" fill-rule="nonzero" opacity="0.414318266"></path>
                <path d="M402.341797,108.944824 L402.423828,99.0703125 L399.942383,99.0703125 L400.024414,108.944824 L402.341797,108.944824 Z M401.193359,114.133301 C401.658203,114.133301 402.01709,114.005127 402.27002,113.748779 C402.522949,113.492432 402.649414,113.169434 402.649414,112.779785 C402.649414,112.383301 402.522949,112.053467 402.27002,111.790283 C402.01709,111.5271 401.658203,111.395508 401.193359,111.395508 C400.728516,111.395508 400.371338,111.5271 400.121826,111.790283 C399.872314,112.053467 399.747559,112.383301 399.747559,112.779785 C399.747559,113.169434 399.872314,113.492432 400.121826,113.748779 C400.371338,114.005127 400.728516,114.133301 401.193359,114.133301 Z" id="!" fill="#FFFFFF" fill-rule="nonzero" opacity="0.414318266" transform="translate(401.198486, 106.601807) scale(-1, 1) translate(-401.198486, -106.601807) "></path>
                <path d="M389.341797,141.944824 L389.423828,132.070312 L386.942383,132.070312 L387.024414,141.944824 L389.341797,141.944824 Z M388.193359,147.133301 C388.658203,147.133301 389.01709,147.005127 389.27002,146.748779 C389.522949,146.492432 389.649414,146.169434 389.649414,145.779785 C389.649414,145.383301 389.522949,145.053467 389.27002,144.790283 C389.01709,144.5271 388.658203,144.395508 388.193359,144.395508 C387.728516,144.395508 387.371338,144.5271 387.121826,144.790283 C386.872314,145.053467 386.747559,145.383301 386.747559,145.779785 C386.747559,146.169434 386.872314,146.492432 387.121826,146.748779 C387.371338,147.005127 387.728516,147.133301 388.193359,147.133301 Z" id="!" fill="#FFFFFF" fill-rule="nonzero" opacity="0.414318266" transform="translate(388.198486, 139.601807) scale(-1, 1) translate(-388.198486, -139.601807) "></path>
                <path d="M387.341797,70.9448242 L387.423828,61.0703125 L384.942383,61.0703125 L385.024414,70.9448242 L387.341797,70.9448242 Z M386.193359,76.1333008 C386.658203,76.1333008 387.01709,76.005127 387.27002,75.7487793 C387.522949,75.4924316 387.649414,75.1694336 387.649414,74.7797852 C387.649414,74.3833008 387.522949,74.0534668 387.27002,73.7902832 C387.01709,73.5270996 386.658203,73.3955078 386.193359,73.3955078 C385.728516,73.3955078 385.371338,73.5270996 385.121826,73.7902832 C384.872314,74.0534668 384.747559,74.3833008 384.747559,74.7797852 C384.747559,75.1694336 384.872314,75.4924316 385.121826,75.7487793 C385.371338,76.005127 385.728516,76.1333008 386.193359,76.1333008 Z" id="!" fill="#FFFFFF" fill-rule="nonzero" opacity="0.414318266" transform="translate(386.198486, 68.601807) scale(-1, 1) translate(-386.198486, -68.601807) "></path>
                <path d="M359.341797,125.944824 L359.423828,116.070312 L356.942383,116.070312 L357.024414,125.944824 L359.341797,125.944824 Z M358.193359,131.133301 C358.658203,131.133301 359.01709,131.005127 359.27002,130.748779 C359.522949,130.492432 359.649414,130.169434 359.649414,129.779785 C359.649414,129.383301 359.522949,129.053467 359.27002,128.790283 C359.01709,128.5271 358.658203,128.395508 358.193359,128.395508 C357.728516,128.395508 357.371338,128.5271 357.121826,128.790283 C356.872314,129.053467 356.747559,129.383301 356.747559,129.779785 C356.747559,130.169434 356.872314,130.492432 357.121826,130.748779 C357.371338,131.005127 357.728516,131.133301 358.193359,131.133301 Z" id="!" fill="#FFFFFF" fill-rule="nonzero" opacity="0.414318266" transform="translate(358.198486, 123.601807) scale(-1, 1) translate(-358.198486, -123.601807) "></path>
                <path d="M376.341797,100.944824 L376.423828,91.0703125 L373.942383,91.0703125 L374.024414,100.944824 L376.341797,100.944824 Z M375.193359,106.133301 C375.658203,106.133301 376.01709,106.005127 376.27002,105.748779 C376.522949,105.492432 376.649414,105.169434 376.649414,104.779785 C376.649414,104.383301 376.522949,104.053467 376.27002,103.790283 C376.01709,103.5271 375.658203,103.395508 375.193359,103.395508 C374.728516,103.395508 374.371338,103.5271 374.121826,103.790283 C373.872314,104.053467 373.747559,104.383301 373.747559,104.779785 C373.747559,105.169434 373.872314,105.492432 374.121826,105.748779 C374.371338,106.005127 374.728516,106.133301 375.193359,106.133301 Z" id="!" fill="#FFFFFF" fill-rule="nonzero" opacity="0.414318266" transform="translate(375.198486, 98.601807) scale(-1, 1) translate(-375.198486, -98.601807) "></path>
                <path d="M350.341797,86.9448242 L350.423828,77.0703125 L347.942383,77.0703125 L348.024414,86.9448242 L350.341797,86.9448242 Z M349.193359,92.1333008 C349.658203,92.1333008 350.01709,92.005127 350.27002,91.7487793 C350.522949,91.4924316 350.649414,91.1694336 350.649414,90.7797852 C350.649414,90.3833008 350.522949,90.0534668 350.27002,89.7902832 C350.01709,89.5270996 349.658203,89.3955078 349.193359,89.3955078 C348.728516,89.3955078 348.371338,89.5270996 348.121826,89.7902832 C347.872314,90.0534668 347.747559,90.3833008 347.747559,90.7797852 C347.747559,91.1694336 347.872314,91.4924316 348.121826,91.7487793 C348.371338,92.005127 348.728516,92.1333008 349.193359,92.1333008 Z" id="!" fill="#FFFFFF" fill-rule="nonzero" opacity="0.414318266" transform="translate(349.198486, 84.601807) scale(-1, 1) translate(-349.198486, -84.601807) "></path>
                <path d="M363.341797,43.9448242 L363.423828,34.0703125 L360.942383,34.0703125 L361.024414,43.9448242 L363.341797,43.9448242 Z M362.193359,49.1333008 C362.658203,49.1333008 363.01709,49.005127 363.27002,48.7487793 C363.522949,48.4924316 363.649414,48.1694336 363.649414,47.7797852 C363.649414,47.3833008 363.522949,47.0534668 363.27002,46.7902832 C363.01709,46.5270996 362.658203,46.3955078 362.193359,46.3955078 C361.728516,46.3955078 361.371338,46.5270996 361.121826,46.7902832 C360.872314,47.0534668 360.747559,47.3833008 360.747559,47.7797852 C360.747559,48.1694336 360.872314,48.4924316 361.121826,48.7487793 C361.371338,49.005127 361.728516,49.1333008 362.193359,49.1333008 Z" id="!" fill="#FFFFFF" fill-rule="nonzero" opacity="0.414318266" transform="translate(362.198486, 41.601807) scale(-1, 1) translate(-362.198486, -41.601807) "></path>
                <path d="M402.341797,40.9448242 L402.423828,31.0703125 L399.942383,31.0703125 L400.024414,40.9448242 L402.341797,40.9448242 Z M401.193359,46.1333008 C401.658203,46.1333008 402.01709,46.005127 402.27002,45.7487793 C402.522949,45.4924316 402.649414,45.1694336 402.649414,44.7797852 C402.649414,44.3833008 402.522949,44.0534668 402.27002,43.7902832 C402.01709,43.5270996 401.658203,43.3955078 401.193359,43.3955078 C400.728516,43.3955078 400.371338,43.5270996 400.121826,43.7902832 C399.872314,44.0534668 399.747559,44.3833008 399.747559,44.7797852 C399.747559,45.1694336 399.872314,45.4924316 400.121826,45.7487793 C400.371338,46.005127 400.728516,46.1333008 401.193359,46.1333008 Z" id="!" fill="#FFFFFF" fill-rule="nonzero" opacity="0.414318266" transform="translate(401.198486, 38.601807) scale(-1, 1) translate(-401.198486, -38.601807) "></path>
            </g>
            <g id="Tree" transform="translate(36.500000, 264.500000) scale(-1, 1) translate(-36.500000, -264.500000) translate(4.000000, 209.000000)">
                <ellipse id="Oval" fill="#E0E7ED" cx="32.5" cy="108" rx="19.5" ry="2"></ellipse>
                <polygon id="Rectangle" fill="#E8F0F8" points="31 76 35 76 35 108 31 108"></polygon>
                <path d="M21.0051371,65.7527874 C29.3272337,65.781203 36.0505177,59.0312358 36.0221024,50.6762239 C35.9935066,42.3212119 29.224006,35.5250281 20.9019094,35.4964091 C15.0387983,35.4764019 10.5002309,38.1203708 7.28620736,43.4283156 L15.8852291,49.5922674 L6.23476368,47.2676949 C5.99902747,48.7140567 5.88243702,49.8158238 5.88499233,50.5729962 C5.91353987,58.9280082 12.6830405,65.7241919 21.0051371,65.7527874 Z" id="Oval" fill="#E8F0F8" transform="translate(20.953547, 50.624598) rotate(120.000000) translate(-20.953547, -50.624598) "></path>
                <path d="M23.3153433,61.6927949 C35.3878312,61.7082074 54.8748992,40.9079148 54.8595956,28.9300503 C54.844274,16.9521858 45.0451756,7.22970684 32.9726877,7.21426255 C24.4673385,7.20341349 17.8751563,11.0077029 13.196141,18.6271308 L25.6512326,27.4376325 L11.6588822,24.1345746 C11.3124001,26.2088355 11.1398501,27.7887124 11.1412323,28.8742056 C11.1565532,40.85207 11.2428554,61.6773652 23.3153433,61.6927949 Z" id="Oval" fill="#E8F0F8" transform="translate(33.000414, 34.453529) scale(-1, 1) rotate(-27.000000) translate(-33.000414, -34.453529) "></path>
                <path d="M32.5202114,89.3672401 C44.494591,89.3419878 54.2221722,79.5321086 54.2474211,67.4562128 C54.2725719,55.380317 44.5858479,45.6113008 32.6114682,45.6364557 C24.1752386,45.6542447 17.6237723,49.5119467 12.9570695,57.2095618 L23.1606402,65.3308193 L11.4137263,62.7672934 C11.0630642,64.8597093 10.886575,66.4531058 10.8842585,67.547483 C10.8591077,79.6233788 20.5458318,89.392395 32.5202114,89.3672401 Z" id="Oval" fill="#E8F0F8" transform="translate(32.565840, 67.501848) scale(-1, 1) rotate(77.000000) translate(-32.565840, -67.501848) "></path>
                <path d="M18.1953125,48.1113281 L18.2421875,42.46875 L16.8242188,42.46875 L16.8710938,48.1113281 L18.1953125,48.1113281 Z M17.5390625,51.0761719 C17.8046875,51.0761719 18.0097656,51.0029297 18.1542969,50.8564453 C18.2988281,50.7099609 18.3710938,50.5253906 18.3710938,50.3027344 C18.3710938,50.0761719 18.2988281,49.8876953 18.1542969,49.7373047 C18.0097656,49.5869141 17.8046875,49.5117188 17.5390625,49.5117188 C17.2734375,49.5117188 17.0693359,49.5869141 16.9267578,49.7373047 C16.7841797,49.8876953 16.7128906,50.0761719 16.7128906,50.3027344 C16.7128906,50.5253906 16.7841797,50.7099609 16.9267578,50.8564453 C17.0693359,51.0029297 17.2734375,51.0761719 17.5390625,51.0761719 Z" id="!" fill="#FFFFFF" fill-rule="nonzero" opacity="0.414318266"></path>
                <path d="M36.1953125,55.1113281 L36.2421875,49.46875 L34.8242188,49.46875 L34.8710938,55.1113281 L36.1953125,55.1113281 Z M35.5390625,58.0761719 C35.8046875,58.0761719 36.0097656,58.0029297 36.1542969,57.8564453 C36.2988281,57.7099609 36.3710938,57.5253906 36.3710938,57.3027344 C36.3710938,57.0761719 36.2988281,56.8876953 36.1542969,56.7373047 C36.0097656,56.5869141 35.8046875,56.5117188 35.5390625,56.5117188 C35.2734375,56.5117188 35.0693359,56.5869141 34.9267578,56.7373047 C34.7841797,56.8876953 34.7128906,57.0761719 34.7128906,57.3027344 C34.7128906,57.5253906 34.7841797,57.7099609 34.9267578,57.8564453 C35.0693359,58.0029297 35.2734375,58.0761719 35.5390625,58.0761719 Z" id="!" fill="#FFFFFF" fill-rule="nonzero" opacity="0.414318266"></path>
                <path d="M36.1953125,24.1113281 L36.2421875,18.46875 L34.8242188,18.46875 L34.8710938,24.1113281 L36.1953125,24.1113281 Z M35.5390625,27.0761719 C35.8046875,27.0761719 36.0097656,27.0029297 36.1542969,26.8564453 C36.2988281,26.7099609 36.3710938,26.5253906 36.3710938,26.3027344 C36.3710938,26.0761719 36.2988281,25.8876953 36.1542969,25.7373047 C36.0097656,25.5869141 35.8046875,25.5117188 35.5390625,25.5117188 C35.2734375,25.5117188 35.0693359,25.5869141 34.9267578,25.7373047 C34.7841797,25.8876953 34.7128906,26.0761719 34.7128906,26.3027344 C34.7128906,26.5253906 34.7841797,26.7099609 34.9267578,26.8564453 C35.0693359,27.0029297 35.2734375,27.0761719 35.5390625,27.0761719 Z" id="!" fill="#FFFFFF" fill-rule="nonzero" opacity="0.414318266"></path>
                <path d="M22.1953125,71.1113281 L22.2421875,65.46875 L20.8242188,65.46875 L20.8710938,71.1113281 L22.1953125,71.1113281 Z M21.5390625,74.0761719 C21.8046875,74.0761719 22.0097656,74.0029297 22.1542969,73.8564453 C22.2988281,73.7099609 22.3710938,73.5253906 22.3710938,73.3027344 C22.3710938,73.0761719 22.2988281,72.8876953 22.1542969,72.7373047 C22.0097656,72.5869141 21.8046875,72.5117188 21.5390625,72.5117188 C21.2734375,72.5117188 21.0693359,72.5869141 20.9267578,72.7373047 C20.7841797,72.8876953 20.7128906,73.0761719 20.7128906,73.3027344 C20.7128906,73.5253906 20.7841797,73.7099609 20.9267578,73.8564453 C21.0693359,74.0029297 21.2734375,74.0761719 21.5390625,74.0761719 Z" id="!" fill="#FFFFFF" fill-rule="nonzero" opacity="0.414318266"></path>
                <path d="M43.1953125,79.1113281 L43.2421875,73.46875 L41.8242188,73.46875 L41.8710938,79.1113281 L43.1953125,79.1113281 Z M42.5390625,82.0761719 C42.8046875,82.0761719 43.0097656,82.0029297 43.1542969,81.8564453 C43.2988281,81.7099609 43.3710938,81.5253906 43.3710938,81.3027344 C43.3710938,81.0761719 43.2988281,80.8876953 43.1542969,80.7373047 C43.0097656,80.5869141 42.8046875,80.5117188 42.5390625,80.5117188 C42.2734375,80.5117188 42.0693359,80.5869141 41.9267578,80.7373047 C41.7841797,80.8876953 41.7128906,81.0761719 41.7128906,81.3027344 C41.7128906,81.5253906 41.7841797,81.7099609 41.9267578,81.8564453 C42.0693359,82.0029297 42.2734375,82.0761719 42.5390625,82.0761719 Z" id="!" fill="#FFFFFF" fill-rule="nonzero" opacity="0.414318266"></path>
            </g>
        </g>
        <path d="M373.978565,199.241964 C374.306647,205.523514 361.728424,208.83176 336.243896,209.166702 L337.995346,198.412558 C361.656077,192.683945 373.650483,192.960414 373.978565,199.241964 Z" id="Arm-behind-doc" fill="#005A68" transform="translate(355.114358, 201.740303) rotate(35.000000) translate(-355.114358, -201.740303) "></path>
        <g id="document" transform="translate(135.000000, 74.000000)">
            <path d="M255.10555,305.482737 C255.10555,304.437896 252.682274,302.473893 236.301455,299.731194 C213.231025,295.868431 186.273404,290.563392 134.91708,290.56208 C133.475778,290.562043 31.8939134,288.991919 30.5074618,289.012728 C-12.0830437,289.658592 79.1925725,293.662185 67.7867316,300.383721 C60.8543628,304.469011 44.5666563,305.238213 56.5812504,306.954575 C89.006978,311.586798 114.004495,310.6049 162.355112,310.382595 C208.135109,310.172109 255.10555,309.050263 255.10555,305.482737 Z" id="Oval" fill="#E0E7ED" transform="translate(137.105535, 299.817495) scale(-1, 1) rotate(-1.000000) translate(-137.105535, -299.817495) "></path>
            <polygon id="Path-41" fill="#C9CBD9" points="242 91 174 91 234.966886 62"></polygon>
            <path d="M88.1648886,0 L265,0 C257.54531,0.949994105 252.241406,8.2165534 249.088287,21.7996779 C247.352011,29.2792717 253.195139,47.3895633 253.195139,64.1728683 C253.195139,80.9561732 250.157084,90.898486 242.584658,90.898486 C235.012232,90.898486 227.527982,45.2351295 212.725146,90.898486 C207.859854,105.906796 222.52023,142.654178 221.350336,196.146425 C220.960974,213.949653 216.005319,244.900845 206.483372,289 L24.0157014,285.183195 C33.7364088,248.983132 34.8960534,222.264607 27.4946352,205.02762 C16.3925079,179.172138 -7.88584836,129.009736 2.54624463,98.7448806 C8.72923443,80.8072247 29.0221044,72.2562035 45.5011902,56.3477521 C53.8176222,48.3192997 68.038855,29.5367157 88.1648886,0 Z" id="Path-37" fill="#FFFFFF"></path>
            <path d="M88.3783183,0 L265,0 C257.554307,0.951055044 252.256805,8.22572951 249.107491,21.8240234 C247.373311,29.3119703 253.209387,47.4424872 253.209387,64.2445355 C253.209387,81.0465838 250.174998,91 242.611712,91 C236.880149,91 232.638529,70.2810241 224.745831,70.2810241 C222.492096,70.2810241 213.987772,65.3731586 179.205807,64.2445355 C158.607816,63.5761613 111.014997,63.5761613 36.4273474,64.2445355 L88.3783183,0 Z" id="Path-37" fill="#F5F5F5"></path>
            <path d="M181.957792,23 C183.085672,23 184,23.8954305 184,25 C184,26.0395948 183.190076,26.8939316 182.15447,26.9908446 L181.957792,27 L123.042208,27 C121.914328,27 121,26.1045695 121,25 C121,23.9604052 121.809924,23.1060684 122.84553,23.0091554 L123.042208,23 L181.957792,23 Z" id="Path-38" fill="#BDBFCE" fill-rule="nonzero"></path>
            <path d="M152.976111,49 C154.093874,49 155,49.8954305 155,51 C155,52.0395948 154.197342,52.8939316 153.171025,52.9908446 L152.976111,53 L80.0238886,53 C78.9061258,53 78,52.1045695 78,51 C78,49.9604052 78.8026581,49.1060684 79.8289746,49.0091554 L80.0238886,49 L152.976111,49 Z" id="Path-39" fill="#BDBFCE" fill-rule="nonzero"></path>
            <path d="M122.944998,96 C124.079944,96 125,96.8954305 125,98 C125,99.0395948 124.185002,99.8939316 123.142908,99.9908446 L122.944998,100 L19.0550022,100 C17.9200558,100 17,99.1045695 17,98 C17,96.9604052 17.8149976,96.1060684 18.8570918,96.0091554 L19.0550022,96 L122.944998,96 Z" id="Path-40" fill="#C9CBD9" fill-rule="nonzero"></path>
            <path d="M139.934002,142 C141.073515,141.998593 141.998493,142.861927 142,143.928311 C142.001415,144.931967 141.184302,145.75778 140.138146,145.852636 L139.939452,145.86172 L28.0659981,146 C26.9264849,146.001407 26.0015069,145.138073 26,144.071689 C25.9985853,143.068033 26.8156982,142.24222 27.8618536,142.147364 L28.0605479,142.13828 L139.934002,142 Z" id="Path-40" fill="#C9CBD9" fill-rule="nonzero"></path>
            <path d="M182.955474,190 C184.084008,189.999398 185,190.878591 185,191.963733 C185,192.985042 184.19068,193.824784 183.154528,193.920545 L182.957741,193.929645 L51.0445258,194 C49.9159915,194.000602 49,193.121409 49,192.036267 C49,191.014958 49.8093201,190.175216 50.8454718,190.079455 L51.0422589,190.070355 L182.955474,190 Z" id="Path-40" fill="#C9CBD9" fill-rule="nonzero"></path>
            <path d="M188.955474,236 C190.084008,235.999398 191,236.878591 191,237.963733 C191,238.985042 190.19068,239.824784 189.154528,239.920545 L188.957741,239.929645 L57.0445258,240 C55.9159915,240.000602 55,239.121409 55,238.036267 C55,237.014958 55.8093201,236.175216 56.8454718,236.079455 L57.0422589,236.070355 L188.955474,236 Z" id="Path-40" fill="#C9CBD9" fill-rule="nonzero"></path>
        </g>
        <path d="M152.41102,158.269593 L269.015067,158.353302 C270.070779,158.35406 270.863591,159.508149 270.785839,160.931032 L269.374835,186.694607 C269.296785,188.11749 268.378763,189.27035 267.324382,189.269593 L150.867269,189.185884 C149.81288,189.185126 149.014306,188.031037 149.083752,186.608154 L150.368297,160.844579 C150.440685,159.421696 151.355302,158.268836 152.41102,158.269593 Z" id="Rectangle" fill-opacity="0.791684878" fill="#F9C071"></path>
        <g id="Woman-holding-Document" transform="translate(318.000000, 171.000000)">
            <path d="M101.373158,208.194133 C101.373158,206.488442 79.5272662,202.026149 45.7411869,202.026149 C42.5537403,202.026149 55.2283982,199.910922 52.1726385,199.998322 C22.8381643,200.837338 -12.0702016,204.273441 4.10026424,208.194133 C14.4838739,210.711744 29.679921,208.301012 52.1726385,208.194133 C61.4080678,208.15025 64.9148981,210.734552 73.820867,210.966259 C85.4520279,211.268867 101.373158,209.160148 101.373158,208.194133 Z" id="Oval" fill="#E0E7ED" transform="translate(50.686579, 205.495686) scale(-1, 1) translate(-50.686579, -205.495686) "></path>
            <path d="M13.1762655,194.181523 L14.7409142,203.304113 C14.7409142,203.304113 19.920743,203.912677 24.4267372,206.432085 C24.739536,206.606237 24.5704556,208.076859 24.0716682,208.13491 C20.0507327,208.594217 15.2636495,208.439763 12.2587145,207.303114 C10.2251398,206.533892 9.71041491,205.299788 8.73290014,204.829632 L7.46430058,194.615564 L13.1762655,194.181523 Z" id="Shape" fill="#FDE2BF" transform="translate(16.024485, 201.278797) scale(-1, 1) rotate(-4.000000) translate(-16.024485, -201.278797) "></path>
            <path d="M21.9840556,208.575843 C22.4179216,208.481565 22.830309,208.264835 23.0708684,207.854931 C23.4746644,207.167048 23.2169222,206.535702 22.7400993,206.196472 C21.4857542,205.306039 20.0847131,205.123005 18.7745238,204.675409 C18.7745238,204.680121 18.9856553,206.220076 17.6453962,207.251855 C17.6453962,207.251855 8.05631069,205.820368 6.11912072,203.502247 C5.96025777,205.110161 5.98966508,205.978509 6.20734264,206.107291 C8.94353326,207.737482 16.0946476,209.871515 21.9840556,208.575843 Z" id="Shape" fill="#313050" transform="translate(14.644666, 206.238640) scale(-1, 1) rotate(-4.000000) translate(-14.644666, -206.238640) "></path>
            <path d="M86.5039018,190.658842 L82.1123968,198.509979 C82.1123968,198.509979 85.6155254,201.82395 87.9960485,206.743654 C88.1617278,207.084515 88.1705203,207.465491 87.9762947,207.764336 C87.7106297,208.1731 87.169526,208.289118 86.7116521,208.043593 C80.5309747,204.711943 75.616657,199.569202 74.2279476,197.092888 L80.3277981,190.118503 L86.5039018,190.658842 Z" id="Shape" fill="#FDE2BF" transform="translate(81.174557, 199.144991) scale(-1, 1) rotate(-9.000000) translate(-81.174557, -199.144991) "></path>
            <path d="M85.4181049,208.855493 C85.8531539,209.008828 86.3564392,209.018399 86.8502166,208.720316 C87.6789383,208.220143 87.9059079,207.392749 87.7405244,206.749852 C87.3040792,205.060722 86.243478,204.043378 85.4468704,202.795888 C85.4435431,202.800936 84.5353194,204.574326 82.6684262,204.893942 C82.6684262,204.893942 75.4858351,198.583012 75.4777178,194.964241 C74.2660737,196.326476 73.7072117,197.140371 73.8011316,197.405924 C74.9736391,200.756136 79.5013941,206.791137 85.4181049,208.855493 Z" id="Shape" fill="#313050" transform="translate(80.790997, 201.962380) scale(-1, 1) rotate(-9.000000) translate(-80.790997, -201.962380) "></path>
            <path d="M75,200 L68.0009766,200 C58.9102807,176.034104 51.7179863,159.104615 46.4240932,149.211534 C32.9517772,124.034842 17.3969727,104.640145 17.3969727,102.548441 C17.3969727,99.2238475 32.6540879,96.7077003 63.1683184,95 C66.5926688,111.656812 69.1501363,127.211176 70.8407209,141.663093 C72.5313055,156.115009 73.9177318,175.560645 75,200 Z" id="Path-124" fill="#A5D867" transform="translate(46.198486, 147.500000) scale(-1, 1) translate(-46.198486, -147.500000) "></path>
            <path d="M46.7054426,195.68545 L41,191.995686 L51.0553832,93 L84.7517254,96.7777857 C79.098646,120.563598 74.4300372,138.210132 70.7458992,149.717389 C67.0617611,161.224646 59.0482756,176.547333 46.7054426,195.68545 Z" id="Path-124" fill="#A5D867" transform="translate(62.875863, 144.342725) scale(-1, 1) translate(-62.875863, -144.342725) "></path>
            <path d="M11.4371038,42.63931 C14.0038507,43.1590929 14.5976942,45.5777323 16.1669146,45.8459805 C16.7125002,45.9392449 15.1237032,41.1959812 17.1557049,42.4132303 C19.1877066,43.6304795 21.0442397,48.7208294 22.0836842,49.390359 C24.4477489,50.9131062 28.1435683,53.3647405 33.1711424,56.745262 L32.8845257,58.1095701 C17.7141941,50.2720469 9.64132487,45.6778502 8.66591806,44.3269801 C8.5216177,44.1271342 8.87035689,42.1195271 11.4371038,42.63931 Z" id="Path-4" fill="#DDDDDD"></path>
            <path d="M5.55183374,47.7220177 L9.31648535,54.5501814 C10.3317631,57.1010467 11.162393,58.4047374 11.8083752,58.4612535 C12.4543574,58.5177696 12.5684466,57.2137237 12.1506429,54.5491159 C15.0791633,57.5817136 17.018433,59.0140948 17.9684522,58.8462595 C19.393481,58.5945067 22.5972899,56.4720163 22.5981261,54.251835 C22.5986835,52.7717142 18.2531428,48.9572362 9.56150378,42.808401 L5.55183374,47.7220177 Z" id="Path-126" fill="#FDE2BF" transform="translate(14.074980, 50.833931) rotate(-185.000000) translate(-14.074980, -50.833931) "></path>
            <path d="M56.846073,30.8263586 C81.958475,40.8906466 57.9969171,86.6828078 43.9324575,79.1782714 C34.5561512,74.1752471 25.7109895,67.1067087 17.3969727,57.9726562 L21.6689453,50.5 C35.1116075,59.1549934 42.5327782,63.5381281 43.9324575,63.6494041 C46.0319765,63.8163181 31.733671,20.7620706 56.846073,30.8263586 Z" id="Path-71" fill="#016E80"></path>
            <path d="M42.0434606,13.687115 C42.506603,20.584129 48.3143264,25.6788253 55.0318993,25.3846761 C60.3749639,25.1508858 63.2358313,22.1514493 65.1056969,16.0515756 C67.2784495,8.96342494 61.2147681,-1.32294431 51.5041479,0.140558605 C44.8861302,1.13849295 41.5762196,6.79010098 42.0434606,13.687115 Z" id="Shape" fill="#F9C071"></path>
            <path d="M54.1436779,63.2301566 C54.6397247,64.4348429 63.9438824,69.2700897 66.4851024,63.2301566 C69.3610886,56.3945563 69.3245588,32.5479927 70.6058846,32.0344268 C73.0157414,31.0634527 74.1164218,28.1964035 73.0588997,25.6247105 C72.0014596,23.0566392 71.7486188,18.1407653 63.9236294,27.3819237 C56.09864,36.6230821 53.3030214,61.1858398 54.1436779,63.2301566 Z" id="Shape" fill="#F9C071" transform="translate(63.730513, 44.101435) scale(-1, 1) translate(-63.730513, -44.101435) "></path>
            <path d="M55.3949737,21.2503029 C55.3949737,21.2503029 52.8648938,26.7528568 58.2264151,31.8806058 C58.2264151,31.8806058 55.0697913,37.4591927 46.803188,33.0425188 C46.803188,33.0425188 44.0783655,30.7366095 45.327826,20 L55.3949737,21.2503029 Z" id="Shape" fill="#FDE2BF" transform="translate(51.613208, 27.371867) rotate(10.000000) translate(-51.613208, -27.371867) "></path>
            <path d="M40.0392076,15.1490068 C40.500941,24.5541073 46.0145755,26.7751525 51.7595054,25.7621664 C57.5044354,24.7491802 58.3346554,19.9395639 57.8987305,14.0832189 C57.4679548,8.23145459 53.1152113,3.723331 48.1843738,4.01323408 C43.2482725,4.30772949 39.5774742,5.74390632 40.0392076,15.1490068 Z" id="Shape" fill="#FDE2BF" transform="translate(48.998700, 14.993400) rotate(10.000000) translate(-48.998700, -14.993400) "></path>
            <path d="M46.5566558,11.9487154 C48.0888392,15.3079452 52.3103235,16.3370992 55.9851694,14.2476048 C59.6600154,12.1581104 61.3996819,7.74299532 59.8674587,4.3837655 C58.3353152,1.02453568 54.1138309,-0.00907349474 50.4389451,2.08042091 C46.764139,4.16991532 45.0244725,8.58948559 46.5566558,11.9487154 Z" id="Shape" fill="#F9C071" transform="translate(53.212068, 8.164642) scale(-1, 1) translate(-53.212068, -8.164642) "></path>
            <polygon id="Path-58" fill="#E5CBAA" transform="translate(46.137908, 28.111575) scale(-1, 1) translate(-46.137908, -28.111575) " points="47.0118488 30.8263586 45.2639668 25.6666641 47.0118488 25.396792"></polygon>
            <path d="M55.8719743,26 C60.1981567,26 63.5918757,32.8295753 67.1095371,40.1744179 C70.8575161,48.0001613 76.6936993,56.809493 71.3701611,71.9912045 C70.4668436,74.5672931 72.3434565,82.5785722 77,96.0250417 C71.0454276,99.3416806 65.1524874,101 59.3211794,101 C53.4898715,101 43.3106001,99.3416806 28.7833653,96.0250417 C33.0334968,85.1462675 35.1585625,77.1349884 35.1585625,71.9912045 C35.1585625,40.7990178 44.6915394,26 55.8719743,26 Z" id="Path-62" fill="#016E80" transform="translate(52.891683, 63.500000) scale(-1, 1) translate(-52.891683, -63.500000) "></path>
            <polygon id="Path-2" fill="#97C75E" points="52 138.90429 56.2810977 132 57 155"></polygon>
            <path d="M34.7443848,73.5136719 C39.8148266,77.0073725 43.5559597,78.0102471 45.9677842,76.5222959 C48.3796087,75.0343447 51.057014,69.860246 54,61 C50.273319,71.7897225 47.4248083,77.8734221 45.4544678,79.2510986 C42.498957,81.3176135 34.236281,77.827715 34.4132042,76.5222959 C34.5311529,75.6520165 34.6415464,74.6491418 34.7443848,73.5136719 Z" id="Path-42" fill="#005A68"></path>
            <path d="M32.4617301,57.3131406 C33.8955523,58.0431438 35.4706222,57.3253242 37.1869399,55.1596818 C38.9032576,52.9940394 41.114397,48.934436 43.8203582,42.9808716 C41.046681,51.4629257 39.1065616,56.4272153 38,57.8737405 C36.8934384,59.3202657 35.0473485,59.133399 32.4617301,57.3131406 Z" id="Path-3" fill="#005A68"></path>
        </g>
        <path d="M148.37915,170.674705 C156.939564,170.674705 162.668763,165.060414 162.668763,156.5 C162.668763,147.939586 157.060414,142.141814 148.5,142.141814 C139.939586,142.141814 134.044606,147.939586 134.044606,156.5 C134.044606,165.060414 139.818737,170.674705 148.37915,170.674705 Z" id="Oval" fill="#FF9E14"></path>
        <path d="M148.5,141 C157.060414,141 164,147.939586 164,156.5 C164,165.060414 157.060414,172 148.5,172 C139.939586,172 133,165.060414 133,156.5 C133,147.939586 139.939586,141 148.5,141 Z M148.5,143 C141.044156,143 135,149.044156 135,156.5 C135,163.955844 141.044156,170 148.5,170 C155.955844,170 162,163.955844 162,156.5 C162,149.044156 155.955844,143 148.5,143 Z" id="Oval-Copy" fill="#FFFFFF" fill-rule="nonzero"></path>
        <path d="M149.740234,158.981934 L149.837891,147.226562 L146.883789,147.226562 L146.981445,158.981934 L149.740234,158.981934 Z M148.373047,165.158691 C148.926432,165.158691 149.353678,165.006104 149.654785,164.700928 C149.955892,164.395752 150.106445,164.01123 150.106445,163.547363 C150.106445,163.075358 149.955892,162.682699 149.654785,162.369385 C149.353678,162.056071 148.926432,161.899414 148.373047,161.899414 C147.819661,161.899414 147.39445,162.056071 147.097412,162.369385 C146.800374,162.682699 146.651855,163.075358 146.651855,163.547363 C146.651855,164.01123 146.800374,164.395752 147.097412,164.700928 C147.39445,165.006104 147.819661,165.158691 148.373047,165.158691 Z" id="!" fill="#FFFFFF" fill-rule="nonzero"></path>
        <path d="M138.0998,378 C147.148899,378 151.152954,376.375569 155.530563,376 C159.219225,375.683538 164,376.680871 164,376.003218 C164,375.425961 159.802935,374.967566 157.107991,374.658293 C152.884764,374.173633 148.278548,374.013132 138.0998,374.013132 C121.425748,374.013132 109,373.781546 109,375.26342 C109,376.745293 121.425748,378 138.0998,378 Z" id="Oval" fill="#E0E7ED" transform="translate(136.500000, 376.000000) scale(-1, 1) translate(-136.500000, -376.000000) "></path>
        <g id="5.-Illustrations-/1.-Characters/Dog" transform="translate(135.000000, 356.500000) scale(-1, 1) translate(-135.000000, -356.500000) translate(96.000000, 335.000000)">
            <g id="Dog">
                <path d="M12.8558894,14.8050565 C17.8357387,10.7276505 22.6830075,13.953834 24.6179171,20.446114 C26.4155427,31.2763445 21.9422035,38.1633764 19.548701,40.1924044 C16.8524095,42.4781305 14.2122663,41.5104826 14.2122663,41.5104826 C13.9303492,39.7768528 16.2092035,39.3086952 16.2092035,39.3086952 C17.9503869,38.1731698 18.5580226,36.4755771 18.6779623,34.8904156 C18.8431734,32.7100789 17.2951281,29.8124312 16.9388367,29.3605762 C9.80154271,20.3080012 12.8558894,14.8050565 12.8558894,14.8050565 Z M51.2423503,0.829210186 L51.451191,0.838439491 C54.8483065,1.07365738 57.1539121,4.53298766 57.1539121,4.53298766 C62.5794196,14.310951 55.195191,28.4276932 55.195191,28.4276932 C52.3436834,39.8293404 45.3401457,40.6439044 45.3401457,40.6439044 C43.3432085,40.5565039 44.2168869,39.3447028 44.2168869,39.3447028 C50.3044146,35.9701101 49.7023643,29.316728 49.7023643,29.316728 C38.2534146,18.694081 42.7179347,9.00153582 42.7179347,9.00153582 C43.963191,4.53180417 48.0537814,0.603221601 51.451191,0.838439491 Z" id="Combined-Shape" fill="#FF9E14"></path>
                <path d="M6.04078643,21.3256218 C6.04078643,21.3256218 2.22446985,22.8391232 1.50444481e-12,26.7435922 C1.50444481e-12,26.7435922 0.355997487,29.6539033 2.97350503,31.2806643 C2.97350503,31.2806643 4.29431156,32.1015007 4.64266583,30.5710163 C4.64266583,30.5710163 4.87019849,28.3482516 6.17277889,27.6749072 C6.17277889,27.6749072 7.92895477,23.6007854 6.04078643,21.3256218" id="Shape" fill="#FF9E14"></path>
                <path d="M52.9992362,0.174503711 C52.9992362,0.174503711 53.0033911,0.179803553 53.0113768,0.190239903 C53.7910639,0.508046646 54.5018698,0.887443242 55.1500892,1.31422034 C56.5448476,0.50708828 59.9658791,-0.933059445 63.9860653,1.30266197 C63.9860653,1.30266197 65.734892,2.27519178 67.7897412,5.86500142 C68.3582789,6.85469178 69.2595905,7.60679729 70.3314045,7.98580876 C72.2228065,8.64767344 75.2048367,9.11426289 77.6203869,6.85617114 L77.6240109,6.87606955 C77.6912062,7.25679701 78.6079982,12.9851604 73.1396985,14.0322399 C67.4002312,15.1311069 64.2856206,12.0377698 62.3689372,7.55649912 C62.3689372,7.55649912 60.7504893,2.51171333 57.406873,3.22052864 C61.4948166,7.58809318 61.8289146,13.8931803 61.8289146,13.8931803 C63.1817638,30.0487734 56.2843492,40.3277065 53.6988844,40.9548358 C50.7859372,41.6614363 50.9643769,39.8290741 50.9643769,39.8290741 C57.4140754,35.154984 53.7044698,28.7414058 53.7044698,28.7414058 C48.9842797,25.7872247 46.2788505,21.7365995 44.7518726,18.4124464 C42.2000009,18.5735998 37.4816115,19.1688243 31.5498469,21.2593054 C33.0611269,30.1339202 29.2990364,37.3958339 29.0808076,37.8072747 L29.0709724,37.8256686 C25.1497085,44.4991996 21.1908166,42.3891028 21.1908166,42.3891028 C20.2230678,41.2608558 22.9340578,40.0639666 22.9340578,40.0639666 C27.524397,35.853803 23.5399296,30.6874418 23.5399296,30.6874418 C22.2267347,29.113647 21.3000193,27.6598184 20.6638776,26.3330353 C18.1402776,27.8088849 15.5266781,29.5576084 12.8688241,31.628698 C10.5920276,35.3544902 5.37964824,40.0681383 1.8749397,37.939017 L6.01785678,29.5215007 L3.89862814,24.5918367 L3.91446305,24.5598859 C4.43300536,23.523554 17.7490646,-2.35940542 52.9992362,0.174503711 Z" id="Combined-Shape" fill="#F9C071"></path>
                <path d="M6.69277794,21.0809782 C10.1103077,20.3407702 12.6994039,20.0048934 14.4600667,20.0733477 C16.2207295,20.1418021 18.3227642,20.6600696 20.7661709,21.6281501 L21.2495501,24.3041302 C19.0347545,23.4960404 16.5981605,22.9487421 13.939768,22.6622354 C11.2813755,22.3757287 8.82261496,23.2614795 6.56348635,25.3194877 L6.69277794,21.0809782 Z" id="Rectangle" fill="#00424D" transform="translate(13.906518, 22.692072) rotate(46.000000) translate(-13.906518, -22.692072) "></path>
                <path d="M14.0455854,21.6667322 C14.0455854,21.6667322 17.8539648,21.674987 17.847799,27.407528 C17.847799,27.407528 17.4765075,31.9950166 13.620505,32.9970744 C13.620505,32.9970744 10.5429347,33.7829388 11.2158317,31.3641888 C11.2158317,31.3641888 13.0910653,28.0225266 10.0543568,24.2132099 C10.0543568,24.2132099 11.3510578,21.1206716 14.0455854,21.6667322 Z" id="Shape" fill="#FF9E14"></path>
                <path d="M25.8552362,4.5596161 C25.8552362,4.5596161 24.7390327,7.97249454 28.0206181,8.09468949 C28.0206181,8.09468949 30.5519925,6.05731793 33.1180553,7.76982252 C33.1180553,7.76982252 35.7970025,10.0690404 38.2228417,7.95947619 C41.2466156,5.33006564 39.7156206,0.750269766 39.575103,0.597895913 C39.575103,0.597895913 34.339206,1.07188215 25.8552362,4.5596161 Z" id="Shape" fill="#FF9E14"></path>
                <path d="M2.80682412,36.0479539 L1.87582161,37.915081 C1.87582161,37.915081 3.11049497,38.9543299 4.02033166,36.5616461 L2.80682412,36.0479539 Z" id="Shape" fill="#313050"></path>
                <path d="M58.5970101,16.0110289 C59.3057714,15.3364418 58.9571231,13.8890381 58.5799598,13.1487675 C58.1107839,12.2271276 57.2844347,11.1821092 55.9395226,11.1321069 C55.2816181,11.1078455 54.4993643,11.3214647 53.5742412,11.9046276 C53.5742412,11.9046276 50.9996533,14.3079922 52.8901734,16.8952411 C53.1500427,17.2508491 54.4593844,17.9659115 55.0605528,18.2424035 C55.9821482,18.6661803 57.0851231,19.7548397 56.7614623,22.5509443 C56.7614623,22.5509443 55.624093,25.6789872 57.8444472,26.8640416 C57.8444472,26.8640416 61.1583693,27.4006934 59.9992462,23.3328441 C59.5574095,21.7830688 62.5450251,19.7197789 59.4210075,19.3763608 C58.4353266,19.2680127 57.2923719,17.2530682 58.5970101,16.0110289 Z" id="Shape" fill="#FF9E14"></path>
            </g>
        </g>
    </g>
</svg>