<?xml version="1.0" encoding="UTF-8"?>
<svg width="500px" height="432px" viewBox="0 0 500 432" version="1.1" xmlns="http://www.w3.org/2000/svg" xmlns:xlink="http://www.w3.org/1999/xlink">
    <!-- Generator: Sketch 63.1 (92452) - https://sketch.com -->
    <title>11.0_PL_CI"Default" </title>
    <desc>Created with Sketch.</desc>
    <defs>
        <linearGradient x1="50%" y1="100%" x2="50%" y2="0%" id="linearGradient-1">
            <stop stop-color="#FFFFFF" offset="0%"></stop>
            <stop stop-color="#ECF3FA" offset="100%"></stop>
        </linearGradient>
        <filter x="0.0%" y="0.0%" width="100.0%" height="100.0%" filterUnits="objectBoundingBox" id="filter-2">
            <feGaussianBlur stdDeviation="0" in="SourceGraphic"></feGaussianBlur>
        </filter>
    </defs>
    <g id="11.0_PL_CI&quot;Default&quot;-" stroke="none" stroke-width="1" fill="none" fill-rule="evenodd">
        <g id="Background" transform="translate(249.500000, 216.000000) scale(-1, 1) translate(-249.500000, -216.000000) translate(-1.000000, 0.000000)">
            <path d="M208.659342,430.278286 C345.249511,444.672455 500,367.868209 500,235.248915 C500,102.629622 313.759164,87 239,17.0744926 C164.240836,-52.8510148 -19.5335536,111.431821 2.1747449,250.858481 C23.8830434,390.28514 72.0691732,415.884117 208.659342,430.278286 Z" id="Oval" fill-opacity="0.15" fill="#D8E5F0"></path>
            <path d="M13.0605469,301 C159.096368,284.959987 273.188816,276.93998 355.337891,276.93998 C437.486965,276.93998 481.240414,284.959987 486.598237,301 C469.212359,330.893329 453.050381,352.559996 438.112305,366 C420.338876,381.991012 388.995705,400.704982 355.337891,412.399414 C341.812757,417.098731 315.428462,426.278033 275.646767,430.476391 C261.905233,431.926603 247.917749,431.651697 230.463838,431.935599 C202.973231,432.382757 111.196433,421.950786 63.09375,390.828125 C41.5909978,376.915744 24.9132635,346.973035 13.0605469,301 Z" id="Path-8" fill="url(#linearGradient-1)" filter="url(#filter-2)"></path>
            <g id="Tree" transform="translate(422.000000, 210.000000)">
                <ellipse id="Oval" fill="#E0E7ED" cx="35" cy="99.5" rx="17" ry="1"></ellipse>
                <polygon id="Rectangle" fill="#E8F0F8" points="32 73 37 73 37 98 32 98"></polygon>
                <path d="M25.7983087,65.9808638 C32.9872125,66.1739887 38.6584117,60.3220111 38.4652867,52.9101058 C38.2721618,45.4982005 32.2878451,39.3331053 25.0989413,39.1399803 C20.034191,39.0039193 16.1672616,41.2576904 13.4981532,45.9012936 L21.0499939,51.5424636 L12.667386,49.2858174 C12.4929356,50.5640613 12.4144613,51.539035 12.4319632,52.2107383 C12.6250882,59.6226436 18.6094049,65.7877388 25.7983087,65.9808638 Z" id="Oval" fill="#E8F0F8" transform="translate(25.449823, 52.559840) rotate(120.000000) translate(-25.449823, -52.559840) "></path>
                <path d="M48.6305645,70.4455962 C59.36451,70.686335 66.9418874,38.6938626 66.7026054,28.3719494 C66.4633233,18.0500363 57.5677647,9.48731497 46.8338192,9.2465761 C39.2715043,9.07696995 33.4820659,12.2310152 29.465504,18.708712 L32.89591,31.9022117 L28.2024889,23.4256512 C17.0506907,44.3343353 11.485613,55.2563887 11.5072558,56.1918114 C11.746601,66.5137245 37.8966189,70.2048573 48.6305645,70.4455962 Z" id="Oval" fill="#E8F0F8" transform="translate(39.107686, 39.843516) scale(-1, 1) rotate(-27.000000) translate(-39.107686, -39.843516) "></path>
                <path d="M35.6236308,86.5392086 C45.8557214,86.3943744 54.2678632,77.5020898 54.4126755,66.677735 C54.5574877,55.8533802 46.380133,47.1959182 36.1480425,47.3407523 C28.9392961,47.4427913 23.3018361,50.9674681 19.2356624,57.9147826 L27.8714723,65.0900178 L17.8601736,62.9121503 C17.53918,64.7912443 17.3721214,66.2212695 17.3589978,67.2022259 C17.2141855,78.0265807 25.3915403,86.6840427 35.6236308,86.5392086 Z" id="Oval" fill="#E8F0F8" transform="translate(35.885837, 66.939980) scale(-1, 1) rotate(77.000000) translate(-35.885837, -66.939980) "></path>
            </g>
            <g id="Tree" transform="translate(39.500000, 269.000000) scale(-1, 1) translate(-39.500000, -269.000000) translate(13.000000, 228.000000)">
                <ellipse id="Oval" fill="#E0E7ED" cx="24.5365854" cy="80.5" rx="14.5" ry="1.5"></ellipse>
                <polygon id="Rectangle" fill="#E8F0F8" points="24.0365854 58 27.0365854 58 27.0365854 81 24.0365854 81"></polygon>
                <path d="M16.9198044,49.854955 C23.1117483,49.9235767 28.0756818,44.8954086 28.00706,38.6242272 C27.9384383,32.3530457 22.8632471,27.2136198 16.6713032,27.1449981 C12.3089344,27.0966525 8.94716648,29.0553518 6.58599957,33.0210959 L13.018798,37.6963697 L5.82549525,35.8968512 C5.65831131,36.981109 5.57782876,37.8074006 5.5840476,38.3757259 C5.65266932,44.6469074 10.7278605,49.7863333 16.9198044,49.854955 Z" id="Oval" fill="#E8F0F8" transform="translate(16.795738, 38.499887) rotate(120.000000) translate(-16.795738, -38.499887) "></path>
                <path d="M30.3162052,48.7723924 C39.3844763,48.8478564 43.0903941,31.2240152 43.0153944,22.3190881 C42.9403948,13.4141611 35.5283094,6.13411573 26.4600384,6.05865176 C20.07123,6.00548563 15.1397125,8.79880108 11.6654859,14.4385981 L21.0677728,21.0547215 L10.539978,18.524913 C10.2907158,20.0651686 10.1694832,21.2388005 10.17628,22.0458089 C10.2512797,30.950736 21.2479342,48.6969284 30.3162052,48.7723924 Z" id="Oval" fill="#E8F0F8" transform="translate(26.596131, 27.415390) scale(-1, 1) rotate(37.000000) translate(-26.596131, -27.415390) "></path>
                <path d="M25.4529954,67.4703942 C34.3309197,67.416725 41.5711655,60.0001482 41.6248337,50.9047167 C41.6779086,41.8092851 34.5241951,34.4792536 25.6462708,34.5323434 C19.3915661,34.5701437 14.5232021,37.4946028 11.0411788,43.3057207 L18.5828176,49.3932037 L9.88097341,47.4961428 C9.61498069,49.0731221 9.47946703,50.2737482 9.47443243,51.098021 C9.42135762,60.1934526 16.5750711,67.523484 25.4529954,67.4703942 Z" id="Oval" fill="#E8F0F8" transform="translate(25.549633, 51.001369) scale(-1, 1) rotate(77.000000) translate(-25.549633, -51.001369) "></path>
            </g>
        </g>
        <path d="M327.015625,376.721667 C327.015625,374.10516 284.601692,370.260064 226.16602,370.260064 C167.730348,370.260064 132.685051,373.324894 158.774533,376.721667 C184.864015,380.118439 221.684423,381.41028 260.58734,381.24633 C297.421936,381.091096 327.015625,379.338173 327.015625,376.721667 Z" id="Oval" fill="#E0E7ED" transform="translate(238.515625, 375.760064) scale(-1, 1) translate(-238.515625, -375.760064) "></path>
        <path d="M361.015625,386.721667 C361.015625,384.10516 339.688845,380.260064 310.305937,380.260064 C280.923028,380.260064 263.301381,383.324894 276.419821,386.721667 C289.538262,390.118439 308.052478,391.41028 327.613832,391.24633 C346.135183,391.091096 361.015625,389.338173 361.015625,386.721667 Z" id="Oval" fill="#E0E7ED" transform="translate(316.515625, 385.760064) scale(-1, 1) translate(-316.515625, -385.760064) "></path>
        <path d="M222,384.461603 C222,381.845096 200.67322,378 171.290312,378 C141.907403,378 124.285756,381.06483 137.404196,384.461603 C150.522637,387.858375 169.036853,389.150216 188.598207,388.986266 C207.119558,388.831032 222,387.078109 222,384.461603 Z" id="Oval" fill="#E0E7ED" transform="translate(177.500000, 383.500000) scale(-1, 1) translate(-177.500000, -383.500000) "></path>
        <g id="Little-coins" transform="translate(250.000000, 304.000000)">
            <path d="M50.8366314,63 C77.0441506,63 86,60.4433557 86,58.5 C86,56.5566443 71.1033429,54 48.6519119,54 C26.2004809,54 8,56.7495298 8,58.6928855 C8,60.6362412 24.6291121,63 50.8366314,63 Z" id="Oval" fill="#FFD638"></path>
            <path d="M1,46.6928855 C8.86349473,49.1731308 22.2980956,50.4040535 41.3038026,50.3856537 C60.3095096,50.3672539 72.5415754,49.2387026 78,47 L78,57.1825892 C62.577716,59.0608631 50.3456502,60 41.3038026,60 C32.261955,60 18.8273541,59.0608631 1,57.1825892 L1,46.6928855 Z" id="Rectangle" fill="#F5BC2B"></path>
            <path d="M8,59 C15.8634947,61.2755023 29.2980956,62.4040535 48.3038026,62.3856537 C67.3095096,62.3672539 79.5415754,61.2387026 85,59 L85,69.1825892 C69.577716,71.0608631 57.3456502,72 48.3038026,72 C39.261955,72 25.8273541,71.0608631 8,69.1825892 L8,59 Z" id="Rectangle" fill="#F5BC2B"></path>
            <path d="M43.8366314,51 C70.0441506,51 79,48.4433557 79,46.5 C79,44.5566443 64.1033429,42 41.6519119,42 C19.2004809,42 1,44.7495298 1,46.6928855 C1,48.6362412 17.6291121,51 43.8366314,51 Z" id="Oval" fill="#FFD638"></path>
            <path d="M6,38 C13.7613714,40.4505409 27.021497,41.6659038 45.7803766,41.6460886 C64.5392563,41.6262734 76.6124641,40.4109105 82,38 L82,48.9658653 C66.7780054,50.9886218 54.7047976,52 45.7803766,52 C36.8559556,52 23.59583,50.9886218 6,48.9658653 L6,38 Z" id="Rectangle" fill="#F5BC2B"></path>
            <path d="M48.8366314,42 C75.0441506,42 84,39.4433557 84,37.5 C84,35.5566443 69.1033429,33 46.6519119,33 C24.2004809,33 6,35.7495298 6,37.6928855 C6,39.6362412 22.6291121,42 48.8366314,42 Z" id="Oval" fill="#FFD638"></path>
            <path d="M44.8366314,31 C71.0441506,31 80,28.7274273 80,27 C80,25.2725727 65.1033429,23 42.6519119,23 C20.2004809,23 2,25.4440265 2,27.1714538 C2,28.8988811 18.6291121,31 44.8366314,31 Z" id="Oval" fill="#FFD638"></path>
            <path d="M4,15.0148456 C11.8634947,15.0346398 25.2980956,15.0346398 44.3038026,15.0148456 C63.3095096,14.9950515 75.5415754,14.9950515 81,15.0148456 L81,25.9690827 C65.577716,27.9896942 53.3456502,29 44.3038026,29 C35.261955,29 21.8273541,27.9896942 4,25.9690827 L4,15.0148456 Z" id="Rectangle" fill="#F5BC2B"></path>
            <path d="M0,5 C8.27198796,8.39419639 22.4044902,10.0820947 42.3975066,10.0636949 C62.3905231,10.045295 75.2580209,8.35739676 81,5 L81,15.1825892 C64.7765584,17.0608631 51.9090606,18 42.3975066,18 C32.8859526,18 18.7534504,17.0608631 0,15.1825892 L0,5 Z" id="Rectangle" fill="#F5BC2B"></path>
            <path d="M2,27 C9.86349473,29.4505409 23.2980956,30.6659038 42.3038026,30.6460886 C61.3095096,30.6262734 73.5415754,29.4109105 79,27 L79,37.9658653 C63.577716,39.9886218 51.3456502,41 42.3038026,41 C33.261955,41 19.8273541,39.9886218 2,37.9658653 L2,27 Z" id="Rectangle" fill="#F5BC2B"></path>
            <path d="M42.3975066,11 C68.5070912,11 81,7.06427121 81,4.99557128 C81,2.92687135 62.8675324,0 40.5,0 C18.1324676,0 0,2.92687135 0,4.99557128 C0,7.06427121 16.2879221,11 42.3975066,11 Z" id="Oval" fill="#FFD638"></path>
            <path d="M40.8352825,8 C59.2086938,8 68,5.13765179 68,3.63314275 C68,2.12863371 55.2401154,0 39.5,0 C23.7598846,0 11,2.12863371 11,3.63314275 C11,5.13765179 22.4618711,8 40.8352825,8 Z" id="Oval" fill="#FFC83B"></path>
            <path d="M53,3.51054051 L50.4519633,3.49410783 C50.3870664,3.11104977 50.2267418,2.76362673 49.9709896,2.45219207 C49.7152374,2.14144059 49.3702426,1.87749754 48.9360052,1.6604678 C48.5017678,1.44426106 47.9825129,1.27911675 47.3782407,1.16489213 C46.7739685,1.05130018 46.0865622,0.99654009 45.3160219,1.00016915 C44.510457,1.00400853 43.8033716,1.06667652 43.1947656,1.18768361 C42.5861596,1.30808441 42.0478048,1.48037769 41.5797013,1.70433764 C41.1115979,1.92739024 40.6986134,2.19689912 40.340748,2.51279631 C39.9828826,2.8276955 39.64753,3.18282042 39.3346902,3.57809204 C39.1046295,3.86885285 38.8742138,4.11102996 38.6434431,4.3047709 C38.4126724,4.49811025 38.1680304,4.65302708 37.9095172,4.76961765 C37.651004,4.88593495 37.3719378,4.96696907 37.0723185,5.01282905 C36.7726993,5.05856117 36.4346326,5.07894719 36.0581186,5.0740906 C35.6640923,5.06901897 35.303895,5.03881807 34.9775267,4.98359938 C34.6511583,4.92854041 34.3739422,4.84876239 34.1458783,4.74430773 C33.9178144,4.64006938 33.7412064,4.50825965 33.6160543,4.34885343 C33.4909022,4.18963005 33.4326056,4.0008956 33.4411646,3.78250006 C33.4491122,3.57968882 33.5393643,3.39972063 33.711921,3.24242027 C33.8844776,3.0848715 34.1283172,2.95174897 34.4434396,2.84300708 C34.7585621,2.73395596 35.1383621,2.65026088 35.5828398,2.59198509 C36.0273174,2.53348438 36.5253747,2.50449152 37.0770115,2.5051915 L37.1318043,1.0829895 C36.2474341,1.08755762 35.4486767,1.14192979 34.735532,1.24560237 C34.0223872,1.34865933 33.4038406,1.49462103 32.8798921,1.68328769 C32.3559436,1.87107231 31.928935,2.09757448 31.5988664,2.3628536 C31.2687978,2.62732993 31.0445782,2.92697496 30.9262075,3.26211467 L28.0366814,3.24970356 L28,4.16241258 L30.8632578,4.18701882 C30.9375222,4.52315872 31.109365,4.82884543 31.3787864,5.10441956 C31.6482077,5.38067984 32.0046062,5.61828614 32.4479819,5.8173245 C32.8913576,6.01716375 33.4152579,6.1753798 34.019683,6.2918304 C34.6241081,6.40889218 35.2940785,6.47472938 36.0295943,6.48891263 C36.8439153,6.50466059 37.5576442,6.45887837 38.1707811,6.35105599 C38.783918,6.24260101 39.3246146,6.08014801 39.792871,5.8634781 C40.2611273,5.64588375 40.6742264,5.3802102 41.0321682,5.0663973 C41.39011,4.75157978 41.7166682,4.39696952 42.0118429,4.00254687 C42.22378,3.72425151 42.4450575,3.4881457 42.6756754,3.29432545 C42.9062932,3.10011214 43.1530478,2.94223832 43.4159391,2.82079045 C43.6788304,2.69906476 43.9645401,2.6108486 44.2730683,2.55624344 C44.5815966,2.50149576 44.9197396,2.47437263 45.2874975,2.47498821 C46.1018185,2.47638566 46.7471475,2.60792569 47.2234844,2.87039182 C47.6998213,3.13395004 47.9289723,3.51158039 47.9109373,4.00240663 C47.9039067,4.19372501 47.8422266,4.38240122 47.7258971,4.56830391 C47.6095676,4.7540199 47.4151206,4.91989332 47.1425561,5.06580434 C46.8699917,5.21136889 46.5087084,5.32740862 46.0587064,5.413922 C45.6087044,5.50008684 45.0422139,5.53790078 44.359235,5.52765021 L44.3044422,6.99519575 C45.3289106,7.01716367 46.2093883,6.96382871 46.9458754,6.83447061 C47.6823624,6.70422713 48.2936431,6.52273195 48.7797174,6.28990371 C49.2657917,6.05608163 49.6415243,5.78384233 49.9069153,5.47339977 C50.1723063,5.16224865 50.3462163,4.83666637 50.4286454,4.49700518 L52.9635479,4.5241851 L53,3.51054051 Z" id="$" fill="#FFFFFF" fill-rule="nonzero"></path>
        </g>
        <g id="Big-coin" transform="translate(308.000000, 300.000000)">
            <path d="M31.8972604,12.5985607 L48.137081,11.1295403 L40.9716716,91.9408801 L24.924215,89.1192206 C15.7646941,77.1764841 11.7375096,64.8012596 12.8426615,51.9935473 C13.9478135,39.1858351 20.2993464,26.0541729 31.8972604,12.5985607 Z" id="Rectangle" fill="#F5BC2B" transform="translate(30.400631, 51.535210) rotate(-20.000000) translate(-30.400631, -51.535210) "></path>
            <ellipse id="Oval" fill="#FFD638" transform="translate(45.812849, 46.000000) rotate(-13.000000) translate(-45.812849, -46.000000) " cx="45.8128489" cy="46" rx="26.6589852" ry="40.747949"></ellipse>
            <ellipse id="Oval" fill="#FFC83B" transform="translate(45.812849, 46.000000) rotate(-13.000000) translate(-45.812849, -46.000000) " cx="45.8128489" cy="46" rx="20.5655137" ry="32.7521221"></ellipse>
            <path d="M47.338786,64.4860068 L47.3505642,60.6133314 C48.5518323,60.4898747 49.6413631,60.2236993 50.6191567,59.8148052 C51.5969504,59.4059111 52.4299845,58.8643805 53.1182592,58.1902136 C53.806534,57.5160467 54.3368323,56.7159379 54.7091541,55.7898873 C55.081476,54.8638366 55.2694178,53.8152522 55.2730338,52.6441338 C55.2767033,51.4197828 55.0886088,50.3490626 54.7086959,49.4319731 C54.3287831,48.5148836 53.7769787,47.7081127 53.0532826,47.0116603 C52.3295866,46.3152078 51.4505657,45.705734 50.41622,45.1832389 C49.3818743,44.6607437 48.2121507,44.1752609 46.9070491,43.7267904 C45.9446986,43.397041 45.1407191,43.0634788 44.4951108,42.726104 C43.8495024,42.3887291 43.3293339,42.0276804 42.9346053,41.6429579 C42.5398767,41.2582354 42.2607209,40.8398884 42.0971377,40.3879168 C41.9335546,39.9359452 41.8526332,39.4238339 41.8543736,38.8515829 C41.856195,38.2527156 41.9436434,37.7034907 42.1167189,37.2039085 C42.2897944,36.7043262 42.5484261,36.2776757 42.8926141,35.923957 C43.236802,35.5702384 43.6764337,35.2927482 44.211509,35.0914865 C44.7465843,34.8902248 45.3836308,34.7884607 46.1226485,34.7861941 C46.8088792,34.7840894 47.4188441,34.908645 47.9525433,35.1598608 C48.4862424,35.4110767 48.937128,35.7723378 49.3052,36.2436443 C49.673272,36.7149508 49.9552616,37.2863316 50.1511688,37.9577867 C50.3470759,38.6292418 50.4437546,39.3841765 50.4412047,40.2225908 L50.4412047,40.2225908 L55.1722377,40.2080805 C55.1763257,38.863956 55.0117504,37.6534293 54.6785119,36.5765002 C54.3452734,35.4995711 53.8631262,34.5694871 53.2320705,33.7862483 C52.6010148,33.0030095 51.8342371,32.3699024 50.9317374,31.886927 C50.0292377,31.4039516 49.0041723,31.0843755 47.8565412,30.9281989 L47.8565412,30.9281989 L47.8698979,26.5365051 L44.7026792,26.5462191 L44.6894438,30.8979884 C43.5409223,31.0345914 42.5008287,31.3172502 41.5691629,31.7459649 C40.6374972,32.1746796 39.8440027,32.7327239 39.1886794,33.4200978 C38.533356,34.1074717 38.0261318,34.9141637 37.6670067,35.8401739 C37.3078816,36.7661841 37.126619,37.788132 37.1232192,38.9060177 C37.119455,40.1436768 37.3141176,41.2243579 37.7072069,42.148061 C38.1002962,43.0717641 38.6652873,43.8818216 39.4021801,44.5782336 C40.1390728,45.2746455 41.0279913,45.884089 42.0689353,46.4065639 C43.1098794,46.9290388 44.2763444,47.4012236 45.5683302,47.8231182 C46.4779746,48.1264132 47.2490027,48.4467684 47.8814143,48.7841837 C48.513826,49.1215991 49.027386,49.485995 49.4220943,49.8773716 C49.8168026,50.2687482 50.1025265,50.6970561 50.2792659,51.1622954 C50.4560054,51.6275347 50.5435251,52.1396257 50.5418252,52.6985686 C50.538061,53.9362277 50.1193583,54.9256338 49.285717,55.6667868 C48.4520757,56.4079397 47.2566471,56.7809043 45.6994312,56.7856803 C45.0923809,56.7875422 44.492182,56.7062077 43.8988344,56.5416771 C43.3054868,56.3771464 42.7718889,56.0926602 42.2980406,55.6882183 C41.8241922,55.2837764 41.4398368,54.7426527 41.1449743,54.064847 C40.8501117,53.3870414 40.704259,52.5291202 40.707416,51.4910835 L40.707416,51.4910835 L35.9763104,51.5055938 C35.9716474,53.0626489 36.1985328,54.3960839 36.6570392,55.5058989 C37.1155457,56.6157139 37.7264015,57.532095 38.4896068,58.2550424 C39.2528121,58.9779897 40.1287059,59.5309139 41.1172879,59.913815 C42.10587,60.2967161 43.1344673,60.5397601 44.2030799,60.6429469 L44.2030799,60.6429469 L44.1913624,64.4956601 L47.338786,64.4860068 Z" id="$" fill="#FFFFFF" fill-rule="nonzero" transform="translate(45.624672, 45.516083) rotate(-18.000000) translate(-45.624672, -45.516083) "></path>
        </g>
        <g id="noun_Calendar_2080621" transform="translate(251.000000, 175.000000)">
            <path d="M3,11.3504672 L99,11.3504672 L97.8613662,90.4067439 L74.9354436,90.4067439 C73.9350029,105.035893 66.4782609,112.350467 52.5652174,112.350467 C38.6521739,112.350467 30.7343044,104.990231 28.8116089,90.2697576 L3,90.2697576 L3,11.3504672 Z" id="Rectangle" fill="#FFFFFF"></path>
            <path d="M98.0724638,7.82297155 L75.5301932,7.82297155 L75.5301932,2.93361433 C75.5301932,1.34457323 74.1884058,0 72.602657,0 C71.0169082,0 69.6751208,1.34457323 69.6751208,2.93361433 L69.6751208,7.82297155 L31.4468599,7.82297155 L31.4468599,2.93361433 C31.4468599,1.34457323 30.1050725,0 28.5193237,0 C26.9335749,0 25.5917874,1.34457323 25.5917874,2.93361433 L25.5917874,7.82297155 L2.92753623,7.82297155 C1.34178744,7.82297155 0,9.16754478 0,10.7565859 L0,90.2086407 C0,91.7976818 1.34178744,93.142255 2.92753623,93.142255 L24.884058,93.142255 C26.3478261,105.976818 37.326087,116 50.5,116 C63.673913,116 74.6521739,105.976818 76.115942,93.142255 L98.0724638,93.142255 C99.7801932,93.142255 101,91.7976818 101,90.2086407 L101,10.7565859 C101,9.16754478 99.7801932,7.82297155 98.0724638,7.82297155 Z M25.5515721,11.947313 L25.5515721,17.4018584 C25.5515721,19.1745857 26.935977,20.6745857 28.5720919,20.6745857 C30.2082068,20.6745857 31.5926117,19.1745857 31.5926117,17.4018584 L31.5926117,11.947313 L69.5445389,11.947313 L69.5445389,17.4018584 C69.5445389,19.1745857 70.9289439,20.6745857 72.5650588,20.6745857 C74.2011737,20.6745857 75.5855786,19.1745857 75.5855786,17.4018584 L75.5855786,11.947313 L96.8550725,11.947313 L96.8550725,29.947313 L4.85507246,29.947313 L4.85507246,11.947313 L25.5515721,11.947313 Z M50.3828502,111.406744 C38.7877582,111.406744 29.3828502,101.972898 29.3828502,90.3421286 C29.3828502,78.7113593 38.7877582,69.4067439 50.3828502,69.4067439 C61.9779423,69.4067439 71.3828502,78.8405901 71.3828502,90.4713593 C71.3828502,102.102129 61.9779423,111.406744 50.3828502,111.406744 Z M76.1672098,88.2750263 C74.7676559,76.0119911 64.5103392,64.2321692 50.918,64.2321692 C37.3256607,64.2321692 25.9987113,74.7750263 24.4884514,88.2750263 L4.85507246,88.2750263 L4.85507246,34.2750263 L96.8550725,34.2750263 L96.8550725,88.2750263 L76.1672098,88.2750263 Z" id="Shape" fill="#C9CBDA" fill-rule="nonzero"></path>
            <polygon id="Path-75" fill="#C9CBD9" fill-rule="nonzero" points="63 40 72.7201808 40 72.7201808 49 63 49"></polygon>
            <polygon id="Path-75" fill="#C9CBD9" fill-rule="nonzero" points="79 40 88.7201808 40 88.7201808 49 79 49"></polygon>
            <polygon id="Path-75" fill="#C9CBD9" fill-rule="nonzero" points="46 40 55.7201808 40 55.7201808 49 46 49"></polygon>
            <polygon id="Path-75" fill="#C9CBD9" fill-rule="nonzero" points="29 40 38.7201808 40 38.7201808 49 29 49"></polygon>
            <polygon id="Path-75" fill="#C9CBD9" fill-rule="nonzero" points="12 40 21.7201808 40 21.7201808 49 12 49"></polygon>
            <polygon id="Path-75" fill="#C9CBD9" fill-rule="nonzero" points="63 53 72.7201808 53 72.7201808 62 63 62"></polygon>
            <polygon id="Path-75" fill="#C9CBD9" fill-rule="nonzero" points="79 53 88.7201808 53 88.7201808 62 79 62"></polygon>
            <polygon id="Path-75" fill="#C9CBD9" fill-rule="nonzero" points="46 53 55.7201808 53 55.7201808 62 46 62"></polygon>
            <polygon id="Path-75" fill="#C9CBD9" fill-rule="nonzero" points="29 53 38.7201808 53 38.7201808 62 29 62"></polygon>
            <polygon id="Path-75" fill="#C9CBD9" fill-rule="nonzero" points="12 53 21.7201808 53 21.7201808 62 12 62"></polygon>
            <path d="M58.1108053,82.6851641 C59.0918375,83.5693439 59.2095918,85.0540981 58.4090107,86.0791153 L58.2941433,86.2159412 L53.936,91.051 L58.2941433,95.8860535 C59.2185131,96.9116781 59.1364299,98.4924609 58.1108053,99.4168307 C57.1297732,100.301011 55.6408079,100.264352 54.7042212,99.3619138 L54.5800282,99.2334927 L50.571,94.784 L46.561749,99.2334927 C45.6373792,100.259117 44.0565964,100.3412 43.0309719,99.4168307 C42.0499397,98.5326509 41.9321854,97.0478966 42.7327665,96.0228794 L42.847634,95.8860535 L47.205,91.051 L42.847634,86.2159412 C41.9232641,85.1903167 42.0053473,83.6095339 43.0309719,82.6851641 C44.0120041,81.8009843 45.5009693,81.8376423 46.4375561,82.740081 L46.561749,82.868502 L50.571,87.317 L54.5800282,82.868502 C55.504398,81.8428775 57.0851808,81.7607943 58.1108053,82.6851641 Z" id="Combined-Shape" fill="#E02020" fill-rule="nonzero"></path>
        </g>
        <g id="Group" transform="translate(217.000000, 69.000000)">
            <path d="M6.40829671,0 L66.4082967,0 C69.1697205,-5.07265313e-16 71.4082967,2.23857625 71.4082967,5 L71.4082967,23 C71.4082967,25.7614237 69.1697205,28 66.4082967,28 L5.50775707,28 L5.50775707,28 L0,29.8879246 L1.40829671,24.4026778 L1.40829671,5 C1.40829671,2.23857625 3.64687296,-3.80913106e-16 6.40829671,0 Z" id="Rectangle" fill="#FFFFFF"></path>
            <circle id="Oval" fill="#5E5D87" cx="36.5" cy="15.5" r="3.5"></circle>
            <circle id="Oval" fill="#5E5D87" cx="47.5" cy="15.5" r="3.5"></circle>
            <circle id="Oval" fill="#5E5D87" cx="25.5" cy="15.5" r="3.5"></circle>
            <path d="M36.5,12 C38.4329966,12 40,13.5670034 40,15.5 C40,17.4329966 38.4329966,19 36.5,19 C34.5670034,19 33,17.4329966 33,15.5 C33,13.5670034 34.5670034,12 36.5,12 Z M36.5,13 C35.1192881,13 34,14.1192881 34,15.5 C34,16.8807119 35.1192881,18 36.5,18 C37.8807119,18 39,16.8807119 39,15.5 C39,14.1192881 37.8807119,13 36.5,13 Z" id="Oval" fill="#5C6186" fill-rule="nonzero"></path>
            <path d="M47.5,12 C49.4329966,12 51,13.5670034 51,15.5 C51,17.4329966 49.4329966,19 47.5,19 C45.5670034,19 44,17.4329966 44,15.5 C44,13.5670034 45.5670034,12 47.5,12 Z M47.5,13 C46.1192881,13 45,14.1192881 45,15.5 C45,16.8807119 46.1192881,18 47.5,18 C48.8807119,18 50,16.8807119 50,15.5 C50,14.1192881 48.8807119,13 47.5,13 Z" id="Oval" fill="#5C6186" fill-rule="nonzero"></path>
            <path d="M25.5,12 C27.4329966,12 29,13.5670034 29,15.5 C29,17.4329966 27.4329966,19 25.5,19 C23.5670034,19 22,17.4329966 22,15.5 C22,13.5670034 23.5670034,12 25.5,12 Z M25.5,13 C24.1192881,13 23,14.1192881 23,15.5 C23,16.8807119 24.1192881,18 25.5,18 C26.8807119,18 28,16.8807119 28,15.5 C28,14.1192881 26.8807119,13 25.5,13 Z" id="Oval" fill="#5C6186" fill-rule="nonzero"></path>
        </g>
        <g id="5.-Illustrations-/1.-Characters/Welcoming" transform="translate(189.000000, 245.500000) scale(-1, 1) translate(-189.000000, -245.500000) translate(127.000000, 103.000000)">
            <g id="Character">
                <path d="M109.029146,138.880256 C108.29935,145.116163 107.610696,155.684482 110.79456,160.385294 C113.978424,165.086106 118.125594,162.192013 119.211134,161.078669 C120.296675,159.965326 117.394722,153.985971 117.937287,152.227886 C118.479853,150.469801 119.801055,147.069091 119.801313,143.863566 C122.277327,132.817197 109.758943,132.644349 109.029146,138.880256 Z" id="Path-77" fill="#FDE2BF" transform="translate(114.270032, 148.864388) scale(-1, 1) rotate(-4.000000) translate(-114.270032, -148.864388) "></path>
                <path d="M97.4517958,283.515348 C88.432722,281.89851 83.9231851,280.939978 83.9231851,280.639753 C85.8818488,273.44742 87.1726294,269.771068 87.7955268,269.610697 C89.3746659,269.20413 92.3096151,269.827973 96.6003743,271.482225 C96.6003743,271.482225 98.6885284,280.122227 97.4517958,283.515348 Z" id="Fill" fill="#313050" transform="translate(90.883271, 276.502865) rotate(-12.000000) translate(-90.883271, -276.502865) "></path>
                <path d="M61.6092421,283.515348 C52.5901683,281.89851 48.0806314,280.939978 48.0806314,280.639753 C50.0392951,273.44742 51.3300757,269.771068 51.9529731,269.610697 C53.5321122,269.20413 56.4670614,269.827973 60.7578206,271.482225 C60.7578206,271.482225 62.8459747,280.122227 61.6092421,283.515348 Z" id="Fill" fill="#313050" transform="translate(55.040717, 276.502865) scale(-1, 1) rotate(-12.000000) translate(-55.040717, -276.502865) "></path>
                <path d="M39.4114405,118.265306 C34.7697049,127.152828 37.6101179,178.042046 47.9326794,270.932962 L60.5501791,270.932962 C59.7971568,257.30911 71.2175126,169.995147 72.1872821,170.016038 C72.4649954,170.022035 86.21875,262.100299 86.21875,270.932962 C93.3161626,271.597561 96.9160087,271.597561 97.0182884,270.932962 C97.9190259,265.080094 110.010688,133.486005 104.609863,124.081633 C89.753974,124.081633 54.2673297,118.265306 39.4114405,118.265306 Z" id="Fill" fill="#A5D867"></path>
                <path d="M101.036017,46.9541166 C105.613274,48.7901028 112.19548,65.0114609 120.782634,95.618191 C125.072455,116.987709 125.072455,133.582267 120.782634,145.401866 L106.928594,144.534119 C106.928594,144.534119 102.306341,111.724799 102.03562,107.113878 C101.7649,102.502957 100.350864,93.0726317 93.5074338,74.0691386 C86.6640038,55.0656454 94.1701305,44.2001374 101.036017,46.9541166 Z" id="Fill" fill="#313050"></path>
                <path d="M84.858878,18.8308332 C84.858878,18.8308332 88.4810929,16.0717829 89.8797193,18.35025 C91.2778267,20.6281653 85.5054283,27.1483553 82.4468729,25.7645722 C82.4468729,25.7645722 80.7417131,25.1741306 81.6815256,22.8119463 C81.927579,22.211276 82.3450199,21.3725205 83.0423051,20.5146773 C83.6917572,19.7147551 84.3593567,19.1756291 84.858878,18.8308332 Z" id="Fill" fill="#FDE2BF" transform="translate(85.746650, 21.702065) rotate(-16.000000) translate(-85.746650, -21.702065) "></path>
                <path d="M55.7963663,15.9226699 C55.7963663,15.9226699 59.4185812,13.1636196 60.8172076,15.4420868 C62.215315,17.720002 56.4429166,24.2401921 53.3843612,22.8564089 C53.3843612,22.8564089 51.6792014,22.2659674 52.6190139,19.903783 C52.8650673,19.3031127 53.2825082,18.4643572 53.9797934,17.606514 C54.6292455,16.8065918 55.296845,16.2674658 55.7963663,15.9226699 Z" id="Fill" fill="#FDE2BF" transform="translate(56.684139, 18.793901) scale(-1, 1) rotate(-16.000000) translate(-56.684139, -18.793901) "></path>
                <path d="M71.6775982,-1.0936014e-11 C88.7123481,-1.13095578e-11 86.9134236,18.6242349 85.0911363,27.4928156 C84.8798448,35.2216766 83.1452787,43.9628457 77.5447149,50.2317592 C71.7789541,56.6851134 54.5721033,56.1507731 53.2799915,42.2637725 C52.3393887,32.1546235 54.7209164,27.4426296 56.0862802,25.6270543 C57.9252613,17.6528274 51.341038,-1.05248056e-11 71.6775982,-1.0936014e-11 Z" id="Combined-Shape" fill="#F9C071"></path>
                <path d="M79.3197185,33.8767221 L79.3197185,50.0137054 L61.9998902,50.0137054 C62.5928523,46.1443313 62.8891551,43.4548341 62.8887988,41.9452138 C62.8875614,36.7031036 61.9968806,33.8876064 61.9998902,33.8767221 C66.4247248,34.9451608 69.7824691,35.4793801 72.073123,35.4793801 C73.6312954,35.4793801 76.0468272,34.9451608 79.3197185,33.8767221 L79.3197185,33.8767221 Z M65.9536013,3.26620535 C65.9536013,3.26620535 67.065695,3.54968907 65.9342746,4.65448419 C64.963773,5.60229738 62.8481129,6.23890921 60.7348272,8.60500448 C64.6128882,8.06338588 68.5307282,9.18801648 67.6424123,10.382605 C67.3845084,10.7294289 65.7380137,11.148256 62.7029283,11.6390864 L62.7541006,12.379302 C66.1671979,11.910696 67.8437879,13.8741208 66.9026112,14.9223983 C66.5605102,15.3034286 65.253288,15.5425716 62.9809447,15.6398276 L63.0258549,16.2954191 C63.0258549,16.2954191 64.4236764,18.974178 63.5116369,19.2655048 C59.9359693,20.4076567 49.1687431,20.721705 49.1687431,20.721705 C49.1495763,17.7745471 45.9530154,15.4454764 45.9338486,12.4983185 L45.9583657,12.4829226 C46.6079544,12.0756652 59.9971618,3.72133857 65.9536013,3.26620535 Z" id="Combined-Shape" fill="#FDE2BF"></path>
                <path d="M45.9338486,12.0235072 L50.4961628,20.7175985 C34.8548978,27.3160971 27.4125095,31.7024716 28.1689976,33.8767221 C28.905865,35.9945798 38.4093485,37.9438233 45.5416347,39.1163284 C58.2038181,38.6530485 68.1245334,38.8402953 75.3038983,39.6773839 C80.58626,40.2932886 88.98419,42.577698 100.497688,46.5306122 C105.285746,72.9607793 109.037817,105.592461 107.402445,154.537069 L107.29012,154.536597 C105.511556,154.529202 83.0612791,154.438727 72.1498665,154.537069 C55.4488465,154.687592 32.453125,150.970435 32.453125,150.970435 C32.453125,138.409947 34.6933824,101.384998 37.0289549,68.6641544 C24.5572041,64.5331046 4.17035263,55.1241338 0.96875,43.6191576 C-2.65591725,30.5938965 12.3324489,20.0620131 45.9338486,12.0235072 L45.9338486,12.0235072 Z" id="Combined-Shape" fill="#313050"></path>
            </g>
        </g>
    </g>
</svg>