<?xml version="1.0" encoding="UTF-8"?>
<svg width="500px" height="432px" viewBox="0 0 500 432" version="1.1" xmlns="http://www.w3.org/2000/svg" xmlns:xlink="http://www.w3.org/1999/xlink">
    <!-- Generator: Sketch 63.1 (92452) - https://sketch.com -->
    <title>7.0_PL_OaO"Fees" </title>
    <desc>Created with Sketch.</desc>
    <defs>
        <linearGradient x1="50%" y1="100%" x2="50%" y2="0%" id="linearGradient-1">
            <stop stop-color="#FFFFFF" offset="0%"></stop>
            <stop stop-color="#ECF3FA" offset="100%"></stop>
        </linearGradient>
        <filter x="0.0%" y="0.0%" width="100.0%" height="100.0%" filterUnits="objectBoundingBox" id="filter-2">
            <feGaussianBlur stdDeviation="0" in="SourceGraphic"></feGaussianBlur>
        </filter>
        <polygon id="path-3" points="164.277566 158.469417 312.249876 157.789772 327.19042 174.548601 326.986515 242.982899 312.842378 258.499946 162.207428 256.878338"></polygon>
        <mask id="mask-4" maskContentUnits="userSpaceOnUse" maskUnits="objectBoundingBox" x="0" y="0" width="164.982992" height="100.710175" fill="white">
            <use xlink:href="#path-3"></use>
        </mask>
    </defs>
    <g id="7.0_PL_OaO&quot;Fees&quot;-" stroke="none" stroke-width="1" fill="none" fill-rule="evenodd">
        <g id="Background" transform="translate(250.000000, 215.500000) scale(-1, 1) translate(-250.000000, -215.500000) translate(0.000000, -1.000000)">
            <path d="M208.659342,431.278286 C345.249511,445.672455 500,368.868209 500,236.248915 C500,103.629622 321.38358,-51.4719733 239,18.0744926 C156.61642,87.6209585 -19.5335536,112.431821 2.1747449,251.858481 C23.8830434,391.28514 72.0691732,416.884117 208.659342,431.278286 Z" id="Oval" fill-opacity="0.15" fill="#D8E5F0"></path>
            <path d="M13.0605469,302 C159.096368,285.959987 273.188816,277.93998 355.337891,277.93998 C437.486965,277.93998 481.240414,285.959987 486.598237,302 C469.212359,331.893329 453.050381,353.559996 438.112305,367 C420.338876,382.991012 388.995705,401.704982 355.337891,413.399414 C341.812757,418.098731 315.428462,427.278033 275.646767,431.476391 C261.905233,432.926603 247.917749,432.651697 230.463838,432.935599 C202.973231,433.382757 111.196433,422.950786 63.09375,391.828125 C41.5909978,377.915744 24.9132635,347.973035 13.0605469,302 Z" id="Path-8" fill="url(#linearGradient-1)" filter="url(#filter-2)"></path>
            <g id="Tree" transform="translate(422.000000, 211.000000)">
                <ellipse id="Oval" fill="#E0E7ED" cx="35" cy="99.5" rx="17" ry="1"></ellipse>
                <polygon id="Rectangle" fill="#E8F0F8" points="32 73 37 73 37 98 32 98"></polygon>
                <path d="M25.7983087,65.9808638 C32.9872125,66.1739887 38.6584117,60.3220111 38.4652867,52.9101058 C38.2721618,45.4982005 32.2878451,39.3331053 25.0989413,39.1399803 C20.034191,39.0039193 16.1672616,41.2576904 13.4981532,45.9012936 L21.0499939,51.5424636 L12.667386,49.2858174 C12.4929356,50.5640613 12.4144613,51.539035 12.4319632,52.2107383 C12.6250882,59.6226436 18.6094049,65.7877388 25.7983087,65.9808638 Z" id="Oval" fill="#E8F0F8" transform="translate(25.449823, 52.559840) rotate(120.000000) translate(-25.449823, -52.559840) "></path>
                <path d="M48.6305645,70.4455962 C59.36451,70.686335 66.9418874,38.6938626 66.7026054,28.3719494 C66.4633233,18.0500363 57.5677647,9.48731497 46.8338192,9.2465761 C39.2715043,9.07696995 33.4820659,12.2310152 29.465504,18.708712 L32.89591,31.9022117 L28.2024889,23.4256512 C17.0506907,44.3343353 11.485613,55.2563887 11.5072558,56.1918114 C11.746601,66.5137245 37.8966189,70.2048573 48.6305645,70.4455962 Z" id="Oval" fill="#E8F0F8" transform="translate(39.107686, 39.843516) scale(-1, 1) rotate(-27.000000) translate(-39.107686, -39.843516) "></path>
                <path d="M35.6236308,86.5392086 C45.8557214,86.3943744 54.2678632,77.5020898 54.4126755,66.677735 C54.5574877,55.8533802 46.380133,47.1959182 36.1480425,47.3407523 C28.9392961,47.4427913 23.3018361,50.9674681 19.2356624,57.9147826 L27.8714723,65.0900178 L17.8601736,62.9121503 C17.53918,64.7912443 17.3721214,66.2212695 17.3589978,67.2022259 C17.2141855,78.0265807 25.3915403,86.6840427 35.6236308,86.5392086 Z" id="Oval" fill="#E8F0F8" transform="translate(35.885837, 66.939980) scale(-1, 1) rotate(77.000000) translate(-35.885837, -66.939980) "></path>
            </g>
            <g id="Tree" transform="translate(39.500000, 270.000000) scale(-1, 1) translate(-39.500000, -270.000000) translate(13.000000, 229.000000)">
                <ellipse id="Oval" fill="#E0E7ED" cx="24.5365854" cy="80.5" rx="14.5" ry="1.5"></ellipse>
                <polygon id="Rectangle" fill="#E8F0F8" points="24.0365854 58 27.0365854 58 27.0365854 81 24.0365854 81"></polygon>
                <path d="M16.9198044,49.854955 C23.1117483,49.9235767 28.0756818,44.8954086 28.00706,38.6242272 C27.9384383,32.3530457 22.8632471,27.2136198 16.6713032,27.1449981 C12.3089344,27.0966525 8.94716648,29.0553518 6.58599957,33.0210959 L13.018798,37.6963697 L5.82549525,35.8968512 C5.65831131,36.981109 5.57782876,37.8074006 5.5840476,38.3757259 C5.65266932,44.6469074 10.7278605,49.7863333 16.9198044,49.854955 Z" id="Oval" fill="#E8F0F8" transform="translate(16.795738, 38.499887) rotate(120.000000) translate(-16.795738, -38.499887) "></path>
                <path d="M30.3162052,48.7723924 C39.3844763,48.8478564 43.0903941,31.2240152 43.0153944,22.3190881 C42.9403948,13.4141611 35.5283094,6.13411573 26.4600384,6.05865176 C20.07123,6.00548563 15.1397125,8.79880108 11.6654859,14.4385981 L21.0677728,21.0547215 L10.539978,18.524913 C10.2907158,20.0651686 10.1694832,21.2388005 10.17628,22.0458089 C10.2512797,30.950736 21.2479342,48.6969284 30.3162052,48.7723924 Z" id="Oval" fill="#E8F0F8" transform="translate(26.596131, 27.415390) scale(-1, 1) rotate(37.000000) translate(-26.596131, -27.415390) "></path>
                <path d="M25.4529954,67.4703942 C34.3309197,67.416725 41.5711655,60.0001482 41.6248337,50.9047167 C41.6779086,41.8092851 34.5241951,34.4792536 25.6462708,34.5323434 C19.3915661,34.5701437 14.5232021,37.4946028 11.0411788,43.3057207 L18.5828176,49.3932037 L9.88097341,47.4961428 C9.61498069,49.0731221 9.47946703,50.2737482 9.47443243,51.098021 C9.42135762,60.1934526 16.5750711,67.523484 25.4529954,67.4703942 Z" id="Oval" fill="#E8F0F8" transform="translate(25.549633, 51.001369) scale(-1, 1) rotate(77.000000) translate(-25.549633, -51.001369) "></path>
            </g>
        </g>
        <path d="M327.015625,376.721667 C327.015625,374.10516 284.601692,370.260064 226.16602,370.260064 C167.730348,370.260064 132.685051,373.324894 158.774533,376.721667 C184.864015,380.118439 221.684423,381.41028 260.58734,381.24633 C297.421936,381.091096 327.015625,379.338173 327.015625,376.721667 Z" id="Oval" fill="#E0E7ED" transform="translate(238.515625, 375.760064) scale(-1, 1) translate(-238.515625, -375.760064) "></path>
        <path d="M361.015625,386.721667 C361.015625,384.10516 339.688845,380.260064 310.305937,380.260064 C280.923028,380.260064 263.301381,383.324894 276.419821,386.721667 C289.538262,390.118439 308.052478,391.41028 327.613832,391.24633 C346.135183,391.091096 361.015625,389.338173 361.015625,386.721667 Z" id="Oval" fill="#E0E7ED" transform="translate(316.515625, 385.760064) scale(-1, 1) translate(-316.515625, -385.760064) "></path>
        <g id="5.-Illustrations-/1.-Characters/Welcoming" transform="translate(238.341985, 233.000000) scale(-1, 1) translate(-238.341985, -233.000000) translate(157.841985, 84.000000)">
            <g id="Character">
                <path d="M142.661037,157.49189 C141.907995,163.924707 141.197629,174.826765 144.48441,179.67619 C147.77119,184.525615 152.051989,181.540315 153.172491,180.391861 C154.292993,179.243406 151.297156,173.075073 151.857138,171.26149 C152.417121,169.447906 153.780778,165.939857 153.780892,162.633093 C156.336248,151.237973 143.414078,151.059074 142.661037,157.49189 Z" id="Path-77" fill="#FDE2BF" transform="translate(148.071245, 167.791608) scale(-1, 1) rotate(-16.000000) translate(-148.071245, -167.791608) "></path>
                <path d="M101.809984,291.773593 C89.0639833,295.477771 81.3421525,296.27215 78.6444917,294.15673 C74.5980004,290.983601 91.5412213,284.597717 91.541232,284.133145 C92.5038931,280.127337 93.3066988,278.041756 93.9496493,277.876401 C95.5796258,277.457202 98.6093272,278.101168 103.038753,279.808301 C103.038753,279.808301 103.086106,288.273393 101.809984,291.773593 Z" id="Fill" fill="#313050" transform="translate(90.529390, 286.531298) rotate(-12.000000) translate(-90.529390, -286.531298) "></path>
                <path d="M137.572945,291.075637 C126.066698,294.5071 118.964643,295.165115 116.26678,293.049681 C112.219985,289.876531 129.471364,284.631303 129.471378,284.166721 C130.174702,279.928446 130.847866,277.726626 131.49087,277.561261 C133.120984,277.142035 136.280136,277.944895 140.968327,279.969843 C140.968327,279.969843 138.849202,287.57535 137.572945,291.075637 Z" id="Fill" fill="#313050" transform="translate(128.310089, 285.856618) scale(-1, 1) rotate(-17.000000) translate(-128.310089, -285.856618) "></path>
                <path d="M73.5294908,121.721454 C68.7380219,130.889634 74.4169794,184.299616 90.5663634,281.9514 L103.783284,281.9514 C103.00597,267.897322 106.361565,175.084869 107.362618,175.10642 C107.649289,175.112606 114.120436,193.629041 115.21333,220.934189 C116.390453,250.343715 117.093405,270.098605 117.093405,279.210193 C124.91632,280.500562 128.880566,280.802952 128.986146,280.117366 C129.915939,274.079671 142.550049,248.419415 142.830939,216.770856 C143.162475,179.416059 138.218713,134.223085 132.643668,124.521733 C117.308556,124.521733 88.8646023,121.721454 73.5294908,121.721454 Z" id="Fill" fill="#A5D867"></path>
                <path d="M111.240085,30.4323686 C111.240085,36.6861775 110.846622,41.3812935 109.603354,46.3724078 C112.089065,47.5769947 113.739715,49.5765645 113.829695,51.9048082 C113.983009,55.8711771 109.5473,59.2902687 103.922549,59.5407177 C98.2977977,59.7911666 93.6130989,56.7783588 93.4597856,52.8113715 C93.3222025,49.2519552 96.8802751,46.1332751 101.676844,45.3497877 C103.023648,39.7540832 103.021173,34.2756233 103.0263,34.257744 L103.0263,34.257744 Z" id="Combined-Shape" fill="#FFC7C0"></path>
                <polygon id="Fill" fill="#FFC7C0" points="95.1378741 46.2516917 101.759656 43.8737063 112.939914 48.8428332 113.833553 47.0556478 107.980047 44.5304245 95.0234377 55.6348768"></polygon>
                <path d="M87.7976165,50.4450865 C85.3913986,60.7639151 83.1449081,72.8952096 81.6615603,86.6009041 C79.9526475,102.392373 79.65781,116.578515 79.99215,128.535755 C84.1170133,131.065295 91.1009422,134.685193 100.151024,135.123205 C108.028053,135.504398 116.829097,133.690494 125.851126,128.535755 C125.851126,128.535755 119.682438,90.2287128 123.377926,52.046098 C117.873749,50.3691711 113.954837,48.6322246 111.621188,46.8352586 C111.006418,46.3618704 110.541971,44.6932856 110.227847,41.8295041 L95.0234377,46.8884555 L87.7976165,50.4450865 Z" id="Fill" fill="#D8E5F0"></path>
                <path d="M111.627069,46.1139293 L132.643668,53.2120181 C132.643668,53.2120181 125.70435,96.7399021 144.661241,144.284101 C144.661241,144.284101 137.418061,158.537765 117.932991,160.3653 C117.932991,160.3653 112.38514,145.642225 111.223493,108.838099 C110.560681,87.8254473 106.472438,57.727479 111.627069,46.1139293 Z" id="Fill" fill="#313050"></path>
                <path d="M134.733681,108.840172 C134.732597,108.840172 134.732597,108.839562 134.731514,108.839562 C133.779144,103.333073 133.106309,98.0798483 132.643668,93.1586113 L132.643668,93.1592216 C133.106851,98.079238 133.781853,103.335515 134.733681,108.840172 Z" id="Fill" fill="#EFEDDA"></path>
                <g id="Fill-46" opacity="0.0700000003" transform="translate(121.148598, 72.996605)" fill="#343839">
                    <path d="M13.5850831,35.8435673 C-3.38476936,28.4708252 0.348552726,0 0.348552726,0 L11.3950948,20.0914273 C11.8803698,25.0345854 12.5861211,30.311865 13.5850831,35.8435673 Z" id="Fill"></path>
                </g>
                <path d="M132.643668,53.2266395 C137.368579,55.1206042 145.031105,71.0448549 155.631245,100.999392 C161.066078,127.728374 161.569394,147.18929 157.141191,159.38214 L142.840246,158.48699 C142.840246,158.48699 138.068888,124.641586 137.789435,119.885057 C137.509981,115.128529 136.050331,105.400403 128.986146,85.7967998 C121.92196,66.1931964 125.556301,50.3856925 132.643668,53.2266395 Z" id="Fill" fill="#313050"></path>
                <polygon id="Path-3" fill="#A5D867" points="99.0224441 47.7092454 104.459369 47.7092454 102.94807 56.6787616 102.164315 132.837718 95.1105216 130.587846 99.7849455 56.6787616"></polygon>
                <path d="M9.15138842,50.3376546 C9.15138842,50.3376546 8.05077353,49.8994817 8.32574983,51.5079898 C8.56152607,52.8878495 9.94233651,54.7028118 10.2724972,57.9596997 C7.36228161,55.1546855 3.40852106,53.7161287 3.42603131,55.2520726 C3.43111505,55.6980018 4.55217179,57.0465444 6.78920154,59.2977003 L6.2976394,59.8844097 C3.73145084,57.4224442 1.14078995,58.0437853 1.29116029,59.4896962 C1.34581723,60.015259 2.29249351,61.0079913 4.13118913,62.4678931 L3.69616809,62.9877777 C3.69616809,62.9877777 0.904570182,64.3752532 1.48958236,65.1717607 C3.78313326,68.2944828 12.5845758,75.0895486 12.5845758,75.0895486 C14.3875823,72.6415835 18.4693009,72.6373236 20.2723074,70.1893585 C20.2723074,70.1893585 13.9671862,54.4313862 9.15138842,50.3376546 Z" id="Fill" fill="#FDE2BF" transform="translate(10.778611, 62.686352) rotate(2.000000) translate(-10.778611, -62.686352) "></path>
                <path d="M94.979539,46.1139293 C95.0093836,74.6977612 89.7538486,111.199613 81.2360768,160.925356 C64.8473454,158.884491 57.0492871,149.465878 57.0492871,149.465878 C63.2422573,135.364021 66.1435849,119.95835 67.7756969,103.806934 C64.2097336,111.744806 59.6178991,118.139142 53.9430724,118.502635 C39.0455257,119.456877 14.7004029,82.3505789 9.09018229,76.4984548 L9.09018229,76.4984548 L23.0664624,64.4572564 C35.3989767,81.8189843 44.0999182,90.1788495 49.1692871,89.5368519 C56.7733404,88.5738556 62.2597098,44.9938178 71.607188,46.1462633 L71.4339272,46.1329348 C71.434438,46.1265996 71.434949,46.1202645 71.4354601,46.1139293 L94.979539,46.1139293 Z" id="Combined-Shape" fill="#313050"></path>
                <path d="M105.183704,0.275288364 C122.769191,0.275288364 120.910748,19.4903436 119.029542,28.638217 C118.811482,36.6109757 117.020749,45.627061 111.240082,52.0933136 C105.288329,58.750458 87.5264187,58.1992438 86.1926258,43.8737063 C85.2215953,33.4444002 87.6804663,28.583669 89.0898132,26.711122 C90.9874018,18.4846594 84.1916524,0.275288364 105.183704,0.275288364 Z M108.520494,13.3147678 C104.015558,15.6555377 97.2951163,21.6541194 92.730854,25.7285864 L109.618714,25.7290601 C109.951837,23.5055728 110.263935,20.5560089 110.268498,17.2844347 C109.654237,15.9190202 109.062583,14.5785515 108.520494,13.3147678 Z" id="Combined-Shape" fill="#F9C071"></path>
                <path d="M112.603949,11.9348871 C112.603949,11.9348871 113.913281,15.9201823 114.354226,20.1910904 C115.352018,19.2380743 116.964299,18.137685 118.262369,19.3245545 C120.297802,21.1858345 116.425206,29.2927015 112.996566,28.790193 C112.996566,28.790193 112.966078,28.7885433 112.913455,28.7801896 C112.070929,29.8049828 110.831392,30.4323686 109.059389,30.4323686 C99.4376516,30.4323686 95.3030141,32.3851866 93.3816513,28.8416206 C93.3711864,28.8223201 93.3608354,28.8027324 93.3505976,28.7828612 C90.1021019,28.3257493 86.8005702,21.0657874 88.7126435,19.3173122 C90.002823,18.1376574 91.603405,19.2175383 92.6029916,20.1670889 C92.8093221,16.0114342 93.3816513,12.0715739 93.3816513,12.0715739 C95.3582868,15.888176 112.603949,11.9348871 112.603949,11.9348871 Z" id="Combined-Shape" fill="#FDE2BF"></path>
                <g id="Fill" opacity="0.0700000003" transform="translate(124.806120, 124.521733)" fill="#343839">
                    <path d="M7.50170821,17.3617279 C7.30550021,17.3617279 7.10814814,17.2900308 6.94683427,17.1435727 C0.441652332,11.230709 0.0160582975,1.3708296 0.000613352704,0.954128672 C-0.0171197321,0.447346803 0.351842838,0.0202283468 0.824915777,0.000618891139 C1.29455651,-0.0177649735 1.69669711,0.375649731 1.71557426,0.8824316 C1.71900647,0.976802105 2.13716405,10.3605394 8.05715419,15.7421094 C8.41868031,16.0705678 8.462727,16.6502723 8.15611625,17.0375591 C7.98622185,17.2514247 7.74482309,17.3617279 7.50170821,17.3617279 Z"></path>
                </g>
            </g>
        </g>
        <polygon id="Rectangle" fill="#ADAFBD" transform="translate(241.144919, 196.959794) rotate(-17.000000) translate(-241.144919, -196.959794) " points="152.774573 149.236334 309.483154 140.678172 326.933622 159.478959 329.515264 233.570234 310.932218 253.241415 160.240013 252.784991"></polygon>
        <polygon id="Rectangle" fill="#E1E3EF" transform="translate(244.454898, 207.755865) rotate(-24.000000) translate(-244.454898, -207.755865) " points="155.703853 152.672493 313.447829 151.031588 330.898297 169.832375 333.47994 243.92365 314.896893 263.594831 155.429856 264.480142"></polygon>
        <use id="Rectangle" stroke="#FFFFFF" mask="url(#mask-4)" stroke-width="2" stroke-dasharray="2" transform="translate(244.698924, 208.144859) rotate(-25.000000) translate(-244.698924, -208.144859) " xlink:href="#path-3"></use>
        <path d="M249.638672,242.691406 L249.638672,239.28125 C250.705078,239.175781 251.671875,238.944336 252.539062,238.586914 C253.40625,238.229492 254.144531,237.754883 254.753906,237.163086 C255.363281,236.571289 255.832031,235.868164 256.160156,235.053711 C256.488281,234.239258 256.652344,233.316406 256.652344,232.285156 C256.652344,231.207031 256.482422,230.263672 256.142578,229.455078 C255.802734,228.646484 255.310547,227.93457 254.666016,227.319336 C254.021484,226.704102 253.239258,226.165039 252.319336,225.702148 C251.399414,225.239258 250.359375,224.808594 249.199219,224.410156 C248.34375,224.117188 247.628906,223.821289 247.054688,223.522461 C246.480469,223.223633 246.017578,222.904297 245.666016,222.564453 C245.314453,222.224609 245.06543,221.855469 244.918945,221.457031 C244.772461,221.058594 244.699219,220.607422 244.699219,220.103516 C244.699219,219.576172 244.775391,219.092773 244.927734,218.65332 C245.080078,218.213867 245.308594,217.838867 245.613281,217.52832 C245.917969,217.217773 246.307617,216.974609 246.782227,216.798828 C247.256836,216.623047 247.822266,216.535156 248.478516,216.535156 C249.087891,216.535156 249.629883,216.646484 250.104492,216.869141 C250.579102,217.091797 250.980469,217.411133 251.308594,217.827148 C251.636719,218.243164 251.888672,218.74707 252.064453,219.338867 C252.240234,219.930664 252.328125,220.595703 252.328125,221.333984 L252.328125,221.333984 L256.529297,221.333984 C256.529297,220.150391 256.379883,219.083984 256.081055,218.134766 C255.782227,217.185547 255.351562,216.365234 254.789062,215.673828 C254.226562,214.982422 253.543945,214.422852 252.741211,213.995117 C251.938477,213.567383 251.027344,213.283203 250.007812,213.142578 L250.007812,213.142578 L250.007812,209.275391 L247.195312,209.275391 L247.195312,213.107422 C246.175781,213.224609 245.25293,213.470703 244.426758,213.845703 C243.600586,214.220703 242.897461,214.709961 242.317383,215.313477 C241.737305,215.916992 241.289062,216.625977 240.972656,217.44043 C240.65625,218.254883 240.498047,219.154297 240.498047,220.138672 C240.498047,221.228516 240.673828,222.180664 241.025391,222.995117 C241.376953,223.80957 241.880859,224.524414 242.537109,225.139648 C243.193359,225.754883 243.984375,226.293945 244.910156,226.756836 C245.835938,227.219727 246.873047,227.638672 248.021484,228.013672 C248.830078,228.283203 249.515625,228.567383 250.078125,228.866211 C250.640625,229.165039 251.097656,229.487305 251.449219,229.833008 C251.800781,230.178711 252.055664,230.556641 252.213867,230.966797 C252.37207,231.376953 252.451172,231.828125 252.451172,232.320312 C252.451172,233.410156 252.082031,234.280273 251.34375,234.930664 C250.605469,235.581055 249.544922,235.90625 248.162109,235.90625 C247.623047,235.90625 247.089844,235.833008 246.5625,235.686523 C246.035156,235.540039 245.560547,235.288086 245.138672,234.930664 C244.716797,234.573242 244.374023,234.095703 244.110352,233.498047 C243.84668,232.900391 243.714844,232.144531 243.714844,231.230469 L243.714844,231.230469 L239.513672,231.230469 C239.513672,232.601562 239.71875,233.776367 240.128906,234.754883 C240.539062,235.733398 241.083984,236.541992 241.763672,237.180664 C242.443359,237.819336 243.222656,238.308594 244.101562,238.648438 C244.980469,238.988281 245.894531,239.205078 246.84375,239.298828 L246.84375,239.298828 L246.84375,242.691406 L249.638672,242.691406 Z" id="$" fill="#5E5D87" fill-rule="nonzero" transform="translate(248.083008, 225.983398) rotate(-26.000000) translate(-248.083008, -225.983398) "></path>
        <circle id="Oval" fill="#F9FBFD" cx="303.5" cy="179.5" r="12.5"></circle>
        <path d="M168.5673,263.895217 C170.410515,268.040607 177.039143,263.207631 177.039258,259.900868 C169.32728,257.689494 166.724084,259.749826 168.5673,263.895217 Z" id="R-hand" fill="#FDE2BF" transform="translate(172.519629, 262.248330) scale(-1, 1) rotate(-16.000000) translate(-172.519629, -262.248330) "></path>
        <path d="M316.506384,147.703597 L317.138349,149.273555 C316.378912,150.161941 315.866044,150.222436 315.599745,149.45504 C315.333446,148.687644 315.635658,148.10383 316.506384,147.703597 Z M314.691796,142.833897 L315.599745,145.43259 C314.435824,146.300889 313.720714,146.35134 313.454415,145.583944 C313.188115,144.816547 313.600576,143.899865 314.691796,142.833897 Z M313.262743,139 L313.923902,140.828101 C312.27629,142.422993 311.319334,142.836741 311.053034,142.069345 C310.786735,141.301948 311.523305,140.278834 313.262743,139 Z" id="Fingers" fill="#FDE2BF"></path>
        <g id="Little-coins" transform="translate(250.000000, 304.000000)">
            <path d="M50.8366314,63 C77.0441506,63 86,60.4433557 86,58.5 C86,56.5566443 71.1033429,54 48.6519119,54 C26.2004809,54 8,56.7495298 8,58.6928855 C8,60.6362412 24.6291121,63 50.8366314,63 Z" id="Oval" fill="#FFD638"></path>
            <path d="M1,46.6928855 C8.86349473,49.1731308 22.2980956,50.4040535 41.3038026,50.3856537 C60.3095096,50.3672539 72.5415754,49.2387026 78,47 L78,57.1825892 C62.577716,59.0608631 50.3456502,60 41.3038026,60 C32.261955,60 18.8273541,59.0608631 1,57.1825892 L1,46.6928855 Z" id="Rectangle" fill="#F5BC2B"></path>
            <path d="M8,59 C15.8634947,61.2755023 29.2980956,62.4040535 48.3038026,62.3856537 C67.3095096,62.3672539 79.5415754,61.2387026 85,59 L85,69.1825892 C69.577716,71.0608631 57.3456502,72 48.3038026,72 C39.261955,72 25.8273541,71.0608631 8,69.1825892 L8,59 Z" id="Rectangle" fill="#F5BC2B"></path>
            <path d="M43.8366314,51 C70.0441506,51 79,48.4433557 79,46.5 C79,44.5566443 64.1033429,42 41.6519119,42 C19.2004809,42 1,44.7495298 1,46.6928855 C1,48.6362412 17.6291121,51 43.8366314,51 Z" id="Oval" fill="#FFD638"></path>
            <path d="M6,38 C13.7613714,40.4505409 27.021497,41.6659038 45.7803766,41.6460886 C64.5392563,41.6262734 76.6124641,40.4109105 82,38 L82,48.9658653 C66.7780054,50.9886218 54.7047976,52 45.7803766,52 C36.8559556,52 23.59583,50.9886218 6,48.9658653 L6,38 Z" id="Rectangle" fill="#F5BC2B"></path>
            <path d="M48.8366314,42 C75.0441506,42 84,39.4433557 84,37.5 C84,35.5566443 69.1033429,33 46.6519119,33 C24.2004809,33 6,35.7495298 6,37.6928855 C6,39.6362412 22.6291121,42 48.8366314,42 Z" id="Oval" fill="#FFD638"></path>
            <path d="M44.8366314,31 C71.0441506,31 80,28.7274273 80,27 C80,25.2725727 65.1033429,23 42.6519119,23 C20.2004809,23 2,25.4440265 2,27.1714538 C2,28.8988811 18.6291121,31 44.8366314,31 Z" id="Oval" fill="#FFD638"></path>
            <path d="M4,15.0148456 C11.8634947,15.0346398 25.2980956,15.0346398 44.3038026,15.0148456 C63.3095096,14.9950515 75.5415754,14.9950515 81,15.0148456 L81,25.9690827 C65.577716,27.9896942 53.3456502,29 44.3038026,29 C35.261955,29 21.8273541,27.9896942 4,25.9690827 L4,15.0148456 Z" id="Rectangle" fill="#F5BC2B"></path>
            <path d="M0,5 C8.27198796,8.39419639 22.4044902,10.0820947 42.3975066,10.0636949 C62.3905231,10.045295 75.2580209,8.35739676 81,5 L81,15.1825892 C64.7765584,17.0608631 51.9090606,18 42.3975066,18 C32.8859526,18 18.7534504,17.0608631 0,15.1825892 L0,5 Z" id="Rectangle" fill="#F5BC2B"></path>
            <path d="M2,27 C9.86349473,29.4505409 23.2980956,30.6659038 42.3038026,30.6460886 C61.3095096,30.6262734 73.5415754,29.4109105 79,27 L79,37.9658653 C63.577716,39.9886218 51.3456502,41 42.3038026,41 C33.261955,41 19.8273541,39.9886218 2,37.9658653 L2,27 Z" id="Rectangle" fill="#F5BC2B"></path>
            <path d="M42.3975066,11 C68.5070912,11 81,7.06427121 81,4.99557128 C81,2.92687135 62.8675324,0 40.5,0 C18.1324676,0 0,2.92687135 0,4.99557128 C0,7.06427121 16.2879221,11 42.3975066,11 Z" id="Oval" fill="#FFD638"></path>
            <path d="M40.8352825,8 C59.2086938,8 68,5.13765179 68,3.63314275 C68,2.12863371 55.2401154,0 39.5,0 C23.7598846,0 11,2.12863371 11,3.63314275 C11,5.13765179 22.4618711,8 40.8352825,8 Z" id="Oval" fill="#FFC83B"></path>
            <path d="M53,3.51054051 L50.4519633,3.49410783 C50.3870664,3.11104977 50.2267418,2.76362673 49.9709896,2.45219207 C49.7152374,2.14144059 49.3702426,1.87749754 48.9360052,1.6604678 C48.5017678,1.44426106 47.9825129,1.27911675 47.3782407,1.16489213 C46.7739685,1.05130018 46.0865622,0.99654009 45.3160219,1.00016915 C44.510457,1.00400853 43.8033716,1.06667652 43.1947656,1.18768361 C42.5861596,1.30808441 42.0478048,1.48037769 41.5797013,1.70433764 C41.1115979,1.92739024 40.6986134,2.19689912 40.340748,2.51279631 C39.9828826,2.8276955 39.64753,3.18282042 39.3346902,3.57809204 C39.1046295,3.86885285 38.8742138,4.11102996 38.6434431,4.3047709 C38.4126724,4.49811025 38.1680304,4.65302708 37.9095172,4.76961765 C37.651004,4.88593495 37.3719378,4.96696907 37.0723185,5.01282905 C36.7726993,5.05856117 36.4346326,5.07894719 36.0581186,5.0740906 C35.6640923,5.06901897 35.303895,5.03881807 34.9775267,4.98359938 C34.6511583,4.92854041 34.3739422,4.84876239 34.1458783,4.74430773 C33.9178144,4.64006938 33.7412064,4.50825965 33.6160543,4.34885343 C33.4909022,4.18963005 33.4326056,4.0008956 33.4411646,3.78250006 C33.4491122,3.57968882 33.5393643,3.39972063 33.711921,3.24242027 C33.8844776,3.0848715 34.1283172,2.95174897 34.4434396,2.84300708 C34.7585621,2.73395596 35.1383621,2.65026088 35.5828398,2.59198509 C36.0273174,2.53348438 36.5253747,2.50449152 37.0770115,2.5051915 L37.1318043,1.0829895 C36.2474341,1.08755762 35.4486767,1.14192979 34.735532,1.24560237 C34.0223872,1.34865933 33.4038406,1.49462103 32.8798921,1.68328769 C32.3559436,1.87107231 31.928935,2.09757448 31.5988664,2.3628536 C31.2687978,2.62732993 31.0445782,2.92697496 30.9262075,3.26211467 L28.0366814,3.24970356 L28,4.16241258 L30.8632578,4.18701882 C30.9375222,4.52315872 31.109365,4.82884543 31.3787864,5.10441956 C31.6482077,5.38067984 32.0046062,5.61828614 32.4479819,5.8173245 C32.8913576,6.01716375 33.4152579,6.1753798 34.019683,6.2918304 C34.6241081,6.40889218 35.2940785,6.47472938 36.0295943,6.48891263 C36.8439153,6.50466059 37.5576442,6.45887837 38.1707811,6.35105599 C38.783918,6.24260101 39.3246146,6.08014801 39.792871,5.8634781 C40.2611273,5.64588375 40.6742264,5.3802102 41.0321682,5.0663973 C41.39011,4.75157978 41.7166682,4.39696952 42.0118429,4.00254687 C42.22378,3.72425151 42.4450575,3.4881457 42.6756754,3.29432545 C42.9062932,3.10011214 43.1530478,2.94223832 43.4159391,2.82079045 C43.6788304,2.69906476 43.9645401,2.6108486 44.2730683,2.55624344 C44.5815966,2.50149576 44.9197396,2.47437263 45.2874975,2.47498821 C46.1018185,2.47638566 46.7471475,2.60792569 47.2234844,2.87039182 C47.6998213,3.13395004 47.9289723,3.51158039 47.9109373,4.00240663 C47.9039067,4.19372501 47.8422266,4.38240122 47.7258971,4.56830391 C47.6095676,4.7540199 47.4151206,4.91989332 47.1425561,5.06580434 C46.8699917,5.21136889 46.5087084,5.32740862 46.0587064,5.413922 C45.6087044,5.50008684 45.0422139,5.53790078 44.359235,5.52765021 L44.3044422,6.99519575 C45.3289106,7.01716367 46.2093883,6.96382871 46.9458754,6.83447061 C47.6823624,6.70422713 48.2936431,6.52273195 48.7797174,6.28990371 C49.2657917,6.05608163 49.6415243,5.78384233 49.9069153,5.47339977 C50.1723063,5.16224865 50.3462163,4.83666637 50.4286454,4.49700518 L52.9635479,4.5241851 L53,3.51054051 Z" id="$" fill="#FFFFFF" fill-rule="nonzero"></path>
        </g>
        <g id="Big-coin" transform="translate(308.000000, 300.000000)">
            <path d="M31.8972604,12.5985607 L48.137081,11.1295403 L40.9716716,91.9408801 L24.924215,89.1192206 C15.7646941,77.1764841 11.7375096,64.8012596 12.8426615,51.9935473 C13.9478135,39.1858351 20.2993464,26.0541729 31.8972604,12.5985607 Z" id="Rectangle" fill="#F5BC2B" transform="translate(30.400631, 51.535210) rotate(-20.000000) translate(-30.400631, -51.535210) "></path>
            <ellipse id="Oval" fill="#FFD638" transform="translate(45.812849, 46.000000) rotate(-13.000000) translate(-45.812849, -46.000000) " cx="45.8128489" cy="46" rx="26.6589852" ry="40.747949"></ellipse>
            <ellipse id="Oval" fill="#FFC83B" transform="translate(45.812849, 46.000000) rotate(-13.000000) translate(-45.812849, -46.000000) " cx="45.8128489" cy="46" rx="20.5655137" ry="32.7521221"></ellipse>
            <path d="M47.338786,64.4860068 L47.3505642,60.6133314 C48.5518323,60.4898747 49.6413631,60.2236993 50.6191567,59.8148052 C51.5969504,59.4059111 52.4299845,58.8643805 53.1182592,58.1902136 C53.806534,57.5160467 54.3368323,56.7159379 54.7091541,55.7898873 C55.081476,54.8638366 55.2694178,53.8152522 55.2730338,52.6441338 C55.2767033,51.4197828 55.0886088,50.3490626 54.7086959,49.4319731 C54.3287831,48.5148836 53.7769787,47.7081127 53.0532826,47.0116603 C52.3295866,46.3152078 51.4505657,45.705734 50.41622,45.1832389 C49.3818743,44.6607437 48.2121507,44.1752609 46.9070491,43.7267904 C45.9446986,43.397041 45.1407191,43.0634788 44.4951108,42.726104 C43.8495024,42.3887291 43.3293339,42.0276804 42.9346053,41.6429579 C42.5398767,41.2582354 42.2607209,40.8398884 42.0971377,40.3879168 C41.9335546,39.9359452 41.8526332,39.4238339 41.8543736,38.8515829 C41.856195,38.2527156 41.9436434,37.7034907 42.1167189,37.2039085 C42.2897944,36.7043262 42.5484261,36.2776757 42.8926141,35.923957 C43.236802,35.5702384 43.6764337,35.2927482 44.211509,35.0914865 C44.7465843,34.8902248 45.3836308,34.7884607 46.1226485,34.7861941 C46.8088792,34.7840894 47.4188441,34.908645 47.9525433,35.1598608 C48.4862424,35.4110767 48.937128,35.7723378 49.3052,36.2436443 C49.673272,36.7149508 49.9552616,37.2863316 50.1511688,37.9577867 C50.3470759,38.6292418 50.4437546,39.3841765 50.4412047,40.2225908 L50.4412047,40.2225908 L55.1722377,40.2080805 C55.1763257,38.863956 55.0117504,37.6534293 54.6785119,36.5765002 C54.3452734,35.4995711 53.8631262,34.5694871 53.2320705,33.7862483 C52.6010148,33.0030095 51.8342371,32.3699024 50.9317374,31.886927 C50.0292377,31.4039516 49.0041723,31.0843755 47.8565412,30.9281989 L47.8565412,30.9281989 L47.8698979,26.5365051 L44.7026792,26.5462191 L44.6894438,30.8979884 C43.5409223,31.0345914 42.5008287,31.3172502 41.5691629,31.7459649 C40.6374972,32.1746796 39.8440027,32.7327239 39.1886794,33.4200978 C38.533356,34.1074717 38.0261318,34.9141637 37.6670067,35.8401739 C37.3078816,36.7661841 37.126619,37.788132 37.1232192,38.9060177 C37.119455,40.1436768 37.3141176,41.2243579 37.7072069,42.148061 C38.1002962,43.0717641 38.6652873,43.8818216 39.4021801,44.5782336 C40.1390728,45.2746455 41.0279913,45.884089 42.0689353,46.4065639 C43.1098794,46.9290388 44.2763444,47.4012236 45.5683302,47.8231182 C46.4779746,48.1264132 47.2490027,48.4467684 47.8814143,48.7841837 C48.513826,49.1215991 49.027386,49.485995 49.4220943,49.8773716 C49.8168026,50.2687482 50.1025265,50.6970561 50.2792659,51.1622954 C50.4560054,51.6275347 50.5435251,52.1396257 50.5418252,52.6985686 C50.538061,53.9362277 50.1193583,54.9256338 49.285717,55.6667868 C48.4520757,56.4079397 47.2566471,56.7809043 45.6994312,56.7856803 C45.0923809,56.7875422 44.492182,56.7062077 43.8988344,56.5416771 C43.3054868,56.3771464 42.7718889,56.0926602 42.2980406,55.6882183 C41.8241922,55.2837764 41.4398368,54.7426527 41.1449743,54.064847 C40.8501117,53.3870414 40.704259,52.5291202 40.707416,51.4910835 L40.707416,51.4910835 L35.9763104,51.5055938 C35.9716474,53.0626489 36.1985328,54.3960839 36.6570392,55.5058989 C37.1155457,56.6157139 37.7264015,57.532095 38.4896068,58.2550424 C39.2528121,58.9779897 40.1287059,59.5309139 41.1172879,59.913815 C42.10587,60.2967161 43.1344673,60.5397601 44.2030799,60.6429469 L44.2030799,60.6429469 L44.1913624,64.4956601 L47.338786,64.4860068 Z" id="$" fill="#FFFFFF" fill-rule="nonzero" transform="translate(45.624672, 45.516083) rotate(-18.000000) translate(-45.624672, -45.516083) "></path>
        </g>
        <path d="M206.804688,200 L206.804688,192.734375 L213.964844,192.734375 L213.964844,190.425781 L206.804688,190.425781 L206.804688,185.257812 L215.019531,185.257812 L215.019531,182.9375 L203.96875,182.9375 L203.96875,200 L206.804688,200 Z M224.125,200.234375 C224.757812,200.234375 225.341797,200.166016 225.876953,200.029297 C226.412109,199.892578 226.894531,199.712891 227.324219,199.490234 C227.753906,199.267578 228.128906,199.013672 228.449219,198.728516 C228.769531,198.443359 229.03125,198.148438 229.234375,197.84375 L229.234375,197.84375 L227.710938,196.414062 C227.335938,196.90625 226.849609,197.292969 226.251953,197.574219 C225.654297,197.855469 225,197.996094 224.289062,197.996094 C223.78125,197.996094 223.314453,197.908203 222.888672,197.732422 C222.462891,197.556641 222.091797,197.314453 221.775391,197.005859 C221.458984,196.697266 221.203125,196.332031 221.007812,195.910156 C220.8125,195.488281 220.691406,195.03125 220.644531,194.539062 L220.644531,194.539062 L229.433594,194.539062 L229.433594,193.355469 C229.433594,192.441406 229.3125,191.601562 229.070312,190.835938 C228.828125,190.070312 228.470703,189.408203 227.998047,188.849609 C227.525391,188.291016 226.9375,187.857422 226.234375,187.548828 C225.53125,187.240234 224.71875,187.085938 223.796875,187.085938 C223,187.085938 222.240234,187.238281 221.517578,187.542969 C220.794922,187.847656 220.162109,188.285156 219.619141,188.855469 C219.076172,189.425781 218.642578,190.113281 218.318359,190.917969 C217.994141,191.722656 217.832031,192.628906 217.832031,193.636719 L217.832031,193.636719 L217.832031,194.117188 C217.832031,194.984375 217.984375,195.791016 218.289062,196.537109 C218.59375,197.283203 219.021484,197.929688 219.572266,198.476562 C220.123047,199.023438 220.785156,199.453125 221.558594,199.765625 C222.332031,200.078125 223.1875,200.234375 224.125,200.234375 Z M226.667969,192.476562 L220.726562,192.476562 C220.804688,191.984375 220.935547,191.544922 221.119141,191.158203 C221.302734,190.771484 221.527344,190.443359 221.792969,190.173828 C222.058594,189.904297 222.359375,189.699219 222.695312,189.558594 C223.03125,189.417969 223.394531,189.347656 223.785156,189.347656 C224.261719,189.347656 224.677734,189.429688 225.033203,189.59375 C225.388672,189.757812 225.683594,189.976562 225.917969,190.25 C226.152344,190.523438 226.330078,190.833984 226.451172,191.181641 C226.572266,191.529297 226.644531,191.890625 226.667969,192.265625 L226.667969,192.265625 L226.667969,192.476562 Z M238.527344,200.234375 C239.160156,200.234375 239.744141,200.166016 240.279297,200.029297 C240.814453,199.892578 241.296875,199.712891 241.726562,199.490234 C242.15625,199.267578 242.53125,199.013672 242.851562,198.728516 C243.171875,198.443359 243.433594,198.148438 243.636719,197.84375 L243.636719,197.84375 L242.113281,196.414062 C241.738281,196.90625 241.251953,197.292969 240.654297,197.574219 C240.056641,197.855469 239.402344,197.996094 238.691406,197.996094 C238.183594,197.996094 237.716797,197.908203 237.291016,197.732422 C236.865234,197.556641 236.494141,197.314453 236.177734,197.005859 C235.861328,196.697266 235.605469,196.332031 235.410156,195.910156 C235.214844,195.488281 235.09375,195.03125 235.046875,194.539062 L235.046875,194.539062 L243.835938,194.539062 L243.835938,193.355469 C243.835938,192.441406 243.714844,191.601562 243.472656,190.835938 C243.230469,190.070312 242.873047,189.408203 242.400391,188.849609 C241.927734,188.291016 241.339844,187.857422 240.636719,187.548828 C239.933594,187.240234 239.121094,187.085938 238.199219,187.085938 C237.402344,187.085938 236.642578,187.238281 235.919922,187.542969 C235.197266,187.847656 234.564453,188.285156 234.021484,188.855469 C233.478516,189.425781 233.044922,190.113281 232.720703,190.917969 C232.396484,191.722656 232.234375,192.628906 232.234375,193.636719 L232.234375,193.636719 L232.234375,194.117188 C232.234375,194.984375 232.386719,195.791016 232.691406,196.537109 C232.996094,197.283203 233.423828,197.929688 233.974609,198.476562 C234.525391,199.023438 235.1875,199.453125 235.960938,199.765625 C236.734375,200.078125 237.589844,200.234375 238.527344,200.234375 Z M241.070312,192.476562 L235.128906,192.476562 C235.207031,191.984375 235.337891,191.544922 235.521484,191.158203 C235.705078,190.771484 235.929688,190.443359 236.195312,190.173828 C236.460938,189.904297 236.761719,189.699219 237.097656,189.558594 C237.433594,189.417969 237.796875,189.347656 238.1875,189.347656 C238.664062,189.347656 239.080078,189.429688 239.435547,189.59375 C239.791016,189.757812 240.085938,189.976562 240.320312,190.25 C240.554688,190.523438 240.732422,190.833984 240.853516,191.181641 C240.974609,191.529297 241.046875,191.890625 241.070312,192.265625 L241.070312,192.265625 L241.070312,192.476562 Z M252.589844,200.246094 C253.417969,200.246094 254.166016,200.152344 254.833984,199.964844 C255.501953,199.777344 256.074219,199.513672 256.550781,199.173828 C257.027344,198.833984 257.394531,198.429688 257.652344,197.960938 C257.910156,197.492188 258.039062,196.976562 258.039062,196.414062 C258.039062,195.851562 257.917969,195.361328 257.675781,194.943359 C257.433594,194.525391 257.087891,194.164062 256.638672,193.859375 C256.189453,193.554688 255.646484,193.296875 255.009766,193.085938 C254.373047,192.875 253.65625,192.699219 252.859375,192.558594 C252.289062,192.457031 251.824219,192.349609 251.464844,192.236328 C251.105469,192.123047 250.824219,191.996094 250.621094,191.855469 C250.417969,191.714844 250.279297,191.558594 250.205078,191.386719 C250.130859,191.214844 250.09375,191.023438 250.09375,190.8125 C250.09375,190.601562 250.142578,190.398438 250.240234,190.203125 C250.337891,190.007812 250.488281,189.837891 250.691406,189.693359 C250.894531,189.548828 251.150391,189.431641 251.458984,189.341797 C251.767578,189.251953 252.132812,189.207031 252.554688,189.207031 C252.976562,189.207031 253.349609,189.259766 253.673828,189.365234 C253.998047,189.470703 254.269531,189.613281 254.488281,189.792969 C254.707031,189.972656 254.871094,190.177734 254.980469,190.408203 C255.089844,190.638672 255.144531,190.878906 255.144531,191.128906 L255.144531,191.128906 L257.945312,191.128906 C257.945312,190.566406 257.822266,190.039062 257.576172,189.546875 C257.330078,189.054688 256.976562,188.626953 256.515625,188.263672 C256.054688,187.900391 255.490234,187.613281 254.822266,187.402344 C254.154297,187.191406 253.398438,187.085938 252.554688,187.085938 C251.757812,187.085938 251.037109,187.189453 250.392578,187.396484 C249.748047,187.603516 249.201172,187.882812 248.751953,188.234375 C248.302734,188.585938 247.957031,188.994141 247.714844,189.458984 C247.472656,189.923828 247.351562,190.414062 247.351562,190.929688 C247.351562,191.460938 247.46875,191.927734 247.703125,192.330078 C247.9375,192.732422 248.271484,193.085938 248.705078,193.390625 C249.138672,193.695312 249.658203,193.957031 250.263672,194.175781 C250.869141,194.394531 251.546875,194.582031 252.296875,194.738281 C252.898438,194.855469 253.392578,194.976562 253.779297,195.101562 C254.166016,195.226562 254.470703,195.361328 254.693359,195.505859 C254.916016,195.650391 255.070312,195.810547 255.15625,195.986328 C255.242188,196.162109 255.285156,196.355469 255.285156,196.566406 C255.285156,197.027344 255.058594,197.404297 254.605469,197.697266 C254.152344,197.990234 253.492188,198.136719 252.625,198.136719 C252.273438,198.136719 251.925781,198.099609 251.582031,198.025391 C251.238281,197.951172 250.925781,197.830078 250.644531,197.662109 C250.363281,197.494141 250.132812,197.273438 249.953125,197 C249.773438,196.726562 249.671875,196.394531 249.648438,196.003906 L249.648438,196.003906 L246.929688,196.003906 C246.929688,196.527344 247.052734,197.042969 247.298828,197.550781 C247.544922,198.058594 247.90625,198.511719 248.382812,198.910156 C248.859375,199.308594 249.449219,199.630859 250.152344,199.876953 C250.855469,200.123047 251.667969,200.246094 252.589844,200.246094 Z" id="Fees" fill="#545376" fill-rule="nonzero" transform="translate(231.003906, 191.591797) rotate(-26.000000) translate(-231.003906, -191.591797) "></path>
    </g>
</svg>