<?xml version="1.0" encoding="UTF-8"?>
<svg width="500px" height="432px" viewBox="0 0 500 432" version="1.1" xmlns="http://www.w3.org/2000/svg" xmlns:xlink="http://www.w3.org/1999/xlink">
    <!-- Generator: Sketch 63.1 (92452) - https://sketch.com -->
    <title>2.1_PL_OaO"Loan term" </title>
    <desc>Created with Sketch.</desc>
    <defs>
        <linearGradient x1="50%" y1="100%" x2="50%" y2="0%" id="linearGradient-1">
            <stop stop-color="#FFFFFF" offset="0%"></stop>
            <stop stop-color="#ECF3FA" offset="100%"></stop>
        </linearGradient>
        <filter x="0.0%" y="0.0%" width="100.0%" height="100.0%" filterUnits="objectBoundingBox" id="filter-2">
            <feGaussianBlur stdDeviation="0" in="SourceGraphic"></feGaussianBlur>
        </filter>
    </defs>
    <g id="2.1_PL_OaO&quot;Loan-term&quot;-" stroke="none" stroke-width="1" fill="none" fill-rule="evenodd">
        <g id="Background" transform="translate(249.500000, 215.500000) scale(-1, 1) translate(-249.500000, -215.500000) translate(0.000000, -1.000000)">
            <path d="M207.659342,431.278286 C344.249511,445.672455 499.000412,368.868209 499.000412,236.248915 C499.000412,103.629622 392.582659,-20.5121245 271.497934,4 C150.413209,28.5121245 -9.97265625,152.142761 1.1747449,251.858481 C12.3221461,351.5742 71.0691732,416.884117 207.659342,431.278286 Z" id="Oval" fill-opacity="0.15" fill="#D8E5F0"></path>
            <path d="M12.0605469,302 L485.132879,302 C473.315703,325.728595 459.938076,344.312894 445,357.752898 C437.125705,364.837516 425.744905,376.067249 411.797765,385.395412 C394.264182,397.12227 373.084032,406.886054 354.337891,413.399414 C336.140857,419.721986 297.446763,431.829801 229.463838,432.935599 C201.973231,433.382757 110.196433,422.950786 62.09375,391.828125 C40.5909978,377.915744 23.9132635,347.973035 12.0605469,302 Z" id="Path-8" fill="url(#linearGradient-1)" filter="url(#filter-2)"></path>
        </g>
        <path d="M164.798581,355.315366 C130.244381,355.315366 124.392679,363.651304 167.392679,366.89068 C170.126179,367.096607 189.059033,366.542626 190.583303,366.89068 C222.184671,374.106591 232.491434,374.106591 249.045399,370.464899 C266.723134,366.57599 245.863296,358.149095 222.184671,355.315366 C216.255474,354.605792 171.718329,355.315366 164.798581,355.315366 Z" id="Oval" fill="#E0E7ED" transform="translate(196.323239, 363.930887) scale(-1, 1) translate(-196.323239, -363.930887) "></path>
        <g id="Bank" transform="translate(179.000000, 238.000000)">
            <rect id="Rectangle" fill="#E1E3EF" x="1" y="102" width="135" height="15"></rect>
            <rect id="Rectangle" fill="#C9CBD9" x="0" y="110" width="142" height="12"></rect>
            <rect id="Rectangle" fill="#E1E3EF" x="19" y="47" width="21" height="55"></rect>
            <path d="M16.2278666,40.2621448 L41.7303687,39.1031467 C42.8337993,39.0529997 43.7689587,39.9068547 43.8191057,41.0102853 C43.8229556,41.0949983 43.8214138,41.1798704 43.8144898,41.2643876 L43.085445,50.1633031 C43.0004251,51.2010781 42.1333748,52 41.0921231,52 L17.521151,52 C16.5351305,52 15.6962335,51.2813713 15.5448598,50.3070396 L14.3423746,42.5671222 C14.1728013,41.4756467 14.9201507,40.4533648 16.0116262,40.2837915 C16.0832607,40.2726622 16.1554474,40.265436 16.2278666,40.2621448 Z" id="Rectangle" fill="#C9CBD9"></path>
            <rect id="Rectangle" fill="#C9CBD9" x="16" y="99" width="28" height="6"></rect>
            <rect id="Rectangle" fill="#E1E3EF" x="61" y="47" width="21" height="55"></rect>
            <path d="M58.1669396,38.4595158 L83.7400094,37.1185099 C84.8430634,37.0606677 85.7841557,37.9079793 85.8419979,39.0110332 C85.8463028,39.0931285 85.8455419,39.1754111 85.8397197,39.2574127 L85.0669197,50.141647 C84.9925831,51.1886155 84.1215463,52 83.071942,52 L59.5566357,52 C58.555212,52 57.708155,51.2593524 57.5745226,50.2668849 L56.289559,40.7236566 C56.1421625,39.6289658 56.9100964,38.6220551 58.0047872,38.4746586 C58.05861,38.4674116 58.1127056,38.4623598 58.1669396,38.4595158 Z" id="Rectangle" fill="#C9CBD9"></path>
            <rect id="Rectangle" fill="#C9CBD9" x="57" y="99" width="28" height="6"></rect>
            <rect id="Rectangle" fill="#E1E3EF" x="102" y="45" width="21" height="57"></rect>
            <path d="M99.1804198,38.4624973 L125.738292,37.1147741 C126.841442,37.0587929 127.781104,37.907691 127.837085,39.010841 C127.841274,39.0933882 127.840342,39.1761157 127.834294,39.2585475 L127.035472,50.1463437 C126.958804,51.1913268 126.088626,52 125.040834,52 L100.609139,52 C99.6110656,52 98.7657632,51.264166 98.6282213,50.2756148 L97.3008646,40.7355418 C97.1486468,39.6415109 97.9121371,38.6312267 99.0061679,38.4790089 C99.0639831,38.4709648 99.1221227,38.4654557 99.1804198,38.4624973 Z" id="Rectangle" fill="#C9CBD9"></path>
            <rect id="Rectangle" fill="#C9CBD9" x="98" y="99" width="29" height="6"></rect>
            <polygon id="Triangle" fill="#C9CBD9" points="70 0 139 35.5416072 139 43 1 43 1 35.5416072"></polygon>
            <polygon id="Triangle" fill="#E1E3EF" points="69.4453782 9 122 35 16 35"></polygon>
            <ellipse id="Oval" fill="#5E5D87" cx="69.5" cy="23" rx="4.5" ry="6"></ellipse>
        </g>
        <path d="M371,375.699348 C371,373.796434 355.424262,371 333.964834,371 C312.505407,371 299.635665,373.228967 309.216548,375.699348 C318.797431,378.169728 332.31905,379.109248 346.605432,378.990012 C360.132261,378.877114 371,377.602261 371,375.699348 Z" id="Oval" fill="#E0E7ED" transform="translate(338.500000, 375.000000) scale(-1, 1) translate(-338.500000, -375.000000) "></path>
        <path d="M349,367.699348 C349,365.796434 333.663889,363 312.534606,363 C291.405324,363 278.733578,365.228967 288.167063,367.699348 C297.600548,370.169728 310.914141,371.109248 324.980733,370.990012 C338.299457,370.877114 349,369.602261 349,367.699348 Z" id="Oval" fill="#E0E7ED" transform="translate(317.000000, 367.000000) scale(-1, 1) translate(-317.000000, -367.000000) "></path>
        <g id="Little-coins" transform="translate(286.000000, 316.000000)">
            <path d="M37.3036922,45 C56.4553408,45 63,43.0114989 63,41.5 C63,39.9885011 52.1139814,38 35.7071664,38 C19.3003514,38 6,40.1385232 6,41.6500221 C6,43.1615209 18.1520435,45 37.3036922,45 Z" id="Oval" fill="#FFD638"></path>
            <path d="M1,33 C6.71890526,34.863849 16.4895241,35.78886 30.3118564,35.775033 C44.1341888,35.7612059 53.0302367,34.9131248 57,33.2307897 L57,40.8827785 C45.7837935,42.2942595 36.8877456,43 30.3118564,43 C23.7359673,43 13.9653484,42.2942595 1,40.8827785 L1,33 Z" id="Rectangle" fill="#F5BC2B"></path>
            <path d="M6,41.6500221 C11.7189053,43.633727 21.4895241,44.6185027 35.3118564,44.604349 C49.1341888,44.5901953 58.0302367,43.722079 62,42 L62,49.8327609 C50.7837935,51.277587 41.8877456,52 35.3118564,52 C28.7359673,52 18.9653484,51.277587 6,49.8327609 L6,41.6500221 Z" id="Rectangle" fill="#F5BC2B"></path>
            <path d="M32.3036922,36 C51.4553408,36 58,34.0114989 58,32.5 C58,30.9885011 47.1139814,29 30.7071664,29 C14.3003514,29 1,31.1385232 1,32.6500221 C1,34.1615209 13.1520435,36 32.3036922,36 Z" id="Oval" fill="#FFD638"></path>
            <path d="M4,28 C9.71890526,29.7503864 19.4895241,30.6185027 33.3118564,30.604349 C47.1341888,30.5901953 56.0302367,29.722079 60,28 L60,35.8327609 C48.7837935,37.277587 39.8877456,38 33.3118564,38 C26.7359673,38 16.9653484,37.277587 4,35.8327609 L4,28 Z" id="Rectangle" fill="#F5BC2B"></path>
            <path d="M35.3036922,32 C54.4553408,32 61,29.4433557 61,27.5 C61,25.5566443 50.1139814,23 33.7071664,23 C17.3003514,23 4,25.7495298 4,27.6928855 C4,29.6362412 16.1520435,32 35.3036922,32 Z" id="Oval" fill="#FFD638"></path>
            <path d="M35.3036922,32 C54.4553408,32 61,29.4433557 61,27.5 C61,25.5566443 50.1139814,23 33.7071664,23 C17.3003514,23 4,25.7495298 4,27.6928855 C4,29.6362412 16.1520435,32 35.3036922,32 Z" id="Oval-Copy" fill="#FFD638"></path>
            <path d="M33.3036922,22 C52.4553408,22 59,20.2955705 59,19 C59,17.7044295 48.1139814,16 31.7071664,16 C15.3003514,16 2,17.8330199 2,19.1285903 C2,20.4241608 14.1520435,22 33.3036922,22 Z" id="Oval" fill="#FFD638"></path>
            <path d="M32.2289073,16.0005475 L33.7712493,16.0090962 C49.0207389,16.1443175 59,17.7595602 59,19 C59,20.2955705 52.4553408,22 33.3036922,22 L31.0394222,21.9925548 C13.1993233,21.8743813 2,20.372338 2,19.1285903 C2,17.8459756 15.0356744,16.0366067 31.2159041,16.0005475 L32.2289073,16.0005475 Z M31.7060621,16.9999994 C24.0670068,16.9999994 16.615965,17.4027056 10.8156336,18.0718673 L9.85540838,18.1871058 C7.82412187,18.4407205 6.11833074,18.7188516 4.84891981,19.0013013 L4.5637757,19.0665494 L4.321,19.125 L4.42155037,19.1491242 C5.75635543,19.4552663 7.69491533,19.7492515 10.1128381,20.0073608 L10.5717858,20.05533 C16.4026124,20.6520553 24.3410359,20.9999994 33.3036922,20.9999994 L35.4088046,20.9928908 C43.199542,20.9393469 49.1529594,20.5852829 53.1893287,19.9963174 C54.9310468,19.7421752 56.2587165,19.4507805 57.1443228,19.1446887 L57.282,19.094 L57.0255459,19.0176157 L56.822021,18.9608739 C55.5995748,18.6300439 53.789254,18.307389 51.5336359,18.0252512 C46.6812705,17.4183066 40.2164901,17.0445465 33.0293066,17.0037349 L31.7060621,16.9999994 Z" id="Oval-Copy-2" fill="#FFD638" fill-rule="nonzero"></path>
            <path d="M4,11.010604 C9.71890526,11.0247427 19.4895241,11.0247427 33.3118564,11.010604 C47.1341888,10.9964653 56.0302367,10.9964653 60,11.010604 L60,18.835059 C48.7837935,20.278353 39.8877456,21 33.3118564,21 C26.7359673,21 16.9653484,20.278353 4,18.835059 L4,11.010604 Z" id="Rectangle" fill="#F5BC2B"></path>
            <path d="M0,3.63314275 C6.12739849,5.82196788 16.5959186,6.9093036 31.4055605,6.89514989 C46.2152023,6.88099619 55.7466821,5.79366048 60,3.63314275 L60,10.8327609 C47.9826359,12.277587 38.451156,13 31.4055605,13 C24.3599649,13 13.8914448,12.277587 0,10.8327609 L0,3.63314275 Z" id="Rectangle" fill="#F5BC2B"></path>
            <path d="M60,3.63314275 L60,10.8327609 L58.2591071,11.0390418 C47.0586507,12.3463473 38.1074684,13 31.4055605,13 L30.1003857,12.9921979 C23.09142,12.9107097 13.0579581,12.1908974 0,10.8327609 L0,3.63314275 C6.12739849,5.82196788 16.5959186,6.9093036 31.4055605,6.89514989 L33.4533738,6.88608533 C47.097181,6.7767004 55.9460564,5.69238621 60,3.63314275 Z M1,5.015 L1,9.93 L4.21031323,10.2540286 C15.510656,11.3658486 24.2895652,11.94647 30.5391095,11.9964668 L31.4055605,12 L32.4755669,11.9945888 C38.8267095,11.9314575 47.0929083,11.3159037 57.2682049,10.1471032 L59,9.945 L59,5.153 L58.8084166,5.22384645 C54.0125742,6.94656895 45.3714581,7.82000862 32.7941996,7.89062801 L31.4065162,7.89514944 L29.8789771,7.89265826 C17.0268429,7.83776311 7.5389214,6.92274906 1.37931148,5.12808681 L1,5.015 Z" id="Rectangle-Copy" fill="#F5BC2B" fill-rule="nonzero"></path>
            <path d="M2,19 C7.71890526,20.7503864 17.4895241,21.6185027 31.3118564,21.604349 C45.1341888,21.5901953 54.0302367,20.722079 58,19 L58,26.8327609 C46.7837935,28.277587 37.8877456,29 31.3118564,29 C24.7359673,29 14.9653484,28.277587 2,26.8327609 L2,19 Z" id="Rectangle" fill="#F5BC2B"></path>
            <path d="M31.4055605,8 C50.7459935,8 60,5.13765179 60,3.63314275 C60,2.12863371 46.5685425,0 30,0 C13.4314575,0 0,2.12863371 0,3.63314275 C0,5.13765179 12.0651275,8 31.4055605,8 Z" id="Oval" fill="#FFD638"></path>
            <path d="M29.9838923,6 C43.5221954,6 50,3.85323884 50,2.72485706 C50,1.59647528 40.5979797,0 29,0 C17.4020203,0 8,1.59647528 8,2.72485706 C8,3.85323884 16.4455893,6 29.9838923,6 Z" id="Oval" fill="#FFC83B"></path>
            <path d="M38,2.67369367 L36.1654136,2.66273855 C36.1186878,2.40736652 36.0032541,2.17575115 35.8191125,1.96812805 C35.634971,1.76096039 35.3865747,1.58499836 35.0739237,1.44031186 C34.7612728,1.29617404 34.3874093,1.18607783 33.9523333,1.10992808 C33.5172573,1.03420012 33.0223248,0.997693393 32.4675357,1.00011277 C31.887529,1.00267236 31.3784275,1.04445101 30.9402312,1.12512241 C30.5020349,1.20538961 30.1144195,1.32025179 29.777385,1.46955843 C29.4403505,1.61826016 29.1430017,1.79793275 28.8853386,2.00853087 C28.6276755,2.21846367 28.3862216,2.45521361 28.160977,2.71872802 C27.9953332,2.91256857 27.8294339,3.07401997 27.663279,3.2031806 C27.4971241,3.3320735 27.3209819,3.43535139 27.1348524,3.51307843 C26.9487229,3.5906233 26.7477952,3.64464604 26.5320693,3.67521936 C26.3163435,3.70570745 26.0729355,3.71929813 25.8018454,3.7160604 C25.5181465,3.71267931 25.2588044,3.69254538 25.0238192,3.65573292 C24.788834,3.61902694 24.5892384,3.56584159 24.4250324,3.49620516 C24.2608264,3.42671292 24.1336686,3.33883977 24.0435591,3.23256895 C23.9534496,3.12642003 23.911476,3.00059707 23.9176385,2.85500004 C23.9233608,2.71979255 23.9883423,2.59981375 24.1125831,2.49494685 C24.2368239,2.38991433 24.4123884,2.30116598 24.6392765,2.22867139 C24.8661647,2.15597064 25.1396207,2.10017392 25.4596446,2.06132339 C25.7796686,2.02232292 26.1382698,2.00299435 26.5354483,2.003461 L26.5748991,1.05532633 C25.9381526,1.05837175 25.3630472,1.09461986 24.849583,1.16373491 C24.3361188,1.23243955 23.8907652,1.32974735 23.5135223,1.45552512 C23.1362794,1.58071488 22.8288332,1.73171632 22.5911838,1.90856907 C22.3535344,2.08488662 22.1920963,2.28464998 22.1068694,2.50807645 L20.0264106,2.49980237 L20,3.10827505 L22.0615456,3.12467922 C22.115016,3.34877248 22.2387428,3.55256362 22.4327262,3.73627971 C22.6267095,3.92045322 22.8833165,4.07885742 23.202547,4.21154967 C23.5217774,4.34477583 23.8989857,4.4502532 24.3341718,4.52788694 C24.7693578,4.60592812 25.2517365,4.64981959 25.7813079,4.65927509 C26.367619,4.66977373 26.8815038,4.63925225 27.3229624,4.56737066 C27.764421,4.49506734 28.1537225,4.38676534 28.4908671,4.24231873 C28.8280116,4.09725583 29.125443,3.92014013 29.3831611,3.71093153 C29.6408792,3.50105319 29.8760011,3.26464635 30.0885269,3.00169791 C30.2411216,2.81616767 30.4004414,2.6587638 30.5664863,2.5295503 C30.7325311,2.40007476 30.9101944,2.29482555 31.0994761,2.2138603 C31.2887579,2.13270984 31.4944689,2.07389907 31.7166092,2.03749563 C31.9387495,2.00099717 32.1822125,1.98291509 32.4469982,1.98332547 C33.0333093,1.9842571 33.4979462,2.07195046 33.8409088,2.24692788 C34.1838713,2.42263336 34.34886,2.67438693 34.3358748,3.00160442 C34.3308128,3.12915001 34.2864032,3.25493414 34.2026459,3.37886927 C34.1188887,3.50267993 33.9788868,3.61326221 33.7826404,3.71053623 C33.586394,3.80757926 33.3262701,3.88493908 33.0022686,3.94261466 C32.6782672,4.00005789 32.270394,4.02526719 31.7786492,4.01843347 L31.7391984,4.99679717 C32.4768156,5.01144244 33.1107596,4.97588581 33.6410303,4.88964708 C34.1713009,4.80281809 34.611423,4.6818213 34.9613965,4.52660247 C35.31137,4.37072109 35.5818975,4.18922822 35.772979,3.98226651 C35.9640605,3.77483243 36.0892757,3.55777758 36.1486247,3.33133679 L37.9737545,3.34945674 L38,2.67369367 Z" id="$" fill="#FFFFFF" fill-rule="nonzero"></path>
        </g>
        <g id="Big-coin" transform="translate(328.000000, 313.000000)">
            <path d="M23.5027751,9.15899119 L35.5048201,8.14625101 L30.5074156,67.1539433 L18.6316414,65.0329692 C11.8147872,56.2744824 8.79110624,47.2191459 9.56059844,37.8669595 C10.3300906,28.5147732 14.9774829,18.9454504 23.5027751,9.15899119 Z" id="Rectangle" fill="#F5BC2B" transform="translate(22.474171, 37.650097) rotate(-20.000000) translate(-22.474171, -37.650097) "></path>
            <ellipse id="Oval" fill="#FFD638" transform="translate(33.935444, 33.541667) rotate(-13.000000) translate(-33.935444, -33.541667) " cx="33.9354436" cy="33.5416667" rx="19.7315386" ry="29.7356522"></ellipse>
            <ellipse id="Oval" fill="#FFC83B" transform="translate(33.935444, 33.541667) rotate(-13.000000) translate(-33.935444, -33.541667) " cx="33.9354436" cy="33.5416667" rx="15.2214748" ry="23.9007312"></ellipse>
            <path d="M35.1277305,47.0408785 L35.123269,44.2128125 C36.0113496,44.1267417 36.8162999,43.9360674 37.5381199,43.6407895 C38.2599399,43.3455116 38.8742395,42.9528807 39.3810187,42.4628967 C39.887798,41.9729128 40.2773038,41.3904197 40.5495363,40.7154174 C40.8217688,40.0404151 40.9572105,39.2753026 40.9558713,38.4200799 C40.9544508,37.5259835 40.8116873,36.7434268 40.5275708,36.0724098 C40.2434542,35.4013929 39.8325758,34.8103537 39.2949355,34.2992924 C38.7572952,33.7882311 38.105067,33.3401595 37.3382509,32.9550776 C36.5714348,32.5699957 35.7046143,32.2114824 34.7377893,31.8795377 C34.024879,31.6354575 33.4290927,31.3891316 32.9504302,31.1405602 C32.4717677,30.8919887 32.0858045,30.6265557 31.7925406,30.344261 C31.4992766,30.0619663 31.29138,29.7555096 31.1688507,29.424891 C31.0463214,29.0942725 30.9847271,28.7200167 30.9840679,28.3021238 C30.983378,27.864794 31.0461897,27.464008 31.1725032,27.0997658 C31.2988166,26.7355237 31.4886585,26.4248326 31.742029,26.1676925 C31.9953994,25.9105525 32.3196227,25.7094046 32.7146988,25.564249 C33.1097749,25.4190933 33.5806109,25.3469447 34.127207,25.3478033 C34.6347604,25.3486005 35.0863359,25.4416348 35.4819332,25.6269061 C35.8775306,25.8121773 36.2122504,26.0775299 36.4860927,26.4229638 C36.759935,26.7683977 36.9704481,27.1866202 37.1176319,27.6776314 C37.2648158,28.1686426 37.3388907,28.720279 37.3398566,29.3325407 L37.3398566,29.3325407 L40.8390473,29.3380371 C40.8374988,28.3564746 40.7116555,27.4719012 40.4615172,26.6843166 C40.2113789,25.896732 39.8516021,25.2158778 39.3821867,24.641754 C38.9127712,24.0676301 38.3434817,23.6026816 37.674318,23.2469083 C37.0051543,22.8911351 36.2458925,22.6542709 35.3965325,22.5363158 L35.3965325,22.5363158 L35.3914731,19.3292307 L33.0489187,19.3255511 L33.0539321,22.5034809 C32.2049094,22.5993315 31.4365807,22.8022113 30.7489459,23.1121205 C30.0613112,23.4220298 29.4763126,23.8268547 28.9939504,24.3265955 C28.5115881,24.8263362 28.139171,25.4137154 27.8766992,26.088733 C27.6142273,26.7637506 27.4836353,27.5094339 27.4849232,28.3257828 C27.486349,29.2295977 27.6340043,30.0194509 27.9278892,30.6953424 C28.221774,31.3712339 28.6424169,31.964718 29.1898178,32.4757946 C29.7372188,32.9868712 30.3967675,33.4349543 31.1684639,33.8200439 C31.9401603,34.2051334 32.8045254,34.5539245 33.761559,34.866417 C34.4353961,35.090999 35.0067655,35.3275681 35.4756673,35.5761242 C35.9445692,35.8246803 36.3256559,36.0925353 36.6189275,36.3796893 C36.912199,36.6668432 37.1249875,36.9805963 37.2572928,37.3209487 C37.3895981,37.661301 37.4560727,38.0355644 37.4567166,38.4437389 C37.4581424,39.3475538 37.1518205,40.068665 36.5377508,40.6070725 C35.9236812,41.1454801 35.0407684,41.4137793 33.8890125,41.4119702 C33.4400229,41.4112649 32.9958178,41.3498271 32.5563972,41.2276567 C32.1169766,41.1054863 31.7213409,40.8959189 31.3694901,40.5989545 C31.0176393,40.3019902 30.7315158,39.9055153 30.5111194,39.40953 C30.290723,38.9135446 30.1799269,38.2865327 30.178731,37.5284944 L30.178731,37.5284944 L26.6795403,37.5229981 C26.6813341,38.6600556 26.8536823,39.6345974 27.196585,40.4466238 C27.5394877,41.2586501 27.9944155,41.9299353 28.5613684,42.4604795 C29.1283213,42.9910237 29.7780442,43.3977881 30.5105371,43.6807727 C31.2430299,43.9637573 32.0046438,44.1447443 32.7953785,44.2237337 L32.7953785,44.2237337 L32.799817,47.0372219 L35.1277305,47.0408785 Z" id="$" fill="#FFFFFF" fill-rule="nonzero" transform="translate(33.817706, 33.183215) rotate(-18.000000) translate(-33.817706, -33.183215) "></path>
        </g>
        <g id="Tree" transform="translate(457.500000, 264.000000) scale(-1, 1) translate(-457.500000, -264.000000) translate(423.000000, 218.000000)">
            <ellipse id="Oval" fill="#E0E7ED" cx="32" cy="90.5" rx="19" ry="1.5"></ellipse>
            <polygon id="Rectangle" fill="#E8F0F8" points="30 61 34 61 34 91 30 91"></polygon>
            <path d="M21.1234946,51.2431983 C29.4746032,51.2790064 36.2153707,44.5045868 36.1795633,36.1119661 C36.1434696,27.7193453 29.3444148,20.8866383 20.9933062,20.8505081 C15.1097555,20.8252999 10.5577043,23.4771938 7.33715257,28.8061898 L15.9715451,35.0054293 L6.28542216,32.6619154 C6.0501365,34.1145762 5.93410042,35.221197 5.93731394,35.9817776 C5.97333124,44.3743983 12.772386,51.2071054 21.1234946,51.2431983 Z" id="Oval" fill="#E8F0F8" transform="translate(21.058439, 36.046853) rotate(120.000000) translate(-21.058439, -36.046853) "></path>
            <path d="M39.3189396,52.1034547 C51.4467082,52.1287936 61.2577618,42.4064519 61.2325898,30.387947 C61.2073207,18.3694422 51.3553765,8.60593743 39.227608,8.58048621 C30.6833123,8.56264115 24.0640756,12.3744333 19.3698978,20.0158627 L31.8892454,28.8664782 L17.8301249,25.5407247 C17.4837603,27.6217367 17.3117133,29.2068308 17.3139839,30.2960069 C17.3392269,42.3145118 27.1911711,52.0780165 39.3189396,52.1034547 Z" id="Oval" fill="#E8F0F8" transform="translate(39.273287, 30.341970) scale(-1, 1) rotate(-27.000000) translate(-39.273287, -30.341970) "></path>
            <path d="M32.6733628,74.9469516 C44.6846139,74.9162237 54.446505,65.0539155 54.477229,52.9187979 C54.5078084,40.7836804 44.7956136,30.9710758 32.7843624,31.0016604 C24.322156,31.0233062 17.7488057,34.9028465 13.0643117,42.6402814 L23.2956775,50.7968181 L11.5137443,48.2259505 C11.1610716,50.328782 10.9833222,51.9300698 10.9804962,53.029814 C10.9499168,65.1649315 20.6621116,74.9775362 32.6733628,74.9469516 Z" id="Oval" fill="#E8F0F8" transform="translate(32.728863, 52.974306) scale(-1, 1) rotate(77.000000) translate(-32.728863, -52.974306) "></path>
        </g>
        <g id="Tree" transform="translate(54.500000, 279.000000) scale(-1, 1) translate(-54.500000, -279.000000) translate(34.000000, 245.000000)">
            <ellipse id="Oval" fill="#E0E7ED" cx="20" cy="66.5" rx="12" ry="1"></ellipse>
            <polygon id="Rectangle" fill="#E8F0F8" points="18 47 21 47 21 66 18 66"></polygon>
            <path d="M13.182437,41.3820835 C18.419003,41.3943365 22.6541239,37.147721 22.6418709,31.8969758 C22.6295647,26.6462305 18.3745346,22.3797058 13.1379686,22.3673927 C9.44868574,22.3587638 6.59105329,24.0234446 4.56507125,27.3614352 L9.97173494,31.2293905 L3.90086254,29.7750313 C3.75154887,30.6841669 3.67744433,31.376659 3.67854894,31.8525074 C3.69084089,37.1032527 7.94587098,41.3697773 13.182437,41.3820835 Z" id="Oval" fill="#E8F0F8" transform="translate(13.160210, 31.874738) rotate(120.000000) translate(-13.160210, -31.874738) "></path>
            <path d="M14.6151859,38.8390241 C22.2013853,38.8410925 34.4599861,25.7389896 34.4579402,18.2012412 C34.4558943,10.6634928 28.304406,4.55126367 20.7182066,4.54919458 C15.3735522,4.54773778 11.2286962,6.94597013 8.28363855,11.7438916 L16.1046986,17.2805268 L7.31415965,15.2107388 C7.09512235,16.5163056 6.98569633,17.5106429 6.98588158,18.1937508 C6.98792773,25.7314991 7.02898643,38.8369557 14.6151859,38.8390241 Z" id="Oval" fill="#E8F0F8" transform="translate(20.721911, 21.694109) scale(-1, 1) rotate(-27.000000) translate(-20.721911, -21.694109) "></path>
            <path d="M20.4322633,56.2357722 C27.9707314,56.224028 34.0913728,50.0653348 34.1031153,42.4799291 C34.1148242,34.8945235 28.0131939,28.7548442 20.4747259,28.7665548 C15.1636994,28.7748282 11.0405427,31.1957747 8.10525581,36.0293941 L14.5317024,41.1342191 L7.13554818,39.5199268 C6.91550586,40.8341473 6.80494775,41.834971 6.80387386,42.5223979 C6.79216502,50.1078035 12.8937953,56.2474828 20.4322633,56.2357722 Z" id="Oval" fill="#E8F0F8" transform="translate(20.453495, 42.501164) scale(-1, 1) rotate(77.000000) translate(-20.453495, -42.501164) "></path>
        </g>
        <g id="5.-Illustrations-/1.-Characters/Walking" transform="translate(196.500000, 230.500000) scale(-1, 1) translate(-196.500000, -230.500000) translate(117.000000, 93.000000)">
            <g id="Character">
                <path d="M112.176574,245.350467 L112.503339,260.08407 C112.503339,260.08407 126.650886,270.346799 123.03461,273.508799 C119.418334,276.670798 111.68571,270.346799 104.539787,264.122955 L102.362626,246.288982 L112.176574,245.350467 Z" id="Fill" fill="#016E80"></path>
                <path d="M89.7577489,226 L88.8911851,239.654079 C88.8911851,239.654079 102.154547,250.378065 98.2961966,252.987094 C94.4378465,255.596124 87.2463176,249.073764 80.6311536,242.695159 L79.9052119,226.012594 L89.7577489,226 Z" id="Fill" fill="#016E80" transform="translate(89.452606, 239.788344) rotate(39.000000) translate(-89.452606, -239.788344) "></path>
                <path d="M103.586392,167.936666 C110.56088,184.047731 113.555235,212.301063 112.569458,252.696663 C111.187951,255.92594 104.42961,255.92594 102.107727,254.202548 C102.107727,254.202548 93.5005869,206.652706 72.2039474,184.217805 C56.9057012,168.101899 26.2340156,157.766538 31.1146694,135.821378 C31.1146694,135.821378 36.8171469,134.145554 54.5485231,133.350467 C80.2659484,140.296869 96.6119048,151.825602 103.586392,167.936666 Z" id="Fill" fill="#00424D"></path>
                <path d="M122.412042,158.443378 C129.389068,172.815766 120.323994,198.450674 95.2168203,235.348103 C93.8348105,238.228882 87.846131,230.806938 85.5234029,229.269531 C85.5234029,229.269531 116.521211,191.189035 95.2168203,171.175268 C79.9130061,156.798561 44.9788989,146.118244 54.2658433,135.422467 C54.2658433,135.422467 66.1771643,131.101283 83.9149942,130.392 C102.602667,134.720531 115.435016,144.070991 122.412042,158.443378 Z" id="Fill" fill="#00424D"></path>
                <path d="M64.0060703,53.7089832 C77.8917373,50.8359647 81.3054927,58.0141972 89.5299195,65.2981189 C99.9465179,74.52273 113.622935,71.1455312 131.262584,65.2981189 C141.263291,61.9823923 150.862717,62.7038823 156.753037,64.6327088 C156.678938,62.3776481 156.715466,59.8955714 156.945067,57.2166757 C157.328606,52.7507711 158.141604,48.9049813 159,45.8178884 C143.751336,40.9006481 133.909784,41.9149401 123.744182,48.7243392 C118.186262,52.4471845 106.266297,58.1382202 98.8266892,51.4188725 C89.8163995,43.2808102 84.3717152,38.5690167 60.25,48.6499254 L60.25,49.813045 C60.3877608,49.7747596 61.2414606,50.7680217 62.1035095,51.7607445 C62.9645148,52.7529281 63.8338692,53.7445724 64.0060703,53.7089832 Z" id="Scarfe" fill="#F9C071"></path>
                <path d="M122.386711,139.683023 C122.386711,139.683023 125.61334,132.327737 126,126.761852 C126,126.761852 120.386777,119.624671 117.048307,119.011213 C116.534001,118.916429 116.107984,119.439844 116.282433,119.929031 C116.581337,120.766283 117.708343,121.865769 120.311253,124.59974 C120.311253,124.59974 116.797803,121.326031 114.854927,121.080648 C114.372533,121.019039 114.072033,121.596163 114.193829,122.062708 C114.429973,122.966835 115.226696,124.14952 118.657708,126.850843 C118.657708,126.850843 115.220845,124.881457 113.293394,124.923583 C112.930667,124.931482 112.714201,125.328518 112.903011,125.634984 C113.460397,126.538058 114.561874,128.301388 120.311253,131.699368 C120.311253,131.699368 118.649759,135.286068 117.807829,136.79049 L122.386711,139.683023 Z" id="Fill" fill="#8D5524" transform="translate(119.416667, 129.341511) rotate(107.000000) translate(-119.416667, -129.341511) "></path>
                <g id="Cup" transform="translate(124.000000, 132.000000) scale(1, -1) rotate(177.000000) translate(-124.000000, -132.000000) translate(116.000000, 122.000000)">
                    <path d="M8.36258661,3.01737697 L8.36258661,3.01375839 L7.99703485,3.01530921 L7.63148308,3.01375839 L7.63148308,3.01737697 L0.544918626,3.05201193 L3.34136339,18.6222354 C3.39118752,18.8993151 3.63611245,19.1014385 3.92194561,19.1014385 L12.0721241,19.1014385 C12.3579572,19.1014385 12.6023577,18.8993151 12.6527063,18.6222354 L15.4491511,3.05201193 L8.36258661,3.01737697 Z" id="Fill" fill="#00424D"></path>
                    <path d="M15.2225824,5.6682437 C14.5989941,9.14983251 13.9748813,12.6319383 13.3507686,16.1135271 L13.3507686,16.1135271 L2.55624002,16.1135271 C1.93212725,12.6319383 1.30801449,9.14983251 0.684426186,5.6682437 L0.684426186,5.6682437 Z M13.9937621,2.56532924e-10 C14.4573887,2.56532924e-10 14.8339542,0.370645758 14.8339542,0.828137383 L14.833,1.659 L15.227827,1.65989334 C15.6028192,1.65989334 15.9070086,1.95971836 15.9070086,2.32933024 L15.9070086,3.58962921 L1.37560054e-10,3.58962921 L1.37560054e-10,2.32933024 C1.37560054e-10,1.95971836 0.304189416,1.65989334 0.678657076,1.65989334 L1.072,1.659 L1.07252992,0.828137383 C1.07252992,0.370645758 1.44909544,2.56532924e-10 1.91324653,2.56532924e-10 L13.9937621,2.56532924e-10 Z" id="Combined-Shape" fill="#016E80"></path>
                    <path d="M7.95350429,14.7260609 C5.80424873,14.7260609 4.06250209,13.0087873 4.06250209,10.8908854 C4.06250209,8.77246654 5.80424873,7.05570983 7.95350429,7.05570983 C10.1022354,7.05570983 11.8445065,8.77246654 11.8445065,10.8908854 C11.8445065,13.0087873 10.1022354,14.7260609 7.95350429,14.7260609 Z" id="Fill" fill="#D8E5F0"></path>
                </g>
                <path d="M66.43475,50.7518747 C66.1633106,50.789305 80.4652887,94.6910075 88.7035264,100.77832 C94.1956849,104.836529 103.161436,112.737896 115.600781,124.482422 C109.72439,129.626517 107.529946,132.582532 109.017447,133.350467 C109.017447,133.350467 92,126.642578 85.9757805,124.482422 C79.9515611,122.322266 59.8583716,69.0273274 66.43475,50.7518747 Z" id="Fill" fill="#A5D867"></path>
                <path d="M46.443352,50.1595157 C46.443352,50.1595157 29.874001,102.13228 31.1889958,135.246423 C31.1889958,135.246423 60.5235797,145.997747 85.9757805,130.200272 C85.9757805,130.200272 83.3874211,86.5523604 66.450163,50.1595157 C64.1651838,49.4189759 60.8706717,48.6302667 56.856477,48.5799798 C52.4421117,48.5238703 48.8433346,49.3824518 46.443352,50.1595157 Z" id="Fill" fill="#A5D867"></path>
                <path d="M75.897152,24.680342 C75.897152,24.680342 82.3071401,13.3886335 73.466086,4.13662837 C68.8267314,-0.718163227 58.7506577,-1.48079332 52.4028156,2.81491335 C48.8801398,5.19899601 45.475278,8.880347 42.8277543,14.0513511 C39.8900406,19.7883489 33.7080966,23.0594209 27.4050207,21.9449712 C27.2854687,21.9242446 27.1632834,21.9088326 27.0432047,21.8796029 C-2.83004685,14.5450677 -11.8555162,67.0012636 21.4394503,89.1547379 L50.8570663,51.1125165 C50.8570663,51.1125165 58.5510533,20.8709116 75.897152,24.680342 Z" id="Fill" fill="#313050"></path>
                <path d="M61.3567433,22.8357036 C61.3567433,22.8357036 61.9067911,19.6429 58.6889844,17.7329284 C57.2190952,16.8605414 55.4171016,17.7528133 54.9265923,19.5990512 C54.5245713,21.1103048 54.9992401,24.6635863 58.8233556,27.1813225 L61.3567433,22.8357036 Z" id="Fill" fill="#8D5524"></path>
                <path d="M75.4773882,27.9026683 C74.2752245,34.509564 69.9980251,37.4495179 65.6186028,36.9022768 C60.8855722,36.3102324 56.9807568,28.2925642 58.885443,21.6504659 C60.7901293,15.0083676 66.4092666,12.0694805 70.6270097,13.3341087 C74.8447528,14.5992703 76.9559713,19.771925 75.4773882,27.9026683 Z" id="Fill" fill="#8D5524"></path>
                <path d="M61.3977297,22.4832993 C56.1378771,29.022283 52.661244,42.4285474 51.9618916,51.2801643 C51.9618916,51.2801643 57.1324543,54.9841509 62.408823,51.2801643 C62.433081,49.0866668 65.2074615,38.599785 66.2257805,35.9345966 L61.3977297,22.4832993 Z" id="Fill" fill="#8D5524"></path>
                <g id="Phone" transform="translate(62.420225, 34.543968)">
                    <path d="M0.441849061,1.18935289 C0.97939892,-0.129425305 1.99263581,0.281667424 3.48155974,2.42263107 L0.441849061,12.8520789 C-0.0957007984,6.3957064 -0.0957007984,2.50813108 0.441849061,1.18935289 Z" id="Path-60" fill="#6E421C"></path>
                    <path d="M12.5118174,51.0033559 L21.8733754,51.8908392 C22.1191082,51.9142073 22.3168609,52.0554897 22.4378723,52.2594871 L23.1031779,53.0457761 L22.5447794,52.9912699 C22.5359755,53.0329542 22.5247401,53.074833 22.5109717,53.1167117 L17.0289253,69.8049715 C16.8799393,70.2584339 16.4783711,70.5605671 16.0735989,70.5237857 L6.69922492,69.675711 C6.17216669,69.6278951 5.86458256,69.0388668 6.05842464,68.4493131 L11.553287,51.7216446 C11.7028071,51.2671313 12.1059772,50.9644726 12.5118174,51.0033559 Z" id="Combined-Shape" fill="#D8E5F0"></path>
                    <path d="M16.7346912,71.3003993 L7.3597832,70.4523246 C6.83325897,70.4045087 6.52514084,69.8154804 6.71898293,69.2259267 L12.2143793,52.4982582 C12.3638993,52.0432194 12.7665355,51.7410862 13.1723757,51.779444 L22.5339337,52.6674528 C23.0593899,52.716845 23.364838,53.3053479 23.17153,53.8933253 L17.6900176,70.5815851 C17.5404976,71.0350475 17.1394634,71.3371807 16.7346912,71.3003993 Z" id="Fill" fill="#313050"></path>
                    <path d="M14.3242142,54.2238327 C14.1891121,54.6347338 13.7405519,54.8606769 13.3224297,54.7277383 C12.9043076,54.5947997 12.6752215,54.1534225 12.8097895,53.741996 C12.9448916,53.3305694 13.3934518,53.1046264 13.811574,53.2380904 C14.2296961,53.371029 14.4593162,53.8118807 14.3242142,54.2238327 Z" id="Fill" fill="#F9C071"></path>
                    <path d="M15.3948846,54.2684959 C15.3462906,54.416147 15.1850225,54.4975916 15.0344345,54.4497758 C14.8843804,54.4014345 14.8021444,54.2432743 14.8507384,54.0950977 C14.8993324,53.9474465 15.0606005,53.8665274 15.2106546,53.9143433 C15.3607086,53.9621591 15.4434787,54.1203193 15.3948846,54.2684959 Z" id="Fill" fill="#5C7594"></path>
                </g>
                <path d="M78.7614176,101.056231 C80.4004833,98.8312599 78.3286575,99.70064 78.3286575,99.70064 C72.0291798,102.740105 66.9211216,103.597058 66.9211216,103.597058 C67.9525155,102.979327 68.7802889,102.410786 69.459733,101.885741 L70.5527979,98.5910024 C69.6128471,99.1082809 68.4793771,99.6079544 67.4979579,100.005622 C65.6648413,100.748142 64.0640541,101.955643 62.905065,103.525602 C61.528101,105.391222 60.7396694,106.805842 60.7396694,106.805842 L62.7785332,112.72529 C72.207813,111.386786 74.3700187,110.423167 76.8267565,108.150041 C78.6705061,106.443384 78.1213154,105.282485 78.1213154,105.282485 C76.1685783,106.7406 72.7272315,107.506938 72.7272315,107.506938 C72.7272315,107.506938 77.6662261,105.731932 78.7444049,103.907736 C79.8225837,102.084057 78.6795441,102.079914 78.6795441,102.079914 C77.1361747,103.655051 73.2865234,104.533234 73.2865234,104.533234 C73.2865234,104.533234 77.1223519,103.280684 78.7614176,101.056231 Z" id="Fill" fill="#8D5524"></path>
                <path d="M47.3021169,49.6959463 C64.8361219,48.1019106 31.5114189,107.855297 28.2301836,112.52285 C24.9489483,117.190403 57.4325698,107.855297 60.9209057,106.426019 C61.5918001,108.457941 62.2632195,110.490395 62.9341139,112.52285 C62.9341139,112.52285 30.8670816,146.032411 13.3272352,141.693379 C-13.4788511,125.192973 29.7681119,51.2899819 47.3021169,49.6959463 Z" id="Fill" fill="#A5D867"></path>
                <path d="M50.914594,40.1674213 C50.914594,40.1674213 56.0770598,42.5475517 66.7314328,41.5738857 C66.7314328,41.5738857 69.4550474,47.3965649 67.6022051,53.498031 C67.6022051,53.498031 56.4061831,56.1809637 48.8174267,51.7428219 C48.8174267,51.7428219 47.2899978,44.7115439 50.914594,40.1674213 Z" id="Fill" fill="#F9C071"></path>
            </g>
        </g>
        <g id="noun_Calendar_2080621" transform="translate(283.000000, 177.000000)">
            <path d="M3,11.3504672 L99,11.3504672 L97.8613662,90.4067439 L74.9354436,90.4067439 C73.9350029,105.035893 66.4782609,112.350467 52.5652174,112.350467 C38.6521739,112.350467 30.7343044,104.990231 28.8116089,90.2697576 L3,90.2697576 L3,11.3504672 Z" id="Rectangle" fill="#FFFFFF"></path>
            <path d="M98.0724638,7.82297155 L75.5301932,7.82297155 L75.5301932,2.93361433 C75.5301932,1.34457323 74.1884058,0 72.602657,0 C71.0169082,0 69.6751208,1.34457323 69.6751208,2.93361433 L69.6751208,7.82297155 L31.4468599,7.82297155 L31.4468599,2.93361433 C31.4468599,1.34457323 30.1050725,0 28.5193237,0 C26.9335749,0 25.5917874,1.34457323 25.5917874,2.93361433 L25.5917874,7.82297155 L2.92753623,7.82297155 C1.34178744,7.82297155 0,9.16754478 0,10.7565859 L0,90.2086407 C0,91.7976818 1.34178744,93.142255 2.92753623,93.142255 L24.884058,93.142255 C26.3478261,105.976818 37.326087,116 50.5,116 C63.673913,116 74.6521739,105.976818 76.115942,93.142255 L98.0724638,93.142255 C99.7801932,93.142255 101,91.7976818 101,90.2086407 L101,10.7565859 C101,9.16754478 99.7801932,7.82297155 98.0724638,7.82297155 Z M25.5515721,11.947313 L25.5515721,17.4018584 C25.5515721,19.1745857 26.935977,20.6745857 28.5720919,20.6745857 C30.2082068,20.6745857 31.5926117,19.1745857 31.5926117,17.4018584 L31.5926117,11.947313 L69.5445389,11.947313 L69.5445389,17.4018584 C69.5445389,19.1745857 70.9289439,20.6745857 72.5650588,20.6745857 C74.2011737,20.6745857 75.5855786,19.1745857 75.5855786,17.4018584 L75.5855786,11.947313 L96.8550725,11.947313 L96.8550725,29.947313 L4.85507246,29.947313 L4.85507246,11.947313 L25.5515721,11.947313 Z M50.3828502,111.406744 C38.7877582,111.406744 29.3828502,101.972898 29.3828502,90.3421286 C29.3828502,78.7113593 38.7877582,69.4067439 50.3828502,69.4067439 C61.9779423,69.4067439 71.3828502,78.8405901 71.3828502,90.4713593 C71.3828502,102.102129 61.9779423,111.406744 50.3828502,111.406744 Z M76.1672098,88.2750263 C74.7676559,76.0119911 64.5103392,64.2321692 50.918,64.2321692 C37.3256607,64.2321692 25.9987113,74.7750263 24.4884514,88.2750263 L4.85507246,88.2750263 L4.85507246,34.2750263 L96.8550725,34.2750263 L96.8550725,88.2750263 L76.1672098,88.2750263 Z" id="Shape" fill="#C9CBDA" fill-rule="nonzero"></path>
            <path d="M57.4278424,84.5 L47.2923077,94.6074035 L42.4776838,90.2697576 L39.2464016,93.3268325 L45.2,99.1663748 C45.8153846,99.7618214 46.5538462,100 47.2923077,100 C48.0307692,100 48.7692308,99.7618214 49.3846154,99.1663748 L61.0769231,87.8528897 L57.4278424,84.5 Z" id="Path" fill="#5E5D87" fill-rule="nonzero"></path>
            <polygon id="Path-75" fill="#C9CBD9" fill-rule="nonzero" points="63 40 72.7201808 40 72.7201808 49 63 49"></polygon>
            <polygon id="Path-75" fill="#C9CBD9" fill-rule="nonzero" points="79 40 88.7201808 40 88.7201808 49 79 49"></polygon>
            <polygon id="Path-75" fill="#C9CBD9" fill-rule="nonzero" points="46 40 55.7201808 40 55.7201808 49 46 49"></polygon>
            <polygon id="Path-75" fill="#C9CBD9" fill-rule="nonzero" points="29 40 38.7201808 40 38.7201808 49 29 49"></polygon>
            <polygon id="Path-75" fill="#C9CBD9" fill-rule="nonzero" points="12 40 21.7201808 40 21.7201808 49 12 49"></polygon>
            <polygon id="Path-75" fill="#C9CBD9" fill-rule="nonzero" points="63 53 72.7201808 53 72.7201808 62 63 62"></polygon>
            <polygon id="Path-75" fill="#C9CBD9" fill-rule="nonzero" points="79 53 88.7201808 53 88.7201808 62 79 62"></polygon>
            <polygon id="Path-75" fill="#C9CBD9" fill-rule="nonzero" points="46 53 55.7201808 53 55.7201808 62 46 62"></polygon>
            <polygon id="Path-75" fill="#C9CBD9" fill-rule="nonzero" points="29 53 38.7201808 53 38.7201808 62 29 62"></polygon>
            <polygon id="Path-75" fill="#C9CBD9" fill-rule="nonzero" points="12 53 21.7201808 53 21.7201808 62 12 62"></polygon>
        </g>
    </g>
</svg>